<mxfile host="www.draw.io" modified="2020-02-04T02:37:39.075Z" agent="Mozilla/5.0 (Macintosh; Intel Mac OS X 10_15_2) AppleWebKit/537.36 (KHTML, like Gecko) Chrome/79.0.3945.130 Safari/537.36" etag="O41etjk61OKtUC2jUwG_" version="12.6.4" type="github">
  <diagram id="Jf9X0fSGAOVAfLlGcACh" name="Page-1">
    <mxGraphModel dx="2353" dy="1300" grid="1" gridSize="5" guides="1" tooltips="1" connect="1" arrows="1" fold="0" page="1" pageScale="1" pageWidth="4200" pageHeight="3600" math="0" shadow="0">
      <root>
        <mxCell id="0"/>
        <mxCell id="1" parent="0"/>
        <mxCell id="HtO18c_mInnsINNzJjgo-5" value="" style="group" parent="1" vertex="1" connectable="0">
          <mxGeometry width="4190" height="400" as="geometry"/>
        </mxCell>
        <mxCell id="HtO18c_mInnsINNzJjgo-1" value="" style="rounded=0;whiteSpace=wrap;html=1;fillColor=#990000;strokeColor=#990000;" parent="HtO18c_mInnsINNzJjgo-5" vertex="1">
          <mxGeometry width="4190" height="399.99999999999994" as="geometry"/>
        </mxCell>
        <mxCell id="HtO18c_mInnsINNzJjgo-3" value="" style="shape=image;verticalLabelPosition=bottom;labelBackgroundColor=#990000;verticalAlign=top;aspect=fixed;imageAspect=0;image=data:image/png,iVBORw0KGgoAAAANSUhEUgAAA7QAAAE5CAYAAACgdmyBAAAABHNCSVQICAgIfAhkiAAAAF96VFh0UmF3IHByb2ZpbGUgdHlwZSBBUFAxAAAImeNKT81LLcpMVigoyk/LzEnlUgADYxMuE0sTS6NEAwMDCwMIMDQwMDYEkkZAtjlUKNEABZiYm6UBoblZspkpiM8FAE+6FWgbLdiMAAAgAElEQVR4nOy9f3wU1b3//0pIQhKBHTAYjEDGQv1R9cu21V7wXmXE3l6RKpH+UNuHshr6rbUPv42KV66217WKplexSKu1N6jLVa+0KIaKttYWhtsqrW1l+agfvATKJARMyJLsQtjN5td8/5idZLLZ3dk9M7Mzs3k/H495EHbmnPM+v2bO+5z3eR+AIAiCIAiCIAiCIAiCIAiCIAiCIAiCIAiCIAiCIAiCIAiCIAiCIAiCIAiCIAiCIAiCIAiCIAiCIAiCIAiCIAiCIAiCIAiCIAiCIAiCIAiCIAiCIAiCIAiCIAiCIAiCIAiCIAiCIAiCIAiCIAiCIAiCIAiCIAiCIAiCIAiCIAiCIAiCIAiCIAiCIAiCIAiCIAiCIAiCIAiCIAiCIAiCIAiCIAiCIAiCIAiCIAiCIAiCIAiCIAiCIAiCIAiCIAiCIAiCIAiCIAiCIAiCIAiCIAiCIAiCIAiCIAiCIAiCIAiCIAiCIAiCIAiCIAiCIAiCIAiCIAiCIAiCIAiCIAiCIAiCIAiCIAiCIAiCIAiCIAiCIAiCIAiCIAiCIAiCIAiCIAiCIAiCIAiCIAiCIAiCIAiCIAiCIAiCIAiCIAiCIAiCIAiCIAiCIAiCIAiCGKXIbgEArAfgtVsIgiggBLsFIAiCIAiCIIh8UGK3AFCU2cV2C0EQBEEQBEEQBEG4i2K7BSAIgiAIgiAIgiAIFkihJQiCIAiCIAiCIFwJKbQEQRAEQRAEQRCEKyGFliAIgiAIgiAIgnAlpNASBEEQBEEQBEEQroQUWoIgCIIgCIIgCMKVkEJLEARBEARBEARBuBJSaAsQjuPg9XrtFoNIguqEIAiCIAiCIMylxG4BrITjOASDwW6O44reeeed3q1bt1YdPHiwQi+cKIopfxcEAcFgEOFweNw9r9cLjuMwb968WENDw4kLL7yw+rOf/SyCwaDhfKSD53nwPD9GXp7n8f7770emT5/uiUQiPe+8807vwYMHhzPFMzAwUP7CCy9UJ8sqCEJWclxzzTWdN9xwA2pqaqqvuOKKtOVnNbFYLD5p0qShJ554YmDz5s2eYDAIQRAQDofH1IOewp9KfrWsVdK1g2S8Xi+++93vhm6++ebTysrKKjZu3Bj61re+VZVTxgg9hMS/UuIyCw6A2lDMjpsFLxSZAEC0KO4wAOteWvmBB+DLcD8A++vSDLTt08x607azbH7XEkzIApjfRgkimTqM9oFkwgDW51EWK8h3H+cTVyYKrY/zGM2zBHO+DUKWvwFj6zgV2vLWtgGRQS7CYkQAspGrrq5O7u7uDsdisT6e52We52WO4+T6+vqozIAkScfVuBsbG8PxeJwpHkEQ5BUrVpxas2ZNNwB506ZN7S0tLVJjY2PYaJ61eVPTufLKK3sFQWARVY7H41Ge52UAclNTUxdTJAlZ1q1b17Fr165POI6Td+3a9Yksy3IwGOziOM5QntXrb3/7W8/u3bvbBEGQAcher1cGwCpyyrKor6+PApB5npePHDnSYVbcLS0tEsdxclNTU5fX65XV+mppaZE2bdrUbkb5MPZDN5NtuYShvG/UK5cy9eclJ5kRkb28EkbzGcwhnJiPjFhMAzLnscE+0UxFQG5tWAJbmzB6iVAUCx8yD9ysREwhl1Y+1ivdt1y0JBdsmJHndPm0G712rDcB43QEuKePB6C8W91miuYHexlLOYY1+1LHNOr7lTepTAhGRBis1JaWFkmWZTkcDnerCsKaNWu6N2zYILEqHoIgyKzKoTYOlWTlWlUezczzhg0bJCMyq4q3EQRBGJGtubm5o62trUt7z2hd8zw/ktYbb7zRpirf2jIxg3g8HgUgG2lDqWhpaRmpo+7u7jDHcXI4HO7WpmnCNdHIx4fDn6/MZECE9fkU85QXK2lG5jw22yeaqQjIT9s3+5KgDH7rTC6PTIgmye7GfmRlPu2Eg758+WxjViDA/v7KcoWR/z7Oih/2l5eZlwSl7H1w/4ROThTUHtpt27ZFH3300cMAUFNTc8JIXNdcc02nUXkkSRr5e/Xq1d1vvvnmYfX/HGdOO9Pmed68eYbqs6am5oTWrNYoS5cunfbggw+eZlqEwBiz35/97GdzVq1aZYn5bllZWQUAXHLJJZb1kenTp3tWrVrVt23btqg2TSJn7gSwy6K4WwE8CeUDYTd+KLK0WhB3BMAmOENxN4pg8L5bCEJp+9vsFiRHagGsBPAalMGXH9YPvAIA9lqchso2OON9ofIgzM/7Xihtz06yUZbcoFBlQtvHIzbLkgsejPbxMJQ+ztsoTyYCUPqIVWOIfKO+X58H0ANlAteHCaDcFoRCO3fu3DMA4LXXXjtr4cKFc8yIs7S0tM9oHFqF9rzzzjurqanJFNm0HDhwoOj888+fAgDnnHNOxr2y2WCmQltWVlZRVFRkqpKmTgREIpGe3t5eM6NOSVVVleEy1TI4ODhm3/pFF110PBKJDJqZxgRkPRQl5WyY91FqBXAFlI9wA5yx51KEIgsP4BaYM8CJQPmY81A+eqIJcdqJAGUwlQkP3D/QBUb3CNYBmA6lHt1GLYAHYL1iG4BiCnk2lIkbK3gQSj3UwVkKrR9K3q+A8ffjrkQ8Xti/P1Uw6Rkno+3jPJQ25ibFFlDetw8AOASlXzhNsZKg9BEByvvBje/RTCyHotxKUNoSb6cwVlIQCq26spWNkx470cpn1grtH/7whxqPxzPdlMgsYMqUKabGt2TJklYA6OrqMrQCbxdvv/32GOVVq8weOHDAipW3iYQE5aNk9IO0F8qATTQYj5UEoOTVyOAmkojDj1GnE24nW0VVsFIIG1BXQT4L8we8ESiKTPJlJuqgV4K1kw0SlImbz8LcVcsr4Px+JEJp9ywKfQTAdYnwolkCGSSbdlIL9+3pTIfaxwXkr4+bnc5KKH3QqX4MJFj3HtWSqqzVy6pxoAfA9zA6scBblI5tFLSX40Jm5syZ0+yWIR2VlZXl6t8HDhywUxTHc8kllxT/5S9/GQbGlhthCD+UQcxyhrCqkufkgalKEMqgbidjeB/c79E4mWyVoTo4d1BlhCCUen2NIewuKOZpqlfNbNuGF8rgSEhcCxjSVvFAkX0TlPqxqh8GMaqcGZEXUCbQRINx5BMflLzXZvm8+k500ruiDvqWGCoCnCW7UYy893dh1KERkH27NbuP/zgRjw/O/NYafY+KGH2PGvFOrXqjFhJ/e5F9v83EysSlbjOSTIjTdly/Qrt69WrDpsF2YGSF9uGHH447eVW2pqamWv1baxZ88cUXG66rBQsWTFb/XrhwYY/R+OxGa9JcU1NTTWfVmoafMVwAzvzApkME24xuKwrHOZKKgOw/9rUovFValWawrT6KUEzSROQ2AAsm0lQ9nKpme0ZWOFYm5LDSPDEMpQ0YXakVDUuSf7Lt+05UZoHcVvELceJKBHsf92OsUpsN6fq4kdXE5bC+jxvByHvUnwgvwljfCWriU83Oz4ayr9oMC5OViTQKoo+4TqGtr6+Pbdq06UhLS0trS0tL62OPPTayquV0k2Mtv/zlL6MtLS2tu3fvPpzpvFeO49DU1BQ6cuRIpyzLkGUZ999//+RUz+7fv9/R9fnYY4+Vq3lobm7u1Nuvy/M81q1b17lhw4bWDRs2tO7atavj8ssvnwUAoVCo2KjjryyI/+hHP8rrxMGePXvQ1tYWCgaDoTVr1vSYZZo+AWH9iLhRyWOR2Y351MNn8fNuws76lTDqBMaIYrsA+VFqfRbG71SyHSw1wHnKLIfcFNpCnbxySh+/E87u40YQ7RYgBRKUiUezJhbUFXMRLjdDdrQClMyuXbs6Nm7cWHHzzTefNX/+/Nr58+ePmY0PBp323k1PaWlp5fz582sXLlw4Z+fOnfjggw86r7zyylPJz/3gBz/oXLVqVZV21TMdBw8eNNWBkZUsX768+tChQ1i3bl1Kb9L19fWxQ4cO4a677qq+4447au+4445aVZkFANVMNxPBYBAcx+HGG2+MiaKI5Ku5uRmXXnppvyiK48I2NDT0z549e/KBAwcqWfIXDAbHOAVTycZr8pw5c6oWLFhQ9eijj07v6enBbbfddpxFBoJpn597XiKjsMzkuWf2Lzs4KLPNubASLv+AOxx1z58X7HtuF8D6gXsQxvbdCybJkU/4LJ5xmrdmFR+yNzdWKYgVqCSc8q1SHQ2xeltXlVon4vTvpITRiYVbYEyxXYxRU2tXMiH20GoVFq/Xy2zuK0nSOCWF53lTPANfeOGF1cuXL2/9/e9/P+aYm66urjLWOFV533rrrVOyLI84HyoqKiq5/vrrT8vWvFWSJPz85z8/NX369KIvfOELlZlWlHPl4osvllP9vmrVqhAAQ16hm5qaYpFIpGLz5s0VmzdvTvdY2W9+85uIIAhjPpDvvfeePG/ePIiiWBIMBpGprMLhMO6///7Ynj17itTfdu/eXb5o0aL4u+++O2Y1ncVr8rFjx+g4n/zh9A8YkRrWAasPhXFUUTIiFCdLTkCCovQFkPukA6AMtPywtp7WQ2lDuSpKgLJa6DdVGusRsnjGqUogi1zLoQz6JVMlsRcnfavCGPXuzdLHF2C0DxJsBDB6/ux6sL3LPFA8InvhwrpwlUK7fPnyWatWreoLhULln/vc51rPPffcwS996UvzMoW5//7744888sgYpWLp0qXxN998c8xvHMfhM5/5TLyurm7oX//1X8esyi1btmzgzTffLE2Xxp49ezIqPKmIRCI9Wk+9+/fvL37uuefG7f9qbGycripjPM9j3rx5sQceeODUnDlzdM9f3bFjR399fX0ZgHFnwTY2NmLZsmX9L774YlkmBb+5uRnXXXcdtHHs3LkT6ZTaVKudKocPHw41NzePrEIfPXp02jPPPDMr1bM33njjnPXr13decMEFI/tuKysry7NZqVZ54YUXyhNxxb/+9a9PTuQDgNIGPvjgg9L29vZxK6bhcBi7d+8eaR9NTU2xp556KqVSGQ6Hcdlllw19+OGHFQAwdepU+eTJk0UAxsSRjlAoVAxgRMkVRTH04IMPjtRtYlKCaZWYICYQPsZwDVA+/k4aHBYqvsS/LAPeB6AM1iSTZEkmnIj/ewxhF8BdyhIP/b3mD8KZ+RHA7hSnAS4cpLsMX+Jflj7+PSh90Ckrz24lAMWqJQA2x5iAUhccXLxaaxciAJn18nq9sgqAkb83bNggbdiwQerp6ZEvvfTSfm2YpUuX9skaDh06NHLvhhtuiKrhBUGQZVmWX3311b6pU6cOq88sW7Ysft999438dvvtt0flFGjlkWVZVuOTZVnmeZ45z9p4tXFu2LBBqq+vHyPLBRdcMKCG+f73vz+4c+dO+bXXXhuJ58ILLxzUhtfGJ8uy3NPTI2vzfsEFFwz09PSkyq7leQYgf/DBBx2qrBs2bJC06ba0tEjatKdOnTp84403jtT1okWLYtrye/XVV/tmz549tGfPnjEya8sHgDx79uyhdPn90Y9+dCq5XB5//PGB5HpSaWlpkZLrTM1HPB6PGi2fxEUoiJgYZedH7vn02yCnVdTBWH/x5V1i6xHg3DYhMsgmw3rzV55RLhn2n8maCw3Qz49T9zQ2g72OwnBuvlgQ4Nw+zlpPYp7kyxY/nFvG2eCD0u5Z+0wg3wIbwVV7aFOht2+W4zi88847pRdccMGIyW3yii3P81DvP/roo+NW4lasWDH59ttvH1lN3b59e9natWsnt7W1Fd13333x2tpaOVe5U+2vNIMFCxYc0/7/4YcfHlmFv/LKKycJgoC6ujo8/vjjgwDw4YcfTsq0qspxHL75zW+OrKo+/PDDJUZMto2yc+fOrD0l/8///E/R008/nXaVdMWKFZMPHz5cnLy6/tZbb/Vq/9/e3l6crp01NzdPAoBbbrllxJT97rvvLtmzZw9uvPHGeLayAkBbW9sx/acIgkjC6KqL3wwhiKzxgc2JzEpYu+dZAtsZrYCSJ7coSz6d+5vgTIsFHuwrToBiTukzRRJCDx/Y+vhiFM65wU4gAGXig3Vv7Uq4SKl1vUKbLTfffHO/+vf777/fn3z/oosuii9atKhPux821bEwixYtGlGoOI7D2rVrJyebKDuJdMrn3XffXTJ16lQZAN5+++2MipfH4xlS/66ry8W5oL2w7pfevn175ezZs4e/+c1vjkyC/OIXvxjnsCuBDADPP//8GC/bXq8X//3f/61rcqwl2ckZQRC68FAGQUaohTsd+7gVCewrmlabjAYYw3mQm+ddu/BC/wxRp642+0yIg0yO84PqEI4FqiNzCULp96zH/LhGqZ0wCu3Xv/71EaXz7bffHki+/8c//rFiwYIFg9rf8nAsjK14PJ6cV5YLHUmS0N7eXvzCCy8U//SnPx1Z3X799ddTKqef/exnZQD46KOPSi677LIhq1beCYJIiVmDH79J8RDZsR5sKzhWK40i2D0y+80TwzL0+ssuOHcPoxl9vRa0SpsvnNrHJyJGz9xeCRf0m4JSaDN539WaFb/xxhtjVlSDwSDa29uL/+Vf/mWKXhqHDx8e8TosiiJ27NiRlQns0aNHUx5PYxeiKEJ1iPS1r30tp5XEQmbHjh39gNKWOI7DVVddFQMUhTXVOcdr166t8HgUZ3IffvjhpLPPPhs33nhjzE1nIhOESzHTacVi0BE++SQMtuN4amF9PbGuUNbC2YPxbM5vDeRBDhZ8YPPami4uIj8EGMJ4QGbHVmBUqX0eDq+XglJo9VDNjk+ePFnU3Dz6Lf3tb38bBTIrxCrt7e3F3/nOd3q//e1vR6644gr89re/zWqfZDQazXrvp9UEg0Fce+21MgBcffXVA7l6aC5ktmzZMrRo0aKROv3a1742Sf1769at40zVOY6DKIqYPXv2iKfizZs3V/A876pzkQnChdTBvEEu4I4VtkKC9XxZwUwhUtAM9j1nTjaX1OsvrXC2QmsWtE8zfwQYwwkmykCMEgb7/mZAeTc61lfAhFJotWbH2j2Rzc3NkxYtWhTPdr/l3r17S955551xR+E4nZtuumn4xhtvjF1++eXyyZMni26//fbYSy+9lPY4oonIO++8U3748OFSdYW1p6dnpI+kMlUHlP2yH3zwQfF9990XV/clRyIRXH755TIptQRhGWYrD3Vw8Me6AGFVaHkzhUiDnzGck5Ulvf4SyIcQDHhhfJ98Mk6eeCgkWAdAvJlCEGMIgn2CqBYO7jsTSqFNZXasnjm6ePHiMftnd+zYkdJBz6JFi/refffd8g8//LDk0KFDuO2227JeIVAV5kgkMs7ZVD5ob28v3rx5c8XJkyeL7r333shTTz1VweqxuBARRREnT54sam9vL54+fTqKioqwevXqkX20f/zjH1OeRQuMOghra2srWrZs2YglwDXXXDOcLgxBEMzoObdhMavywMEf6wKFpZ7yoTAGwL6K4cQ2JEDfGVTAejGY0CtPltV0qz1mE6Ow7El36qRQodAM4EnGsA/AoX3H9Qqt1iuxlnQKabLZsWpGev31149Zcc1mDyTP82nTT8WSJUtaAaCrq8sWZ1OLFi0aMZmdOXOm61aY9dDzErx79+7yTPffeuutUwCwbNmy/vPOO2948eLF8Hg8I+bE7e3txXpOnziOw/bt28vUI3va29uLMx2LpKWnp4d1AEUQEw29Qa4PbAqJjyEMwQ6Ls4F8zcKy7qV1orLk07m/CYr3aaeht+93F9hX032M4YjckOwWgEiJH+xbKwLmiWEeBavQplNItWbH//mf/xl/5ZVX5KlTp8oTYR/pu+++W6auHq5fv744VRldc801jnJelU9ef/31yVOnTpVffPHFsldeeaV4eHgYkiThwQcfHFm9V51GqXzjG9+Ir1u3bjA5rkzn36bj+PHj5EmKIPThoCgN6dgGxawqwBA3eUHNL6LdAmTAyPE1PrOEMAG9/gI4dIAKfWdQAbCvpjtxJb0QkewWgEhJGOx9YDEcuM/Z9QptrmjNjn/9619P/vWvfz152bJlUbvlyhcvvvhimcfjQXt7e/H9998fS75fWlrqGOdVVqE9S1glHA7jo48+Klm2bFmU4zhccMEFOHnyJDiOw6233jri2Tp5H60kSfLq1atLvvvd744rSxUy6yYIU/Hp3Ff3ZrIqJHrxExODMJSVSxacpCzpybIXzp1YyCR7BKOKOEtf94D6OjGxaUYBHVM24RRaYNTsWCXZ3DhXnnvuuf7vfOc7vcaksoa///3v/QCgHi3DcRyee+65OAA8/fTTFVpz2IGBgZQmuZFIZFKq392E1lR49+7d5clmwM8+++wgAHAcN3I2byqHTps3bz7tueeeG+ft+Omnn67QrtTefvvtcQC49NJLyYs0QZhLtoNcCcpqba44cvaZsAU/YzgnKUs+nftGVqKtRIBiMZGOQJq/c8HPGI4gCgU/YzjHHXU3IRVardnx1KlT5bo6/aPjtm/ffhoAfPjhh5O1prrhcBh33XVX2UsvveTIPakPPPBACaB43d26dWscAFasWDFZNT2+6aabhtX8vP7669XJ4cPhMLZv3z5SXrl47dWevWuWI6x58+YxtdlvfOMbY5TQm266acRZ03PPPdevOn/au3dvSXLYZBoaGkpTKbWrV68umTZtmjxt2jT55ZdfnuzxePDGG2+QF2mCMI86ZD/IBWiV1unwDGHy6TpeAtukCOAMZUmvv2gngJyG3sqytm9LYFtNrwVNXjkRyW4BJhAi2M+mdZIlysRUaLVmxzfddJOuia1qjgoozqT+6Z/+aXDNmjWRSy+9ND537lw5Eolg7ty5Q1bLnSuiKKK9vX2kjh9//PEi9e8XX3yxbOrUqXJ7e3vxY489lvYs3e9///v92jiuueaa4WwcZgHK2bsLFy7sAcxzhHXOOeeMKKIej0dX+VThOE5etGhRn+rgyePxjMTD8/zwvffeG7n33nsjPp9v3H5YALj99ttjixYt6lu0aFHfhRdeGA+FQoMAsHr16qKdO3eip6cH9913X/zCCy+MX3jhhfEbbrghJknSOHPj9957z3HthCBchE/nfrICK4K8oDoZniGMZLIMerBOijhBWcpFKXQSPIDlGe7vwvh2EGBMy1GD8gJEYAgjmSwDkZmCmPjNWiEoNLZv317S1NQUv+eee9IexaISDodxww03xFpbW4sA4PDhw2U/+tGPRhwVTJ06Vf7hD384BIeVJ8/zuO2223rVVceEslYGKKbHv/rVr4p+/vOfx2bMmJF2FXHJkiXy+++/P6L0f+UrXynhOC7riZCampoTAKaz5yI9l156aUrlMxVvvvlmspOmkbpasmRJ+ZIlSzJ6QH7qqadStpMVK1aMxLt27VpdR1DHjx93vfk2QdgEj9wHuYCyUvY8Q3o+OGOVrZBh2Y8hmi1EFunthf6xN6nwwz6llof++a0B68VgwqdzP5DiNxFs9bQcSllJOYYjsoNnCCOaLAORmWYoSm3Wx5Am8ECxAmE9U9xUHKWAmU0m81Se57NSQNRnX3755UyKbxGAnL3amkEmE2Ce5/Gzn/1sSrr7giBAEISMCv2KFSsmr1ixwoCE7iYSifR4PB5LFHKCIHJCbyUlkOZ31o91QyIceR+3Bi9yr5MI8mtyrLIebJMi6j4zyUxhskSvv2yDc5U4X4Z7mcykWevJr5MmwQaPzCbvqYiAFNp8E4byndTzhp4Kxyi0rjc5zmT+qjVPLVSyNf+1m7lz555htwws2HVmMEEQ4/BluJdpkBvOcC8T6uwzYQ0+hjB2DZwCYD+z0W+eGFnDwb3OoHzIbZ988j2WI3zqkL/zjScSLO9PRyhHExDWchfMFMIIrldov/jFL1pyzIxRRTGTE6T58+fXsnq+5XkeW7Zs6WYWzCbKysoqtmzZ0p3u3GAjHDhwgHWg4Sjmzp17hhXlQxAFgA/651FmgnXw7mcMR+jDMti1UwljTdsOZakOmftLK5y7CubTua9XD3SEj3Ng2Z8cMFsIIitExnC1cIi/CdeZHK9Zs6Zn5cqV0ZKSksGZM2dOs8ocNBgM5uR0KJnEyt4Y2S655JKRCYQ9e/bg6NGjnW1tbf3vvvtu2euvv16dfJQMoOx13bZtW8fll18+S/PzDFa57OSrX/3qjK9+9asAgI8//vjIm2++WfLQQw9Vp5s84HkeV155ZWzBggXHAMUJFM/zVfmTOL+UlZVVHDp0CAcOHGgNhULF27Ztm/Kb3/xmei6epQmiQDHq3EaCYmKZaQ9uKlTHPmKO4YjM+JC7KeIu2GNurBKAMsHBss+sAfmdHNHrL/58CMEAj8z7ftPtk9cSAPAAQ9rqFgPCHHxg6+Oi6ZIQ2RCGUv56++5TIcABExGuUmgbGxsj995773RY5GQomVycDmVDVVXVGBPompqa6pqaGixcuBB33XUXrrvuOjQ3j131/8EPftCZpMyOQetFd+/evWeoyh8rRpT4XDjvvPPOOu+889DV1dXT2Ng4rj7r6+tjGzdurABQgdxfiqYxc+bMaWbG98///M8lW7duzfjM/Pnza+fPn4+FCxfi0UcfxRNPPNF59913jztSiSAmCF5kdvSSzSAXUAaruSq0gL2OfQoRDmyKg89kOXJFNV3/HkNYH/KnROr1lwica9bp17kfyCIOCcoRPrnuB6yFUk/ZpEFkhgNbeyeP0/Yigk2hZTM5NRnXmxwXEqeffnos+bfXX3+9emBgIJoujNZ0+eDBg7oem/UwW4nXY//+/Smdad18880s+2BMxwkOobq6usrsloEgbITVGVQyItj2QTruAHmX04zcVzkfhDMcGBk5wsdnohyZyKa/ONH5BofMZui5nJmb7XPJ+BjDEWMJIPeFiCdhrwUGwV7+jlBoXbVCu2bNGk9LS0tsxYoVoSlTppT29vYOXH311XPSPf/RRx+Vz58/nzk9Kx0Zffzxx0fefvvtEeVxx44dtc3NzeMUUlEUcc4551ReeVzYz/kAACAASURBVOWVsU9/+tP9LS0tZY899lj/9OnTxw0IOI7D3r17mWWWJIk1aFq0nqb/67/+68hrr712lmpiLEkSJEmqTBVu+fLls37wgx90Xn311YMlJSWDgLJymSmteDzeN3ny5IzH79jNpk2bKq+66qoINAM6rSl6JBLp2bZtWzQSiQwCyqr7s88+a7tSTRA2wSHzSksug1yA/QgfP2iwawYB5L4CsAvOMZGVwLb6ByiKZsBMYVKg118A55rV6u37DeQQlwi2I3wWg7YYGCWA3C1h9oJWZ52AxBjOEQqtExAByKxXfX19VE4gCIL6p+z1emWO4+Rdu3Z9IjMAgCWYLMuyfOTIkY76+vooALm7uzssy7K8adOm9paWFkmWZTkcDncbyTPP8yNpafMsCMJImezbt6+9paVFyuYKh8Pdap7j8XhUZuCDDz4YyXNzc3OHLMuyGr8sy3I8Ho8aybOab1W+DRs2jMS9b9++dgCy1+uVd+/e3caaBy1qHZlFR0fHkcbGxnCmfMiyLHMcZ6iMEhehIGJilJ0fuefTb4OcLDQgcz5yHZxzUFanci2vMNzlBVWAs9oEB2Wgm6tMQTiv3L1gfzcLFsum11+camoMKIPpTLLzOcbn04kv3RUwkId8IsBZfRwonD6u4ofzythqWN9ttuOqFdpUPPvssxUbN24c89vhw4dDn//850+79dZbj/34xz+uXb58edZei71eL2644YYIAM+//du/9dTU1JzYu3fvGQcPHqxQnTZxHId0XoqDwSDC4fDIfsdVq1aVvvrqqwiFQiUABoHUDqNyQZIkHDhwoHX+/Pm16qpqa2trN4AZGzZsaN2xY0ftokWLzso2z9r8XH/99RWXXXZZ5+uvv16dyEvaZwFlBTnxe7XX64UgCPj3f//36qVLl8befffdEtWEua2t7RgM7oWVJAltbW3Hkldqt2zZUhUKhU6+9tpr8aVLl84x4qHa6/Xipptu6nznnXemAsDevXtDR44ciTU1Nc0RRZHZ+7UgCDXXXHNN5759+3oBoKGhYcbTTz895plIJNITDodpNdZeRLsFYIC3WwALMeoMKhnWfZB2OPYpFLxQyjzX1bK9UAbtTjOPDYLdeYoP1r5jzDLPzzcCMo8Pst0nryUApb/mOu5YmQiXa3oTGR7KZEmh9PGJTCvYxuo8bO4zrldotQSDQfzud7+L/P73v5+ycePGcgC1d9xxR8YwR48e7YxGoyNH/3z00UflPp+vGgAaGxuncxw3/bHHHgutWbPmGAAMDg6WaE2Fk/nZz35W8qlPfWpGWVlZBQC88sorfV/5ylfw/vvvV1977bWtAPDuu++aVu6SJOGee+7p+/jjj2fs3LkTSMpzJBLp0TtL9ejRo5OXL18+CwCam5shimJ1IBDoXL58eXU24SsrK8trampGlPjW1tbuc889dwaAs95+++1WQCk39lyOEgqFilUz8qNHj07evXv3cZ/PJ59++ulVq1atmrpq1apxx/jo1ZmWo0ePTtN6XvZ6vVUAUFdXh1//+teH586dW6ZtL+niP/fccwc/9alPlSSVzUgZffvb3w5t3Ljx1NGjR6cBOAEYn+ggTIFlkEpYQx3MH+QCihLsdMc+hQAPpbxWMoTdBqW8nTrQXQ+2d4WVypJef2mFc1dofTr3A4zxBsDm8dgH6uvZwIO9j++C0mad2scnKhJcqtA6ARHsS9wyMGoWqpprrlu3rsOIeei6des61Li3bNly3EhcsizLK1asOKWVc8OGDZLRPKtmqqqZcWNjY9iIjDt37uxS4zYalyzL8jPPPHNCK6cZeQYgb9iwYUx8Pp/PqKjjOHbs2EltmkbbUzrUulPNjzdt2tRuRhnl2P8KGRHmlGchXn7mUs0fzcicB5+FcVuRZj4RYE+b4KCUEWv5ynDPXjoJbPmzag+rXpk7tVx5ZJbbiMLD6cSdKU2nmsGqCHBvHzdDjnzgR+HmLR0i2OpUyL+oYymoFdpVq1b1Pf744+UPPfRQ9QsvvIBsz+/0er34/Oc/H1uxYkVoYGCg7Cc/+Ul1fX197G9/+1vF2rVrZ1RWVh4+44wzBnbv3j2JRa5IJGLZ2amBQKDb6/XOaGxs9PzmN7/JKezChQt7Lrvsst4ZM2bgzjvvnOPz+dDc3IzGxkZPOBzuqampOXH06NFpf/rTn3JaNbzmmms6X3jhhWrA/GNvkhFFEbfcckvWDq0WLlzYU1NTk3HFWRTFmU1NTaFVq1ZVbdu2rbOhoaEaQOeXvvQl7Ny5sy9T2Gw5evToNFEUpzc0NEBdzVcdQREEAR6ZHYvk6gwqGdYjfPLh2McufEn/F7MIw2suveNi9NiVkEEyEEc+8YPNwZgvEdbMlSke1vYXK/Hp3A8YiDsMNideHiirh0bSdiK+pP+LWYThYW4fbwB5M3YyElxqqVZQCu1jjz1Wfuedd3Ymm4RmQ19fX/kDDzxw+tatWyubm5s7ly9fXt3f3x/7h3/4h4ply5bN8Xq9uPXWW1mOfMDy5ctDd9xxRy8SJqdGPBEnU1tbO6Onp4cp7NGjR/sPHDhQumjRolnBYDC0YMGCKr/fryrI01esWDF57dq1PfX19RkVwFRce+21rZWVleUej6caAAYGBkz1Pvztb3/7jPfffx+f+9znWgHgc5/7nG6YefPmFZ9zzjnDyb/v37+/+ODBg8PPPfdcbTAYhNfrxapVqyoBYPny5dXr16/HT37yk+o//OEPWLJkSc5tIFW6c+fOLX/00UdzjYogJgo+nfsBg/GLYNsrtACF6wW1FmPNMx9I96DJqF6MxTylZxYBKBMjuR5B5IHSvs1cqdVbfW2Gc007fTr3jZbTerCZxPpReAqtXX28FYVZnoWIZLcAbkYEu9mCDEAOBoNdZpmBAmM928bj8ajWq7AZ8DxvKL/AWO/ORojFYn3JeZYk6TgAeffu3W1mpKGWodE8A5Dr6urMECklfX19MZ7nx3iOlmXFNNgqs2Mta9asMeT9WnMRCiLMKc9CvPzMpZof9DwR8yak4dNJI90VMCFtqxFgfxvTu5rhADM1g/jBlnfJZDny0V+swIfMcosmpSPqpJPuEkxK3woE2N+Hs+njmc4Wdjp+5J5nvw1ymokfLu0rBbFC6/V6qwRBMByP6giov78/ppqBlpWVVXAchyuuuALnnXfe8U9/+tODpaWlzGanW7durTXjvNdnn3224tlnnzUcD4DJyT/U1tbOAIBFixbNUT0acxz7dpJgMFhhxPOwlubmZjzxxBOdpaWlfZdccklxVVXVuBXXuXPnnlFWVlaRyaFVKBQq/stf/jISdseOHbXhcLhckqSUeX3ooYeq582b13nBBReM1P3g4GDJe++9x2wq7PF4Si699NLB/fv3F2/durWKzpslCADKIDfTqherM6hkmsG2wrYS5AWVlb1QJgSaURjltx5sq1y1UAb6Zjhp8iE//cUKfDr3AyalEwCbGaUfDhiou4xC6+OESygIhRYYPT7GDG6//XaoRwH97ne/iwSDQU8ijdNNS8RhbNy4MbRq1aoqAHjllVe6AcwAkPU+5Hxy9913V+s/BUDxGJyzkhgMBrFx48aQIAinBgcHSyRJOiscDqOuri7bdAn3coXdAjDgA5tJnVPx6dwPmJQO6xE+gGLi6VQnO05kE5TycqrZKyusezQBpTzMUGjdelQPj8xKppn7fgNgO8JnMch7a7Y43TM5kR1Od4bmaETYbxYx7uJ5XvZ6vbbLkc/L6/VOuDwX6EUoiJgYZedH7vn02yBnNniRWW6zB0u8TnqZ5HDyh19A7nmSoPQZiSFsNlfAqszaDA/2Mkl9oH326PUXyWD8VhJAZtnN9gbt10nPbe1WgDP7uJPfi7niR+5l4LdBTjMRwVb3Qv5FdR4irOlYdNE1US9CQcTEKDs/cs+n3wY5syGAzHJbceRJIR7hI8B4mxAwuopo1rspiMIa8KqwllHAYLoBnfj9BuO3Cg753/dbaEf4CDC3j+vVx0Ts434YL2O3IYKt3m2v82K7BSAIgiAIKB9EPQciVii0rHH6zRTCgYhQyqYOytaNW6B4KzXCgkS8tg9+TIa1Da0Eu+LGQd/U2aozb41Sh/zv+1XNw3PFg8LdXiBitI9zoD5OsNeb7abmpNASBEEQTsAHe5zbiGAbxNXC3R48c0Hdb8xDGfRGDMRViANeEUr7ZMFnUbhNcMAgMw1+nfsBi9JlVfB9ZgrhYAKgPj7RYTlneK/pUjBACi1BEAThBOx0buNnDFeoKzeZCEAZ9LIqcIAyaAqYIIuTCDCGY21DeuGcujorILNzJjOdQSUTBFu7rcXEUWqB0T6+zUAcC2CO0zMif/CM4SQTZWCmYLwcEwRBEK5FgL4HUh+sG1SyriQsxsT0ghqGUmcBsHvYXg5lIsFvhkAOIAA2T7oeKO06kEMYQSedXVCUNyfiy+IZ0cL0ecZwPhTeJEwmwlAsUAJg7+OLoUysTMSJPzfCM4ZzxLvGCQqtIwqCIAiCsI1sBjyLLZeCDT8m1uqNFl/iX9YB7wNQxgCFspKzHsCPGcL5kZuy5NajerLZ9+uBM/v6YigTCaK9YuQdX+Jf1j7+PSh9PGCGMISlCIzhRBNlIAiCIJIQkbunPjfih7s9MfIwx7umnZfT9ooJyG+bMOIJOQzzPdraRTbee9NdQpZp8DrxOHXfLMB+dI5TroDZBWIAAfnt4wGG9LRt0ugRVXbgR37L2G5EsNWvI75/tIeWIAiCsBOf3QKYwEQ3qfOB3TGIB4WzQhsG+97VbNuQT+e+U/fOAu7v6ytROJMvudIAY308AIcoPkRaFjOE2QuHTKI5weTYh9EXBAdgFoCPdcKUJ54rB9CX+FdK/J0OHkAZgP7EvycAdOikkxzmGDJXnFYuJOTpyFEuvTRmAZiG3PKRaxiW8gWUvKhhnJgXIPc68QDo1EkjWaZ+6O+pY8m7Vq7yxPOpytevEw9BOIlCUAZ9mNj9LgylDERk9lSdjgUonL12ASim1LmyHNntx3aruXEdct9f7EQaUBjtNFfUPbVBGOvjPhNlIsyD1WN/wEwh3I6I8cvX3QCiKX6XoQzi0y17d6X4LZwhrlTPq2nkGqYtze/RNHF15ZhGN9KbMmX6vTvNveMmla9eeaWKL5Nc6dJgqcdc6yTXNKIMdcJSj7m2R0JBRPq2nO5yI37knk+/DXKmwofcZXfq5TO1ZIwhwJ424WNIV3sVyjFIAbDlP6ATr89geDsRYX8fNeMKwxkrjQLs6eN1DOk69T2phx/2lLEdBMBWn3z+RU2NE1ZoAQC33Xbb8Y6OjtNFUUQ4HJ6e+DkGoCLx92EAcwBUq2EEQQAAhMNhBINBAKiCojDMgLKqVg3NTJLX6wXHcZAkCZIkJT8PTZhqhjBzAIDjOHi9ylYBURShkV/Ni/p8VYbi0KYRgbIqp5YJeJ4Hz/PafHuSykoNkynvM/TyrpZvMBhEOBzOqrxS1El1irzkUicsYVjrZFwamjBVmudVmSrUuHKok1zqkaVOToIg3INP574d5kwc2M7ia4CzFYp8EIAy0F5pIDwPh5iwGWA92MqgDqP7cFPh0wkfYEgzH/DQN2c0cgwUKzzYvFKr3n8nIs0AnoTi7ImF9VAmNyST5CHMgWUycS+oHscgApBbWlokOcGWLVu0q4djVvLq6+ujkiQdl5MIBoNdHMfJUBSHkTCCIMi7d+9uS34+FAqdSDwvI2m1Ml0YSZKOa8KMpMFxnLxmzZru7u7ucHKYpqYmdQWtB0kzG0uXLm177bXX5J6eHlmWZbmnp0e+99571VW6ODSrbzzPy83NzR3xeDyqjb+7uzvs9XrVOE8A+CQ5TLJMKcKMKd+2trauDPmQoZgSj4Spq6uTP/jgg3HpaMrrVKJeZACy1+vNRq4QNKuSgiDIb7zxhl49diXnRadOYtm0FY1c0WzqJB6PRwVBUOU4mUgnY5i+vr6YJu+fJOcjVflq2rxaXurfhIKI3Gcb3Ygf7pxF9sK5s79WO/axGgH2tQkOyiCHpfxkFI7HTBFs+feniU+vvzj5xIj1cGad+3TkSndJ+Rd1HALsfe8HGdJ3Q1vV4oc7v6254gNbPfryL6qzEYGxCq0sy1rFrg1Ir5yodHR0RJcsWdKXCNMtCEJKJUvLm2++eQrKXkoZUBQavTCNjY0jAx2O4+TGxsZwsnKipbOz8xTP8/3avFx77bUdhw4dSvn8rbfeGi8pKTmlppFOKdVy9OjRPowOwKRswrz11lsjCmY25SvLsnzPPfecVMs3mzCxWKzvuuuuU/MezaZ8//znP59EkiKrF+bZZ5/tyCUvHR0dUZ7nVSWzXS+NWCzWt3r16nFKaSaZEop2JJcwe/bsCeVaJ1//+tfHTC4kLkJBRO4vaDfihzs/ugFkltFOR0H+NDLpXYH8i5oSAfa2iWwmK5zePo0igC3vUpr4AjrhfBbkwQyy8fzss0s4sE++2G0eL8D+Ps468SfD2c7LVPyYGO8ulskJp5jeOwoRGFVoY7FYX319/YiSyfN8LBQKncg0qH/kkUd6NStVsiAImR6X+/r6YmvXro1qw/zpT386lSnM/v37T2hW3WQAcjQajad7vr+//9QjjzzSq32+qKgonk6R3bx5s3zmmWeOezno8ctf/jKszccTTzzRnun57u7usLZ8AciiKB7LFObUqVP9SXWiq2Qmly/Hcbp5Wbt27UltmN///vchvbwk10mq1XuVWCzWl2tb+d3vftfD83xOddLc3NyhDbNu3bqMZdXX1xerr68fs0d2165dn2QKEwwGu5Ll0lyEgojcX9JuxA/3fXSdPsjl0siUzcXnX9xxCLC/TTQwyKC9BJPlsQMJbHn3JcWj11+cbKLtQ+a82i07azsVbZBViwD7+7iPQQbtZfekgB5+2F/GViOAre78+RfV+YgA5I8//vjw5s2bxyg0AOS77747rdL48ccfR1MN6uvr69OumL733nuR5DA8z2dUUO66666+5DQyhXnvvfdOpJLrjDPO6E71/Je//OVTyc8CiilvOg4ePKg1zx25MinZzzzzzInk8tUL8/LLL59KDnPPPfecTPf8/v37T+ZaJ6nqUa9OnnnmmRPJaXi93rTPp5PrmWeeSTlZEo1G48nKMpBZMU8yNR65Mq3gv/322+Hk8uU4LmOYZOU3xUUoiMj9Je1G/HDfx0hvEGn3IBdgd5LhhJUHAc5oEyKDHOolwf0rAD6w5V1MikevvzihzaVDb/XHbtmNnB3M51/cEYQU8tjRx42eQe3kPu6HM8rYSmh11kREAPLXvva1MeaWgKKg9Pf3p1w57ejoiKZSzjiOk9OZaaYLs3PnznF7RlXuvPPO/lRppAvT2dmZUjkFIP/0pz8dp6Q0NjamfJbjuLSroNFoNJ4qH1u2bEm7OvnWW2+dTJVOpjDvvfdeJJVcnZ2dKesknVwcx8kHDx5MWSednZ3jFGYA8ubNmyPp5Gpra0vp1ThTnaRKw+v1yn19fbFUYVJNFui1Fa1ZsnqtXr06ZfyyrKzMppLr4Ycf7ksXJml/+Uj5rl+/XvsboSAi9xe1G/HDfR9dCZnls3uQC7CbzTrhYy/AGW3CiLIgozDOpzVjP7ak8yxvdSYYEaCfT94m2bQEwFZHgfyLOoKQQh67+rjEIIt6iRbIZBZ+OKOMrYLVOsFvg6yuQESKAhMEIa2yIcuy/B//8R/j9g5mChOPx6Pf/e53j2if53leDgaDaRWUaDQaT06D5/mMZq2afaYjV0lJyammpqZxyuyhQ4fkf/zHfxynoOilkZx3juPkLVu29KR7XpbHK2iJMGnTCIfD3cmrjYIgyMePH0+raP785z8fdxSP1+uVUzmZkuWROmlLliuT0tjX1xdLlkuvHtO1lXSroMFgcNzzenXyxhtvjMtHU1NTWplkWZZvvfXWWC51kuQAayQfkiTJoihqfycUROT+onYjfrjrgySkkCf54m2SLRkRbB98X/5FHYMA57QJo8d8uP3MTz/Y8h1IhBd0nnOy0h9AZtlFuwRLggd7+7Rr8krIUr589HEWWZzyPcqEH4WTl2RYJxslG2R1DSKUQooCigK0Z8+elHsnP/jgg441a9Z0J5Sz9kQ4WRAE+d133z2c/HxbW1tXU1NTl0YBkgBFcdi6dWtXKoWmra2ta926dR3JSpPX602pbMTj8eju3bvb6uvrVbNZSQ1TUlIS++IXv9i1d+/eked37twp19fXd5155pkdWpnUNF599dVxeQ+Hw90vvfTSwbq6Ojmh0Iw4QXr00UdPpFLiw+Fw96ZNm9rr6urG5IPn+bRhdu/e3aYp3zF537NnT0pFa9++fe2NjY2q+XObtk62b98+rk6OHDnSkVQn7WqdNDU1HU8lV4owI3lJ52hp9+7dbatXr44l6mSkrdTV1cnBYHDcnuGkttKhTSNVWwmHw91vvPFGW6o6SecoTFsnWsWU53m5qakpZXvct29fe6o6EQRBFkVx5DlSaFMiIveXtRvxw10f3UAKebSXaJdgKWBVxiQbZNUiwFltQs/Lrd7ltVA2qzFq0qpn0inkKyM5ks0+dJ9dwqWA1XTWb4OsgPP6uJ9BHqe3Yz+cVcZmIqJw6skx/AlAtARFxwBEtUpKPB6PJikNI1exchxKCED3o48+ekJVBpKUyzFXZVFxJ4BQsndiNUwq889i5biZLq0nXK0yk/z8JOX5wwCiHo8n0tTUFH3ttdfkpUuXtpWWlqbc+zhJOW/0yK233hpTzaXb2tq61qxZ052cj5klZfLSKVUDZ5dWfAJgzHFBmcIsqZxxHEBXuvJNJReAowC6OY4bOWpGq8CnKK8+bZ2Ew+FurVKWxonRJ6nqZN++fe3p6rFMaSuy1+sdOWYnU50UA70ADnMcF3vkkUci2bQVKMcZda1YsWJcnaQyRy7WeMvWeidOVycA5HKlPcrJdZKpPRYl0qmrqxtRaCVJkhsaGrTPEQoicn9ZuxE/3PPR5bOQzWeTbOmQwPbht9PhiZBGJrvaBAfjx3zYbcZthADY8q2nZEn5y0LO+JFZdifsk9cigK2OpPyLCsB5fRww1sclOK+P++G8MjYDVlNjJ2wFcjR/AiBfP21WWwmKxjlf0l6TgOiCyVPb6rnZ0aaai+Q5JeUp91Jqr3mllW3Xe2Z1P1J9rvzSbK9umElAVA2zftZn5Eeqz5UnaY6RSXVVFBV3/1P59PY7Tz9bfmm2Vz69uHScGXGqNOq52dH1sz4j/2TWBR2VxZPSPn9xhUe+bfqc9p+feWH4pdle+aXZXvnJMz/TpRfmzhlnd/znmRd1q2GunjJz3B7PpKsbmlXWxJUxL1DKpg2jZaT3vJx4vjuHNGQjdZJrW1k/6zPyl6fM1J1RP3PS5PalU6o61LaVbRi1PTbVXJRVW9G2+Xputp5DKBmEigj9siqEsvMj93z6bZATcN8gF3CnF1QhhTx2twmjR/kELJbPSngYy3u6y5e/LOSMhMyyO3FwLME99SAwyOm3WCYehbVn3g/nlbFRfGCrG8dPKhbZLQCUj/7imzw1rZefdnrtY6EDHfv7Y7PUm1xxSae3fNqkL02dWVVbWjEucFN3W+gP0e7ThoAKAKgoKu45p+y03iVTquZcXOEZ93x0eAgvhY+ExGh3lfqbXpjWgRieOi51HhmMV6u/nTlp8pHLp0yvXFQxY/rMkrJxaTR1t3W/1xeZkW0aA8PDfYFwu/xRf29FZdEknF1aEbu4whO6qHxqVUlR8fiMA+gdGoy8HDlapob5fyZP7bm4Ylrv/MlT5qR6HgD+N97b8WZv16y/xiLqT50AJgGoShcm8Ux10v8zhYkAKEOiTgD0QFklTSsXgL4iADJQDhirkwXlnunJbUWt91zayo7eUOzlyNH+qDzsgZLhGF9aGRJOm1G1sHJ6RWXxpHFh3jjR2feLE5/Iahp6YaLDQ/hZd2vn+30nRvKh1+b/HO2Jbuw5PKCVq7Jo0rGT8tAZUNJ1Qr92AiKAxTmGcWPZ+QE8kGOYB2HPh1cCUJvh/pNw3p5J1enJ+JeEPmfDnhUcAcDOHMPko000APixgfC3wL2KbTOA5SbGF8GoAuE06gC8pvOMXX0jEz4AzzOE24v8m8ULcGYf94GtDFXuhHMmO/xwz7c1G7xQxkW5fssiUNpb0GR5TMUJgzcRCYX2qqln1ALKIL91IIbzJ0/JOpJ98V7UllYglZJhVpiuwX5E5SGkUjLMlCsffLPdWe3yC+We7m/NmDvj1PAQTiuelHV5RYeH0DXUb2mdtA7EUFk0CckTF2aH2RfvzanNdw32AwBmlpRhU097629PhVRFwQn92gmIIIU2HXZ8dH3QH+g4cZALKAOs7zGE2wT7Vm+cONgF2PqliisGVmkQkHudZMKJkz8qIjLX8S44dy9eGGyTV1cgv1YZApzbx41O3nwWzujjfrjj25oNrMoskP+2zUSx3QKkorJ4Uk4DewA4f/KUnJXGXMPMLCnLSXFilWsiUQxE67nZse9VnT2jslhRAHMpr8riSZbXSW1pRU6KKWuYXNv8zJKynNMgCBvx6dzfBWcqswD7isFKONxMywbqoCimLHigrNC6sUxFKG3cLJyyipUMD/0Ji4D1YjDDWq4+M4VwOT4ArQbCN8Odfdyp+ADsAZsyewtcoMwCDlVoiYnBjOKS0MPV51YumVKVm0ZKEITb4OHuQa4EYBtjWKeuotlFGMYcZi2As9tKJgImxePkyR+99h6Bs+vPyOQVb6IcbsZoH6+F8/bTupX1YDcBd9UWD1JoCVv4Qrmn+0ezzk+5R5QgiILDr3Pf6YNcgH2gSwrteEQopnmsLIc7yzUAYytXKk5dneWgv1IZsF4MQ4ShbBVgwY1t0iqCUPbDsrIYzm3nbsALpQ5YtsoALlNmAVJoiTyTbGJMEETBw0F/tt4Ns/Ei2JQRD8gcMRV+KM50WPkx7D0aiRWjTAcRhwAAIABJREFUg/RWOLe/1EHfrDGQBzmMwlq+PpCprJb1MGZm/z3QuzNXOCjv1j1QrFlyJQLgOrijn46BFFoib5CJMUFMSBqgP8h16gA9GVY5/WYKkQVuGVQb2U8LKIOufHuXNUoAxvLs5FUrv879CJzh7EePZrDVkQe0SpuM0T7+PNzXx+1AVWQl5O7ISqUVirMxt3yPx0AKLZEXyMSYcAluUQTcAofsBniixXKYBeuHvhb5XWlwywBQgrFVVg+UtuOW/AKKSSurUupk0/wGZD6SC3BPPwfYZW1Afr4jfB7SMIMwjHu0FuGuPp5PeCjvEwmKIsvi+AlQfESoZsquxAkKrWS3AIS1fGPamX1kYkzYAMvRIG78aLIMnvKluAeQ3QfWiWdppkIyEHY98lfuPEMYu9q+CGP7aT1wn1fUAGO4Zjizr/DIzgrBTYNlVlk9yI9FBkt/FcwWIkuCUPZksmLXxBWf5/SyhYcycRIEcAiKaTarIquaGNfBme+WrCGFlrCcT00+rdxuGYgJB+uHTzBTiDzBssKVj72HPhg7i7DQUI+cyQcs9bsc9imFfrA74gGUlUER7pmQksCWX6eaGzcjuwG1myYdjPA9WP+OZYl/MexT0gIw1sftUGoFhjA8zC9jAYoCG4Dy7jgExYcAyx5ZLZugyOpKE+NkSuwWQOWvfSdqr5p6ht1iEARRGPgZwzVAGTS6ZaayDvpmfqlQTWADZgqjwYfcjgqogzs+qkYHqcuhlLnPsCTp8YN9tj4A+xwt+aAMVlkHaQugDHgFuGMlcD2Uo16yZRecma8Asq+zOrhnj6nRfhCAdW0xG/PudKyHvX2cA/tEp6rUCrC+L7CW8UqM9uvkPeNilnEIiX+9YH+XZ2IXRld4CwbHKLSEefw1GuncerKjGgDOLq2IXTVl5ok5ZRXVdstFEHnCB3M+mE5Xar0wppCq+25EE2TR4kfuTikCUPIjmSyLmXhhjimhOthpgPltzAd2hyBAfhTuTAhQ2iOrUqv2X3U1w8kEoQwss90aEbBOFCZ4KJNQudRVLextX9nSAOOrX1a1RR+U1TlW1D5uxfsnG3ww3sf3QDkSyCqLBR+MlbGKB2P7N8s2KDPZBqXMRJvlsAQnmBwX1AyBnYSG+kPfOvoBftx9qLp1IIbWgRjEaHfFmmP/W/1w1wHsiUUO2y0jYQ0H+6NO6Mt2w0MZYLEeIq6yAMp7yWcwHqtQvRmKMDZ76wGwMxGXGaaAApRyY1GoPHB2mdfBeHlrWQlz88vDnLYPjMpmxyqO6kBmm4E4PFDKwQ37av1ZPtcK5yi06vsnCDalZCVGJw2dBgdlwG+GMgOMbYu8wbh4KG3AzD7uMyGuXAlDmRw0Yn4MKHVkRrlq4WHee9QpRAA8CeBsjH7HCpIiuwWA8lLbWVk8CU01F9kti6t5uOsA9sV7Mz4zs6QM1089s/enPa1T8iQWvj9zPs6fnLfkJiR3fvJ/W48N9ddCmfEXbBYn3zRAybMV+zXVMx/V1Uw7EaAMQOpgjRnSNigDplxMf1Uvxj6wm8Al45Qy56Dky4h5Xzaw5peH0hbqYN3MvypbM/I/EFoPZS+iESKJeAKwv/+mQ4J++3oQ+T/6KRkB5r9/9kKpG7v3Bnuh9HOr3q0queZXfQcJsM4fgZ193A9jFiXAqOdv1u+FAKXeBRhflXcKEYzWqRu28piCYxRaAHhptlv8OTiPQXk4tvLI/3HkmTik0FrPBFdo5Tyk4YQBpQjrTZZybT8CEu9vC7C7zAVYl7dU5JpfP4wPBrPFrveKAGWwasaEwl4oq1J+OEu59UF/RWg67N8CIcK694/dY1E/8teXgOzzKyB/76CJ2sdF2G8KbAZ7oeTFjokJR+CEPbRkcmwCocGBY7B2FYEg3MyuDPcK4WOmkuyEQgsPe94R6WQqpHJ3Q/tKltEpcmVChNJufVAGqUba74LEFYCzFNoAMudtE+xXZrNlL8bLyqNwxiZOfL9qSe7jVjkVMhMR7unjye3bjvJV26CU+DeICarAJuMEhXakcXQMxFtnlU62+4XgSoYx7IS6JGyiXx6eyEcj2T27ny8EuwVIgYjCLX8Rzs5bAKMDGQnmD+A4jB6RYbdCFcCoB2bVPDDXscIuWFNOZtCA9MeRBPIoRyYEuwWwED/st8BJRRDAFYm/JVAf14OljzdgdK+9mGN66dCWazI8st/3G8boBIr2byIFTlGCInD+LJKj+T99JwftloGwj/DwoOrFml54BDExkGCtchaG82b+tXvC+KRLSxCjA3TRcqmMM6H2uhFZY3UfdHofVxVDHpn7uPbvXLFizOTEci14nKLQBgEsbuuPRmeVTrZbFoJwM3bPshIEQeQDCc5cbSUIwhxIMSSyxlFHfXQPD1TaLQNBEARBEARBEAThDpyi0AYBoHMw7hR5CMI1JB3VJNkkBkEQBEEQBEHkHacokGEAODwYn2O3IAThciS7BSAIgiAIgiCIfOEUhVYCgNBQv81iuJfTiic5ZT80kWc+GeiL2S0DQRAEQRAEQdiBoxTarkFSaFn5dNkU8nI8QTk80HdM81/RLjkIgiAIgiAIIt84SqEFgPjwUJeNcriWWaWTayuLJ9ktBmED0aEhWp0nCIIgCIIgJiSOU2h7hgajNsrhaq6ZckbEbhmI/LN/4JS6Or/XVkEIgiAIgiAIIs84RaEFgFYAaOuPkkLLyLXTqj1C5QzaTznB6JeHyxN/0hm0BEEQBEEQxITCSQqtBNBZtEa5hZsj15ZW2C2GLq0DMfzqZEfPr0529ESHh+wWx9WEhwerE38GbRWEIAiCIAiCIPKMk/beBQEsfj92ouqqqWfYLYtrKSkuqvzhGZ+O/fR4q/yXvojjJgd29IZiL0eO9kflYQ+A6QDwSqQjtqB82ombudnVM0vKbJbQXSQ5UqMVWoIgCIIgCGJC4SSFNgwAx4b7T7NbELdTUlRc0VB1NsTeUKgp3F5ltzynhofwcvhI5Ne9XWVDQAWUa4QhoOL9vhMV0rH9oZ/UXGi7vG4i6agr0SYxCIIgCIIgCMIWnGRyLAJ0dI+ZCFOqqp488zMhu02Qf3z8ELb3dnmGkhTZZLqHB6v2xXvzJVZB0NLf26P5L63QEgRBEARBEBMKJym0kvpHeHDgqI1yFBRVk8qqfjjznOjVU2b22S1LNvwtFu60WwY3cSQe1zpRoz20BEEQBEEQxITCkQrtJ4N9dPyMiZQUF1V+kzur/PtV80JOP6s2PDR4ym4Z3AQd2UMQBEEQBEFMZJyk0ALALgBoHYg5zplRIXB++dSqH1efH7HbBDkTB/ujzta4HcbxoX7Vg5pkpxwEQRAEQRAEYQdOU2glAPhr34lam+UoWKZMKvE8Un2u3WIQJhAdHoJmXzKZGxMEQRAEQRATDqcptEFgnOdWgiBS0DoQ0/6XFFqCIAiCIAhiwuFIhbZrsB+Dw3JU72GCmMgkeTiW7JKDIAiCIAiCIOzCkQotAISG+rvsFIQgnM7Hfae0ZxzRCi1BEARBEAQx4XCaQhsG0AoAQXJ0TBAZaR2IlSX+3GWrIARBEARBEARhE05TaIHEStPH8VMz7RaEyD+TUFRitwxuITw8WJ34k1ZnCYIgCIIgiAmJYxVaaZCO7pmIeCumkkKbBfviWmtjUmgJgiAIgiCIiYkTlQcRwANdg/0YlIdjJUXFphyaempoqOfk8OAJ7W/DGC4pRvEgAMwqneyYo4K6Bwc6++XhPvX/wxguAQAnymo2l512erX+U+bQOhDD3r5IT8+g0i5CQ/3lVZPK+rTPTC8pmfbpsinTz588JV9ijSNZTgA42H+qGMBw4r+iLYIRBEEQBEEQhM04VaEFALQOxD6ZV3bap1gjGpSHY8/3tOO9vkhFdHhoOoDpmZ4/f/IUXHXazM6LKz15U6pUDvfHOl852VH911gEAHTTv7jCg5u4s0JVk8qqrJcuP5xVMrmztrTC8rLfF+/F8z2HO48MxquhtImM7QIAJgExHzcbS6ZUmTLBkg1/jvZEN/YcHojKwx6klzMC8nBMEARBEARBTFCcqNACwF4ACz7uO3XavLLTmCP592MtFUlndWZkX7wX++K91eefmoI1VZ8ybXVYj7b+aOjfju3PSZH7ayyC/xvvrfoWN7v7C5XTZ1glW76YBMS+ezpvuTK7ozcUezbcXoEsJg20DAEVz4bbcVH5NMwsKdMPYJAnQ4e63+uLZFOvotWyEARBEARBEIRTceIeWiAxSN8TP8Gs4Pw1GunMRZnVsi/ei38/1lIxKA+zRZAjD4UOMq2yRoeH8GR364z3oj3dZsuUTyYBsYeqz62oLbV2/kCjzDLTfKIjZJY86WjqbgtlqcwCtH+WIAiCIAiCmMA4VaENAuMc3+TEb051GVrtax2I4afHW2UjcWTDqaGhnujwkKE4nuxunbGv76TlipYVzCguCeVDmW0diOH5cLvh+vxDtJvdZCAL/hztiYrR7lwmOESrZCEIgiAIgiAIp+NUhVZU/+gYiLfaJcRf+iKVYm/IUkUxLg/3mxHPE91SVe/QoKsO7/1Cuaf7R7POr7JamQWAx7sOhoYBw56zhwDLhO0a7MdT3a1FOQYTrZCFIAiCIAiCINyAUxVaCUArAAT72HS0+aWVPWYI0hRurwoN9Vum1M4oKa2uLJ5kOJ7o8BDWd0seE0SynElA7P+bURv9XtXZM8zIux5N3W2h7uFBU5xnVRQVm9KuUrEu9PdQjgrzLqtkIQqOOgDNAGQAgr2iEGngADRAsVCy3DrIhfBQykeEUj7qJQIIJO7xdghGEARB2ItTFVogsfL0174TTEfUfHFqlTE7Xg1PhA5VDQ7LUbPiS+YL5R5T9urui/fiVyc6Hb1KO6ekPLRu1mcq/qFyel7OGWYw4c3IP1RwprUrLS+Hj0QOD/blKqdohSxEwcAD8EOZIHwNwHIbZSHSI0BRyHoA/BjAAjuFcSAcgPUADkEpn8VJ9xcDWJm4dwhKe2/Io3wEQRCEzTjVyzGgDNZXsu6jrZpUVnX+5CmG9uGqtA7E8IsTR4u/yZ1lOK5U3Oip6Rej3aaYsv7ixCeeRZXTu2eWlDnO8/GXp8yM3MidlbdjhqLDQ3i6u9XUSZu6abNMl39fvBfbe7tYVtdFs2WZAHAAvFCUCPXvZMIYdbYlJv3rBuoA+EAKrJPhoNRRA4CCPVfcBDgofS8XJb8WSh9Yb4VAFiBAeQ95MbraTBAEQeSA0xVaAMDRgdiRmtKKnLXJlZ6zOtcc+19TjoJ5s7er/HPl00Lnl081XaGZMqnEc/lpM/A/p8xxVrw2dGDG49Xn5e3YIT1KgL41M+eXnz95Sl5Non94rCU0CJhWX58rn9Y5s6TM1KOFosNDeCL09wiAXMsmAncpWXaiKg8+ZD8wVpXBB9LcfxDK6qeT8EIxKyYFydn4ADxvtxAuIJ0yuxeKwiol/l8HpS+atbJtp7m3ZGPaBEEQrsXJJscSEvto98ROMinec8oqqs10OGSl46WrT5vZaVZcXYP9efHQnC0JZTavaTKa8Gbkq54zTT8nd13o76GoPEyrs9bAYdTkdiKYcoahtAtHbzsgIIH2v2eDH6mVWQFjFb9mKJM5m0xK9zpQ/RAEQbgKJyu0gPKhMnQe7Yqps0xTFKPDQ3gkdNCSVcY5ZRXVZip9f+mLVLr9fFpWWgdirCa8aTmrZHKn2d6Y3zjR2fdx/ylWpVs0U5YCxAvFbPgBpF79bgWwDcpKa/K1C+5UCiUoq388lLwRzkSEopRdAXe2s3zAA/heit8boEzcpKIBisJrlGYo9WOWgkwQBEFYTK5HhOSb/xfAzwHAiLJnxj5aLbWlFbDCO29oqB9dg6ac4gMAqCyehHRKmNllQuSds0HmaenwQdk/l0qR3QVl5UfMIp66xLUyxT0nmhxr4aC0j1RlcAVoQsQpCAB2prnn9O+zlazHeIU2AqVdZ0KAUp67YI43bwmpTfj3gt3xFA9lwq0uRdxOf68QBEEQDHAY656fLrroGnVYRIzHC2UFJ7nMwlAUXRZ4jB6lol5+Y2LmhQBStx/BPpGIFKTr5xOZ5P4mI/tJGD/Mcwi1PoUcuciiRx3Gvq/8JsU7UVmP0fKUoJQvQeihOmRT+2EA+pNnBJEzIuxXIOiiy0mXW7x35ht1VTJVmaXyZpwrAU18ARPisxo/UpeFYJ9IRArS9fOJTKryEG2Qw58HWbSTcH4T451opJt8EGyUiXA+HFJPgtPCgctw+h5aILGPliCIEQJ2C+BQ0h2B8iDM+Tj5MLpHjzchPoIgxsPbLUCeCYLOzTUKh9R7rgEqWyIzPqTemrMANBniKtyg0Ip2C0AQDiICmjlMR7qBi5kr2mTCRhDWwtstgA0EkDjVgWAikwUOmY4SmaD2USA4+RxalSCUF32qlReCmGiQxUJqBKR3ApXOKyoLEhTvp7yJcRIEQfB2C+BiRCiTvam+AWJeJSHchsR4j3AYblihBWgQTxAq1BdSI6T5XbQgLV+G9AiCIIj840vx216QzwkiMwGkPqLrSZBC6yrcsEILKIPSdPsjCGKiEAEptOkww+kTQRAE4U6aoRxn50v8PwxFWTHTQocoTHxQ9Aw+8X8RtLLvOtyi0DYjvTkJQUwUSJlNT7p9MHw+hSAIgiBsQwJ5iibYCNgtAGEMt5gcAzSYJwjqA7lDK7cEQRAEQRAFDCm0BOEOyNyYjQWgVVqCIAiCIIiCxW0KbcRuIQjCJgJ2C+BwMu2TIqcgBEEQBEEQBYqbFFqAVqiIiUvAbgEcTqazeZcjtQdMgiAIgiAIwuWQQksQzqcVmRU2Qv/d8DycpdRyUOQJQPGmKKe4gol7ASiOTupgnfm0Kk8zFMcqWjmkxO8NsO4QegHKSroIZbU9uSzExP06i9JX0asXKfG7HxNjf3YdRusluSzCMLdeOCjtwJfmPg+l3NNdggkyuAkflHeEjNTvBW1bVp9LrruGNGGN4IQ+JCTSl8HmJIqDUjZSIo5Mz9jxzvQi/ftSgnV1C2RuV+p3K5B4xoy881DqUEJqz8M8lLJIlkWVI5d3k5o3NS4WvBj1ru3P8Ey69yqL3NkiIPvvrFXfekJDqkqgi65CvhpAZIME/bJcD3tf1AKUgY6R9iAhu0GaP014QfMMh9GPbzZpZ/pI5wqH0YFKLvkPw/x65DE6AM61LnwG004Xt11wUMo312+tBKU+c60XL0NaqS5/rhnNAn+atEQL0soGHqnrRtA8o/arXMo0AOP9iQdbH1In7vQuva0jPMYqoSztQkiTBy1cmmfy8c70Iff3pQhzJnt45F6/at5Z2paA8d9KKekZf5ZyCFmkFcD4PpMtyYqweiW3WQH/f3tnG1zHdd73P0HwBRBFXEKgqBfbWMayLbWWCbcZx9OZlmt3OpOO0wqeyYfanparSdRJ6taE6kyjeuRwmWhiJ20qKKnjJI6q5aSup512DCZ2m36ovMhMO7EnGQOObUmRbC0sUuYLBN5LQgBIAhf9cO7qXiz27J7dPft27/83s0Ni7+45z5735zzPOUc+gS1rU+NkV8FCun7WVbwGYXI3Fxxk7/h48arTxZkyNSyopWeWTjYtDagpsgtQG4i6CnHaknfNzu/TinHJ5MySfibiO9iw2f9gPuqY7LFj4tlWlDVtpy4LswxmEF8m4vLFQ7JBmBkTnuplJ/7aeGxJXG7GcI1O2Ibi8xaiB8Jm5zkTyQeuOsqwHRN2M4NccWk+jei21Y6RXaaMhNVFC+W0mVMx8qm0UXETAlHEtQvNmN89qJWtoGU8Ki+ciGdk9SNtXDIMRE/+uT1xZZnIthRkCUOl3MT9njZ9iQImsic+L151ueZAkuBCPW2LUmynIO80PYjOypC8Nyt511WI15bEaULPxOCCggxJ5PLzwwg8byB6htlBujxsQN6Zuwh3mfPdyWTyWynkkKVv0TgSOTyEl1ED0ZZAWzFePxz/ipLDjrhMxfiSYEtkcTOE2VvuTIXnPYkMwTotkzVpnU5alxxJWB7kdSjN4N4NidtTeM+OkF3VO8CI+M6s3xBH1MTjLHYriibk/aCTIn5HEpaH3fnrTw7I5LUi4rEk74S1izKZoupH2rhkqMjgIrr/T3JZMfIEMSHPBwe7y42B5J4dsvQlCfCQvXDw4lWHK491FP1MlJIiu/JUbKMGTEmsi3bgXTfFO/7lBf6ew+41M1NQ69zsBN8AyAcBLtTSX/Z+UuU6qpyo5EvUzLeVUBZZ2haJ7FscxOdLA3oH0KYkLDdFWFmxJbIsQMiZ9LKws/6ZCjLIJrWC8gTTysLOvDMQb5FKmmdOhDxx5caKkMHG7rQLs/CppI0dIYMBtSUXwd8dpG8zrQh5gkxLwlCxps9I3nUSxO9Iwoiz9ka1rzK5TajlRe93NdFd82miO7ETDMOUxBUVT1wbbCF+At0LyOKPNXrToNGRPy6sJtTHKLJxRxPxbU5U3snavbyNAn2NjfiCyItX3S8PJA1RA+y4y4G+jTQMyDtnFferIGZPeK7C87Ykbv9SGRTFTRA0E8gvG2Al9UJwJOE4CcLQoYxGpY2ZIBxZ2haFI4nfSRiOzOqWZOIGqIdCq+syEsjiKITnQW3AGmchVZFLpmx5UB/gytqEJIN3QCg1sm+xFd5XSRPVNtNAdJvpKX6TTClJYkV3JDKoTJTL0lS1PhsS+T2F91QmpecgT4dg22ymjEsFE2pWTTtCXh9LIQwVPMn7luL7DaSzspMUGMi3k+HFqwqXDZKFGaRf7+QguxuNKwnbyhCm1QnDVXjWlsTvf58qUZ3bNtTSaUryrod0s7uuJLwsA7U4q0MYUTPhqt8lS9cikCklboqwGpAPpJJM4JgaZcqKLZFF15UUNyKsJIpO3ESVitLiSd61FGWIC8dOGI6bMZy4ds5JIEtcWCr1IamFM4kcXsx7piTupJOPtiScuPJlSN5Lkhe9ZdxMGZcqVkQYKlbRXmSTPCr5FiWLm0CGqHBUZCAJcZFvR8OLV9kX3Tiy00D6dSHbEO2MkSJeKyK8rDiK4dgSGZwUcVqSsLahNmB0Je+qKKBhGJLw4hRJ2XtezHtR2JIwHcX3ZemaN1GDbiNlmKYkPLfgMHRhS2TRdSX11JDJk0SZ9TEj5HJi3pVNhCTx2PCxJGF5CcORKQJ2gjBkVlonoSxAdJsZp9DJ3rVTyOFIwopqez3JO0bCuBuScDyFd13Ju0ldb7cRr1DKJg+SoKuOA9H6TRye5D0rhRyy/iFtv00kWMi3o+HFq8zLAdFJVsXWQbIBoycJx8z2GYmwNcsgSzs75j1T8t5CSjl8nBTyyN6xMsiRVTGUlbm8sSXxOhnDzeqGbUredzPKlQZbsyzBtXKmJnnslPLI8spNKYeTQgZDEtY2krW5piQMO0EYtiQMM0EYPlHtQpxMnuS9NJNusskHR/K8lfD5OFxJeHGKnuw9O6UcaeJKgs52wpKEF5duRsR7Oj2h7BRh5c5Q2QJkwAHQKlsIQnLCKVuAPqOJ7g66jwJYSvj+KYhBhsrM5BSAyZD7iyjv/EodJHU385FZI9K4+Kq8b0nuGxD5GEbabwNE2XIkvyVdP1okluR+XvlS5bQoijkI5ehcyXL4pC33puS+lyKsqHfSWLeqQhPpdzUO6z/OI50FXPaOERF/GGnbBVn8afPWTflenYiql3EeSGG0kK7suJL7layXw2ULkBEHwOmyhSBEM/MYjEa7DHzlw4HouGcAnFR8dwzAVyEUYifiOUtyP4vSVAUWIFcIZTQAPCL5LWt6LEBMTAQHf5Ponk3Zi2yglnag2Mscwvsiv4xVDRPhg+YlZLeczwF4LuT+I+harQadGQhFzitXDLgAzpQsQz+zAHn7J0PWTnlIZymWKR9h/V5Ue91IGb+R8H4cbsr36kQT4X1bWrK26UEquRyu7grtLKjQkv7DKVuAAWEOXYvJDNQHHs9BdDgyhcyU3HfVRaskaTpFU3J/EXoUGxfhSraJ3fkjk8XVJEcYk+ge8VMlTMl9V0PYTYj8PRHy2zTYvgFdj5Gy4eRCvuhsM08j//GuLG4A+EbOcZOdeNCn0Oq2qHqaw9NCnV2OAZGo82ULQYgu9mPPVXDAVzQuxED7ONTbEwfyWcqwgTxQPaWmCGQdqa60kIUTFq+ZMIykyMpOFd2zTMl9XWnhSu4bmsInekib367kvpEirKh3ZPHUhTQTBrqUmDgWQ+4V2VZ5BcY1KHiS+2NIZ1U1E8ZTKnW30ALCSqvqMkhIpXlo/6E/Wbx1o2wxBhUP3YPCHUQPLMYgXIuD64qMiHcG0RpiSu57msJPotCOJQwjKUnXqpVJ3hMNsrQwNYVPykVWTtLsfmpK7ocpXP2OGfHbWc1xeSH3ZO1CHsugdIdHRJ7KXJWTesc0IC8PlVw+1Q8K7RxS+poPAWsTe/df1SHE8tatY23goI6wfA5gz/Wxvfuu6QwTADa2t+643t6a0B2ujMbQ8OX9e4Y2op65snVL+6zk3Xv3J934J5Qb7c3D69vtIzrC8vlHh+6+1tg7fB0A/vfq8vCVrVubADYWb934tM54SCpcCCXEQfSaUQvJFFrSxcs5/KDyakY8q2uiQbZerorrjWTKvS4G0RthkJCNu/yJPidBWLbkftbNyfoNu4A4ZG2VW1D8JDsOwtfFW0hWLy2E9xOLqGj73g8KLSAavqeTvvTUsfeMTu4b0aJIWRcWV9saT1rYhz1rv3nPQ4cnhvcf1hZohz9dvYo/al7UHayUf3mXceyhA4cin/nSyo+W3bUVrUr2Px9/x2RcvCpc3byFT1/6/voWMKJBLADAPcP7t8xDE5Ob2+31/3Hjsh/uWQymFa+qWBD5IVu3dALc5CYtnqZwKtmxBqiiy3HesE70PzbCN/+ahVB4VcqADfmO8E5KufoRLZPzZCCYhdgTJKiMnuzcV5koMiCfwKjiJocA6r+G1sdBwiN8Pn743o0QYZEpAAAgAElEQVTJfXr0ky83L9y8je3smlMPv3DX5OjE8H6dQVaaTzTunxgfGl7WGeZz1167rCOco8P78cnxSX2zFQDmVq9MAMD/vHH11lp7CxDllzPS1WMG0YOJQVRWqoRRtgCEDCgOwteNj0FY9OI8EyyEW5JayHYudD9S1LpaUn+akNefpyN+82lATEiFWWefQYVdxftFofWP4lBifGjf6kcOH9PmHuy+uRLpTpuUDxwcu/3BkSp6qeXH6NBe/NLRd04MAWu6wry4efPYCzdXtYT1U6NHRs3RcW0K99XNW3j+zeXWn6xe8RuNWdCqUVV0TTQMVqWOxtQUjmqallm33BLjLgtO9AwG0whf63oCwgvDwu46OgX50U4tiLahDp4XhFSVOYjjBcN4DkJfCrbRDQirrIfwjS3PocLWWaB/FFpAcdA5BNw+c/e7tFlTn19dXl/bbmtbjzSxd9+N0xPH9+kKr05M7hvBPzl8r9Yy+SfXL7+mKyzdVuRnr10Yo3W2Frianh3EQX5ZimTQqh41QNaVL6amcIpA5nWga9JFFg4n7fqLJkS5Pxfy2xjE4PkaRP1zO89/G+FrzRdBZTaqfhTRf8jS3iwgbqIXB8BHEe69egqiHjYh6uUCRD09g3DL7OOogddEPym0HsIb1R18onH/Pp2uvF+7ceVNXWENAxufO/bgnbrCqyMfOXzs4IP779CmNC7evPF2XWHlYUUGcBm0zlYdXQMsU1M4dSLvAZIsHC/knkyJM3QIEhFOFQfoSXaHTkPeuyiT6uC7OH4I8qVfJyDW8IUNlpcgrElVPK+5aIqYeItCNg4ZxMnYfmAOol+SHSk3BlEvZUcNnoM4zrAWBpd+UmiBmF3Y3r1v9MZPHzqqNcKrW7e0bdr0L8Yn26NDe3UFV1s+PfETE8OANjduXW7HQC5W5FuoSWNBQvFC7sk6jzRHWtQdV3I/b8UpLN6we4Ae5dqAfJ1bFQfpruS+qSl8WThVTAuSHQvCIuQrrC2IdlCm4M5DrMf7KLo7yhOB7LiiIvoPV3J/DIM5IVt3DOw+2nQR8sndJQDnISaYjkDUay836TTTbwqtB8lgcmxo+PqZY+/Wav186eabaANazL3vO3Bn66dGj4zqCOv51eX1X7n816/N/Pj7b3zhDW91Yf26jmALY3RoL544+oC2Nc4v31rVevSRZivyfwKts7rwd/crihbCG3tX8vwJDN4mRi7CB7Vj0KPUhrkuAuHn5LmSZ00NcsjCWEQ1BwSu5P5JZHc7noL8WKBKnl9IUmNClO/n0J3QeQainTMhytKekMuEaKtZHnbjSu4/gvz7D1ncQA1cTslbNCDGQ6+ie/TgIoQXxRREOQqrlwa659XWblzabwotEGKlHQI2Tt91XPvxN2/fp0fnGt0ztPbLR9+ZeR3uN9eurf38xe9ce7Z5YeQHt9fefnXr1l3/b7156N+98UP8m0svXNZpqcybhw4cwscP36vFSntoz7DW84EBYUUe3TOUaGftELh2Vi9TyEehjTqbLwwnIiw7iyA1RTZotTKGK3t/CeGWwDmEK9cnkF25lsniZAw3LxaQnyXIktyPXRJEaoUF4BvY6ZnwOEQbXLvBcIWIUvLtAuI/L7l/CoM3IVtHGhBjk97jBv316W7x4hRHPyq0LoC/7L3xz8betv2eA3doj2h0aC/GhoZXsoQxBNz6pYl3arHM/u7K0tD6dvtI2G8XN28ee+rqK3js4nda39+4cVtHfHnzkcPHDn7g4Fim9B3ZM3Ttw4cmtJ0f6zM6tBdP3v2usb3AeoZguHZWLwsQgytLc7iyAb5s4OFB7nZ8CoPnumVL7lvIZg20EsbXhHwCKctEiIGdLl0+LVRXoQXkaWFlCLMR8b6TIdxBwUY9LGFTkJ9BS7LhQu4Segr5r2eNykMn57hJduawe03sQIw1+1GhBYDf6/y7/q59I5f+wZ36FRqfD99xV2pldHTP0I1P3mXs16Fs/8V6C5tArCVybbs99pcb12uzi/LpiePjWZTav3/HXbmV8cl9I/i1Y+8ZSbnedwns/HXjN9g29B6RY4XcW0J6S+wc9Lh11gUP8l1Q0yqS0whXIuPyZRbyXR/TpqksvqoPIhyEW2lPIr2Vdgbh7sbn0efWAQ2YELuMGuWKoYSs3vJoMj3YEb+5yDedXcgnZE+CSm2VmUJ4v1in8UJq+lWh/UMA3wQw8vLt9XvydLX92bF7D/7Txv04tne/8prKfdiz+r4Dh9Y/d+zBO3WdN7uw3tJ2PE3VOD1xfPxT45NrSY7MGd0z1Pq5xtvWP9a4X9uRSmFM7hvBF+97+KA5Or6c0Fr766j2YLfOTEJfpzuD8A4iThFzIXfdGuv8nraTmYHYct9J+X4ZzCBckTyD5OnQgPzbrZh3m5DnnYPkA0UL4eVjEfVwL7ck9x0kT4spiPwM0oqIhwim0PX48EqUQxVDcn8Bon6ZCheR4yB6Z1oX6fsPS+HdqP7tFNL3Pf7aTpIPsjb7NES6TyO+Xhq5SZczw2ULkCNPQKzvwHPXXrv8m/c8dCyviH760FH89KGjE4C/UdQ2AODS5k3c3G7vePb4vlG858Ad2s7B9Wltbeo7i6iC/NTokdGfGj0yutbewtLtaL3xoQOHAPmmJNoZHdqLx8bfMfHY+DuwdHsdnbNld9Dcuo3/uPKWF9ESgD8oSr4B5RGITt9C+gGiBeDpkPvnoLaZiYWuG3SQExDy2VDv4KexU8GegujA6jAx0oToLL8d8psL9fMn/fVBsrPyXIUwnE58pwL3T0DkhaUQBjrPhbld1kmBW4DY0TL4Hf6g2YRa+ZqCPO0txTCqiJFz+L6Lto1umfZyjlMHsvycRHibGcU8RHs6h3p8e1FYEPUzrK1L0380Os+fhmijpiBP7wWI9lSWl/56WhvqnhcmhKwnEL00geTDaexcVxvHIkQ58Otm5elnhdaFaChPXty8eeyFm6u+opMrve7DRcTn88Pba/2cl28xOrS30HRNyuS+cO/2Jy69uAxgovOnVZQ8A85JdBvkWagfGWJCdNRhlrdzUM+/JoQS6iJ8UDIGMWDwd/t0IQYYCxCDBf8yO1evYuxv8hClKMhma3W7qxmKz8UpTzaiB2cmhDIaNkFwLubdIFbn36BS67seW5CXlwZEnsmskWbEu1XEgfim4OD1BMR3WIgetM5gp0LWy6OoyWBIgim5byC7Bd5E+I7QRZadtG2BA/kO40k52bmehhizzSBdGhgaZNHdNmZpgz10N/JJ2n800LXCTnXC6c0vD/GTTLOdd4NtpM9JCKORPyGx0Lma6E62NjpxT2Nnu+3GxB2FAf0TH1H5lGUyrmgXfBfCYCI7Qi4JJzrXKXSXyFXaur6nbAFyxoDYthr3Dx/I1UpbNp98/buXm+3NSn7fk0cfqLQSmjcv3FzFU1df8f+cB92t8sJGuJLh04Jo8BcgOkSvc9/v/A3sVhx7eQbp1nwaCN+oIS3nEW/18i1mYQMhFWU4iG8ZDfuGpEpclGxL2D0jbEIMiGTp9yjSu8DNQj5r7a/79L/LH5xZkKerhWSDcRvyMnsWxbotWxDpIfs2f9DsY3beCasvLXQnc5IQVc6AbHmdFAfywXyeyMZlBkTahKX3ErpH6CTBgfwb49LaRnR7m4WkZd+APG3irJE+VW0zpyDyQVf/MQ9RN1W/ZQbJre5RqNRhC+HeL0CySWUVdMTlIH09CsNEx8M0hLj+fwqirdah1AZZhCg7Xg5hZ6bfFVqgp6B9anxyTddZr1WDCm11eezid1pr222/kzyOijYGfYAF+YA8C0uIt1KpYEO+aY4Krc77TsQzBoSscQPNpY48c4gf2FidZ+M6yHOd57yY54DuWqosCkMWa04vJrqucGk5i2SbQJmQewH0Mt8JtygrpwFRvuLkiuIc0h3dYkGtnM1DyKhSdtMw1ZFDlwUyCWETnr5HQFzb4R8Dp1IOLajX6SjvFqMTznSMbGlQUSaSpo2D3e2TAfENcW2RapvZgEgPlb5Itc1U/c4o/DSwU7w71Xk3S7ugMuFnIFleOBnkMSC+Ka6eR8VlQq3vmIeae7YBPWWxAZHWloJsSVGdICqcQVBoDXSstKN7hlpfuv99ha2tLJJPvf69i2+0b99fthxhDLJC+5XmxdbXVq/6Za5oi8ug4rtY+VfaOu8PnJ3sIr1Fmo7Gd/dxED9QdZFs0BFXJm0ks8Ik9UAwIAZpFtTz6RxEWrgJ4lFhuiOHqiLj76jsIHnnvp3w+Q+h2F2CTYi0UFVUWhCDKxvpBjom5BYJGXl5uyTNG52cx+4dpm3orYMmkqd1lNU4WH9biJ9kakCt/Xsc0W6ONrKnjYv6tJlp+w8H6dqpICaStQtAsn60yHYxa1wm9NUjHxf6yqIFUTd7y8ki4scQU4jP20VUcOfkQVBogZ4G5uOH7934yOFjscfb1A0qtNXj6uYt/OtL319rA6MQncoU6rs5Sp3x3Yn9f42IZ12IwZiL/PPKd3U2O3/7646a6LpFu0g2CPFnTlVkNzr/RoWv8kww/rQWUz8tGujmk58WgEgLN2XYSQjmi//vQkceD931YmlJkk5J8jQPTHTLpv+v1yOTi+xW8kZPuKrPGxriDcNEN6+LwE9TYOdSCB+jI4uKPCrpkjTtTITXOwu7rZBJrPMG4r1JWuh+vyyMrGmTpC4anX+9jM+kjT8YzxR2rpXt7T901U0ZftwGdq7Z9eNO04+aUG/jDajnfR5xJa1HKvmsoywa2L3EKekSEAvxHhxFLv9QYlAUWr+jHNsLrP/efQ+PjA7tLVkkvXzy9e++0Wxv3lW2HGEMqkL7a1deXn7x1pv+RlAfRb03RyGEEEKA8DWDYdZlFaYgX7sKVHDgTEhFCatLaTcqbCB6WVDlrLT9eg5tkCY6ZvktYOTLzYvK55nWhffsv+NW2TKQLt9cu7bWo8z6uwASQgghdcZC+CB3JmV4C4hWhM2U4RIySDQQPjHkIJ2VvglR1xclv+tem5uZQVFoATHTsAQA7trKRNxZpnXjvQfvbMQ/RYpgrb2FP7z22u2eW1ZZshBCCCGa8K02QRaRbX2mCzHxG4aRIVxCBoWg+7+PkzFcO+I3M2PYWhkkhRboUSy+8IZ3uUQ5tPPB0SPhB6CSwvly8+Jyz67GZ1HB3eAIIYSQhFgIHzTr8EByNYRByCDSgNw1OOsa6tp4Fw6aQutCrPPAxc2bx55fXe4bM+3o0F68e9/ojbLlGHReuLkKd23FdzVeBHc1JoQQ0h+YZQtACNlFWWtZK7XJ6aAptIBY59ECgHPNC3vW2lsli6OPT95l3Dm6Z2itbDkGmf+w/MNWz59p1xQRQgghVUO2tEnHkidZGHnt0ksIiceI+K1SdXMQFVoPnTUgm8DBftogamJ4Pz537MHRxtDwm2XLMoj85+aFyz2uxs+ALlSEEEL6B09yP83uxr00IN9rws0YNiH9TpSlNGvdtCX3z2cMVzuDqNACIoMWAbFB1As3V8uVRiMTw/vxhfvee4c5Ot43inodeOHmKv7X6vKxzp9LoKsxIYSQ/sKV3J9Etj5PtqFNCzVaw0dISSyg43kawizSe1BMQb42t3L1clAVWqDHHfR33/D6Tvl7bPwdE08efQDDwEbZsvQ7a+2toKuxhYqtLSCEEEIy4qBzWkQIZ5BumY0D+aDZShEeIYNI2O7jgJhscpFcqTUhn8CaRwXPhh5khdaFcAvFSntz4ivNi7LZjdry0IFD+OJ9Dx98cP8dfaewV4nArsZ0NSaEENKvWBG/PQ3R/5mK4XiQK7PnUEErECEVxUb0mbFe55k4xdaAUFa/AbnXRFY35lzYU7YAJdOAMNVPAsCvH3sPJvf15+k3X79+eeO/XP/xwTLifvLoA3jowKEyos6db65dW/vtlaXRzp+LKG+3OUIIIaQIpiEGvWEDXp8lCOXWQ9djqQHRR5ox754Fl+0QkpQGxCTQyZjn5tE1vCxA1MkGRL08EfHeYueZSnogDrpCC4iG+asAMD40vPw79713Iub52vLn6008u/KjG2vb7TuLjLdfFdq19hZ+8fW/2tgE/ImC96Niu74RQgghOWBAKJ0yC2sa5iHcltmPEpIeC6JuTmoKz98XxtEUXi7sLVuACvAihCLy4Pp2e/RWe6v18MHDpVgy8+Zt+w7i74weOfDdjetr19tb+4qK9+/dMY6jw/vf+vv51eX1P71+9YrTvLD+X1uv73355puXDgztHbtvX72S/bOX/3q52d483PnzcdA9ihBCyGDQhOjzzkEMeO8FcE+KcBYB/D6ARyHWAV7SJSAhA8oCRF1agjBc3ouu4UWVJYidjM8C+AXUYJKJFlpBA8ItZgzob9djAPjT1av4o+bFwuJ78ugDmNw3gvPXL7X+z5tvtNe320fCnvuZQ0dbH2vcH+WGVBkCLtzz4IHzhBBCiAlhvTUinlmAUIjd3KUhhADdOmlGPON1Lr9+1goqtF12uB7/xj0PTYwO9acBu2iF9sSBO9e+e/PGni0gdpbgS/c9jKqn+9LtdXzm8kv+ny2IRqJ2lZ8QQgghhJC6U23NoVheBHAEwAfXt9ujN7Y2l//2yNho3Et15JVba/jOxo3C4ru8dWvfNqDk4nz33v3rx/ePFuYOnZS19hY+c/nF1m1s+9bZj6EGrhiEEEIIIYT0I4N8bE8YNjpnrLlrKxMv3FwtV5oB5LXbG1fKliGK31r+YfCIHq6bJYQQQgghpCSo0O6kiZ7zlT5/9ZWNtfZWieIMHn+1cWO4bBlkfP365Y0Xb73p74K9iHSHyBNCCCGEEEI0QYV2NwsQu3phEzj4q1deXi5ZnoFiC9ubZcsQxgs3V9GzCVRlD5YmpEAaEMcDLADYLlcU0uewrOWHBbE50za4uSEhpKZQoQ3Hhti5Fq9tbkx8pXmxVa44pEzW2lv4/NVXNnpuTUPsBEfIIDIFcR6dB+A5RB/ETkgWWNbywU/XJkS6nixVGkIIyUhl3TsrgK+0jH1t9erY1MgYHjpwqGSRSBk8cenFlU1gvPPnWfCoATJ4NCDaxBn0p1LRwO4lBHYJcpD+L2tl0Q/pakIo40bn3zCa6B474m/Y6OYsFyGkZKjQymlCuOJ8FRDrab9438MHq36kDNHLM8uvrrzRvu0rs+fBQS4ZPCyIQ9prcUZ0SkwAZwL3XHAgXDQW+r+slcEURFmuY7qaEOViGuryPxLzO4+sJKTPoMtxNHPgetqB5evXL298a6PlK7OLEJ0qIYOGB9EW9vPSi7A18VwnXzwe+r+slUET9UtXE6I8fAPAKdRTGSeEFAQttPHYEA3rydc2Nya+tPKj5cfG3zER/QqpOyGbQFkQgwJCBg23czU6/9bVXTGKMOXVLFoIMhBlrQw8iD6sDunagLDSn4p4Zh7iO3y34gaEFboBUW+r/H2EkBygQqvGW+tp3bWViXfuH13/8KGJkZJl6kvuHT5QutfA0u11fO7qK+sA/DyeRnctDiGDShNisHitZDl0I3NlPAGxVs8rUhgCoH/LWtn46eqhmhbPKIW7BbH+dw7hk8u9Z8L764VtAJNaJSSEVJLSlYea4HcCAIDnmhe2l26vlydNH/OTI2OlWr/X2lt46srLra2uMvsouI6OEJ8mOjvA9xFRrsV0Oy4P3WXNn5je7lyzEIrPoNG7WVLVmEO4MnseYnLJgZqnVLPzrAHgcdTL1RoQ5dJBt6x6YFtESCRUaNVZgFBu0AZGn7rycmutvVWySP3FXmD9g6NHSrN8r7W38MSlF1fWttv+zPU5iE6FENKf+JYcGVZBcpB8MSE2eOy11p3G4G7y55YtQAgzCD8+6BxEHU275GcWIv97lVojZVhF4WCny/UkRPmV7exMyMBDhTYZDkTjirXt9tgTl15cKVec/uIfHjp6q8xdpL+08qPeHY3nwcEsIf1O3M6pvtsxqTfBI5l8TmMwrbRVo4HwyQXfzTgrC9jZnxsawswLA/JdmnWkBSF9CRXa5FjouEG90b49/szyq1RqNfCBg2MrH2vcX9qanmeWX10J7GhM9x5C+h+VASIHkfUnSmmlQls+FsInlmahbzPGOXQMEhXHiPiNZZUQCVRo0zENofTgWxut8a80L1ZmfcYLN1fx8xe/c+MTFxbwiQsL+OTr333jmeVXby9v3ipbNCkfODi2cnri+Hj8k/nw/Oryeo8y24JwT+KOxoT0NybUdkPl5Fb9cSX3l8BNv6qAJbk/J7mfFltzeHmwAPmaX7dAOQipFVRo09GEaIBbAPC11atjz68ul75L1FeaF1tPXX0F69vtO/17zfbmXd/aaO17/NL3N37/jaXVl26+WaaIOxgC1n6u8bb1spXZZ5sX/HW7VGYJGRyswN+yQeQkqNTWnVl0JqF70OXOSrIjm1jSvXmVB2APqq0YNhFeLhchyjEhJAQe25OeBQjl59sA8Gzzwsi9+w7ioQOHShFmrb2Fr61elbrstoGDf7Z+DX+2fg1jQ8MbAA7Kni2C8aHh5V+5+90TR4f3lyZDQJkFRH5WdfdHQog+Gth9zuUMgOckz09Dv7WIFEcTYkMdC12XTge0zlYBs2wBKogDoXRbnb89cINKQiKhhTYbb+18DACfu/rKelnH+fz52jXliFvtzVKVWXN0fPl37ntvqcrs0u11PNe8sN1z61FQmSVkULACf5+HGDAuSZ4/Ba5f6wccCLdTG1Rm64BRtgAl4qFbVp0S5SCkFlChzY4Dcc4ZtoCRz15+qRSl9qWNNyu/OdUwsPHk0Qfw2Pg7Sj1rdun2Oj57+aX1NjDaufUo2GEQMkgEXfqcwL9h0O2YkGLhMTWEECWo0OphFp3d87aAkX9/9QfLRZ9Ru9y+VarVNY63Dx9c/uJ9Dx8syyXbx1dmtwDf1fhxUJklZJAwsfM80iV03YmdiPe43pKQYuEkEiFECSq0+rDQUWpX2psTT1x6caVIpfbS5s3NwiJLyCN33n3z8/c8OFHmGbNAqDJ7DtxkgZBBwwr87fT834NwPw6DZ9ISop+oTRhPgVZaQogCVGj1YqHnjNqildqq8vDBwwfKlkGizFolikQIKZ6wzaCcwN9Rmz/RSkuIXuL2rnDA9euEkBio0OrnrTNqqdRWAyqzA42J7qYaLoQFbltyLUAoMxb0DKAMdDef2Y54ZqYjWzNEJrfzu6FBHpl8bki8zZzjLgsr8Pd57N4cyIH8CJ88XSCnOnH7aR+kASH/HKLLiq7Bv4Vu2TAl8s4ivPx4EN9SRZdRA0JuWTonDWsGIk88hKeDzjZFFr8bErdfJmxUvw7LvCIA4RnhojpKrV8PHYg+Q9afuOimv4X0lmYL3fy1U4bRi4Fiy6yfXn5cZsQzUW3bLPIrxwa6aVJEnvYyDXlZ8tsoW1NcQHS73RunA5EmpqZ4c2dP2QL0KQ2IAnECAO4a2rfy2/f9zVzPWp358fdeu7p1++15xpGWJ48+UNpxRlRmBxYXwMkM77cgOpE0LukmREfwSOB+b3trdMIPWgujeKbzTtZzktPEfQ5d5dxFeNrWoT/xsHP97IcQrtQ4kKfPR6H3CB+rc/Wm6Tx2DiRsiDIlPZotwFl0lbYkGJ14rEBcvd/sD4hU69cSuoPypLiSeNKUNQvx6ayKgeR1qAWRbmnyRUf88xB5u9B590zIM7L6kDcW5Edm+bTQVXrKwER4u54UlTJnILwenkV6pdZAsWV2CuIbprHzG3rLWKPzTJK27TxEumStQ0B3wjvrWMFBMu+dNN8NiLJjI10dNZHtW8+jmhOUb0ELbT40IQrPW5baZ5ZfzXUX4q3tbZ4pHIDK7EAT1WgvQnQM85Bb4sYAPA31DcP8DsoD8A1ED3r8QWWSgQUAnEZ2S4WVMu5TnfesDHGXjYndm0G5kmejJjJ0dOoGuoPE57C7vPp5PAWR7meQbOBzBuLbVGf1/XN2X4UoZ8G4/HBmIM5eTzIomoSoE2XsV2AgOp3TYEOkk6wOLXauIGMQ+eIhm9XDQro6fBIi76wMceeFA/mRWT5jAL4KUa7NfMXZQQOiDEW16y10+5Q4osqgBfF9snqYFhvFlVkL4hu+3YlP9g1mJ9ykbdsjnfeyWCwbEO3dNyDPD9U8HUsoi4noNn0J8rHJSaRrS/3yG/at/neG5X8vWSdycocKbX7sUGq/tdHKVandt2doX15h1xEqsyTAEsTxTEcgOh+zczUAvB9yl7dTiJ8RnwJwDUIBnox4zoQYuD2N9AMV3/0uDbMQg3pZ3OchLAD+FezIxzrv63J9Khor8HfUoGAB+Z1JayF+wHoCIp3dzv/T4JeVuPzyIBSFuAGLA1F203Iaxe4o70CvYuB7XoVZNuchrNh7INJ7CqKteRS7B6ZjEINLK4UMFrLVYXTer6KlRVUmf1DvIn/F1q+Dp0N+8/uU4xBlw+xcezr3HkW8kt4bj85JF5+iy6zqN9id8NLWyzGkn9ydgmjzwtq7eXTHCWF5+jjU8zQMC+K7g+OEFkR9PQ4xCWd24v8QwutwkrbUQXj59ePzv3MK4js/Komz8lChzZddSu2nXv9eLmtq/8aBQ8UffltRqMySAOewc31ikAWIwdRZyfsziO44mxDuwDJrr88cds6Qn0N3QOFfxztyRIV1AsndziyEd2qAkP0IRBrYPZfZuR+UR5fVoEgMxG8GFSQvK60Hkfdx5cVFN639wecR7CwvH+2EJUNl4DeL+Nn5GXTTzx98vR+7y27cIP4UirPUziF6bWZSXIQP1B+HqCtBV9gmRBkzEJ6+SSeHLMjdcuPqcFBJSTtJkicLEHKq0qvYWjnIEzWhdBYiXx3sXoMPdNeQGwhXEMOen0U2ZSmIr8wWWWZVvmEOOxXssLbNL7NRYY0heVvi52mwD2uhmyYOwscJHrrreB9PGC8gr7+L2LnfRi9uR6ZnQt47hfg+bBq7+70WRNsdFh8g8seEUKbjym2lqMOap37Ab2y1UokAABWkSURBVFjeWlP7+XseHNd5jM1frLfw9BuvagtPJ0WuoaUySzpsd/5Nmv8uwgcAjyK+8/Bd0+JcAefR3SQjKiwX8oFnC+qz0ybEwC8Mle9SkQeodn9iY+cgSqVcNCAs72EsIrul2oAYPESlqeq6wanOMzIPAZV1exbi1zGqrl+zEW4V8lFdh+wi+xpa2SAWUF9D6yC8XqvWHwNCYQvKsAS1jW6mIFw4w9BZh8taQ9vLNMT3JJ04W4Iod3PIvr6yAZFfYfVJNb17CZbBqPLrQN6HJFlDKwuniDI7g3hvjiWora13EN2nHkd0X+pjIPx7Wui6ASehN0/j2hET4X3wYuc3lfI6h3CrclSd9bC7DCcpQ0nKbenQQlsMOyy1eex+/JMjY9gLDLSVlsosCbCI5Pkvm/FVscg1ITryqFnlc+iuHYoLy0T0Gl9TQSZAPnh5POI3mTw6LQhFYgX+dhTeaSLfM2k9xJcrE2qK3wLE4ENmaT2J+LrgINraOw8hr8rgy0a0tW0Wxe1au4Bs/UCYlQMQZcNRDMNDeNsyCbXNZGTxnE0gw45xSIWZgyjLSd0eJyEmZDyI8pelfDkIV2aTpHcvC4huz3uxkN3ls+wyO4vob5hHV1mKw4oJS9VbxkH4JMkMkiuzQNezK44GwtPcV6RVJ18syf2wsAEhW1gZlj0fhl9uawEV2uLIXam1Gm/TFlbdeH51ef0zl18ClVnS4SzS5b9MeVAdHDUh76STlklfQZZhKoRhIbxTm0dyd60m6lmngh37EtStUE7EbyqKSBwe5JMEZ5FsoOXnj2zQbCuEISv/LSR3s3YQ7ioHqCtyulCZFJARVk98y3nWcID4dLAQblVdRPKlB3FtSlXw0HV7TKrc9W5kZCO5Ymsi3BKWJr17WYBIe5XvcTPEA5RfZgH5NySxSvpYEb+Ziu+HeXrMI9u6fhfx7fQMwvtgG8nSoInwCcdJhHsLyTyIvARxAuLbHkcN1tVSoS2WUKX26uYtLYF/+NDEyNuGD6xpCaxGPL+6vP5s88JIz63HUc+BN9GHjXSzrjKMBM96kvtOingdZFvHYie8H4eL+llprcDfSRT5OeR/Jq0nuW+nCGsB8u+bhNqmLmE4Eb9FYUNeXuJkqQIW5FaOpOnRRPigcBLR7YstuZ9WMXVRfSutj4vsiq2qJc1Hlq52wvjDcJC/xctC+WUWkCu0aSaXPIkcgNqEhS25r2Nyx44IpyH5zT8OKSmu5L4Vcs+UPGukiHc2IrzKQIW2eHyldh4QSu2nL31/fem2Hm/h37jnodH3DdAGUV+/fnkjoMw+inKOhyD9TdTuxXmT1rokczlaRDYLgJfh3aIxsNva4iQMQ/b8JKq5W+ws9CvhadckNiEfTFY1/XqRDVQdzfHIrClTCK/DSbwMwsjybhm4EOOm44h2iw9jEmIX7znEKz8Gwq2zLZR3/m1Syi6zeZE2/WV1aBF6J73DmEa4m7OTMjxPcj9JXlgp4648PLu0HHyl1gFwagsY+ezll9b/7dEHRnRsnvTLRx8Y+e+tH2+cv3F5bxvo2+N8nll+deVbG63xnltpNmsgpOp4Kd+TKQtOyvDqiBX4+xySK2cO5DtET6N6A90m5DKXcZbgHISSHTawM1G99PMxIN9AqYF0FguZQjWF8HSwJM87KeLuJe0ERdl4EGky03Opbh71CLqKsez7ZW1mVctoEAPhZdbfRNBMEWbSMpsXaZVPS3K/CNll5cnXAZKSRHH1EO5m7bvjOynirzRUaMvF6vx7agsYeerqK/i5xtvWP3xoYiTqJRV+duzeg+Ydd+HMlb9+s9nevCNreFVirb2FL638qFeZ9dd3ueVJRUhuuIjeMVaGGRHeoGAF/nZShLEAMZsfNlA8BTGorpqC4ECuhJsotgw0sfvIql5ZqooZ8Zts1/CiZHALir+q+JZ/G6KO21Dzook7m9mU3HeVJSsXU3LfP0e2zqRVaGV57aYMLwmm5P4ZpOvTk7AA+e7Qz0HIZqNeHleR0OW4fCz0nGn1bPPCyFeaF7Wc/TQxvB9fuO+9d3zg4NhtHeFVgbX2Fp649GJQmTVRnw6HkCIwIB/g5e1mVRWybAYVJGoZQxXdZhcgdzs2C5TDx5Xcr+J5qD5GgXHJ6qQsfdyc5KgjDrrnvaqs7486x1vXRjplYRQYV9H9SNpJwzArJZC//FMo98z2OAv0KQCvolt/ag8ttNVgFqKyPgcAX1u9OnZl89bK6Ynj49GvqXF64vi+P19v4g/eWLpxE9t36gizDJZur+OpKy+31rbbfrosQgwmvfKkIjXCd7ma6vy/6DVARWJI7tdlMxgdWIG/XaRX5qIGUzOopvvWAuSDuaLxIn4zYn4vC1Nyfx76FcqwwbUsfi0T3n2IAzGIn0G89WsG4Upt3ScBTcn9osps1YhaM523V40s7rQbQkURlhcexC7zMk8dn1Od6xxqbrGlQlsdHIhC6QIY+9ZGa/xTr39v5fP3PDg+OrQ3c+AfHGngfffdeWfAVbc2vHBzFZ+7+sr6VnfGK83W72TwaEAoNhaqbQ3SjawzHZT6YmD3elG/49aNfyatl0PYWfAQrtCaxYoBIHowbaB6aReFCz073qalDopEWfiuyHMQYypZmz+GZOvf695uuii3zJZFmZPWsj54AcXlhQ3R3quMfWqv2NLluFosIHCsz+kff6+lawfk0aG9OD1xfPzjh+/d0BJgQTy/urz+1NVXgmfMTqH+nQzJFxuiUX4a8o0y5kOufqCfrc8q6DiOocrxqeCVLQAhJeGPpaKs2WYhkpBBpQp98I5TVRTxXZFd1KyOUKGtHn5DPA8Aa9vtsScvv7T2/OqytqN4fuLAHQd1hZU3zyy/uhI4lucs+njbcaKFKYh6dAa717AsQay1OoKuC3LwIvXHKji+Kq6jleGVLQAhBdBE9ERTEoXDyCYKGUCqYnDxlVrVNeY+JyE2EnNRk/JPl+NqsuNYnzYw+mzzAn5wa235sfF3TJQqmSbW2lvwLc9hRxWttbfwq1deXn5tc8P/3haqu1aNVIcpdNz2Q357HINzRrEnuW8UKENZWNiZ/0vQp+DOIPzoG/9M1Toc7+GVLUAAutAmoyrrouuAA/mRUUkwUL16Q7JhIN88lbVrZdVfp3NZUN8VHBDy+oa2SrfVVGirjQUxOH8OANy1lYkf3Fpb/pW73zWhY11tGfzFegt/fP3yaz+4vfZ2/95eYP3vjo6/+YnG/ROjQ3t7N3/qVWZNVLwykUrggMosIO+oVTuxOmMF/p6Fvg1RmpCf5Vo1hdaQ3K+K5cCnavL4eAgffFbBlbCB6qZb1XCR/fxlI7sYheChumW2DNyI3wyUN0lRZv11kFyxHYPo2yq91I8ux9XHAfB+dNaCvLa5MfGLr//Vxgs3V0sVKinPry6vP3bxO62n33gVvcosAGwBI+7aysRvLf9w+fnV5fUnL7+0trbd7t38yQCVWRLPDMLXys5jsJRZILrTMYsSogQM7BzQtaDXq2MBcretU4jeVbNoDMn9MtpSU3K/ymvWPcl9s6D4o/KpKBn6gSTlXVYeTQ1yFIEnuW8WKEPVKOv4sqrXXwfJjruaRDX3ingLKrT1YAGi4M0DwCZw8Kmrr+C/tV6/WapUinz+6isbzzYvjPQoqaG8eOvNiWebF0bawGjnFjd/IkmQNbaDpswC0eeQ1mm9Z1KCZWAO+tuPupxJG2apaaGcM0xlFqIqT1S6kvtjKMbi1YR8oFmlclZXPMV7QH3SW1afiiqzVUSWJnnnaV3qrwN1xbZKcu+CCm198NfVPuPfOH/jyoEnLr24vNbeKk0oFTaBJJtQ+ZtfPQpu/kTUaUDuOuMWKEeVcCX3K90pZcQK/J3HZIYT8VtVZrBNyf2yXKJNyX2nQBmSEqVsF5XPruR+v9Vhf++DIj0cwvLXlTzrH/NTddyI36rSNhWNrM07gfyVfFdyfxrV8uYBdiq2ssnwSh99SIW2fswA+Chq7oIcwY8gXKydkuUg9SKqYxpUC7+sI59Ef04WWdi5fnoR+VgAmxDeI2H4Z9KWjSW57xQog08D4WsY88ofXTQBnJf8dgrF5LOsDo+hv+pwA8KjIA+l0ZDcD0vbqAmfOiiEVSizVSMqT+2S4h5DdcuTg2q4RCeGCm098Rdn73BB/tLKj5bLFSsz8wA+iGoPcgipC3OQz7TaqN4McVaswN95upo7Eb+VPVBpIFwxmEc53gp1XgrgpPxNF3OQuwHa6J867Pf5dg5hmyH3FhHuXhw1WXUS5ddtFZyUv/UrHuRrox9BvspbVP09g/wtxHbKOBYgnxipLFRo64sHURHP+jfctZWJf/X6d5f943BqxlmI7xlUaxrJRtQkSJJZfyujHFWiCbnSMBnxWxQGqrkWy8DuNaNujvG5qO76KBvhO33bxYoBQChcYUrAIuoxuJ6DfDB8EsV8gyyOtHVYlidl4vf7k9BbTk2EL0WJSreo+G1kb/+mkO9ExBxE/QqjqDJbNeyI33wDURaiXIjj4s6zLJxB+onDsDFVknNsC4cKbf2xAXwInYK20t6c+Mzll/CV5kWZZaZqtCDkt0uWg9SbJuTWSNXBm4XOEVl9xCzk6XIKyQa2DYgOWLa5m5kgLN3Ygb9lFhidRLl061Bq04QxDeB0yP1nkE3BT7vmy0F4ebEyyFI0UXXkFNIrCA3Fd21E76ydJP4G5Od0V4Uz0NOWyNJ3XnLfx0OPoSDAGET6mSllmu687yJfRcaK+K2IMls1XPTsPxPAz9O0Su0MgK9Cni4O5BMMk524jZRxW4iX+yTSja+NkHtuinAISYzf0Gz71/jQ8NVfP/ae7S+/bWrH9eTRB7Z7nyvxctE/LlOkfBzIy5od8V4DQvGLK6+mohx2xveDmJLwbMX3pyXv+5fKLPE0xKRBVDiq8uimESJbEbJEpaubIBxXEoa/EaAqJsLzaAHq7awpkUW1nPTiSMKxEoThSsJIQ5Z8mpG835vGZgJZLAjFaRtqFhQzJv45xA+KzZ44q1aHESJLFiuyAZEnYXXKUAwj7P1gWqnWB1+RVZXDjohTlaqWWTtBnEGy1OEGovO0iWR5agXCi2pnDUT3n00kK+8GRJ2PK0tp292wPnUbNV1bS+rLroHnzxw62qygQmvnmQhkIDERXeZciEbd7FzTEIPuOEWtt9NxITp1K0IOR/K+mfK7ZIpTElciWxJG77c5nbjMnstG/CA4mMYLKHYWP2wyoii336i0MBXDcGPCmUX0IKsBef4mUWaB+DrkIX5gNAX5wNFJIAsgT5s01hTZ96jiSMIIpreNnXXIvyyIvPQC71iK8VsxcUfV4TjlrOw6DIksHsRA31AMw4D43rA2vYlk5SZOAepNcwu783um85sX8k1xctiS+OwE8gPllllL0zf4NCLkTxKGjjwNli+VdnYq5L2wuGexuw6bnXt2iPxORJxJ+xJfzrA0ioqHkNzwXQPfKoyje4aaTx59oAoKrQfO8pD8ULG0xnUoJtJbI82Id5IqF0B0B5x0gJY1bXoHM27MM07C70yLJYnfLSBuUxJ30vxxY8LxrznsHHhaiJ6QSVPe4r6ptx2fxc5Bn43owWJSi5sVEZYua3FUXQ4jzuqVtK2xEsQNxCu1Ouuwm1C2rMTJ7CvZNrrlzh/kzyK67HlINwmyayyV8XKRTfHxkNw9tYwyG/UNSfstIMQDMXCpyNQblhsRVtIrSVsUNdmX5nJi4pOlvwNRLkzsrEeydEnTlxCilWkEZtb+1sHDl35p4id0VaY8Kz4haUmruLnoDhZshWd6MaA2G67q1uRb3VSsxw7UBwiWYpiyb/fjMSXPeChmwspE/KBkAflYahsQgwHVdHQQnT+u5D0rQRzBS2UmPgwzIjyZnHGXh2RlYgpqSoQHkUZR32lBzcPAhXpZmUL2AbGL9OvmptEfdTiIK5En62Uj+7hj11gq4dVE/ISOgXhPGj+sWSQrP0WV2ST9luo3WFCvw6ZCeD5J2nBZPUnTvyRJo6gyoBK3jvozm+IbCcmFBgID/CFgA3oKepLKZ+X9oYT0YCKZ5csMvB+0jMYNSFTj8i87Rn47YXhuTHjBb3Og1qH6s7lmSDhBpSPum3SSJG10YyaMPy5/3Ai5DahNlPiXg2xnTcq+ze78Pg11C4MHUWeSKhNJ09YODSVdPiVhCsmWLMjamjQkGRRH1eHg5F/aiRCdTCPbBIpf9mzoP3fVQjKL7QLU64CdINy4NkVG3mVW9zeYCcNLWoeBdHlqpYgniD8xmsRi6yFZm5q2LvlthpH+84pnT9kCkMIwIQr2iYLjnUd3ho2QojEgyr4R8psL0Zk0Je/6s9oeuhtA9BsmwgcrHsT3Rn2z77ploLvpCUmOi91HDgE7++cGRD5NYXd+uRD5NYfsx56ZAL4Rcv8sdiqOvhxT2Fm3mhBlZg79WV9k+Okgs8S7iG5rsmBCTx22IN+5u0xMCPkMRB95sxC4ipQriIduvawqZZbZqmJCXsb8cuXlEG8D4W27jwc95cn/tqh4iqo/hGRmBsAq0s98JrniXGwIqToGyrdYVJkGajaLW0Fc6LE06MCUyGKXJA/JH9ZhQgghtWQSwB8jP0V2AdkPqiaEkEHABRVaQgghJDVDZQtASmEJwD8G8DiA/6s57LPo7uRGCCGEEEIIIYTkStYd/GiVJYSQdLighZYQQghJDS20BBAbQRgAHoWw3iahBVplCSGEEEIIISVAhZb04kAopmchFNU45jvP2/mJRAghhBBCCCHhUKElQZront92FuEW2xaENddEtbelJ4QQQgghhBAy4FjorrF1wGNMCCFEFy64hpYQQghJzXDZApBa4HQuA7TIEkIIIYQQQioCXY5JEryyBSCEkD6jDh4vdZCREEIIIYQQQkiBWJAfhTZTsCwNyN2fm+CxbIQQQgghhBBCIJZvOIg/39uFWNeaNxbizyL3NwyktZYQQgghhBBCBpg4RTZ4mTnKYieUxc1RFkIIISQxe8oWgBBCCBkwzMDfTQALnf9PYbcVdKHzTB4YnSssvgZ2uxr3ykoIIYQQQgghhBBCCCGEEEIIIYQQQgghhBBCCCGEEEIIIYQQQgghhBBCCCGEEEIIIYQQQgghhBBCCCGEEEIIIYQQQgghhBBCCCGEEEIIIYQQQgghhBBCCCGEEEIIIYQQQgghhBBCCCGEEEIIIYQQQgghhBBCCCGEEEIIIYQQQgghhBBCCCGEEEIIIYQQQgghhBBCCCGEEEIIIYQQQgghhBBCCCGEEEIIIYQQQgghhBBCCCGEEEIIIYQQQgghhBBCCCGEEEIIIYQQQgghhBBCCCGEEEIIIYQQQgghhBBCCCGEEEIIIYQQQgghhBBCCCGEEEIIIYQQQgghhBBCCCGEEEIIIYQQQogS/x/0meFQ9AqrWgAAAABJRU5ErkJggg==;" parent="HtO18c_mInnsINNzJjgo-5" vertex="1">
          <mxGeometry y="39.02439024390243" width="901.7560975609756" height="297.73170731707313" as="geometry"/>
        </mxCell>
        <mxCell id="HtO18c_mInnsINNzJjgo-4" value="&lt;font style=&quot;font-size: 116px&quot; color=&quot;#ffffff&quot;&gt;RISC-V Architecture for Motion Planning Algorithms&lt;br&gt;&lt;/font&gt;&lt;font&gt;&lt;font color=&quot;#ffffff&quot;&gt;&lt;span style=&quot;font-size: 80px&quot;&gt;in Autonomous Drone Applications&lt;/span&gt;&lt;br&gt;&lt;font style=&quot;font-size: 60px&quot;&gt;Anthony JW Kenny&lt;/font&gt;&lt;/font&gt;&lt;br&gt;&lt;/font&gt;" style="text;html=1;strokeColor=none;fillColor=none;align=center;verticalAlign=middle;whiteSpace=wrap;rounded=0;fontFamily=Block Gothic;" parent="HtO18c_mInnsINNzJjgo-5" vertex="1">
          <mxGeometry x="1030" y="37.07317073170731" width="3050" height="325.8536585365853" as="geometry"/>
        </mxCell>
        <mxCell id="HtO18c_mInnsINNzJjgo-6" value="" style="endArrow=none;html=1;fontSize=80;strokeColor=#990000;strokeWidth=8;" parent="1" edge="1">
          <mxGeometry width="50" height="50" relative="1" as="geometry">
            <mxPoint x="1525" y="3345" as="sourcePoint"/>
            <mxPoint x="1520" y="405" as="targetPoint"/>
          </mxGeometry>
        </mxCell>
        <mxCell id="HtO18c_mInnsINNzJjgo-7" value="" style="endArrow=none;html=1;fontSize=80;strokeColor=#990000;strokeWidth=8;" parent="1" edge="1">
          <mxGeometry width="50" height="50" relative="1" as="geometry">
            <mxPoint x="20" y="3360" as="sourcePoint"/>
            <mxPoint x="4190" y="3360" as="targetPoint"/>
          </mxGeometry>
        </mxCell>
        <mxCell id="HtO18c_mInnsINNzJjgo-12" value="" style="group" parent="1" vertex="1" connectable="0">
          <mxGeometry x="45" y="450" width="1410" height="687" as="geometry"/>
        </mxCell>
        <mxCell id="HtO18c_mInnsINNzJjgo-9" value="&lt;font face=&quot;Block Gothic&quot; color=&quot;#990000&quot;&gt;&lt;b&gt;Introduction&lt;/b&gt;&lt;/font&gt;" style="text;html=1;strokeColor=none;fillColor=none;align=left;verticalAlign=bottom;whiteSpace=wrap;rounded=0;fontSize=80;" parent="HtO18c_mInnsINNzJjgo-12" vertex="1">
          <mxGeometry width="528.75" height="130" as="geometry"/>
        </mxCell>
        <mxCell id="HtO18c_mInnsINNzJjgo-10" value="&lt;font face=&quot;Block Gothic&quot; style=&quot;font-size: 45px&quot;&gt;&lt;span style=&quot;line-height: 30%&quot;&gt;Current processors cannot compute motion planning algorithms&lt;/span&gt;&lt;/font&gt;&lt;font face=&quot;Block Gothic&quot; style=&quot;font-size: 45px&quot;&gt;&lt;font style=&quot;font-size: 45px&quot;&gt;&amp;nbsp;quickly enough for robots to operate in high complexity environments. Autonomous drones are a specific case of robots requiring real-time motion planning in complex environments. The state-of-the-art strategy of using a GPU to accelerate the execution of these algorithms requires too much power to be cost-effective or feasible for drones to sustain flight for useful periods of time.&lt;br&gt;&lt;br&gt;This thesis aims to design a RISC-V processor from the ground up, optimized for motion planning computation, that is synthesizable on an FPGA and adheres to the requirements outlined below.&lt;/font&gt;&lt;br&gt;&lt;/font&gt;" style="text;html=1;strokeColor=none;fillColor=none;align=left;verticalAlign=top;whiteSpace=wrap;rounded=0;fontSize=36;" parent="HtO18c_mInnsINNzJjgo-12" vertex="1">
          <mxGeometry y="107" width="1410" height="580" as="geometry"/>
        </mxCell>
        <mxCell id="HtO18c_mInnsINNzJjgo-14" value="&lt;font face=&quot;Block Gothic&quot; color=&quot;#990000&quot;&gt;&lt;b&gt;Specifications&lt;/b&gt;&lt;/font&gt;" style="text;html=1;strokeColor=none;fillColor=none;align=left;verticalAlign=bottom;whiteSpace=wrap;rounded=0;fontSize=80;" parent="1" vertex="1">
          <mxGeometry x="35" y="1075" width="535.2380952380952" height="232.38938053097343" as="geometry"/>
        </mxCell>
        <mxCell id="HtO18c_mInnsINNzJjgo-43" value="" style="group" vertex="1" connectable="0" parent="1">
          <mxGeometry x="42.43386243386243" y="1334.2" width="1397.5661375661375" height="803.8100000000002" as="geometry"/>
        </mxCell>
        <mxCell id="HtO18c_mInnsINNzJjgo-21" value="&amp;nbsp;Power Consumption" style="rounded=0;whiteSpace=wrap;html=1;strokeColor=#000000;strokeWidth=2;fillColor=#990000;fontSize=53;align=left;gradientColor=none;opacity=70;fontFamily=Block Gothic;" vertex="1" parent="HtO18c_mInnsINNzJjgo-43">
          <mxGeometry y="660.8011504424778" width="475.76719576719574" height="143.00884955752213" as="geometry"/>
        </mxCell>
        <mxCell id="HtO18c_mInnsINNzJjgo-22" value="Has total power consumption less than 100 Watts, which is smaller than a typical GPU." style="rounded=0;whiteSpace=wrap;html=1;strokeColor=#000000;strokeWidth=2;fillColor=#990000;fontSize=38;align=left;gradientColor=none;opacity=70;fontFamily=Block Gothic;verticalAlign=top;" vertex="1" parent="HtO18c_mInnsINNzJjgo-43">
          <mxGeometry x="475.7661375661376" y="660.8" width="681.8" height="143.01" as="geometry"/>
        </mxCell>
        <mxCell id="HtO18c_mInnsINNzJjgo-8" value="&amp;nbsp;Specification" style="rounded=0;whiteSpace=wrap;html=1;strokeColor=#000000;strokeWidth=2;fillColor=#990000;fontSize=61;align=left;fontFamily=Block Gothic;fontColor=#FFFFFF;" vertex="1" parent="HtO18c_mInnsINNzJjgo-43">
          <mxGeometry y="0.0035398230088503624" width="475.76719576719574" height="143.00884955752213" as="geometry"/>
        </mxCell>
        <mxCell id="HtO18c_mInnsINNzJjgo-11" value="&amp;nbsp;Description" style="rounded=0;whiteSpace=wrap;html=1;strokeColor=#000000;strokeWidth=2;fillColor=#990000;fontSize=61;align=left;fontFamily=Block Gothic;fontColor=#FFFFFF;" vertex="1" parent="HtO18c_mInnsINNzJjgo-43">
          <mxGeometry x="475.77000000000004" y="0.0035398230088503624" width="679.23" height="143.01" as="geometry"/>
        </mxCell>
        <mxCell id="HtO18c_mInnsINNzJjgo-15" value="&lt;font style=&quot;font-size: 53px;&quot;&gt;&amp;nbsp;RISC-V Compliance&lt;/font&gt;" style="rounded=0;whiteSpace=wrap;html=1;strokeColor=#000000;strokeWidth=2;fillColor=#FFFFFF;fontSize=53;align=left;fontFamily=Block Gothic;" vertex="1" parent="HtO18c_mInnsINNzJjgo-43">
          <mxGeometry y="143.01238938053098" width="475.76719576719574" height="143.00884955752213" as="geometry"/>
        </mxCell>
        <mxCell id="HtO18c_mInnsINNzJjgo-16" value="Such that the processor designed can implement any program correctly compiled into the RISC-V assembly for &quot;bare metal&quot;" style="rounded=0;whiteSpace=wrap;html=1;strokeColor=#000000;strokeWidth=2;fillColor=#FFFFFF;fontSize=38;align=left;fontFamily=Block Gothic;verticalAlign=top;" vertex="1" parent="HtO18c_mInnsINNzJjgo-43">
          <mxGeometry x="475.77000000000004" y="143.01353982300884" width="679.23" height="143.01" as="geometry"/>
        </mxCell>
        <mxCell id="HtO18c_mInnsINNzJjgo-17" value="&lt;font style=&quot;font-size: 53px;&quot;&gt;&amp;nbsp;Synthesizable&lt;/font&gt;" style="rounded=0;whiteSpace=wrap;html=1;strokeColor=#000000;strokeWidth=2;fillColor=#990000;fontSize=53;align=left;gradientColor=none;opacity=70;fontFamily=Block Gothic;" vertex="1" parent="HtO18c_mInnsINNzJjgo-43">
          <mxGeometry y="286.0212389380531" width="475.76719576719574" height="143.00884955752213" as="geometry"/>
        </mxCell>
        <mxCell id="HtO18c_mInnsINNzJjgo-18" value="Synthesizable on an appropriately sized FPGA, such that it is practically usable in real-world drone applications" style="rounded=0;whiteSpace=wrap;html=1;strokeColor=#000000;strokeWidth=2;fillColor=#990000;fontSize=38;align=left;gradientColor=none;opacity=70;fontFamily=Block Gothic;verticalAlign=top;" vertex="1" parent="HtO18c_mInnsINNzJjgo-43">
          <mxGeometry x="475.77000000000004" y="286.02353982300883" width="679.23" height="143.01" as="geometry"/>
        </mxCell>
        <mxCell id="HtO18c_mInnsINNzJjgo-19" value="&amp;nbsp;Speed" style="rounded=0;whiteSpace=wrap;html=1;strokeColor=#000000;strokeWidth=2;fillColor=#FFFFFF;fontSize=53;align=left;fontFamily=Block Gothic;" vertex="1" parent="HtO18c_mInnsINNzJjgo-43">
          <mxGeometry y="429.0335398230088" width="475.77" height="230.97" as="geometry"/>
        </mxCell>
        <mxCell id="HtO18c_mInnsINNzJjgo-20" value="Executes comparable sampling-based motion planning algorithms faster than a generic comparable design. Research indicates a 10x speedup would be achievable and useful." style="rounded=0;whiteSpace=wrap;html=1;strokeColor=#000000;strokeWidth=2;fillColor=#FFFFFF;fontSize=38;align=left;fontFamily=Block Gothic;verticalAlign=top;" vertex="1" parent="HtO18c_mInnsINNzJjgo-43">
          <mxGeometry x="475.77000000000004" y="429.0335398230088" width="679.23" height="230.97" as="geometry"/>
        </mxCell>
        <mxCell id="HtO18c_mInnsINNzJjgo-25" value="&lt;span style=&quot;white-space: normal&quot;&gt;&amp;lt;100 Watts&lt;/span&gt;" style="rounded=0;whiteSpace=wrap;html=1;strokeColor=#000000;strokeWidth=2;fillColor=#990000;fontSize=53;align=center;gradientColor=none;opacity=70;fontFamily=Block Gothic;" vertex="1" parent="HtO18c_mInnsINNzJjgo-43">
          <mxGeometry x="1157.5661375661375" y="660.8" width="240" height="143.01" as="geometry"/>
        </mxCell>
        <mxCell id="HtO18c_mInnsINNzJjgo-26" value="&amp;nbsp;Metric" style="rounded=0;whiteSpace=wrap;html=1;strokeColor=#000000;strokeWidth=2;fillColor=#990000;fontSize=61;align=left;fontFamily=Block Gothic;fontColor=#FFFFFF;" vertex="1" parent="HtO18c_mInnsINNzJjgo-43">
          <mxGeometry x="1157.5661375661375" width="240" height="143.01" as="geometry"/>
        </mxCell>
        <mxCell id="HtO18c_mInnsINNzJjgo-27" value="" style="rounded=0;whiteSpace=wrap;html=1;strokeColor=#000000;strokeWidth=2;fillColor=#FFFFFF;fontSize=53;align=left;fontFamily=Block Gothic;" vertex="1" parent="HtO18c_mInnsINNzJjgo-43">
          <mxGeometry x="1157.5661375661375" y="143.01" width="240" height="143.01" as="geometry"/>
        </mxCell>
        <mxCell id="HtO18c_mInnsINNzJjgo-28" value="" style="rounded=0;whiteSpace=wrap;html=1;strokeColor=#000000;strokeWidth=2;fillColor=#990000;fontSize=53;align=left;gradientColor=none;opacity=70;fontFamily=Block Gothic;" vertex="1" parent="HtO18c_mInnsINNzJjgo-43">
          <mxGeometry x="1157.5661375661375" y="286.02" width="240" height="143.01" as="geometry"/>
        </mxCell>
        <mxCell id="HtO18c_mInnsINNzJjgo-29" value="&lt;span style=&quot;white-space: normal&quot;&gt;&amp;gt;10x&lt;/span&gt;" style="rounded=0;whiteSpace=wrap;html=1;strokeColor=#000000;strokeWidth=2;fillColor=#FFFFFF;fontSize=53;align=center;fontFamily=Block Gothic;" vertex="1" parent="HtO18c_mInnsINNzJjgo-43">
          <mxGeometry x="1157.5661375661375" y="429.03" width="240" height="230.97" as="geometry"/>
        </mxCell>
        <mxCell id="HtO18c_mInnsINNzJjgo-40" value="" style="verticalLabelPosition=bottom;verticalAlign=top;html=1;shape=mxgraph.basic.tick;strokeColor=#000000;strokeWidth=2;fillColor=#990000;gradientColor=none;fontFamily=Block Gothic;fontSize=61;fontColor=#FFFFFF;align=left;" vertex="1" parent="HtO18c_mInnsINNzJjgo-43">
          <mxGeometry x="1237.5661375661375" y="164.51" width="85" height="100" as="geometry"/>
        </mxCell>
        <mxCell id="HtO18c_mInnsINNzJjgo-41" value="" style="verticalLabelPosition=bottom;verticalAlign=top;html=1;shape=mxgraph.basic.tick;strokeColor=#000000;strokeWidth=2;fillColor=#990000;gradientColor=none;fontFamily=Block Gothic;fontSize=61;fontColor=#FFFFFF;align=left;" vertex="1" parent="HtO18c_mInnsINNzJjgo-43">
          <mxGeometry x="1237.5661375661375" y="307.53" width="85" height="100" as="geometry"/>
        </mxCell>
        <mxCell id="HtO18c_mInnsINNzJjgo-44" value="&lt;font face=&quot;Block Gothic&quot; color=&quot;#990000&quot;&gt;&lt;b&gt;Rapidly-Exploring Random Tree&lt;br&gt;&lt;/b&gt;&lt;/font&gt;" style="text;html=1;strokeColor=none;fillColor=none;align=left;verticalAlign=bottom;whiteSpace=wrap;rounded=0;fontSize=80;" vertex="1" parent="1">
          <mxGeometry x="42.43" y="2070" width="1362.57" height="232.39" as="geometry"/>
        </mxCell>
        <mxCell id="HtO18c_mInnsINNzJjgo-47" value="" style="shape=image;verticalLabelPosition=bottom;labelBackgroundColor=#ffffff;verticalAlign=top;aspect=fixed;imageAspect=0;image=data:image/png,iVBORw0KGgoAAAANSUhEUgAAAoAAAAHgCAYAAAA10dzkAAAABHNCSVQICAgIfAhkiAAAAAlwSFlzAAAPYQAAD2EBqD+naQAAADl0RVh0U29mdHdhcmUAbWF0cGxvdGxpYiB2ZXJzaW9uIDMuMC4zLCBodHRwOi8vbWF0cGxvdGxpYi5vcmcvnQurowAAIABJREFUeJzs3Xd4FOXax/HvlE2AQCAkQGihd6RIERRDF8QCor6IXWxwEBQrePDYC4K9gYp6EAEFBFQEGwiiICgivVfpJKGl7c7M8/7xsBvSIKEYPHt/ritXktndmdmS7G/vpxlKKYUQQgghhAgbZlGfgBBCCCGE+HtJABRCCCGECDMSAIUQQgghwowEQCGEEEKIMCMBUAghhBAizEgAFEIIIYQIMxIAhRBCCCHCjARAIYQQQogwIwFQCCGEECLMSAAUQgghhAgzEgCFEEIIIcKMBEAhhBBCiDAjAVAIIYQQIsxIABRCCCGECDMSAIUQQgghwowEQCGEEEKIMCMBUAghhBAizEgAFEIIIYQIMxIAhRBCCCHCjARAIYQQQogwIwFQCCGEECLMSAAUQgghhAgzEgCFEEIIIcKMBEAhhBBCiDAjAVAIIYQQIsxIABRCCCGECDMSAIUQQgghwowEQCGEEEKIMCMBUAghhBAizEgAFEIIIYQIMxIAhRBCCCHCjARAIYQQQogwIwFQCCGEECLMSAAUQgghhAgzEgCFEEIIIcKMBEAhhBBCiDAjAVAIIYQQIsxIABRCCCGECDMSAIUQQgghwowEQCGEEEKIMCMBUAghhBAizEgAFEIIIYQIMxIAhRBCCCHCjARAIYQQQogwIwFQCCGEECLMSAAUQgghhAgzEgCFEEIIIcKMBEAhhBBCiDAjAVAIIYQQIsxIABRCCCGECDMSAIUQQgghwowEQCGEEEKIMCMBUAghhBAizEgAFEIIIYQIMxIAhRBCCCHCjARAIYQQQogwIwFQCCGEECLMSAAUQgghhAgzEgCFEEIIIcKMBEAhhBBCiDAjAVAIIYQQIsxIABRCCCGECDMSAIUQQgghwowEQCGEEEKIMCMBUAghhBAizEgAFEIIIYQIMxIAhRBCCCHCjARAIYQQQogwIwFQCCGEECLMSAAUQgghhAgzEgCFEEIIIcKMBEAhhBBCiDAjAVAIIYQQIsxIABRCCCGECDMSAIUQQgghwowEQCGEEEKIMCMBUAghhBAizEgAFEIIIYQIMxIAhRBCCCHCjARAIYQQQogwIwFQCCGEECLMSAAUQgghhAgzEgCFEEIIIcKMBEAhhBBCiDAjAVAIIYQQIsxIABRCCCGECDMSAIUQQgghwowEQCGEEEKIMCMBUAghhBAizEgAFEIIIYQIMxIAhRBCCCHCjARAIYQQQogwIwFQCCGEECLMSAAUQgghhAgzEgCFEEIIIcKMBEAhhBBCiDAjAVAIIYQQIsxIABRCCCGECDMSAIUQQgghwowEQCGEEEKIMCMBUAghhBAizEgAFEIIIYQIMxIAhRBCCCHCjARAIYQQQogwIwFQCCGEECLMSAAUQgghhAgzEgCFEEIIIcKMBEAhhBBCiDAjAVAIIYQQIsxIABRCCCGECDMSAIUQQgghwowEQCGEEEKIMCMBUAghhBAizEgAFEIIIYQIMxIAhRBCCCHCjARAIYQQQogwIwFQCCGEECLMSAAUQgghhAgzEgCFEEIIIcKMXdQnIMT/CqUUgUAA13UxzeyfrY4ePUqxYsWw7ex/coZhnJFjF2Y/Z+qYZ2uf5/r5nY39CSHE300CoBBngOu6ZGRk8Oeff5KQkEBsbGy2y5cuXUqDBg1ybT8dSqkCXc/zPObNm8dFF11EREREgcNLQfd/sv1lZGSwdu1amjZtWqD9FWSfhZGZmcnevXtJSEg4Y/sszPm5rktqaiqlS5c+o/s9U/s418OxfCAQ4uyQACjEaVBK4ff7ycjICL3RK6VyVQCDbxA5t/8dDMPAcRxM08SyrL/9+Eop9u/fXyT3HcDv97Np0yaqVatW4NucLPwWNBwDpKamsmTJEjp16lTg2xTWic4nMzOTBQsW0LFjxzyfgzP5gSC/fS1btox69epRvHjxQj12hTm/E9m9ezclS5akVKlSp72vnApyfsH/D1FRUdmubxgGPp9PAqQoEhIAhThFruuSnp5OIBAAwLZtDMPI8w3uXPgHX9g33jMleN+L6jE4leOfyXMNhq6iCsCmaeJ5HpZlFdk5JCUlZftg9He/Fnfu3EmlSpWIjo4u9G3PxIeB3bt3c+jQIZo2bZrr+sH/G0L83SQAClFISikyMzM5dOgQS5Ys4eKLLw69sTmOw7p169i4cWO24JGWlsbatWvZtGlTtu05w0lBLyvMdYI2b96c7c2mMLc/nXPOzMwMVQH/zvscvK7ruiilcF33hI/P/7pz6b4Wxbkc/9op7O3O1PGPD+BKqSL7UCYESAAUolCOr/oFQ4VpmgQCATZs2EBmZiaVK1emQoUKoX/uSinWrl1LuXLlQhWI4y8Lfs9rW2Guk9+24O+O4+S63tk4Zs7vnucBsHbt2tO6z/ndpqC+++67PLefzUAaDKCO47Bw4cIzFnALc5nrugCsW7cudPmZCtgFPR/P80hJSSE9Pf2MfKgo7HU8zyvSDwF5dQsRoqhJABTimMWLIRCAVq0gIiL7ZUop0tLSyMjIwDAMLMsKjejdv38/69ato1SpUkRFRREXF0f58uWz3X7z5s2UKVOG+Pj4v+vuZLN9+3bq1KlD8eLF//Zjp6WlMX/+fC6++OKzsv+TBdMjR46wdOlSEhMTz0igLexl6enpbNiwgRo1apyVgH2yy4K/B4PgqRzjdM9ZKcWWLVswTfOsPM4FcfDgQVauXJnv5WczkPr9fjzPY+HChdm2V61alRo1ahT4PghxJkkAFOKYUaNg8mQoUQLatYMOHaBjR2ja1MF1M1i/fj2BQIAGDRpgGHpgBcCaNWuoU6cO8fHx/Pbbb3m+KRV185th5N038e869t+x//yOE2z2jsiZ6v8mR44cYdOmTUUW/tPT09m5cyeNGjUqkuMDfPPNN7Rs2ZISJUqclf2fLFAuXryYqlWr5qrMB7+f7Ur4rl278Pv9JCQkhLZ5nndWBqUIUVASAIU4ZsIEeOgh+PFHmDsXnntO8eijBiVLWlxwQSSNG8fTtGkKdesaHDx4INSk2apVq1Bl7URBq6gC2LlCKVXkQVj8bzrZhwDD0KNti+pDwMGDB7FtO9uHgJzdG4T4u0kAFOIY29bNv61awZAhDnv3JrFqVTF+/jmCn3/28e67FUhPr8Q997g0bBhFhw7nEx+/lnbtst5U8guARVmBC/pfrQCe68cv6uf9XFDU4b+on4Oivv9C5EUCoBDHUUqRkZFBZmYmv/22iLZt29K2rcmDDzr8+edqFi4MsGFDFTZsqMRbb/lIT6/Ak08qLrrIJTHRIS6uJJUq5d5vUf/zL+rjF7WiDgBFKZzv+/GK+m+gqI8vRE4SAIU4xnGc0Ahf0zRD/7CDI3xTUvbRsmVJ7r67LIaRSVpaKh98sJIjR1rwyy8RPPVUJBkZLYmOdmnfHhITFe3bezRurIq8AljUx4eirYKsWVOGN9+0Wb3aYPBgl4EDPcLp/fhcqL4V9TmE8/GFyIsEQBH2PM/jyJEjZGZmYtt2trnykpOT2bJlC6VKlSIhIYG0tLTQZZGRBg0bJnPxxRn4fC6ZmTBx4mY2bqzCsmUxDB9ukplpU7asolGjBnTsqLjySoOGDRUyI8TZt2yZwYgRFt99V5ajRy8CdBB58EEfe/Y4PP20G1YhMJyF84cfIfIjb0MibCmlCAQCHD16lLVr17Jz585Q+AvO87dx40Zq1apFkyZNsG072xtJ8B96cFtkJDRrdpiBA5P49tsAe/f6+eYbP/37uxw+7OP55+No2TKChIQI+va1GT3aZM0ag7/jvel/eRTw8VavNujXz6ZChQjatIlg2jSLyEjo3n0r77/vAAYPP+wwapTNY49Zf8tjH+6KOnwFnWsVwHPlcRHhSyqAIix5nhfq6wdZy3QZhsGBA1kjfJs0aUJMTEzosrz+aef3j7xYMWjfXtG+vUuPHiuJjo5n586qzJtnMm+eyUMP2QQCBuXLKxITPRITPdq3V9Stq6QyVQjr1hm8/rrJ9OkWSUn6gYuOVlx3ncuwYQ6VKh3h119X8cMPVahcWfHkky7lysFDD9l4Hjz77P92JfBcCRrnWgD7u48vxLlGAqAIK8GqX2pqKkqp0Pqopmniui6rVq0iKSmJOnXqsH79enw+X+i2Od9A8npDOdEo4GLFPDp2VHTs6AIuqamwcKHB/Pkm8+eb3H+/jeMYxMcrLr7Yo317HQhr1z79QHguVADP5PHXrTN4912Tzz6z2L9f7794ccUVV7g89JBLq1ZZj9mRI/r7/PkmF1+s+/4NGuRimvDAAzoEPv/86YfAI0fgXJ3W7VwIP0V9DuF8fCHyIgFQhI1g1W/nzp1s376dVq1ahf4pp6enk5KSQkxMDBdccAGRkZFs2LAhV5PviZqA87rO8XJuj4qCLl0UXbroQHj0qA6E8+bpQHjvvTaua1Cp0vGB0KNmTU4prPzTqxBr1hiMG2cycaLFnj36AbBtRYcOLvfd59K1q8Ky8r7t0aMWf/xhcPvtWathDBzoYpqKIUN8eB6MGHHqIXDbNkhMjGDkSIf/+z/v1HYi/mdJABTnIgmA4n9esOqXnp4eWrsXCPX1W79+PcnJyZQpU4YmTZpkm1Q2Z2jK+Xt+oTCnglTgSpaErl0VXbvqQHj4MCxcaDJvnq4STp5s43kGlSvr0cW6ydijevWTB8Jz4c3nVALo6tUGkyaZjB9vsWuXAejKXsuWeiRvr14eJ1vdzjAMVq8ui+cZtG+fPZwNGOBhGAHuu0+HwJEjTy0EVq0KXbp49OtnU7KkQ48e504ILOrgX9THD56DVACFyE4CoPif5nke6enp+P1+QC8LZlkWSqlQX79SpUpRsWLFbGt4Qt5NvgXpA3imloKLjoZu3Ty6dQNwOXQIfvlFB8J580wmTrRRyqBq1eyBsFq1Qh/qnKGUDn2TJ5t88onFjh069IFBvXoed93l0qePR1xc4fa7YkUslSsratbMfVn//h6mGWDwYB9KwahRhQ+BpgljxjgcPWrTt6/NjBkBOnQo+uATdC6Ej3APYPl1GSnq8xLhSwKg+J/wxhtQuzYkJuqm1WDVLzk5meXLl3PBBReEKn+u65KRkcHq1atDa/hu3ryZQCCQbZ95VfcKUgE8WyuBlC4Nl17qcemlAC4HD8KCBSZvvmmyeLHBJ5/oQFi9ugqFwcREj6pVz40+gPlRClatMpg61WTCBItt2wwMQ6GUQaVKHrfd5nHDDW6e4a2gVqyIJTEx/7n/7rpLVwIHDfLheQYvv+wUOgTaNowb53D11T6uvtrHrFkBWrc+d0JgUTkX+gAWtXMhgAqRkwRA8Y/nOPDaa7BpE0REwEUXKTp2DJCYmEGtWrrfXzD8Bat+SinatGlDZGQkULDqXn6f4HP+/netBVymDHTt6tGnj+4rWLWqR+vWHratWLrUZNw4PYClZk1FnTqNuOKKSC69FCpXLtxxUlLg2EDoM0YpWLlSh75PPzXZssXENBWeZ1CmjOL6611uvNGjefPTHwBz+LDB5s2leeAB54TXu/NOHQLvuUc3B7/6auFDYGQkfPppgMsv99Gzp49vvw2QkCAhsKgVdQAr6uMLkRcJgOIfz7ZhwwZYu1Yxa5bLt98qXnjBx3/+E0FsbEkaNWrOjh0GCQnrMM09VKpUib1794bCX34K0gcwv2157etsiIyEuXMD3HKLj61bDfbtM8jMNKhVy2PgQIfKlRXbt5vMnl2Gb77RQ1Rr19aji4NTz1SsmP/+N22Cpk0j6NRJT6ty5ZUeJUsW7hyD993zFMuX69A3ebLJ5s0mlqVwXYPISEWvXh433ujSsaPCPoP/mRYu1H0nExNP3i/vjjt0c/C//qWbg1991Sn0pN1RUTB9eoBu3XxcfrmP6dOtIg8fRel0jz93rkH79rknT9+3Dz791OLTT03atfMYNsyldOn8z6GonwMJgOJcIwFQ/E/wPJf4+MNceOE6br21Lq5rs2SJzbffwldfleKee0oCLWjQwOHii9NISHA4/3xCAwhOtXk3r+t4Xu6gcTabYFu3Vixf7ueVVyyeecaicmU9l+CkSXpevGrVFC1bHuDppwMYRil++slk/nyDsWN1hbBePS+0bN3FF3tUqJC177g4eOUVh4kTLfr181GihOLyyz2uu86ja1eP42bJyZNSsHy5yfjxDbj//hJs3mxi2wrXBdNUdO7sccMNHpdf7hEVdVYeHn7+2UdcXDo1axYsyfXrp0PggAE2Stm89lrBQqBScOgQJCVBUpLBffe5DB1q0717DM8+W5JOnU7zjpyGcyF8nMo5bNhg0KOHj7ZtFaNHO1Svrpg92+Tjj01mzTIxDOjQQfHBBxaLF5t89VWAEiXOwsmfpqIO4ULkRQKg+EdTSpGZmRn62rt3Lw0aNMDnM2jTJoMyZdbSseN+ypdvxJo1lZg718eMGVHs3duKp59WXHihS+fODvXrF6dSpbRs+y5I825RNgEfz+eDhx/WFbq777aZPdvkX/9y6dHDY/p0iylTKjF1aiSVKyt69XKpUQO6dHGIioK9ew3mzTN47z2d5ho0yB4I77xTf23dCp99ZjFpkknv3j5iYxVXX+1x3XUubdtmNdUqBX/+qSt9n39usmmTiW3XAvQVmjXTTbzXXONRvvxZe0hCfv7ZR+PGezCMcgW+zU03eaSlOTzwgM3u3TY33+yRkqKDXXIyHDiQ/XtyskFSErhuXt0EYNCgdpQpE+Caa8IvCCilWL26LNu22dx9d+Huf506im++CXD77T6aN/cRGQlpaQbnn++FptyJjYVff9VBsU8fH1OmBMhZ3C/qClxRH1+IvEgAFP9YruuSnp4eGrxhH2s3PH6Eb9SxslKDBnE0buxy7bUuhw4d5quvNpOS0oo5c2yefTaS9PQ6xMZWo2tXg06dHDp1cgs0xUtBK3t/1yCM+vUVc+YEePtti5QU6NxZ0bmzQ+/e80lLa84PP5Th888tdu/OGmhh24qWLRX/+pdD8eKwb5/BDz8YjBmjA2GjRsEBJYrbb9cTLa9Yoadn+fRTi3fftahWTdGhg4dhKObPt9i82aBYsaxmu7i4dG67zccNNxjUrv33haCDB2HFCovbbjvEmjXlQ9W54PdgiNu5UweLpCQd5pKTQSn9fH/1lcVXX+kJBkuXVsTGQmysomxZRfXqihYtsrbFxkLZsoq4OP09NhaWLz9Kp05luPlmH2XKBOjSJXxC4IEDMHRoMcaPv5iLLnK54w4n37kac9q3DyZNsvj4Y5MdOwxKlFCkp+uK9VtvOTRvnvU4XnCBYsqUAL16+bj1VpuPP3aydSMo6gBW1McXIi8SAMU/TiAQ4Ouvv6ZRo0aULVs2tJpHMGCtWbOG5ORk6tSpQ2xsLAsWLMgWvkzTICHhCDfcEOCeewJkZMAXXyQxd66PFSvimTRJtwvXrHkBXbq4XH65RZs2egLhggwUOVPTwJwqy9IrXeTc1qaNn8sucxk1yuXXXw2mTdMBbu9eg6VLYdkyi4wMA8tSNG+uuOMOXSHct89g9myLt9/W96F2bY/u3XUgvOSSAB98YPH11yb//a9+ZzdNff+LF4frrvPo0ydASsoPdO7ciYiIiNO6b34/uUJczjCXnBzcbrB3L3iewdixjRg7Nms/hqGIidGhrWRJ+OMPk6goRbVquvJ5/vkederoELdwocnjj1vceKPHmDGF7xNYt67LyJELefDBi+jZ08fcuX/v6OCiCB+eBx99ZDJ8uI3rwoAByxg5sh6WdeIHz++Hr7/WTbzffGNimnD55R5PPRWga1eP5csN+ve3adfOx5AhLv/+txvqxtGxo+KTTxz69LEZMMA+pefqbMnvOZBQKIqSBEDxj5OamkqvXr2YNGkSl156aeifaHJyMgCO44RW83CcvEd+Hh/SihWDtm3TaNDgIOedF82+fQZz51p89tlRpk0rx7vv2hQvrmjd2qJBA4dSpUzq19dTihS0Cbgop2EJCh7fNKFtW0Xbti4jRrj8/rvB9OkmU6dabNmiB5YcOACff26RnKwrhU2aKG65xeXgQYMZMyymTDF4801dlfE8PUXN0aPg8ykqVIC9exUHD+o5/VavNoiOzv2vJj09d5jL3bya/bIjR3K/YVqWomzZYFVOf2/USBEb66EUvPWWRa9e67n77hqhylxMDKFKVFoazJmTNb/i559bfP65Rc2aKrT6yksvOTz4oI1h2IwefSoh8AhffRWgRw8fXbr4+PVXPw0a5H1dz9OP/969Bnv26O/6C/bsyfpZKf24tGjh0bChon59RYMG+ivnknSep5fP27cPKlVS1KpVuPMvjBUrDAYNslm0yOSGG1yeeCKVVau2YVn187y+UrBsmcHHH+sPJElJBi1b6sf82ms9ypbNuu755yt+/jnAyy9bPPusxYwZJu+849CunX5tX365x9ixDrfdZhMdbYXmdDwXKnBFfXwhcpIAKP5xgk29juNkW80jKSkJgIYNG4YqTYVZri24rXx5RZ8+DjVrrqFatXT27avAnDkWs2cbjB1bi9GjLSpW9OjUyaVKlYrExxuh0YeGYeC6LmlpaaHfg9sAMjMzs03+evz3I0cMeveO4IUXArRqdWbfMPJfoQRatlS0bOny9NMuy5fryuDnn5skJxuULKlo2FAvsfbtt7rpGODwYb327rG7SdWqivvvd2jRQjfT7dhhMH++waJFJv/6VwSG0YPYWEVUFDiOQUqKbnLNyec7volVf09IgLJlvVB4y/qur1O6NPkGMqVg8WLFggWVee89RV4FyBIldHC4/HIAl6Qk+Okn/RhMnWry4Yc6KUZHK8aNM1m2zMcrrzg0aqQoXbpgy/IpBc2bK15+Wa860rp1BA8/7OL3Ewp0waC3b1/uvoRlyigqVNDhukIFxXnnKZYtM9m8WYe7adMstm7Nuk2lSor4eEVEhOLQoRi2bu1KerqPihUVe/fCLbd4DB/uFHpKoBM5cgSeecbizTct6tRRfPutn8RERUZG3h989uzJauJdtcokPl5/yLjxRh1o8+PzwSOPuPTqpfu7dukSwV13uTzzjEN0tK46HzniMGiQj+hoePxxt8gDoOd5EgDFOUcCoPjHsY6VblzXzbaaR6tWrVi4cGGetzmVvnz6eorGjT0aN/a48cZkVqzYiOO0Zc4cmzlzLD75pCkjRkCzZi6dOjlUrWpRteoOdu7cmeu4ADt27Mj3fn37bQK//NKcWbOWkJy8N9u55hcaC7otPT2dVatWYdv2SW/Towf06GGwdWsJfvwxjrlzY9myJfsQ3ZzhbcMGg0ceyZ7CbNsjJsahZk2XtDSX1NRiHDhgExHhUa9eOq1bp3L++WmULesSE+MSE+MRFeVhmgW/X2lpBmlp+V/PMAweftijV68ERo06xE03peE4BtHRKt/b2DZ06mRQtqyPvXtLsGePyZ49JocPG4DB8uUGnTvrJGmaCp8P4uM9Ond2adLEY98+g717zWNhzmD37rLs3XsJfn9W57dAAJ591qJqVR3WKlRQtGqlqFDBo0IFRXw8xwKfDn3FiuV+vezZ41K3bgQdOii+/NLPhx+azJ5t8vvvJn/9Bbt2BedWhOAAHKWgVi3FxIkm48dHcO21Hk884ZCQkHv/BaUUTJ9u8uCDNsnJ8MQTLvfe64bC9vETQWdmZm/itSy48kqP554L0LmzV6jpf+rV0/1dx4zRTc0zZ0bw1lsO3bvrQUuHDzv8+9820dGcMFD+XSQAinONBEDxj+Pz+YiKisJ13WyreQTlFfYKO51LXvsCiIhwad/epXNnXdH76qul7N7diIULS/HBByYHDzajePHz6NABunRRdOniUaeOx9q1azAMg3r16qGUCu33+J/ff78YzZq5PPJIA5Sqn+34OW+T17YTXXflypVUrlyZ6OjoAu+nYkVFmzaZDB26i9GjS/Pyy8FRtMHl2SAmRnfqP3BADxgpXdqhRAmP3bsjcByTAwd8REYqEhIO0qjREerUyWDz5uLMmhXD2LHl+fJLP5dckkz37knExKSRmpr73Ap7X3NuK17co1s3j1GjqjJ2rI/WrQ8wYMD60PUcxyA5OYIDByJJSopk375I9uyJYvfu4iQlwcGDkaSmRqBUzjKjnrg6MxO2bbP44AMLUJQu7Sc2NpUyZTKJicmgatVMYmIyKVMm49j3TBYtiufjjxty+LCfUaPmUKKEmyuIHj0KqakGW7bkDr7B7507N+Dll2Np0WIhr77aAr/fpGnTw/Tte5jGjY+QkJBOerrHunWQnFyRrVtLsHVrCVJTS7BrVzEmTLCYMMEiKsqhfv2j1KqVQY0a6dSsmU7NmhmULp37vI7/+a+/IhgxogoLFkSTmHiY99/fReXKgWOruejrBbthrFq1hUsuqU1Skk3Tpuk89tghevQ4Spky+rnSA5MK/yHnmmugbVuboUPL0KtXMXr3Tueppw7Tr59i//6SDBtWkgEDEmjePBXXdQu175NdN+dl+SnqCqQQeZEAKP5xZs6cieu6/Pjjj7z00kuhCZ1zBgE4vQBYkHkA4+L8NGmyl0aNfmfQoCh27Ijh119Ls3JlJYYNM3ngAZsqVRQtWybQtu0Rypc3iY3NfZ9SUuDbb22efdalWF7lntPk8/mIjo6m/CnMu6IUpKbax/pSZY0eNk3F44/rtXQXLfIzZIhN69bw2muKo0czWbvWYNUqg1WrTObPt/jmmzgaNvR4800XpeDXX/1MmmQxZUoFxo+Pp0ED79igEZfq1U//Pus+crB5cwaNGm3kxx+r4/cXZ8aMBNaurcrhw5CSYhxrxj7+zVnl+F03d5cvryhXTlG5ssLvh++/NylfXnHggG6G7dbNZc0ak337Irj1VrjnHgvbLsGhQ4dYvnwjF110USh09u0L8fHpjBxZggceuIRFiw4SGVn4kP/ggxadOxdj9eomzJx5ENsOXl4MKIZSirS0NFx3Cw0a2IAfpTJRKpmY+VtBAAAgAElEQVTMTIMlSyIZM6YsixeXYNWqaLZvj2LKFD1xNkBsbIDatTOpWTOTmjUzqFUrg5o1M4iK8vjoozjef78CMTEOL720mQ4dDgEKvz/7OQYDoOMcpn//7TRufJjq1TOOXQb79xfufue3bdgwRcuW8YwZU48ffohhwIA1dO26jM2b6zN6dFNKllxGhw67T7rv05FfYHRdl5UrV7JmzZpsQTDYV1mIoiABUPzj/PnnnwQCAdq2bZttVGnwn+7JAmBev+flZAFQKb3e8ObNm6lZsyZVq1alVKlN1K+/l8aNy5Gaqtfq/f57g5kzo5g+PZahQ/W0IZ07e3Tp4nHBBbpf2uefmzgOXHutm9epFKnNm2H8eJPoaD3RcY0ais2bDTzPoFYt/Xi0aaNYuDBrLeWSJYN9C/Ub7DffLKRDhw5EROhwaxj6Nm3aOIwcCT/8YDJxosmIERaPP27Tpo1H374uV1+t+/7llJYGu3fDpk0G69YZbNpksH27we7dBvv3Gxw8qK+jg0wk0AKA9HT9elizRo92jo6G+Hjd1Fq5sp7WpUaN7E2w5cuTa145gKlTTW6+2aZzZ4/vvzf55hubXr1cypb1eOKJCKZN8x2bvDgCwzByBfunn4ajRx3eecema9cYliwJFHoFlHLloHt3lw8/jGHAgJJ59kc8dOgQ27dvp0qVKrkuq1MHrr8e1q4N8NhjFl9+6eO88zzuvtuhdGn9OK1dW5w//ijB5MkGjqMPYFm6ablJE8UNNxg0blyFcuUq5zmvY1paGvv376dp06Y0bQpwBjse5tC+PQwapHjgAZsXXmjKihWNeeWVAEeO7OCVV5rRtm1jevQ48Yow+QXOw4f14JpTqUovW7aMypUrExsbG9rmed5Z+bAnREFJABT/OMOHD+f555/H87w8m1ZOVskLrgt8/G0LWgEMyszMZPXq1TiOQ61atUg41onq+NtERUG3bh7dusEdd6xn1y6T7dvr8f33Ju+/bzFihE3Jknr+vDVrDNq2VdlW4TiTTmcUcq1asGKFn9des/j8c5NLL/UoX97l8cd91KlTuH3mNVjD54Pu3fXUMgcPwscfm0ycaDFkiM199+nVSEqUUAQCBkeO6GCX14TLoKd3KVYMoqMhISHYh86PaW6ha9faPPmkhePoef8WLw7QqNGpV32uvtrDMBxuusnGNOHqq13mzzc5fBjuuMNlwQKTCy/0ccMNJenYMe83+lde0SOrJ0606NjRx7x5gUKPML7vPpfu3SP44QcjzzkGC9L8WL++YvJkh19+cXn0UZt77vHRqZPHc885/Oc/ep87dsCgQTazZ1vExSkqVtQDV4YOzaoYxsVljUZu2NCjfn1FtWqQs6J6NlWoAOPH60mi773XpmXLSPr2TSEqqiJ9+9rMmBGgQ4f8n/ecTbpKwSefmDz8sM2HHzp063byJQVzMk2TqKgoSh+3Vp3neaH+zEIUBQmA4h/JNM1QADxeYfv3nSgA5hS8TlJSEqtXr6Zs2bKUKFGC4sGJyE6wH8MwKF/eT8eOHrfc4uF5euqL7783+eorvVrGpk1Qv34EXbro6mCHDh47d+o+YFdcUfg3nbzu76mqVAlGjHBZutRk/349mXNEhKJq1dzX9Twd0tLS9FQv6ekGmzaVJiLCZPNmg82bDf76K6tal5ICR48aZGSAHiydPSzs3x/cpiheHKpUUdSt65GQoKczqVvXo0YNXbErWzZ3yExLS+ennzbQrVtNKlZU/PyznrPwySctPvss72mCCqp3bx0C+/a1Wb3aYOlSPy++qEfCJiQo+vTxGDeuOJ9/3o7KlRWJibmfgw8+cEhJgdmzLa680ubLL50CjSwOat9e0by5x6uv2nTpEjj5DfIQrKgqBffc41K/vuKLL0yuusqmShXYuVP30Qu+hPQgFz0IJi5Ov7aaNvW48ELFmjUGCxca/Pe/Nn6/AURQqlQ3zjvPPhYMFfXrezRooEPk2eoad+WVHomJfoYOtRgzpikXXaRHqV99tY9Zswo2F+PWrXDPPT6+/97kuutcWrQ4tb9D6QMozkUSAMUpmz9/PiNHjuT3339n9+7dTJs2jV69emW7zpo1a3jkkUeYN28ejuPQsGFDpk6dGqqYnQo9UtMOTa2S87K8R/Pm/v1k/fuOn1wa9Cd2x3FYuXIlderUoWLFivz222+5ziG/AJi9CqnnNDv/fD1P2cqVBu+957BggQ6FY8f6ME3dFHn4MLz5pkP9+gql9AjSjAxYsUIHp8xMA78fMjP1l9+vvwIBI/Tz/v1N8fmKYxg+HEfvw3Fyf7mugevqIOb36wAXEaGDgefpbUoZTJ5sohSUKhWBUpD9Luf1Rtch+Ojkc3lBGKSnw7ZtBvv3K2rXdmnXzqNVK1XgENGhg6JDB5caNRT9+vn49VeXCy44vb5fV13lUbq0nvNw0CCbjz5yuOUWjyFDbCZMsChWTGHbLpdcUow77nB59lmH4wpBGAZMm+bQqRN8/73FTTfpClZBGQbce6/Lrbf6WLHC4Lzzgs2PeiWU9est/vijLLt3m6G5BXfvNtizR/+8Z49xbIRzlogI3fS9f3/WZNrNm3tcf71LnTq62Tw+XlGunJ5P8b33TAYN8jFgQIBHH9V/l44DW7YYLF2ayXff7SQQqMOSJQbjx5tkZuq3njJldMWwYUNdNaxfX08BU6nSmQmGZcrA228HqFHjVz78sC179hiUL6+48kof330XCD1WObkuvPOOxeOPW8TEwIwZgVOq/B1PAqA410gAFKcsNTWVpk2b0q9fP3r37p3r8k2bNtGuXTtuv/12nnzySaKjo1m1atUZ6fdiWdYpVwALOg0MZIW59PR01q1bh+d5XHDBBaEl5gqy75z7yr4NJkwwueIKXdH65BObX34J4PMpvv/eZMgQG78fbr3Vl+9+83f8ecVgGIS+TDPr+/FfwRYpXbnTP0dG6qlKfD7d5JeWpkOhZUGTJh4+n27GjYgIftf9GiMi9G0jImDHjo3s2FGL1atthg3zU6UKPPWUTSAAr7ziAEYoSOb15XnwzTcmH31kUrGiYtcuk3HjLN55x6ZWLY8+fTz69vUK3CTdp4/HSy95PPaYzTffBLKFjb/+0pMmV6umq40FebmWLAldu3rMmKH7BY4b5zBrVoDPP9e/+/0RdOvmMnGiyddfR/Daa062qq5hwPffO7RpYzBlikXZsorXX8+7P6jr6qronj0Gu3YZDBtm0aKFomRJRe/eNpUr64C3dy9kZAT7QOqOlKVKqWPhTYe4Zs2yfj5+u2nCU09ZvPOOfkFcf73LBx/kH0rvuMNj9myX/v1tfvvNT4UKYNt6Ld+KFf2ULbuRrl1rhM5/61ZYvdpkzRrjWOXUYMIEk4wM/ZYUHZ01qbX+0hXDKlUKFww3bDCYM8eiadMDLFyYygsvFOeNNywiI6FbNx/z5wdyLU24erVebWTJEoP+/T2eesrJNbF2Yck8gOJcJAFQnLJLL72USy+9NN/L//3vf9OjRw9efPHF0LZaZ2gJAtu2CxwAoWAjg3MK7mvv3r2sW7eOsmXLkpGREQp/+e07vwpgXpYvN1izxuT55wNUqKA4fNhgwwaDunUV//2vhd8fHHUbrJwF920QEaHo0kVXZG64wSUmRi+/VqKEnjfu+KbQRYsWUa1aNSpWrJjneYCuNL70ksXrr1tERcGzzzo8+6zNoEEuQ4fqMPLUUxYffWRRrBj07Ony/PMFG7Qye/Y6Zs2qzsGDFvfeq/jwQ5N160y+/95/bBWH/IOb68LQoRYffmgxeLDD88+7jB5t8cADetBFqVLw5psWzz1n06KFHkl87bUux80MlItpwoMPutx2m48777Ro2lRRsaJizBjdlJuUlPV8xccrqlZVJCQc/0Xo59KldfCtXl0xcaJuDr7pJr0e7dVXe9x/v0dc3CHmzo2hfHkoV87j2mt9XH21y8svO6F+n44DEyYE6NbNx7vv2mzdatCihcpWqduzJ++Jovfs0QHwr78MWrXyaNfOo2JFfe4lShwmJWU1PXu2JsdLNxelYPJk3d/tyBF4/nmX1FR47jmLgQP1+eTFMOCddxxatozg7rttpk3LasbO+fdgWbpfaa1aHldckf153roV1q7NCobLlxt89plJWpp+qypVKvuKJ8Hm5KpV8+5f+sUXJsOHWzz9dCydOxuMGKEHFt1xh8369QYXXujjl1/81K6tq+cvvmjx4ot6FZg5cwK0bXv6I4OzHiMJgOLcIgFQnBWe5zFz5kwefvhhunXrxh9//EGNGjUYNmxYrmbiU2FZFq7rnrS5N7jtVEcG7927l7S0NBo0aEDx4sVDq43kt+/89pNfMJw0yaRcOT0q2LL0dCM332yHljwzDF2ZycjQfeXAoFw5j/vuc9i+3WTRIpOvvzZ54w2L1q09brrJo0cPjxIlch0q3z6Afj+MHWvy7LM2R4/C4MEuDzyg11i9/36D+Pis25Urp9i/X79ZB0cAF4SeBNigWDFITobhw22uv94NLeGVn9RUuOUWm6+/Nnn11QD9++uq2cCBLratuPdeHwMGuGzd6mf2bJNJk0yGDbN4+GGL5s0V55/vUaFCJCtWNOLjj2127tR9D3fvhsxM/RiPH28zfrwO2LatqFtX0bq1R2SkDjaBgO4jt3WrwZIlJrt2ERoNC7palZGhRwUfPaq47jqPCRNMevSw+eADB7/foFKlVHr2LMWXX1r88YceRPHFFyYzZkRQvrwiLc3g4MHsr91vvzVZtEhX0eLjFeefr4iP97JV6saNM5k2zWLbNj+pqVC7dgQ1ayqeeSYrmKekBPjzz7SThr+NGw0GD7aZM8ekVy+XkSMdqlbV9//LL03uuktXp/ObtaR8eXj3XYdevXyMGeOFnqvg838yxwfDyy7L2u55sG1b9mC4erXB1Kkmqal6vxERernCrAEoOhgOHuwyc6bBa6+dz//9nyIlxWDHDoM+fTwmTzZZu9agXz8fL77oMGCAzYYNBg89pD/wnMnZWaQPoDgXSQAUZ8W+ffs4evQoL7zwAs888wwjRoxg9uzZ9O7dm7lz59K+ffvT2v+JAuCpVgWP//3o0aOkpKTg8/lo3bo1xYoVIzU1tUD9C/MLWjm3uy58+qnFtde6+I618K5Z4+fxx23GjTNDzbG7d+sVHa64wuWKKzyeecbmySdtBg92+eYbh/HjTV5+2WbRIotFi0xArw972WX6q0mTvN98lIJp00wee8xi82aDm27y+M9/HIKzhQQXLTm+aBgXp/sWArmazk4mM1M3Bz/xhG76fe65E/dz27ULrr7ax7p1Bv/5j5stUADcfbeHZQW45x4fP/+s+y7u2pU1VcnSpQZLl5qARfHiCdSqZdCokeKiizzi4/X+v/rKZP16k8qVFcWKKTZt0oMbihXT4XPfPoOUlNyPXenSuvLnODpUuC7s2wfTpxscOmTgugY//WRRp45+Er/7rirffadvGxGh10l2Xd10vGuXSblyHmAQF6fXMT7vPI+PPrI4fBjuvtvl5pvz7n92++0ml12mPzxER+vRx++9Z/HII26Bmy0zMnTla9Qoi0qVYPr0AN27Zx3P59PB7sILfTz/vMUTT+Rf9e3e3aN/f5cRI2xuucVP8eLwxx8WY8Y04o03bCwLVqwwsW09lYxl6eCnf8//y7ZVtt+rV1fUrKnYswfmz9fzMR46pLsJTJqUFdANQ9/OcYpTt27W8xgTo6hdW6/1HBcHHTv6aNFCsWhRgMaNz1zVL0gCoDgXSQAUZ4Wn15+iZ8+eDBkyBIBmzZrxyy+/MHr06NMOgPk1AcPJp4E50SAQpRS7du1i48aNREZGEh8fH+qzmN8/8IL0AcwrGM6bp/tw9e2b9WbruvDZZyZKGej5cxXNm7vMmOGE5li79lo/L72k37AnTLB47jmHjRv9/PCDwbPP2ixapJuRX3zR4qmnghNR1+bKKw1699bh5uefDR591ObXX026dXP59FMn1xvf3r36vkRFZW2vWlVRurSeFPn77006dCj4vIWZmbqa9N57JiNHnriJdsUKg6uu8uH367V+x42zuP9+N9davnfc4WHbAfr3t6lfX3HffS6VK+vm3MqVwfMUX3zh8tFHAVauLM2uXboquHGjwdatJomJHq+95qdDBz2QZP58g3vusVmxwuDBB10eecTFNHW427fPOLbMW/BnWLXKYOVK/XNqqnlsJZOcrwH9+MXFwV13uVxwgUft2oqJE/VzGBurVyPx+VToORg/3uLoUb2fu+6yefddRY8eHuefr0f8VqgA69cbrF9v8txzWSN/Bwxwef113Uw/aJB+bk40+vu77wzuu89m+3aDIUN05Suv6nGTJoqhQ12ef96iZ0+P5s3z3+fzzzs88IDujgD6A8yff8bSpImuZp53nhsaaJT1ZRwbhJT15Ti6+nf877oaq1dJOXJEVy1tGw4e1M9L8MMJ6PBnmhxbCg+aNnV4/XX92MfG6vs+cKCPxYv1CPeBA13O1qwsZ2KSaSHONAmA4qyIi4vDtm0aNmyYbXuDBg1YsGDBae3bMIzTqgCeqJl45cqVHDp0iCZNmrBr1648r/Poo5FcfLHDpZe6BVotJL9jTpxoUauWd2yyZD0Y5O677WPVC0WrVh5Lllh8+KGbbYLd4sVh+HCXG290GTbM5tZbfbz3nscrrzj8+GOAX34xGDnSYtYsiwoVFLVqeSxaFMP06cUZOFBXrvbsMWjc2OPrr/106pT3m1OzZnout8ces5k5M0CJEnpQxKFDBpdf7jFqlJ7W44YbTj460jAM0tMNNm7UVbj+/fMPjt9+a3DDDT4qVFAcOWJQubJi+vRArvAXdOutHpblcNddNhs36uCmlO432K6dYvDgNJo3/4kqVbozcaLJmDEWR47o0aCtW3uUK5c1sCAxUbF4cYAXX7QYOdJiyhSTt95ySExUVKmSf1/Fdu18VKigq62ffaanu9EvAx3s6tU7yKpVMYwYYeG6WSNgGzVSJCXB1q0mcXEeP/5o0LKl4rvvAkRFKWbPNnnoIZvffjNYt84KdQ2oXFlRqpTCtvVqGnv2QHw8TJ9uERsLr79uMWCAG5pYOufrb9cuePhhmylTLNq395g6NUD9+icOKQ8/7DJjhm4K/vnn/J+P4sXJNj1Q9+6ZxMX9RufOnU+4/+MFArrJfePG3F87dhCadxB0k3HTpopatXRVr3ZtRZ06esqg++6z+eQTi44dt/Ppp+WIjjZJSoJ+/fQI7U6dPGbPDlCzZoFP7aQyMvR6x717Z/1dKKVC848ev02IolTIKUeFKJiIiAhatWrFunXrsm1fv3491fTMsKfFtu1sM+4HFSYAHr8tLS2N9PR0PM+jdevWxMTE5LmvzEyDMWN8/PWXme/xCtIHMD0dpk83ue46j0mTTGrU8HH77XqKlhIlFKtW+WnQAOrV8/J9Y65eHSZOdJg5009SErRp42PwYJt69RTTpjn8+qufxESP+fNN/H6L229PoXVrj+RkAMXKlQZPPmkzYoTFypVZc7xlPcbw9tsOf/5p0LevHo1cqRIMH+7w4IMut9yiR33On1+wpq2tW00OHTJ49VU97920abn//bz7rslVV/moXdtjxw6Dpk11Z/yTzRp0000eH3zg8OOPBomJPpTSq4Q88ohNZqZ+7Bs10n3jdu3y8/33fq680uODDyxatoygZUsfo0ZZ7NihK6T/+Y/L4sUB4uLgkksi6N/fPva45c3n0yOet2412LTJpH59FaqABQIG5cun8/bbusm7e3eXTz8NMGSIS61aiqgo3Rx64IBuvv/9d4NWrXzccouPyEgYO1avEJKWBlOnZjJhQoC+fd1ja+fCddf5qF49kpo1I3j2WT3tzI4dBh9+mPvxdRw9YKZp0wjmzzf58MMAs2efPPyBbr5/7z2H1at1dbkw8voA5Lp6lZnvvjN45x2TBx6w6NnTpmHDCMqUieC88yK46iofjz1msWCBQcmSimuucXnzTYdPP/VTqpTitttcVq0KMGGCw9NPu9xyi8dFFyl279YDPKZPNxkzJp177/2DqChdXW/WLIJZs0zefTfAzJlnNvzt3Aldu/ro189m27as7RL2xLlIKoDilB09epSNGzeGft+yZQvLli2jbNmyJCQk8NBDD9GnTx8SExPp2LEjs2fP5ssvv+THH3887WMXdhqYnI5v8t22bRtbt27Ftm2aNGmSbXLonLfZti2aQMCgeXM33+vk5/jz+uILkyNH9BtfcrJJsLJkmjBzpg48X31lcuedJ29i7dxZsWRJgHfesXjmGYspUyJ48kmHfv08Pv7Y4T//MRg6NJlx4yoQHQ0bN/oBmD1bDyAZOVIvv1atmuKyy1x69PBITNRTubRpo5g8OcBVV/m47TY9vcnw4fqc3nzTYft2H3366BUs6tY98Zvcc8+lsnRpFO3aKaZPN+nb18f69ZkkJOgw8OijFq+9ZtOuncvPP5tcc43H++87Be6M37evdyzUWFx8se9YvzWTt96KpGXLrOv5fNCunaJdO4eXX9aDLSZNMnnmGYvhw23atfO47jqX3r09fvghwNixJv/+t83XX0cwapTDtdd62aYi8Tw4cAB++00vlzdmTIDYWLjmGh+2rat0c+ZUYu5caNNGLxsXFQX//a8TqtD5/XrZtZdespg2zcTzYMkSgyVLdOdQPRIcrr02gjvucGnSRHH4MIwe7ZCY6PHHHyZz5hi8/77uXwkwaJCPp55SdO1aCtuuyfLlegLsVasM7rzT48knHWJiCvbYBjVrpnj4YZcXXrC48kpd8TwRz4Pt2w2WLYtj40YzWyVvyxYj1GTr8+k+fbVr676utWtnVfQqV9bzGQYH7+zaZfDaazYREfDMM9n7kSoFY8aYPPKI7hKwaFGAqlX9TJlSjGuvjeDrry2uvtrlpZecE3ZBOBW//GLQt68P24Yffghw/Ofc/PoASr9AUZQkAIpT9ttvv9GxY8fQ7/fffz8At9xyCx999BFXXXUVo0eP5vnnn2fw4MHUq1ePqVOn0q5du9M+tmVZp1wBDG7LzMxk7dq1ZGRkULduXbZs2XLCZeUMw2DjxjLYtqJxYy/f65yoCTgzU6+re//9+k8vOdmgXj2PdevMY/cL5swxSU/3SE426NWrYJPP+nx69G6fPi6PPWYzaJCP99/3ePllh4suUgwdupFHHkln3boqoebkm2/2uPlmj8xM3fdt5kyLL7+0ePttm1KlFF276hHF3bvrIHn99TYDB9q8846e4sPng4kTA3Ts6KNnTx/z5/spVy7v8zMMI9RsDtCunb5fP/1k0quXx2232Xz5pUn79h7z5lk88ICu6BR2WbS333bYtEkPDBgwwOb2211eeaUYb7yR92R+ERFw+eUel1/ucfgwzJhhMmmSxeDBNkOG6EEN113nsWiRn+HDbW6+2ccnn7i89ppD9ep6Gp9Bg2w2bDCpVs3j558DHDxocNFFPq64wuXQIYMSJfxUqLCdSZPqsGiR7t85dapJUpLNV1/pEBgRAU2bKsaNc/jrLxg2zGbyZIuoKEVqql7to3hxdaxyZQEGCQkejRrpVVBq1PDYtMmiRAnFtm1+pk0zGDrUh2HAp59GoVStULNpxYqK5GT46COLFi10f77CzHM3bJjLF1/opuCfftLVyV27CAW7TZuyQt7mzQYZGeWAcliWXme5dm3FJZd41Kqll+oLjk7ety84QttgzhyDTz7RfWT37OHYiiLHU/Ts6REbm7UlJQX697eZMcPiX/9yeO453Wf07bd9PPZYJ8qUMZk8OXBGVtXJ6b339N9069aKCRMCuZZ0lEEg4lxkKKlNi3+g5s2b06NHDwYOHEip4969Fi9eTI0aNSh3XBL59ddfqVWrFnFxcaFtc+fOxbIsYmNjqVevHqmpqaxYsSJbOF27di0+ny80d6Hf76dPn6Ps31+FBQvSAFi+fDkxMTFUPdbpaefOnezfv5/WrVtnO9/163fwwQcmkyfXYOdO3U8qIkIRGakHFoAiJgYeesjlyis93njDYtYsk3Xr/Ke0IsLixQb332/z2296Cas+fZbSuHHWeeZHKT0AY+ZMXR1cskSPQL7gAkWlSoqpUy0GDXJ48UU3dF5bt0Jiop5+ZPbsQJ4TJ3/33Xe0bduWkiVLhra1aOGjUSPFpk0Ga9YYNGumWLjQ4OWXHQYMOPU36aNHoUWLCHbsgIYNFTt3QrNmfzFrVsEXWl67FmbMsPjiC5PffzeJjtaBo3p1jw8+sElJgZYtPRYsMKlbVw+MKVcOPvrIoX17PXhlwYIAzzxjMW2awXvvfUejRh15/HGbjz4yj41MNYiNVbz9tp4UOmfYnTdPD9BYu9bAsqBcOejTx+XVVy1KltRN1Zdd5jFmjK6CtW7to149xccfOygFc+YYXHZZxLGRsIqHHnKpWxf++MPgt99Mli0zSEvT80zWr69o3lwHs/btPXJOF6mUHgizYYMOdgsWGHzyiUX58rqfZlqafjGYpl4esHp1He7KlAFI58CB/ZQvX5W9e7NC3p49WVPxBJUtqwfwBOcwrFhRv+7i43WfyREjLObP1xXSG27wGDtW3/eFCw1uvtnH0aMwZozDlVd6rF9vMGCAzc8/m1xyyVbGjat47HzOHL8fhgyxGTvWon9/lxdfdPLsG5nX6991XXw+Hz7fqUzyLsTpkwqg+EcKNgHndLIKoOd5bN68GaUUVatWpXr16qHF3wvSd3DTpjK0b+9k23ai2xw5Au++a/Hii9U5fNiiQgVdOUtP13PiHTwIkZGKEiXg99/9VKqkm82++MLk2mvdUwp/AK1bK+bPDzBunMljj9nMmHE+Awem8NhjnLBJ1TD0iM8mTVyGDXPZswdmzdJhcNYsnVDeeMNm8WKTJ55waNdOUb06TJ0aoGtXH3fcoZuJ86rcHf+4KKWPNWWKSenSULeuYulSg0mTHHr2PHrNjboAACAASURBVL0KTcmS8MUXAdq29bFxo0GpUoq5cxP47Tc/LVsW7PPu6NE2o0frfm7BUdCffqr7UkJwxLBJyZJwzz0O335rkZEBAwboCZwXLAhQujTs3GnQqJFuky1fXk+WPGCAwYMP6r6TSUnQp4+P+vU97r/f5brrvFCAaN9eD0gZM8biiScsDhyAV1+1ad7c5Y8/9AM8frzJww/rfobLl5sMH66PtW6dHkgD+vXWs+d2Hn9cp7q+fQFcHAfWrtV9Dn//3WTKFJPZsw0OHrSpW1dRvbo6toqLDn3BASgAcXF63eV9+3Q/zeLFFenpkJKig922bce/AEpSsmQkCQkmFSvq+SPbtfOoVCl70IuPJ99VV/bvh969faxebdCwoQqNyPY8GDVKr+vcurXiv/8NULEijBhh8dxzFlWqKL744ghKLadMmfwnQT8Rz9Nfdo53y927oW9fH0uXGrzzToDbbsv/dSsVQHEukgAo/pFONAgkp2AoS09PZ9WqVXieh2VZxMXF5dvfL69taWmwfXspmjZNz7XvnLc5eBDeftvizTctDh7UoxZNU68c0aGDYtIkKzSxs8+nuO46l0qV9D4WL9YVktMNQqapR8j26uVn8OAkXnmlItOnK0aNcrPN83Yi8fFw220et93mkZ4O8+bpvnK//mpy6aURlC6tq0aXXebx5psOd95pU6OGxdNPZ++7mPOxfPBBi5UrTYoVU2Rm6ulULrvMY+tWgy++MKlRQweQwi7BpRRcdpmPfv1c3n3X4cYbfURGqv9n77zDoyj3t/+ZtklIJyTSe+9NqiglgoAcigJKEUGQoiAIiNKlygGliFKUoqAgIE0PHeGgdITQE6S3hBBCCGm7OzPP+8dDEgIJwvGcn3q9e1/XXkkmszPPPDO7c8+33DeaZvP22zp797ofi1S/+aZFw4Y2CQlSYuT2bakxFxGhIG3rpNxLUpJg+HCDOnVszp9XOHtW5dtv3ZQrJ7h+XQoof/CBO8u2K1cWbN7sZv16lf79dWJjBZcvK7z5psGHHwoGDLDo0UPq+BkGvP22Rfv2FiNG6CxdqnHsmIqXl4x0qipMnKhTrJggIEASq1GjNKZP1zBNhaFDTb74QiUw0JWx/4SEzHTtb7/J1/79CvHx8thAEsPISHldp1v8yY5j+f+4uMyIX2SkQp06soYvXz4ZPZSEThI7L694zpw5RsOGDZ/sZN7DhQvQqpVBYqLCsmVuWrc2aNRIznerVgY//STFm0ePtjh6VOHll3VOnlQYONBi5EgL23aze/eTka9bt+T5XrBA48ABhX79LKZMybymDx5U6NhRNhtt3er+XT9pDwH04K8IDwH04G+JR8nAPBgZVBSFhIQEIiMjyZs3LyVKlGDPnj0PbfP3IoAnT+rYtkrVqib3N9Dfv058vMYXXxRh/XoHLhf06GFRr56scXO7FQ4cUDlwQK6rqjB/vouePR3Ur5+5jbVrVfLmFf81G6qgIBg48BKvveZi6tTCtGlj0LSpxfTpJk/izOfjI2vimjWzGT5cY/p0nQYNbM6dU3j9dQNNk6Rt6lQdPz8YNiz7BpZ//lPls880Cha02b/fzebNCkuXapw9q7B1a6a7A8hIUzoZLFYs66tgQR7SbbMsOHsWJk7UOHDAzdtvm8ydq+Hnl0ZEhA8ff6wxZMjvN9aULy/dJIB7fsUaR48qeHtLV5bISBejR+usWKHhdAq2bJGRwV69zAz5jzlzNBwO6Nw5hfPns25fUaB1a5sXXnDRp4/OsmUqhiFJ0/DhGpMna/TuLbXpwsLgqafgyy9N3njDon9/nRMn5PVn24Jvv1UpWhSqVxfUresgJkZG2e7ehWLFZIp2w4b8VKhgEB2dma4F2X1s2yBEVnIiU9pSR+/2bYWbN6VLSs2asi60dWuL4sXhxAmF554zaNzY5r33sp/X+Pj/vNkhIkKhdWsDPz/Bjh0utm6V6fP8+WWKOykJfvxRWraNGqUxc6ZGpUqCX35xZ2gVJiX9/ufI7ZYPXlu3ymj3sWOZZLhIEZGl2eWrryRxr15dsGyZ+6F0eXbwEEAP/orwEEAP/pZ4lBfw/bAsi9TUVJKSkqhQoUJGbeDj6vfdv+zoUR1dtyhXziKdAKa/LyZGYdYsBwsWFEMIQb9+FgMGSLHjnTuVLN6tuXIJUlJkVHDgQJmmS7/BCCG13LKrCfujKFHCSenSNkePwpYtGhUqqJQqJWjb1qZGDek+UbRo9p6q90NRYNIki7t3FRYuVFm61KR2bTcbN6r8618qly8LxozRmT9fpX17SRgsS8GyBB98IImjr69g/37ZLdupk6BTJzPj+G/ehAsXlIdee/eqXLuWSVYMQ0ZUZRNEJjH09uaexZfOvHkmBw5IUli0qE3Jkk8WVd27VzZ5nDql0KuXRfXqgj59DFau1FixQmPQIJPDhxWOH1dITlZYvlyjRg1Bt242FSrI89yiRW78/Wvy3nsqL7yQ1abPywsWLTJ59lmVfv10fv1VoUQJKQg9e7YkNK+9Jq3/iheHunXlvC1cqPLBB9K6DxQuXpQSNIYhCV16U1G/fvL6un5d1p6pqtQPfOopWfdXurRg3TqV+HhYuFB2cgcHS1eR+1OeV67A6tUaK1eqjBun8/HHGi1b2nToYNO/v8WECfKaLVfu94XZHxfbtim88opB2bKC1avdhIXBzp1QoYLgm2+kZM7mzU6ioxVq1nRw7Rp8+KHFwIGZzjrpyI58nT8P27apbNumsnOnSmKinD/TlKnojh1NhgyxKVUq80Hgvfd05szR6N7dYsaMx+tQTz/+J1EM8MCD/wt4CKAHf0vkJAMDmV+4SUlJnDhxAtu2KVGiRJbGkMchgA9GE48c0SlWLBHDyFwvJsaL5cvzs3atL97e0KPHbcLDT9K8eWYTSO3agvHj46hc+QxLl9bhu+80FEWwcqWLzz/X2LNHzfDVPXZM4eJFhdatH99h43EghMK4cWEsW6YTHCyoUUPahx08qDBtmpbRIernJ8lHpUqSEFaqJP9+MBWrKDBzpkliok63bjqrV7vp2dOmZ0/ZTdu0qcHJkwpLlmjMmKHj5xdOeLjNnj2SmCxf7s7SwXn/dsPCICxMZJtWczqlrMiFC1lJ4v79CsuXq1nq1FauVNm+3cHTT7tJTjYICwNfX5lSLFRIEpyRIzWuXVNYtCirnEh8PIwaJYv7a9Sw+eUXN9WrC774QkVRBKNG6YSECKZPlyHImjUFq1bJqGCfPgbr1ll06iT9ZC9f1nG789Cpk2z8adHC5uWXZXd1ek9A9+42QUEmnTvrJCYqrFunEh5uUbq0YMUKjS+/dPDSSzaDB1tUrSro1cumbVsXw4dL28B0pHfUpqYKOna0+OEHjeBgkyZNLuDlVZwTJ2QaW0qySB/jxEQpoeN2SwK0cqXK8OE6N264MkhgoULwzjsW77xjce4crFolyeDLLxsEBEjNw44ddQ4cyL4JKJ3s3L0r6z7XrFHp1k2WDmS3/rJlKr166TRpYvPNNyZ+ftIPeMkSqVnZu7fF3Lk6o0bp/PCDxjPP2KxbZ2aQtfuRHn27e1eWMGzdqrJtm9RrTI9ae3sLEhMViheXD2+dOtlZrvnYWOjUyWDfPoVPP5XX+uPyt0cRYA8J9ODPhIcAevC3xKN0AG3b5tq1a5w9e5ZChQpx+/Zt9AcruPl9+ZYHv5wjIjRKlEhACH/OnlWYPt3Bt99Wwd/fZtgwF716uXA6b3P5siQTti3tusqWFbz6ahIbN+Zi7VqVQoVsbtxQeOMN4x7REhmpzLVrVYKDBc89999rzrdtmDKlGD/8EMTcuW6SkxWGDdOIinLhcsmoxg8/aFSoYNO4sc3Nmwp79igsWqRn1HwVK5ZJCNPJYbFisGCBSVKSTocOBj/+6KZ+fUFAAGzZ4qZJE4M7d6Rw9L59lzhypCixsZJAffyxTmSkTYsW1hOlob28pJ1YqVLwoCuHELJ2KzJS4R//MChcWBAVpRARoePl5SIy0otWrWSHhabJbtWkJFnbtnixSrVqMiq2apXK++/rOJ0wY4abXr0kWU5Lg0WL1AzB7Fu3oEEDwaxZbsqVk8vmz5dNLG+8obNxo0q5coI1a26ycuVVNmyoxt69Mkq6dq2Gl5egWTObtm1llLRtW5ulS026dNGpV8/it99Udu6EXr0sChUSzJunU6eORpMmNoMHmzRqJJg/36R7d4XnnzcwTYWEBJm2HT7cYtcuFcOA5ctvcufOZRo0KAJIl5SLF6UQ98iROkWLSlu/ZcvkRejjIyhUSDzU9JCOEiVken/YMItTpxRWrFBZsiTdU9lB58427dtb1K8vx3L/5+qXX1T69jWoWtWmc2eDoCBB+/Y2XbpY1Kol15sxQ+ODD3S6drX4/HMTw5DyPL176wQESI29yEh5XW7bpjJ7tpsePR6OmFuWTCH/618+rF9fh8hIB6apUKyYoHZtm3LlLH7+Wbq2vPiiTZ8+0hXnQU52+LBChw4Gbjds3uzOUq7xOMgpAuiBB382PATQg78lckoBCyG4du0aLpeLypUrExwczJEjR/6QPRxIonDmjEq1amn06ZOPNWu8CA0VvP32VV555Q4VKhQFZKTA5XJx+vRpdu0K5J13ivH991FAEiNGVKRChRR8fCR58vGx2bw5kOLFnZw+fREfH1i5sigNGyYTHR2bMYb7G1We9HfbVhgyJJAffwzjww8v07atD3fvKowZE8Knn1qMGJHCokUKO3YYDB/uy2efafTo4eSHH5z4+spU4qlTOidOaJw8qTJvnnrPsUJ2x1aoIO3iChQQtGplsH69m2eekSRw9Wo3EydqDBpkkC9ffry9FUJDBYMHm/z0k8aIERpDh+qULSt1+Fq0sKldW2Trx7p0qXqvpjLnFK6iSL/dZ56R9nQbNqh8+aVJz546zz8fQ+3aBRg/3mDMGOnwceGCwtGjCtu3a/TpI2u+pOCyQtGiNm+9ZVGliuC336Q376JFGrduScmel16y+OQT8yG9N4A7dyAxEfLnF5w+rTJ0aABdutxh6FA3J04ozJqlsWyZJJL796usX6/hcAjCwyUJnDvXpG9fnTZtbBo1Enz1lUauXJJIBwRIgtSihYPq1WVEsE0bm2nTTAYN0vHykkT1o480hIBNm9zky2eTmKhkmaennoKvvpL1crt2SVu369chIkLl/fe1bFO52aF8ecHYsRZjxlj06KGzcqXKypVSq7BAATlPzz9v4OWV3jQi3/f9926SkhSWLJHE84svNEqXtgkJEezdqzFsmMnYsRZOJwwdKjuy27SxGDvWZOxYnbVrNVRVMHSoSc+e8ppwuSRZ271bZfduKXUTG6vg66tTsWIS06aZ+PgI1q3T+O47laAgeOMNizfftChaNPvjW7ZM6klWqCD47js3BQs+1rRkgYcAevBXhYcAevC3RHYRwDt37pCYmIiPjw+1atXCcU9P43HFoR+VTj5+XKZJly0rR0iIxZAhLvr0cREXdyNDx8u2baKjo0lLSwNg0aJQqlZN4qmn0ujWrSze3hZTppylX79SVK16lyFDLlOmTBhz5xbi5ZcL0afPJc6e9aJXrwvcvBmfsW/TFKiqyBhP+vLf+92yFKZNK8+OHT4MGnSE6tWj+fVXeQdu0qQsCxcWoEGDgzgcFl5ego8+Uvjxx2J8801pvvvOmy5dThMefom8eWU3cHi4jLIlJHhx8WIAFy8GcvFiADt2BHD1qj+WpRAe7iAkJJWSJe9QtGgiRYsmMnSoyvr1RYiK8kVVBWvXxtOs2VXefDOBo0dzs39/GF98Ecq0aQ4CA13UqnWLunXjqFkzHj8/m9RUjeHDa1GiRBLly5/MlvDattTKS/+7dm0/vviiIklJ5/jgA51Jk0oSEHCDZ57xYvp0P5YuPU29em66dFHYti2Q0aOLkJam4uNjUaVKCvHxBuPGeWHb0qVFUaBwYRfBwXI8gwdfIjXV5uLFrKT766+DmDAhlJdfTmTixDg2b/Zj1Kjc/Pxzfe7cuUPTpqmMH68wYIDGkiV+LFnih6KoFC/u5vx56NVLOkmULWuyerV+j4yaBAUJBg40KFfOZMKEu1iWwqxZPnTubFC8uEWfPk7y59eoVs0kIUHll1/kV/vQoRozZij3rgcrY5wffGBw6ZLC3r3ujDq2AgWgQAH7np3gk9VKKooU4c6bV9Z4li5tU7y4YNkyjVmzwsiXrx5du0pSKD8rUKaMtOb78EOLLVsU3nlHZ+9eGSE+eFBlxgz45huV335TmDFDjrNhQwcOByxd6mbkSNkRPWaMwp49KgcPKqSlKfj6yvKBhAR44w2TIUNuM2tWHJ9/HsqZMyqVKtl89pnJK69krce8H6YJI0ZIZ5ouXaT9XE4SNY8/Rx4C6MFfCx4haA/+lmjTpg358uVj6NCh5MmTJ8POzcfHh3z58lH4PvPYo0ePEhISQsH7Ht/37dtH6dKlyZ07NwBpaWns2bOHRo0aZXxRX7hwgdTUVMqXL4/TCc88k+tecX3mF7m/v0nevG6KFNHw8Ykjd+5kwsKcPPVUGYYMMfj2Wzfffquyc6fCzJkH6dy5KvnzOxg40Mromjx5UqFLF52zZ6W3a0yMK+PGtGmTrIU6dcr1RJIopgndu+usXq3y9dcmJUsewd/fn+L3jE/Pn4cKFRx89pn5UFQtJgZGjpSSI1Wr2nzyiZvata1Hkk2XCw4cUHnzTV/u3FGoVMnk/HmN2Nj0vJwgKMiiTBmbq1c1rl3TCA21eOWVVF59NYWCBU2OHDHYutWbrVu9iYqSNmphYRZxcRoul8JLL91l6tQ4AJxOwZEjXuzZ48PPP+ciNlZj+fKr5M3rvjcmePHFopQpk8bkyZeYO9dmzpyqvPLKLf79b39CQ918/fU59u71Y9KkAly/blC4sJMLF3woXz6Zu3dVrlzxQVUFjRrFExBgcf68DydO+GJZ8pjCwpyUKpVM6dLJlCqVzJEjAaxcmZ9XXrlK374XUBQ5PzduKEydWoqDB/PStGk0b799Fl9fOU6nU2Xbtqf4/vvCXL7sR/HiiZQpk8DVq34cPy592gxDNtEoCvj6uklM9KJWrRh69DhJUpLB99+XZN++fHh7m6Sm6hiGReXKccTG5uLKlQAURdCq1Vm6do3EMGwOHXqKCRPq8Oabx2jR4kIGgVUUhZQUnY4dX2Dw4AgaN77+ENlO/5nT76Bw5EgQS5cWJSIimOLFk6hXL5YbN3T27cvH3bvyYalDh2u0bXuDIkWcJCfrvP9+aY4f92f48PO43SpLluTj8mUfFEVQq1Yid+7oREb6UqPGXYoUcXLqVC4iI30AheBgk+rVk6lePZkaNVIoW9bJ6dPevPpqCZo2TWT3bl9SUxWaNk2iS5cEatZMQ1VzPpbbt1UGDAhj3z5vRo68TffuSY9cP6ff0/82TZP9+/dTr169jFKU9P/5+fllW57igQf/F/AQQA/+lnj55ZcJCQlh0KBBxMbGkpaWRoUKFbh06RKBgYFZCOCDbh0g3UECA0tz8GAoZ8+qmKbFlSvXKFCgMLYtBWbv3LmL02kSFBSMbYNlKVy9GoOPTyhpaTrJyRAf7yI1VSUlBRwOBZdL5/btB3OYgiJFTAoWTKBy5dx4ewuaN7d49tnMNVJSoHRpB3FxCh06yIhDQIAsfC9Txot69SxSUhRq1RI8/bTN00/LDs7sOnbdbnjtNWmttnSpSZs2NkePHsXPzy/D1UTOoc6FCwqHDmWvjbdvn3QTOXxY5dVXLSZNMn9X8iI6Gho3dqAosH27dDFp184gMtIiPNzkwgUvIiMzPWDTU66FC9u0amXTtavNhQsyTbp3r5rRlZmeli1WTJCSIrtuU1Kkk0aFCja7dmns3OmiTp3Mr7NPPpECwVFRiURE7OT8+Ra8+65B3rw2BQvKusaVKzWefdZm2DCTrVtV5s6Vgs4gO0HffVd2lQYEyGWtWhnYNrz+usWOHQqrV2tYFhnNJz4+MvpUtapNlSqCqlUFoaHxHD9+lKtXGzN4sI6/P8yd6+b55zPHatuwdavKrFnp47G4cQPGjNFYskTuQ1G4l+KVkiy2Db17W4wdaxEbqzBxorSxA+jXz+Sdd9zs2KHy7rsOUlIUcucWTJ2ayvvv+1CtmsXy5cmk11GmE/nDh3WaNg1k69bbVKli/m6U+f6/H1xn/34Hn34axC+/+FCoUBJvv53M9es6M2eG4ONjk5qqUqpUGgkJOqmpCnPnXqVMmVTGj8/L+vVB1Klzlxs3DC5c8OL+h658+ZzUrJnMlSsOkpNVli+PAtKj3rB7dwDTpxfkyhUfgoLctG4dzXPPRVGunP/vRs9/+y0XI0aUJyVFZ+zYk1StevuR6z/u75ZloapqluW5cuWiUaNGHgLowZ8GDwH04G+Jjh07UqhQIRo2bEiePHkoU6YMuq5z4sQJAgICshDA48ePExQUlIUArlp1glGjahIXp+PtDblz27hcKfj55UJVuWfV5UIIC19fH1RV1i8lJSUQEOCPYUg9sqSku9i2C1/fXLzyik6LFjf48ccY+vevwwsvWGzapFG/voW/v5OYmDScziBiYqS4cLduNsOHmxQuDJcvQ+nSXvTrZ7JkiUZoKCxZ4qZGDUHBgg4SE6FDB5tDhxQiIyXrCwgQ1KiRSQgbNZIuEl26yAaEb781M3xPjx07hq+vbxYCuHOnwgsvONiwQRa/A1y7Bq+/bjBzpkn58pJkLF6sMnq0TlqabC54+20rW7ur2FhITZVkJjzcQVCQoEcPi8GDDT788BC9exciKCgIl0s2xxw7pnDkiMJPP6mcOZNJCkHWF1asKChSxGbHDpVbt5R7ncpSgNnXV9CwoU2XLjbr16vs369y8mRW27zoaChZ0sHUqWkUL76FJk2aUbu2g1OnVHRdEBgIr71mERWlsGGDFFc2TciVC556SnD2rEr37hZTppgZBPC554x7TSiCSZNkSrNIEcG//63Su7dFaCgcPaoQEaFy6ZIcjLe3oGjROzRo4E/hwjbr1mkcOqTSq5fF5Mkm97mDAXL+7if2/frJ8zlypMnatRrbt8sHlHQ4HPDWWxYnTyr8/LOslfTxkR3TnTrZtG9/k9mzbTZtyke68PjevS4qVnz4HC5dqtKzp0FcnPOhcf2n2Lw5gUmTNPbvz0O+fDbR0SoHDjjZtUu61KSmAiiULWtz/TokJSn4+HBPD1IQEgJ161okJqr8+quU22nQwCYwUKaKL11ycfu2rGmcN0/jwgWFwEBBgQKCvXvdpKTc5ujRo78rRL1qlfQ3LlVK1vvlVBf4pHA6nezYsYOmTZui3jux6aTQy8vLQwA9+PMgPPDgbwan0ymqVKkiihUrJvbv3y8SExMzXnv37hXHjh3LsmzPnj3ixIkTGX9v3pws/P1dolQppxg2LFWAEHPn3hVr164Vt2/fzljvxIkTYs+ePVm29cMPP4jo6GiRkJAgDh06JNavXy92796d8f+LFy+KJk2uibAwW+i6LXr0MMXrr5tCVs8JoWlyua+vLQzDFqpqi6eftkSLFqbQdVts2uQUW7emiWrVLGEYtpg40S28vOR74uPTRFpamrhxI01s2OAUH37oFi++aIqnnrIFCHHokFO0aGEKh8MWa9a4RFpaWsbrwIED4sSJE1mWpaamiUqVLNGypZmxbNUqlwAhzpxJy7JudHSaeOstt9A0W5QqZYn1650PbatiRUu0aye3FRHhFEFBttA0W7zyiik2btwoYmJisrznwdePPzpFp04uUamSJQIC7HtzZmfMXWioLZo1M0XnzvK4ixfPXKd4cVvMmuUSv/2WdZvNm5uiRg23WL16rXjhBVMoSub2AgIsAUJ4e9vCx8cW+fPbYvx4t4iNlcfzz3+6hI+PLYKD5X6fftoSQUG2CAyU523AALcID5fz/e23roeOJzo6TWza5BRjxtwRjRtfE+XLW0JV5f4VxRaKIq+DPn3cYvNmp4iJyX5etmxxChBi1y5nxna/+MIlmjQxM7YHQui6LebMcYrz5+U1MnGiW+TLJ/dTv36s6NbNzLLu6NEukZKSdV9DhrhFwYL2I8/Tk74uX74stm3bLv71L6eoUEGOwdfXFv7+tihb1hJff+0URYtaAuRYAwLkz8KFLbFhQ9br7NatNLFggUs0amRlnMsSJayMz8irr5rip5+cwt/fFh9+6L43X9Fi06ZNOY4vOVkeNwjRoYOZ8Tn7b70SEhLE2rVrRWpq6gP7TRZut/vP/jr14P9jeB49PPjbYceOHVy+fJnw8HCCHnB3z6nQWtwLdK9bp9OzpzdlyyawaFECJUrk4coVjYEDfZkwIZBnn310Y4iiKLhcLqKionC73eTNmzfjqR7g2jWdHTvy4eMD9eoJZswwSUiAdu3iOHIkhty5yzNtmoaqSjmT48dVDh1S7okby4hcOnRdMGKETnrUa+tWldatbQIDoXFjQePG1r0xSqHjQYN0du1S+fRTN82bP45FHvTrZ9Gvn865c1Le48gR2anbs6dB8+Y2gwbJfQQHw8cfW3TvbvPuuzr/+IeDF1+U0bESJeS2eve2GDBA1jKWKSMlVfbvV7hyRcHlUh+aS5dLppl/+kllxw5ZxG/bUoutY0cpSePjI2jTxsHw4SZOJxw7pvLTTyrR0ZkpZF2XXdoDB+oMGKBQsaJMJ7dsKVPKnToZDBrUkEuXVLy9ZVONaUJioorDIXjxRZuqVW0CAuDUKYW2bQ2iopQMu7PUVMHmzRq5c9vcuSPT0R9+aLJxo8rx4wpr1rhp0uThREpwMDRsKKhSJYW6dY/TsGEIqanSPSMiQmHnTuk6MXeuxty58qu4aFFBtWqZ6eMqVWzq1xeEhQnWrFGpVcsiOBi6dpXHdueO9MKdOlXDtqFvX9kd3LatTbt2Mlo7d24yn3ziy+7dGnnzCjp0sPjyS41x4wy+/FLw7bfujNR5VJSULfpP4XTCJRfjIQAAIABJREFUuXMKZ85kvk6eDOPMmbwkJ6erM8vIcnKytKR77TV5zVesaHHxokpiIgwaJJtDHow0+/pCx46yeeP6dY2oKKmbaVkK+fNL+ZqYGJmSf/ZZGSYVj3DhuH0bunUz2LZN4aOPTN555z/3384JD173HnjwV4GHAHrwt0OzZs34xz/+8btC0OlI7/j9/HODDz7wol07k169jhIQUAhFgRkz0oiM9GHy5Nq0bJlGgQJZ3/fgtk+ePElQUBBVqlThwoULWFamaPNnnwUAgtBQWLZMymuEhUH16iY+Pjdp0MDm3/9WiY9XWL9e6gUePgz16jlQVZGRana5FCwL/P2lpRcIRo/O6hAihEylbtqkMG2azs2bAApnzqjAw1682c3VK6/YjBolfYs//tgiIkKhYEHBrl0qgwc/LEZdsaL0sf3+e5Vhw3SqV89saOna1WbCBGmbVquWzb59KhMmuJk4UWfy5Kp8953N8eOS8P30k0xXpqQo5Mkj09fNm1ucPq0yZYpJ3rxyfxMmaAQFCYYPt+7p0skx3bgh6xx/+UWlYUOpXXj7tkyNnjihcvKkwuTJOooiAMGlSwGAQlqadMPIlQvcboHLpbBqlcqqVdloz2TOHgBFisCAARY7dyqMG6fh7y9lVp5++vFu8Nevw759Kvv3K+zbp3LkiILLpeBwCKZNc+Pnl5k+njFDJSFB7veppwQOByxcKF1GqlWTMkKqKgnX0qUazz0n05Zbt0qR5cmTNUaN0qlc2aZxYxUvL0H+/NJqbtYsnfLlbYKDBbt3KzRsKMn+V1+ZREYqNGv2ZB3AkyZJv9wzZ1QuXiRDVDwwUBKy5GSVtDQNw5Bp+7x5YcMGldRUBduW58cw4MQJjWrVZA3o9evKQ+QvLk7Owfz5GlevKlSrJse5bp2cu6VLNebO1bh7V2os1qiRWYOXHQE8dUqhfXud+HiFdeuy1mT+N5H+ufN0AXvwV4OHAHrwt4TD4SAlJeWh5dmTNoWpU/OyZIk3Awc6GTvWxZEjZLh8eHvDkiXJPPOMF927+/Hjj2k4HA9/YUdHR2NZFvny5aNUqVIZnX7p+4uNVVi+3BdNs1m71szidJG+nhBgGDLy8c47Ovv2KRm+o7lyCYKCJFEICREMG2bSt6/Nb79BgwYOoqJUihd30LevyW+/yajZtWtSu05RoFs3ix497Iwb3+PAx0dqoX3+ucaYMRZHjqhYFtSrZ9O0afZEQFHg5Zdtmjd3MXWqxvTpGkuXanz0kclbb0lbsBUrVLp0sejY0SY21uLTT0MpXRqcTumn+8wzgpEjLRo3tqlcWRLfDRtUxo7VmDw505Vj61aVJk3sh0SJP/5YY9culW++yfTedbvht99kg8jWrQrffKOR1eNWRlJtWyE1VZKqdG/f4sVtatWS5CQsTBAWBvnyyTqykBDw85PXyfnzsGCBAyGgXDmR41y73dLVZf9+hV27Atmz51liY6XeSuHCgjp1bF55xaJ2bSmsnW5d1qkTpIs1X7oER49K545t2xSuXtXo0kWu6O8v33f1qox+Dhtm4usL7dvbtG9vk5ICW7aorF6t8tlngbjdCsWK2TRvbtO7t8WqVRpbt6rkyyewLMHGjRoFC6qYppRneRKcOSM7lFu1sihVSjYnxcZK147NmzVCQgTh4TdQlDC2bFHx85N2bvv3Q+nSgrg4hYQEScwvX1aoW9fmu+80GjeWUeCoKIWvv9ZYu1ZFUeRDS9++FmXKCIKDvYiOVuja1aZ2bZOEBJ1Vq1TCwkQGgczuwWfdOpU33tApUkTwyy+uJxIjf1I8KgLpgQd/JjxNIB78IezatYupU6fy66+/Eh0dzZo1a2jTpk226/bp04d58+Yxffp0Bg4c+If227dvXxISEhgzZgwF0kN2QGRkJIZhZGl26No1lfXrQ/nnP5307u0G4PDhw+TPn5+890JNtm0zd+5RRo9uQNeubqZPd3Lt2jXi4uKoVKkSZ8+eJSYmBoCqVasScK8r4MyZ8xw54uDMmeKsWqVz4YKKv7+LQoUM/PwkcfD3FxiGE6czjgMHCnHjhrwZ5M0rKFNGcP68TG0tXmwSECC4dQtmzpQ3siJFoE0bi+hoWLEikwXlySNFdn/5ReXiRRnBeOaZnD/KJ0+exDAMSpcu/dD/rl+XHcgjRlh8+KHcx9atLho0eLyvhvPnYdgw6SZSq5bNsWMKLpc8vuvXpa5b3rwpREfnokULae3l4/PwdhYvVunTx+DuXSeGIZ02ChZ0MGeOyeuvZ5LRGTM03n9fZ/p0N337ZiWpqanw5ptSkFhG7gTBwYIOHY7i41OBmBgNh0Oul5CgEB8vSeP9QskPwsdHkDu3/Hn5soxMVa8uO4+bN7do1comJET65Z48qXLqlCT1qakyule5spvCha/Tvn0Bate2yZ//saY1C9xuKFLEQadOFs2a2UREqHz3ncqJE5nlBw6HFOaW6WOZRk5MhDZtDJ5/PoY8ecL48UfpeVu6tEwtX7sm3TR8fKSAtGXJB5EmTaSl3/nzCjdvKuTLJ1i82MzWnu/+uV++XGX2bCkaXr68TdWqggMHLM6edVC+vE2nThZbtmjs2iVTzZGRKlWq2NSpY3P8uGzycDrh/q7fB+HtLf2evbykb3RwsBTdjotTMkoDChSwOXdOftbj4uI4ffo0DRo0wLZlVHnSJJ127Szmz3+4Cee/jaSkJPbs2UPTpk2zLLdtG8MwPE0gHvxp8Fx5HvwhJCcnU6VKFXr06EG7du1yXG/NmjXs27eP/P/J3S8bPMoK7sFlL7wQz7PPJtOrV54sy+9fT1EUypa9zZQpSQwa5E+lSjbNmoFlWURERGCaJk8//TSHDx/m2jWVNWsMtm/X2LatIklJGsHBgsaNTVq1SubGjVjy5ClKUpJCUpKM0ERH68TFBWHb6VEniIlRiInJvNHVqZM156Vpgrg4SQZ1XZArl6BYMcGFCwpxcbBokYamwYYNburW/c+f4/Lnh3btbObMkWnQ+vXtxyZ/TidcuaJQvrwgKsrmwAEZzVRVSf7KlbMZPtwiNHQ3J0/WYvDgICZOlALAD+LmTSlVkh4N275dRQiF55/PJHnLlkmbtvfeM7OQP7cbPvxQY9YsqRkoj0vOX/78gubNL9O0adkMQe37IQS8847OF1+ozJhh0rixID4ebt9WuHVL/jx6FL77TsPXFypXFiQlKQQECDZuVNm4Mfv0scMhyJMHUlIUzp4NYMUK6UObO7cgOBhy55bEMjhYRhmDg+Xf2QkOGwa8+KLN5s0qU6da+PnZjB2rMXSoyXvvWRw7pmSkj48cUfjmG/1eV7X0uXW5VCpUELRv7+buXYVt21TWrlW5fVuhcGFB7tyCU6cULEuQkgI//CAJtKIIChaUMkVjxuhs2uR+aGwxMTBvnnTzuHULnn3WpnVrix07VCIjFZo2TaNv31MEBpbn3XcN0tJkl31UlDxPR4+q3LwpU7p9+8qu7gsXZOQ+LEzw+usWFStKrUmnU77S0iRRnDdPRhiDg+H4cQVNkwLo8fHy/15emRG4xESpjblhg8q4cSaDBlkZ19r/GjlFAD2RQQ/+THgIoAd/CM2bN6d58+aPXOfatWv079+fzZs307Jly//KfnVdx7KsxyKANWsmoWmpQJ5HrgfQuXMap097MWSIF/7+Gnny3CE0NJTKlaswfrwPq1fX59Ilf1RVULOmTdeuN6lZM4527YqgaZCYeJejR8/QuHHBLF/ut29nSlF8951Kt24GN244WbFCpX9/gy1bXPj4cI8wSuP6pCSZhnS5YO5cnZ9/VomKgtmz3QwebJCcLOvDHuiDyRY5HW86+ve3WLFCEpkpU8wc15M1dul1fCq//KJkqeMbMMDi8mWFzz6TVl2pqdC1q0HRonUZONBk8mSTDz7QCQyEoUOzksDYWAgNzRzj5s3StSE9wPvvfyv06iU9Yj/8UL43LQ0+/1xl4kSd5GQp/2EYgpAQQXS0wsiRFmPG6Fy4EPCIuYEZM0xcLp1Bg3QWLzbp0MEmXSNv0yYpV1K7tuD7790ZkjBOp5SFSU4W/OtfbhITJeG/fVvJQiBjYlxcuODk7l2Fy5chPl4lPh7u3Mn+5p8rV1aCmE4Yk5Lgt99URo5U+eornTJlBC+/bHP3LtSsKe551NoZY3vpJZ09e1RatEgmMtKbSZM0kpPlV36BAoK6dWVDUWwsHD6s4nLJ+UtMlKQYJPEcMUJGbLt1Mzh1SpJ9kPWKn34q0/2GAa+9ZuN0yjq94OD0ej/ByZMqH3xQCZcrkyjnzy/o2NGiQQMZrbx8WeHzz7V7140kf127mixbpvHKK3bGPh/E0aMKFy4o/PKLQo8eFgsXqmia4PJlV4bDiRCCK1dy8dZbBjExCmvWmAQHC6pUcTBz5v+u9i8dnhSwB39VeAigB/9T2LZN165dGTp0KBUqVPivbTcnL+CcbN8eRHZewOnLJk92EhFh8u67hZk9+zoNG1ZAURQuXlQpU+YO773npGVLL3LnhosXb5KcnJzhX5sT0bp/ee7c8mdCgqxxq1PHfqD7+OH3t2vnZt48lYEDDfr0caDrgtatLdat02jTRuenn9zclwl/YlSpIu3mNE2Siftx+TIZhG/nTumv6uMj6/hGjZJ1fJUqZRWl7tvXYsQInW+/lR6vum4ycGAwBQoIwsMtRo3SCQwUvPlmZhQvNlYhLEz+btsyNdmly4PNLLJG7e5dGQGdNEnjzh1JVN5/383Bg7Ih4fJllfnz3bz6qs3s2SrbthWhd++cj19VpZWZ263TvbuOYZi0bWuzfLlKz546zz1n8/zzgu7ddb77zkTXZXTp669N6tQx+Ogjnc8/TyfOWecvPj6RY8eOPaRDZ5ryGoiPVx6KOD749+XL3OtKFnz8sQxbxcUp1K6dGTVOJ44hIfKhITJSpVEjm9BQm5CQOPr1y4XLJSOtV68qnD+vcOBAZrezv7/Az09GU1NS5L5cLoU+fQwKFJBNIyNGaNStKzh0SGH9eo2CBQUDBliULi04c0Y2t/j6Cm7flv8PC5M1li6X1F7Mk0fOc4sWNmlpsGKFyksvGRw5olKihM2kSRbh4RbVqnnx/POCyEjBuXNKjgTQMATHjqn84x829evbLFyoUaeOncU1Z/t2b95++2kKFYJffnFTqpTg3DlZi9mqlYOOHS2mTjUzrr3/NjwE0IO/KjwE0IP/KaZMmYKu6wwYMOC/ut0nSQE/7jKQKd8rV87wzjvxDBnyLOPHV6dpU9ks8dVXaezde4oyZcqQO7dXxnYe3G5OSN9fnnuByKtXFbZsURkz5uF06IOQMis2S5bYREbKSA0o1K4tOHJEoVYtBwsWmLzwQk6NG4+OAC5erGLbsoNz925JCrZvl926Z8+qqKpseHj9dUn46tQRj/RGzZcPFi406dXLYtAgnYiIYJ5/PpXAQAfr1kn5lQEDdCwrM5V786ZM+YGM7Ny4oWRpRKlVS9Czp8WoURpjxkh3DFBo0cJizhyT777T2L5djvWdd0xee02+t3NnN19+WZC0NCtH71eQJHD+fBkJ7NpVp2VLSbD9/WH7do0dO2RTSNu2snM0OlohIsLFtGkm/foZPP+8lF/Jaf4fhK7LayFPnvTz8vuRqPr1DX79VWHBAtl9HB//MIG8dElh5UqVvHkFd+7Ajz/mIj6+CPPmZf917+0t8PWVskNpaQqZl0mm8Pa1a5Ldb9yosX27wO2G0qVl9/W0aXK7+fPLDuUXX7SpXl1w4wYMHaqTlibLAnr0sJgwweTOHRg1SmPRIo24OIVmzSzWrnXTtGlmh3vRooKDBxV27crepQZkI9WGDRqKAosWmXTpoqNpIuOasW2YMkVj3Lg81K0bx9q1ARnR2xIlYONGN0uXypKCKlUcTJoka03/FzIwHgLowV8RHgLowf8Mv/76KzNnzuTw4cP/9S/AJyGAkL00THY4ffo0QgjCw6swZ04MHTsWpH9/my++SENRsn9fdlIxjyKGISFy/S1bVNLSFFq3/n0CKLcBu3e7SUmR6dFXXzWYMMHN4cM61arZtGljMGiQybhx2dc25UQAb9+G0aN1QNZQhYcbCKFQsqRN48aCCRPcPPecTXDwYw0zC+rWFeze7Wb48HN8/XUZTFPKyyQnw9y5GoMG6fz4o9RLvHkT0ntUZLeoyKhtvHULZs/W+OYbecNPt0br08fk448tTpxQGDFCyn8895xg0qTMOe3a1c2MGX6sW+fk1VcfPV5Nk8TV5dJZv14DZDpeUWSdXkiIJG5VqgheeMFGCOje3WbrVqmnWLOmi/sMZx7CiBEasbEyolW+vKBcOZtChXgs0rF7t6zzAzKsACUyz6tpQni4QcGCcOCAi4AA2b1+8eJFatasS0LCw5HGM2cUoqIULl1SiI6W28gZIqPGMiTEpmNHSfaqVbMzpHvS0iTx++ILDUURFC5sMXjwMcqUKc+bb+qsXy87gV97zaJPH5uSJR++LuvVs9mzR0VRsv9s3LghbfkCA6VjSEyMvGYsS+r/3b0LvXrprF2rMWBAAgULXkdRspYBKIrUU3zhBRfvvqvTt6/B11/bzJtn3je3fxw5EUBP/6UHfzY8BNCD/xl+/vlnYmNjs9iyWZbF4MGDmTFjBhcvXvyPt20YxmPXACqKkiH5ktN6iYmJCCEwDINKlSqhaRoVKiTy3nuRjB9fgcqVLQYMkAXwD6aOH/V3dsvTI4A7d8oOyOLFn+zYc+UCPz+5raefFrjdCv362YSHC0aO1Ni9W+Xrr7NaWd2///Q6PhnhU9mxQ8E05Q2qeHHZZPLzz06qVfv9saTfeJ991s7ROkvToGXLa/TsGcRnnz3FP/+pUbKkYNEiN5Mn62zfrlC5soGXFxkRtC1bZPoyPh5mzZIWX6Yp066aBkOGWNy6pTBnjs6pUyrXrmVauC1Z4s5IyYMU3K5QIY7Fi4N59dVHshtAppMXLzYpVsxBQgLUqmWzZImbIkVyfs9nn5k8/bSDHj0MNm3Kuv/7oapw+rTC6tXqPaszmXotV06+JDG0KVdOUKBAJjGcP19l4ECd0qUFV67AmjUq774r/YKjo5V7DUUyVb9/v8L27Zm1iiDPv2FAaOj9dZaCrVsVhg/XiY1VKFBA2gpWrSqoVk2KUBcoIEsAevQw2LNHoU4dG29v2LFD4/hxlQYNLKpWzSR/Z84otGunc+6cbAQaONDC3z+BGTNKcf68g7JlbWbMMOnUyX5k9+2bb1oZqekHkZQk/aVTU2U97MsvO/juOw3TlKUJQUGC554zuHRJ4f33TTZv9uHIkSr4+7vp3v3hCG1oKIwbZ7JypbSRq1nT4L33LIYOtTLqCP8IHueB1AMP/gx4CKAH/zN07dqV8PDwLMuaNWtG165d6d69+x/atqZp2RJAyFkIOqdl169f58yZM6iqSokSJdDu3b0VRaFhwxskJ5dk9Ggvype38fd/mPA9uN30Mdz/v/v3lyuXlBSJiFAYNuzxon8PIj2V+dRTsqB/xw6FqVMt6tWz6dLFoE4dB/PmmbRubd87RoN9+/yYNEln507ZdenjI6hTR+qllStnc+6cJA6lSzvYvFmjWrVHj23NGpW339ZJToaqVQU7dz7cIXr/8QcHy0jfG28oDBqk06WLg5YtLQID4dAhhZYtLbp1s0hIkA4h48ZZlCvnQNOgYEFBVJRKvXo2s2aZlCol57JtW4uOHWVDzAcfWHTvLrf3IMLDLzFzZh7OnTMfS/PNxwd273ZRs6aDY8cU6taVcjTp8/kgcueGRYvcNGtmMG2aluN5HT/eAixsWxKr06elbMypU1K/cOVKlZQU+bUcECAoWFDKm8TGyo7c4GDpcTx+vMbYsVl1DjVNuqKEhkoXmsfB5Mk6lSrZLF5sEhr68P/XrVPp21fHx0d2mzdqJLuEc+fWqFfP5vPPpQ5kx442BQvaTJumY5pQsqSgVi1Zk5eYmId69W4xe7ZBo0bisaKd0pnk4WNwu6FzZ52oKHmt5ssn1/nxR5WgIEHRooKGDR34+EgR6o8+0qlRw2TKlGO8/nqZHPe3f79MmXfsKEnfRx9prFyp8tln5iPllR4HnhSwB39VqL+/igce5IykpCQiIiKIiIgA4MKFC0RERHD58mVCQkKoWLFilpdhGOTNm5cyZXL+Mn4c/NEaQJANKlFRUZw7d47KlStnsXS7/32jRrkID7fo0cOH69dzZbvO/cjp6f7+5b6+UhS5TZsnc11IRzoBTE2FJk1sfvpJjr1WLcH+/S7q1bPp2NGgRg2DChUMWrQoz4QJhbh4UdZibd7sIibGRf36NrYNxYoJKleWAsidOtnMn6/hzoHPJSRIOY1XXzVo0MDmo49M9u1TuXTp0WNOP/5KlQRbt7r5+ms3ERHSCi8sDLZt04iPV9ixQ6by2rWzM0Seb99WWLzYzYYN7gzyB9IxJTlZ4emnBZMn6wwerGNnM6X16kUTGCj46qtHOX5kRYkSsiYwLU2hUCFBx44GffvqJCVlv/6zzwqGDrUYN067J4eTM1QVihaF5s1tBg+2WLDAZM8eN3FxLk6dcvL992569LA4d04hNlZKypQsKQgNlVE601QYN85k3To3+/e7uHTJyd27LkqXFty8CXfuPDzvD8Llgl9/VXjhBfEQ+UtOhr59dTp2NHj2WZsDB1w0apT5AOPtLWjWTHDunIuRIy1WrlT56CMD05QPJGfPKmzapPHGGxY//XSZyZMjadz48chfThAC3n5bZ/t2leXL3VSpIsftcMg62Lt3ISJCOujExKg89RRs2uRixYpo6tRJyHHf06ZpvP66QeHCNocOqYwbZ7F3rxshpIZiWtp/PmY5bg8B9OCvCU8E0IM/hEOHDtGoUaOMv999910AunXrxuLFi/9n+80pAvi4BNC2ba5fv46u69SsWRMfH59s07lyX7BgQSqNGvkyenRl1q+/mZHGhUenhB/cVjpq1pTNHOXK/WfRhXQCmJwsCeDXXxt8/73C0aPSIeTQIbm/kycV8uSBDz64SrNm8dSpk0m8b92SN7+SJQVRUUrGDf6ttywWLtRYvVqlY8esbGr7doU33zRISoKFC2WX7a1b8N57guHDddq0kSnCdLHe9NfVqz4EBEjy5eMjl3XoYNOypYspU2QUCWT9WpMmNkWLCjp1MoiIUOjZ02bcOPOhGsSYGOjdW6d5c4vVq03+9S+VqCgFNZvHWi8vi44dTZYs0Rk92nrIWSQntG9v89NPFsuWqYwaZfLxxxo//2yweLH5ULc0wKhRUv+uWzeDAwdcWbpRHweqCsWLw9GjsGCB7LL99luTKlUy95WUBAULqui6bKC4H2XLSn/pLVtU2rfPPHfZEZCICAWnU6Z178evvyq8/rrOtWsKc+a4s22MyJ1bXj9HjypMnarhdGZq8F27ppA3r+D992VTxc2bbu5pqP8hTJig8dVXGgsWuAkPT7dXkyn0W7cyT3qVKjZvvGFSrpzA6YT9+725di2YmzfVDB1Bp1MS4B07VNau1XjmGVnPefCgwsGDCiNH6pw5IyPOOaXznwQeAujBXxEeAujBH0LDhg2fqJ7lj9T93Y8nlYF5sN4vPj4eHx8fatSokSXlm1M0LzAQli9P5bnnvBk8OIxVq2THYk6k8VEpYNOEgwdVevT4z43nvb3ltr75RuPcOQXDEHTu7CA0VOrxvfGGRaNGNrdvK3TurDNrVj78/d3UqZO5jY8/llG+XLnkjW/QIEkmKlSQ25g9W8sggCkpMGKEzpw5Go0a2Ywc6eb4cZV27XT+/W+pIbdmjcr33+d0t6z/0BJdzySJISGQmCi18VavljfzuDiFZcvctGmTvXjzm28aKArMm2eiKFIo+cUXc56zbt1M5s832LxZpWXLx4+8fvyxyf79Bt9/r7Jzp5s+fXQaNjQYPdpi8GArC0HQdVi82E3t2g4GDtRZsOD3aw7vh8slG0U+/VTnpZdkd3PAAxKGfn7QtKnNmjVqxjlLR9GiUgfxxx+zEsDssG+fire3yCCXliV9nMeO1ahSRbB6ddZo6/3InVuwbJnKpEnpnx1BmzY2ffrI8Xz6qWzwmTgRXnklN02bxj/RPDyIO3dg5kyNqlWlfExUlCxh+OorjdTUrB+i3btVdu++/ykg371XVqQTVm9vKWFz65ZCQAA0aGBQpoxg7Vo3zZr98a5gTwTQg78qPATQg78l0oWgH8TvyZ2k1/v5+voSEhKSQf7S3/uobZUubTNixClGjKjE5MkuRoxwPbYMzP3b+uUXebN50vTvpUuwcaPU4tu1S97gvvlGpWFDwfjxUp6lYsWsenxFigj27XPz2mupDB9ejLNnLaZNM0lIgM8+09B1KF/e5sABnWrVMo+1f3+Ldu0M9u+Xx5MeEWrQwOLqVYUmTbzQdUG9eoIRI6Q9WZkyMuKSmio7QZ1OJeP3gwePExpaGG/voPv+D6mpCmlp8u/UVFi6VOPmTTmGwoUFVatmfy7nzJFRrnXr3I+t31alik21ajaLFz8ZAcyVC5YuNalf32DuXI2dO92MHy+laLZsUVm40E3hwtCpk86RIwobNriZOdPkjTekNMwDDmA54soV6NLF4PBhhU8+kTZ3OfGGtm1tunc3uHKFLF3H6XOxebOK280jnS727VOoUUPWgF69Khs9fv5ZYfBgi9GjrQwv3ewQHw/Xr0vJnd69LYYMsbLoUDZoYHL2rMLs2RpffhnEvHk16dxZagY+GPU+d07qYZomFCtGtucmMBD69bPYulWlf38d25YSNZoGNWoIoqNtAgMVJk82cThks1D6Kz4+moSEG9SqVSVj2caNKl266HTvbvH++yYNGjiwLPlgMXOmSY8e9n/NJcRDAD34q8JDAD34W+JJnEBUVc2o94uNjaVy5crExsY+tM0Hu4Wz21bduvEMHHiLKVPyUKmSTc2aj9/ll75s3TqZ2qtePWeimpAAR46Knd3wAAAgAElEQVQoHD6scuCAwr59CjduSGaXO7fU4/vkE53PPjPp2vXRZMbfH6ZMuUqNGglMm1aE/fsNKlSQN/67dxX8/WU0LiJCYetWleho2Vnq5SUlYe6vBTx7VqVFC5uJE900bGg/FJ0yDO7r7sw8PqczgdKlwwgLy36sQsDQoRpxcQAKffuazJ+v0aGDwdy5Zpa5OnFC4YMPdN56y6RZs98ncvfffLt3l7qE0dFSq/BxUb68YNo0k7feMmjUyGb8eIvnn7fp0cPg6acdjBplsnq1FD5u1crgp5/cdOxo0b+/zqxZXr+7ry1bFLp3N/Dxge3b3dSq9eioeosWNoYhWLdO4+23Mx+E8uSRXeEJCVI2pmFDkcO1KCOAnTpZrFmj0q+fTq5csGmTm+eee/S+T55UuH5d+hzfvOnKsVO2ZEnZ9NOjx1UWLtRZv74wixZpNGliUb++zY0b0hrv/HkFXZeRyF9/VenWTQoz339tXb0KDofUirRtKVFUqpTg7l2FX39VSE1ViY4WTJumU7++Tb168mHIzw+uXjWJjnZlkOOtWxVee02nbVubSpVsKlZ04HZDt24WU6ZYj+Ws8yTIiQB6SKEHfzY8BNCDvyUe1QTyIEzT5Pbt23h7e2fU+928efN3U9c5pZP79LnNxYuB9O7tzbJlXgQEZJ8Czm5ctg3r16u0bZuZ/k1Kkl2whw+r90ifwrlzkuz5+goCAqTpvaoKbFtqt337rUbr1iYVKz5eJEtRoHXrONq2zU/79jorVqhUrCi4cAH+8Q+bRYs0evc2CAoS5Msn96mq6XZnNi1b2vzznzq5cwvGjs2+Y/T35vJRmDRJY/ZsnSZNLCIjVaZPt3jtNZs+fXQaNDAYONBi5Eg5Z9266ZQsKZg48ck7qDt0sDlyxMbleuK30qOHzc6dFm+9pVOjhotnnxUcPOiif3+dIUMMDEOwapWLl1920K6dwYoVbrZtM+jePTehoQ3o1EmjXTubWrUymyEsS3b0Tpmi0bSpzcKFJiEhvz+WwEBYudKkevWs5z9dVDosTPCvf6k0bCjn6MH5v3wZrl+X19q0aTrt2lnMnm2SO/fv73vYMKmPaJqP19QREGBRp85d8uUrwLJlUnpo+3YNwxDUq2czYYJNeLh07/jqK5UhQ3R27HAwf76b1FSFBQtUNmxQ8fGBjh1teva0sjwQ7Nun0LChg549La5dU5g3T2PSJCkKXaWKoHLlEEqWlFHas2cVOnQwqF5dEBmpsGqVgcMhWLfOTbNm/xtplkdFAD0k0IM/E54uYA/+lnjcJpA7d+5w9er/Y++8w6Oo+rf/mZndTQ8JJYHQCSi9SAABC0oRRHwUVCwIihSRZsOCBUVEELEgAkpTARERVIoCUlWKJEDoCJhKT0KSTdvs7sx5/zi7m90UiPoU/b17X9dcU3bKmTNnd+69v+0MmqbRvn17goKCPJ9VNlq4LARz5tho1MjgiSdqc/JkMNnZ0n/L/YNut9txOBw4HA6cTqdHWfz1V8HZs9J5Pz5enm33boXevS1MmaJx9qxCnz4GCxc6SEy08/330oF+6lSdwkI7339vp2dPg9xc+O47E507B1C3roXHH9c4fNi7ioMv3O1q0ULQsaMgKAiOHFEJD4d27QSJiXays4s5e9bOkCEGiYkK9erJChEdOwrGjTPYssVBZqZCnz5mj5n234GPPtJ44w0Tr7/uRNcV2reXfdWuneCXXxxMmqQze7ZGXJyZ6dM1Tp9W+Owz5xUrkVSEiAiYO9d5xZx+FUFRYPZsSdAGDzZjt0NkJHz2mZPq1QVCwJAhFt5808mJEwojR5qpWVMS944dM1i+XOPmmy00aWLh+ec1fvhB4Y47zLz9tsZrr+l8803lyJ8bvXsbZczfbmLepYvB+vVahePhiy+k68OePSoff+xg2bLKkb8DBxQ2b5YJng1Dpq8pD5mZsGKFLKN3442NeOSRtkyfrtGwoVRSFyyw0727wY4dGs88I31LL1+GRx4xWLfO7ro/M3ffbSYtTeGDD5ykpNiZM8dZRjnfvVslKEjw9ts6K1c6OXPGTmKinVmznDRtKti8OYSXX25K/foB9OhhxjBk2pfkZIXwcDnG/lPkD/w5//z4+8KvAPrxj0RlgkDc/n7VqlVD1/Uy/n5XI4Cqqla4j8MBXbs6WbDAwogRHbzaJbBYbicw0ElgoE5AgJxbLDqBgR05e9aOxWJm4EAFm83Egw+ewGw2eOghE7VqFRAUZBAUZJCT4+Tnnw1mzGhL/frFNGmyl23bdEwmhQkTYMIEhUOHIlm5sh6JiVX59FMTn34KISEOOne+zJ13nqdVqzw0Tba5qKgIXddZteoYX33VlnHjUpg9uz4ZGdC+vcGbb/5OSIjO5MmNSEwM5cEHLzF69Dlmz67N/PlVufvuEwQHw7x5gTz2WCNuvdVg4cIUqlY1PP3inrzX3ct2u53MzEzsdrvPZ6tXh/LsszUYMcLK4ME5zJxZh5Ej88nIyPPsN2yYws03azz7bARvvWXh7rttVKmSh9VKmeuVd323r6jD4fCoMRXtezVUqQJLlji45RYzr76qMW2azu7dsnTeZ5/ZmTPHxOOPm7j/foP161VatDAwDJVdu6LRdZmW5JtvND7/XOODD0yoqgye6NatcsEGZ89CTEzFlUPcCmDr1oJvv1U4cUIhLKxkDOu6DP6ZPFlWTdm711FuJY6K8NprGmFhgkaNBIcOyUjitm0FTifs3StdCH78UWXfPgUhFFq2NOjXL5e2bc8zZEhjH3PxoEFOTpzQ+fBDjbfe0njzTY2YGEFamkJAgExynpgoc//FxYkKI6p/+kmhc2fh8VlUFBkN3bSpYNAgg5Mnz7B5czGvvtoMh0P2QVCQwGyWJu/Wrf+zBM3vA+jH3xV+AujHPxIV+QACPv5+bdq0obCwkIxSklVl08WUXi8qMjFnTlU+/zwUmw2CgnTy8kxUqWKQm6sSGOikQYMc4uJCiIiwUFAQQEEB5OcbpKfnkJkZRliYwG43YRgq333XFLtdpuO4EgYM6A5AUJBBcLAgOFgQFCQICjJo186Bzebg3DkTmZkmNm+OZvPmaEwmQaNGduLibNSrl0FQkI2NGxtSq5aTNm00nE6VWbPOMHt2dYYMaY6mQfXqThYuTCEuLh8hNB566DLLl9fghx8i6d//MvXrF/Lxx6cYObIJjz1WnzlzTrJnTxhLltTkttuyGDDgIoGBkpi7JygxwxcUFHi2//xzVV59tQG3336egQNP8MsvQVit9YiMTOLEiSxP/7un11+H9evrsGjRtfz0UxijRx+hY8eLnmt4X6+8cbFjx44r9rF7DFyJyLqnRx6pz/vvN6VatcPs2lWDmjWrUavWLiZPVlm6tAHLljWgWjUbO3cGoSiCsLBi7r8/FZPpEopSG6u1AY0bF9CkST7bt0eyerWFmjWLueWWy4wZc8YTgOB9fadToUeP1kRE6HTrlsutt1pp27bQQ/IVRcHhUIHmmEyXCAqqyZIlOdx3XyY2m409e87y3HM1iY+3MHx4Nvfdl0dgoJOzZ8u/R+9tAAkJAWzcWIPISIPrry8iPz+A9et1Vq5UiI83Y7WqREQYdOvmYPBgB7fc4qB2bThz5qyr0o4Nm833GiEhKjExUK2arDd85oz0T7z5ZpkfMTISHntMugG89JKszuGdwsfplFG/Tz9d1h1g/36FBx4wEx4ew5EjgSgKPPWUzs6dKidOyGCdioKM/p3wE0A//q7wE0A//pGoSAHUdZ28vDycTqfH36+oqKjS6WIq2qegAObPtzBzZgcKCzUefdTBM8/YGTlSISFBULcuvPJKAr/8UpctW6px5IiFVq0M7r/fYOBAnagoO4sWHePJJ6NZudJBRobC0KEqDz5o8MEHOrour1FQIFOunD6tMHCgmV69DB5+2PD6TCm1bPIcExmpUFAguHhRkJGhUFgIJ08GcPJkACDLYzRubPD66zqnT8cQGSno27cG69fLnGe6DnFxGn37xniqaVx7rUyvsmpVHSZOjEZRoHlz6bc4enQQZ8+24LXXTAgBJ08Gs2xZXUaN0hk1SvfJlbhr1y5iY2OJjo4GYNs2hcmTzdx1l8GSJVXRtC589ZX0SHn44eYV+hjeeiuMH68zdqyZyZPjuPdenZkzneVGArsJocPhYNu2bXTr1g2TyeRDKisij6WXS6+3agVJSTbefbc1drvCsGH5NGt2LUII3nwTatfOYfr0CECahjMzgxgwwMLEie3YsiWEkSOzGT8+E5MJnM5c4uMD2bAhjJSUcCIjQ8u9vqII3n47ja1bw9mwIZKlS6OIiHBw88253HxzDh07WgkIMAgJ0cnKctKpUw4//hjEHXcUsm1bdWbPrkdwsM6HHx6lbdtchBCcP0+F/eF9fcMQvPbaddStm096eihVqpymoKAJa9cGo6oGderk8+KLx2jePAtVlccmJwuSkkrOuX37dkD6wR48WIONGxuwd29NzGaDG25IZ/z4FOrXt/Lzz3VYsyaWnj3DiY3NoV+/ZJo0CeWNNxrz5Zd5PPPMIerUKQTg1KkqWK1dCAvbx44duZ7v8PnzQYwY0RnQSU0NJDjYyYwZh5g3L5akpFBmzjyM05lPfPyVif6f+az0fnl5edhsNpKSknw+DwsLo6a7hp4ffvwP4CeAfvwjUZ4CmJubS3JyMqqqlsnvVxqVUQAVRSE5OZRDh8y8+66F7GyFvn0vMG5cPh06yB/ukBCoVauQI0eqkJNTk0WLAtmyZQMOx62sXh3EG29ovPyyxg03aBQVNSU8XHDzzYLjx+U1iovlXNMgPFxOQsAzz2hUqwYLFpTNA1dZ2O2yNuz8+SqbNkl16PRplREjZL6zJk0EHTvKUmtff+2guFhWf7j+egtLlzpo374kMXTv3ha2bVO44QbBlCka77yjcd11gg8/lH5dM2c66d/fTEyM4N13Nd59V2PIEINx45yeWsfuvo2PV7j3XjM33SRYvNjpyaN34ID0O7xagEm9evDtt06+/NLg2WdNtGtnYcYMJw884GtGdb+A3RVeTCYTpspmgK4EPvsMWrWSNX2HDg2kRo0AVxoRGdTRp49Mir16tUZhoZnbb6+PYcDq1Q5uvz0YKKmR3agRDBzoWavwmi1awNChUuWOj7ezdq3K2rVV+e676gQHC3r1MggOVnE4YnjwQcHIkSbefTeOdevCuOcenQ8/hMjIJn/4XrdsUTh40MKYMU4++kjw6aetyc2FgADBwoU6I0eG8cUXHVmxwlGmtnVycjK5ublERbXh8881Fi/WSE2V5vEZMxwMHOggPLwqQkQihOC222DyZIMtW/L46KMQ3n+/HTExOo8+amPz5nDGj7+JV1/N55FHivj11yACAwX33FMfs1mSzcREE6NHV6e4WCUoyKB6dQfvvHOAuXPbkJxs4fPPL9CuXQRCVLkq0a9ouaJt7j+l3p8VFxdjGAZ5eXk++/47x6IffvwZ+EegH/9IqKrqQwDd/n5RUVEUFBT4+PtB5QM+3NuKi2HmzDDeffcmQNC1q86sWTaKipKI9CpJYTbbUBSVO+/MYd68OgwfnofZLOjZU6d/fydWK3z7rcry5QoJCTVRVRnFOmCAgaIIV81TX6xerbJhg8ZDD33N119noGkaZrMZs9lcZtlNatzb3MsgSUKrVpF89JFGSsoFduwIZs+ea/nxRzM5ObLiQcuWBosWOWjdWlZ1WLjQwaRJJm6+2cwLL+iMHCkjLlu2NJg6VcNqlY7/r76qU7WqYNw4Mxs22OnWTTBrlkyT8vrrTpxOmDtX45NPLAwYYNC9exiNGsGxYwr/+peZli0FK1Y4fHzC9u1Ty0S1VgRFgQceMOje3c4zz5gYOtTMihU6H37opF690vv+Z8xv1avDq686eeopE19/rTJhgs64cSY+/VRjwgQnL7wgU6wkJAjS0jQUBXbvttOgwZ+7ntMJTzxhomlTQfPmgubNZTqaKVN0fvtNcZFBWed57lyNDh2k+rhpUwgTJ57klVfqV8rPsDSEgNdfN9G2rcGaNSpCKHTsqHPPPTqPPGKhXTuDn35ycO+9Zm64wcKSJQ66d5fj2jBg585gli6N4pdfAjCb4Z57DIYNs3tFQ5efcK9fP+jXz+DIETuzZmksWRKI2SzTy7z4YhibN4dgGDIXZXR0JOfOwaRJJpYskYQ/JkYmev744zO88UZTTpwIYO1aB126/IFIm38Dzpw5w/nz52nTpo1nmzdJ9MOP/xX8BNCPfyTcCmBpfz+Hw0FBQYHPvlcje9772e2CTz81M2OGhfR0hZYtMwkOjmDnThN9+gTTt289Bg8uok4dQVpaGroeTHFxDd5+W+G66xRmzAikR4+Sc4eHw+DBBh066LRrF8wDDzg4elRj0CAzqiqYPVsjNlbQtatM4JybC2PHGih8y7Jl97Js2Z/rHxUon0p1Bz4FqgLHOXKkJR07moGfgOZAiS11yhQTU6Z4/0TIF7aMgtVp187C4ME63brJe33sMYPTp528/rpGr16zKbC+SlDAUFatGsPq1RphoXdjzVuPql4mNfU+2rSxoqqqS6nTSEtLJDLyE9q0mU9OTg6ZmZk0b94cTdNQFAVN01BVFVVVPcuapqFpGm3bdmH79nE0axZM8+ZLaNDgB3Tdwddff+3zvIWApCSpuF2NDM2ePRvAQ6rdhNubiNevb+b++5szZco1fPFFIampZoYPTyE1NYD69auTn28mLi6HqKhcTpyoi9mcSU6OCYvFgsVi8dxPZZCVBcePK6xaJVVHkGXQmjWTU4sWgpdfdjJtmkZOjqxwoSgKtWs7uf32DBTlT4Q+A+vXq+zdqxISIgMtJk508soruicSPDFRZcAAg5077QwebKZfP/nnISAAFi/WSEmpR2xsoUel/aN59lq2FHzyiZPJk2HePI3582UU8s6dCjabwp13Grzxhiwn6PadrFNHukmsXetgwoQojh4NcpG//z7p8vsA+vF3hSL8f0P8+Adi3bp1TJw4kbfeeougoCBatWpFYGAgGRkZJCcn07FjR8++Fy9eJD09nbi4OM+25ORkioqKaN68OSDVlenTz/DFF7Gkp1vo39/B+PE55ObuoVu3bpw4ofLJJ2aWLdNwOFRuueUyvXqd5OTJxqxZE8qpU05mzLAwbZqF99/fwgMPtCfYXbAXePtthTffVElNLSIiwsLx4wr33COra9hsCnXrCgYO1Pnuu0OcOtUEaE49zhAIKEhCV96kueYK8t9cHpDoumYXpOefCTAI4jjTSWIs0WymM49ShTM4qcIZ7iKJ+0mnBwAa+9DZjoogIOh5HA7ZP2azLNvmdEK3bgYJCSqJiXaf1CW6Dh07pnH0aE2a05WWHMaJymXasJeVgEEnbsTERXRAB5xAAU1I5CRN6Ek+m8kAQoFo1z5Gqbl72fD5LBwb03HyOPAzMIwtW+bSqVMnNm/eTPXqPXnuuUD271e48UaDtWsrLtP24IMPsnr16quMQjeuBfYDgcAJJJG+iMIiBAuAJNe2o0A/YF2ZMyhekxsG0PeOO3xILEhVLS0Njh9XOXpUKrLHj8uIX3dZtI4ddYoKO3D06AcY4kYCLU8TErwYxUWmFRfxdJvISy+rqsqlS1YKCnoixEcYRhUiI9dSu/ZMAgLyXQq7yoEDa4iO/oHY2EUuom4iKWkoZ8/2wG4Po27dX5g2rRGxsZdo27YNfxTvvfeex1zqJt6GEUhCQjPWr29LdrbMOq4oBt27p7BvXy1XgJXCu+8eQtOymDTpeoYNi+fee2tgNpuxWCxomuYh4SaTyUPG/xNIS0sjIyOD9u3be7a5FcCAgID/2HX98OOqEH748Q/EO++8IyIiIsTs2bNFdna2sFqtwmq1iqSkJLF582bPutVqFadPnxZbtmzx2Xbo0CGxe/dukZ1tFQsXForGjXUBQvTokSd27coXVqtVXLhwQaxZs8bnuA0bdovHHz8uatfOFyBEVJRDBAU5xMWLVnHxolXUq6eLuLjzIisrS9hsNs8UF6eLzp3PitzcXM+2p592iPr1DbFlS7EYNswpAgJsQhrc0gU8K6C2QJbTqPSklbu9o4ATAgoFjBGgVHB8dQEjBGwVoAuwC00zhMlkCEUxRESEIcAQr73mECDE4sV2n3u02WziySefFBrBQmGfgFRhpqYwEykUDgpIF2bqCwsIs9dkAqHygOveq3rao4BQXffknkyuyX2sBUQAiEDXFARC4SYBJwUUiaFDT4lTp/JFz57JQlEM0by5Lp57TrY/Pr64TPttNpsYOnSoAEQwiFgQTUBcC6IpiOYgWoJoDaItiLoMFQpFApwChFDJFSpWAWNFIIieIHqD6AsijEOiDkvFABADQTwI4mEQj4IYBmIkiCdAjAUR6eqDhg0bltvG8qaCAps4etQmpk61u57fC6Iz17r6VRcdGCz6g7gLRD8Qt4O4DUR3ELeAuAlEFxAtuF5EME9AtutYIaIYK65x9UcDEHVBhPCRUDkvzKwX1UFUBVEFRBgIOCtgqgDETz/9JH799ddK34d7mjhx4lXG+9sCDAHHBFx2jW+7gCIBN3t9H7RKf3/cY8497hQQNapV+8Nt955+++03sWvXLp9tRUVForCwUOi6/r/+KfXj/2P4FUA//nGw2WzUr18fVVVZvny5zz/rrKwsTp8+TadOnTzbylMFU1NTOXLEyeTJrTh+XOO225z073+Qbt3CqOWq21VUVMSePXu45ZZbPNfdu3cvZrOZ9u07sGNHAC+8YOLUKTORkTBkiJ169QRPPx3IypV59OsnE5Olp0OTJgE89VQCkyY1IdCVwfjzz1VGjjSRmWmnT5/u7N07DwjATCIO+gEWLGwnhKUEswoNq0f5U5Dqn1sdzAYuuO7tGkCmTDNznlc4x0RC2UdTBhPGb55zmLzmGlIzcyfLacyXnGYgNWrIiGJFEQgh669WqSJztK1d6/Axo37//ffc178/zYGuxLCEvQRzAQUnucRyFzcSzokyKp4O7OMdznA3NmKxAD2RyqDhmuullvVyzqEDaYANUAnEYDKK8gyKohAQ4GTyZINRoySladrUQs+eBvPm+aqAp06dol2rVlSsDQIEAfcCrwCNgWJgEdARaI9UA3sBWaWOewl4Hmlmt13xCm506dKFrVu3VmpfN2w2G5ERHyMYj4n2OFmN7J1r0HgIjRWefYVnXheDhzEYghxBacBSYCDwGyp9PeqkZEsfIBiHwloE7bFQ20fBLOZXBAeBEWzfvp3g4GBat279h+4jODgYYRg0pGTMu+c69TjNCRR0WlCXLIZxjhloZKORRwwfcI7PsZNJZyCcEpXcrZyXnkxec8XVY5949emfRUpKCtnZ2bRr186zTfgVQD/+BvD7APrxj0NgYCCLFi1i+PDhV0zd4r2tNBRFISqqmGbNDD780EbHjgYHDhQgRKjPfu5z5eXlcfDgQcxmM9HR0VgsJnr21ElKKmLChGrcf7+dxYst5OVBWJidp54K5rbbZGH6NWs0LBZBhw4XgZIIzKZNJakaPXoWe/feADQliA5AIirhOOmPg0Fks4Bs5gBrkS/lHwCHTzu9v8gnAWlyXAK0AqaRz3wSCAI6IOlh+VMoYeQTSi4NgaNERzcjLw/k+08ACoYhmDXLl/z98ssv3Ne/PwbS0HmUcwj6k88uwEClC6s5UeY5gHzZFhMH7MOMJHQb8SYnZeeCErLhTUzcfo8aN2LQF1CIiBBkZ2ucPStwOGQVlJEjdd58U+ONN0qqZxQXF9O2dWt0IBKw4Es6nLSggBEU8jAGMhAomB8IZwkZfACAwRoEvalGA+qT5THRa4CNFexnCi24nZqs9pAR9+cmJMFd4903f8J3bPDgwQg2EoegM+fYxRqO8yB1WcZJltKDYurzLcUEk0R/TjOE89yKRhH1WYWFx/md7dRmMOnE0oV7CaXEXH+KdznHOBoyAoUskuhHLFGoXPIQ8VOcAerKZ1EqIKsyWLFihad6TlKZT6sDm4AABDM4TC3gdeBjdJajM5IUpgJvAd+ymwXAZkpG0B+D9hcJml9j8ePvCj8B9OMfifDw8KtWArnatsBAnU8/tVW4n/vlm5mZydGjR2nQoAEFBQU+L+WQELn/xInFvPJKMV99ZWbaNJ0zZyw0aaLy0ktOzpyRdXW/+aYxLVrI3HogCSDAl1+eA6Zi4n00DqIQhkIoFnajcASDBjjog4NbMbgXKMTEMcwk4SAPJ6E4CcXiInFO6mJQDfnCU5HK00sV9KQThTwEeUAeFtc8lHQyycdma4bdLiNu4+IE2dkwYoTuk3dv79699O7RgxrAKOSPikBjOc9xDB0DE125m1tJKFe101GYxXXAFAaAh2xU5PdXnhp4DjgFGMQSxEyK+Bewg7lzrQwc2IqxY1OZO7cZ69YJ5sxx8thjOlOnaixcqPHCCzKJ8A033IAuBKFITa/Ic71YdD4DugIXgfNITWkihbSjkC+AVcAoVHIQ7CSLL8niOqRXphungX0c5X6OUln/wj+GNWvW8P2aNajAAV4gERCsQedZTjEHQQAb+QqF7QiuB8JQ2I7GUFRWcZ58HICCmXQmofA18RzwkG6D6QieQuEJUpiPO2XNCdqisglw06wzwK3AH6u04sbw4cMBqZV6q96CUDL5ASfVMFCpxUayWA6k0ICnMFGExg5SqYqVQZgZjoNNWEghmoXEMJcgsjwKujf59lbFNeBLV1tCvHx5/wzEFYJA/MEhfvwv4SeAfvwl/PTTT8yYMYN9+/Zx/vx5vvnmG+666y5Alt56+eWX+f7770lKSqJKlSr06NGDadOmERMT85eue6VKIH92W0UE8MiRIzRr1ozo6GiOHz/us0+oSzAsKFCIiREMHeqgUaMdfPhhT7Zvt/DkkyYCA2U5q5Urr2HlSlnrtn9/nbVrhwBvozEGuEQN3iODfThpR8XQARUnbXESh3iLMicAACAASURBVKQq54HfsZMJxALVgJ3At8BlIB9cxK7sVIxAajXpQDdgNXAbCh+zgKQkhaVLnfTvX35McWpqKrfedBNOVyte9XzyMfAv4G4UruFnZvILJ1H5rIxy53AZrU0kXJUWiXKWZSBIKJLkPoWDi5i4Dycradhwoyv1yCmefLI+Y8cG0auXheHDde691+DjjzWeflqne/cbOXz4sMes7iYCso3nKCCDQAYQyFrs9MZJewp5GjBRlfuxsIJzrrbU5X7OcoBQPqYOD3pMjCpwkRWc5zU6EIqJfB/ykYZbvS3BHyUIjzz8MGHABEpcBOzs4g2yqcnb5FCXXMwIutOSz+nM64SR4iHVG5FEugGvUsTvdOJVwpBkO5E3Oc5ztGEcDZnrUgST+ZFc6tOOemxCR8aTy9FUB/jjCuAvv/yCw24nEDlCSwJ9AjD4FqmiLwBGcZ7+QFOgIycp8jrLZWAWDmYBnbAzjHQmkM4Syprmrwzl36AA+omeH39H+AmgH38JBQUFtGnThqFDh9K/f3+fzwoLC9m/fz+vvPIKbdq0ITs7m/Hjx3PnnXeSkJDwl66raZqnxqs3/ogCeCVTsRCClJQUANq0aePJ/Vf6OLcC6J15RlUV3nvPSpcu1enXzyAmRrBwocbly1LDOH5c4aWXdOALoACdEEz0JYs6OGmHiZfR2I9KHgp5qOShku9aL0IDrCjY6QoMQvqjdQd0VHKpzj2Es/qq0cPJlLwKY5GvbDfN+4nZCB5h0cKKyd+5c+do26oVClL5C3GddwfvsIfHuJdBxLEOFVjNtezlE4aTTEN+8hCOj4F0ZHT2GPZjoWLVr7xlBwqrGARMAyKAqTRiBqkUefz43M/1mmsMtmxxMH++yksvmQgOhkuXFKZOPcX++HiqAsH4qoxyuYgA7sYArERi5z4MBgHfoTCSTC769Es6ScBwrKzgGJuR/oFufAW8za/0A5aX26/eKXz+CHHo0KEDtuJiCoGJBCJp/Y3AECCSVLqisBiFLxA8yxHu4ziLUEnx+LxJzbgbSUxE4xW+R2Ysd/IaBhPReJpjfMgx3ARc4CSRJNqR7NVuqQBGAKGeCOPK4s4770QgswO6iTOo5LMMO12oym0UMAGd33AyhgjGE8Ehz3i3AWeRZvwYQOFXNH4FxmCi2Cd6vvTcTcbjKfGH/TMm7NLwE0A//o7wE0A//hL69OlDnz59yv2sSpUq/Pjjjz7bZs+eTceOHUlLS6Ne6Yy9fwBuAvjvIHul99N1nWPHjpGXJ8134V6lOComgJLcuVG9usFLL+m8+KLG3r0OXnpJZ9KkY6xb15LffzcDAQRwDJXLFNGJaCIIYSOnsRKGQTg/lDF5upezAQWBiV/QOIWdOgj6AmkY1OISK7nEVmAZ0jTpbYb0RU1KgkfA/QJ/h2M8gcZjPPDAnHKPy8/P55pGjTwka67nk5eAZ4DRrGQZKz3bRwONmMdqFK5H5TQ6bof7OASn+Ygc2ccVttYXOh3QmQVcD6wgggnkkI7369rtR+aGqsLIkQZ9+tgZO9bExo0a06bFAqux8imFbHMRbd/ULBrgoC/FzAcCCeNhgliKhiQKTiR5jMLtN/gVGfQgjw9pyB6COOYiMpc4wRkCGEZzlnvIxwGg0NXG8u5fCMjJgYwMhYsXJXHNyICLFxUyMhTS0mwcPjwPC1FANHZXGFAgl6lHAjX5gJ8Yz0SmUIVUitnNp6wlnfU8TC9i2MM8IINqBLOUamznbqYBsIeX2cskOvIcrXivDBlPIJEL9KYHUnOWOOOa1/lD5OfYsWPYCguJBI8/qA7kMw8H/yKA/hSwk2LWIanaenKY5Ro5vsh2TSUornQ7vKH9xYodfgXQj78r/ATQj/8qcnNlvc6IP5oNthQqMgH/EQJYmhyANFsfOHAARVFo27Yte/bsKdcs7EZwsDcB9L3eqFE6CxaoTJhg4vvvHXTocIwPPrgOuAH4gGLaIUnjOc7yOSpdEZwih7spZCUaFwAHgjg0UlA5TyEGbt0zhP4U8jEKOpHcSQhrgSoU0Z98BmFjIQpzCGUNESwjjA2YcHCWEuWvNpIA6piA+hxmHDCOLoxmL4uAsgSwsLCQJrGxOJExolHIH5JDPMEWptCNl7mFOZhd26WS48TOvcxgNwbr6cT1bCCbJkAR7QkjgXuonPKXR01+ZSqneBRIRONmdH7yED/vJ1SRA767nFyN6s+TX/A2cBdO7saJk0B2E8AmLGzCRAJOwrDyHsU8ion1BDICwTmXAb3EVFwEpPhcZTzQmSRWICOEuwMfAtE4iGYvVV29E+3qxWggGsOzHMWBA7HExlq4dAkcDt+xZzYLoqKgRg1BYuLPwEXs/IL0U7wEXMRGAifJ5iRhwCjepB8qs5E62b8w+IGFbEChOyr7UFhMIRYcDGIeBjovoPMGGi+RyAxPjklP/wIGB9AZyxpCALcUnu6a1/HUX64MunXrhuFqnQN3gNCbOBhOMIMJZC067SkmHIUsavAoZkqUbSdS/bMA9Smreiv4Kn5u1c9N8k1AJvjc51+N0vUTQD/+rvATQD/+a7DZbDz//PM88MADPqran8G/gwCWhq7rnDlzhqpVq9KsWTOfep7eKM8HMD+/7LktFnj7bZ277zazcGEGLzw7jECgA7+g055c4jjNMoq5BnBiMAo3fSnmlOtshUhtCSQNykMhGwimgCgUjqEyAyvHXL5duRgsBhYDtRE8QB6DyGMNkvZtBg4ShIMiGnGKWCCWn6kPmLDyI/AMTZnD3nL63TAMYmrVwuYqYlySUORB4CPgXbbzJtvLORZygL7Ar6xjNSq9+A0dg+tQWeMTI1z+69KCznh0XkFSr5HAAkxepPiPoHHjWPILziLd/TchI6ed2GiLjTjgDaR6KqllAM8SxEwPcTAoCRSpgUwO45umpwg7A0klHo0TOKmHRhYqaThohNQOS5OLPISLvMFFQkN/Y/DgWKKiSshedDRERQkiImQ1k4ULFzJ69Gj6IJPQuE2nJiQRsgAqeXzINgzuZDSzXWS6kEL6spANnKMFDroC/bifvjTiPLt4lu28RWcm0ZGpFRLyTBJZj4pBa2C36z7OueZ1K6zEUxpnz56lwGolCjnidSCXp7EzkRCeJogl6ICN1si/LI9iJcNjunar5AB28HyD/ir+as1ePwH04+8KPwH0478Ch8PBfffdhxCCuXPnXv2Aq+CvmoDBl8hlZ2eTnZ1NlSpVaNGiBYqiVMrH0NcEXHaf3r0NrrvuEmPGSE1DAXbhNi0mILgWE/fg5EMkjbABIVgYj8IlDOogaIqThkAtoBaCeriJg6A5Tha77whwoJKPQh4aF1CwIAjBidUVGTwQGEgRBpCFwSFgFY35ndP8TjuOsZnznrN5wzAMWrVsia24mD7IDHgmIJU7+IbPaM0i+vMMAZQQkABXS824yUISL3MXBltozzxuZibvEMJQEmhA+aqfE/idvmzjPaw0pAEfkc5r6OTQkpIXvbu9lVEAly5dyvmzZ4kFwjiLTgvSmUsOI12t1glgI8XchkI2gjCKeQcHIzCxCY1NFLEdyCMAyCaELK5HsKVUvx0DxuNkPpCGzi50LgJ3IoNzJoKH8F0CijzpYACuvfZmJk26rdx7ALDb7YwfPRqQyYF+qHBPkAlm3mcc4ahYXf2Uj85NaLQG9qDyHqv4HoMn0ZmByhQSmMy+Cs4oo4OPISlXO0oIoAOpLddBVdVKEcDOnTu7SJ/sGSeDsTMTC1Mx8R5O5FgKZDfFCCy0JIy1PipfmutcjfFV/spTAr2DczSv7ZtLtcuvAPrxfxV+AujHfxxu8peamsrWrVv/svoHV1YAS+NK/n4AFy5c4MSJE4SFhREZGenZ3z0vbQL2JYByXqr8sGefbdu2cmj/J2i8TkdqYeZMmUTGOl9jZxPneI9cHgUEZq6jKo9gIF+jKkGoTMPJODQ2E8BIDOzo1MegJQZNETQDmrtMiFXRiaHkK166D1SgBvl0B24hiULgMr+SDeTxDVYMrIwaZSI8XBAaCrNnTyc39xYgjh+wItWx5sAs4DsOMoKDZXq6VL8DCjtReIx4lpKA7MBP2V8mOhhAcC1O3kPQB4Uf0biLVI55SJZazjHey0VF3pGhEps2bWLYsGGANFRK780bsPMwCtsQ1ASaUUxXAhmBhflAFQxuwUEvHNyOnTFIQi/NxQa1yOcx6nEtgaSVSta9gHS6Y6UPLZhICMlc5DeS+QDYjUJWhRnqrkYcBgwYgBMYh/Tn1JBk2+JaducyNIAM1vIiH/EovWnLVx6SPYEgDFZQi6M8xgskMJoNvMf1TONGXimTjqc0SXfiYAlHoEz0uowErgz5s1qtXL50iRrIBDu53E8mCwnmE8J5yafsH5zAwkwKeBUHq4CTnrRAbk/c01e9YuXxV8lbZbMS+OHHfxt+AujHfxRu8nfq1Cm2bdtGNe/CsX8BJpMJwzDK+PH9UR/A5ORk0tLSaNWqFRcv+kZzunElAmgyKVgsOvn5ZRXAMWPGsGDBAmSUbmv2kudDWHzrv1pRGIlKFAa3U8BgHORg5yWgBfA5BvUIYywhfISGcJ2rkCKaU0AbirgZBTthrCOC5QSSzO9sIpTR5LIWCKcOYWQRTnXCSacq1bmBTG7GoBVQx5VeOo9snEB1Dh9WyMtTSEq6jMPxLCXmaAmNYmpyiPE8SAi6h3S4/fG8CcNo5Ev6BaAGy/iea9jMq4Ryjuexlqv+bWcwv3ENN/Av6rGGha5zhAPWcp+WPLbY1YasLN+UH3a7nQfuvZdgZAVfaVTvSArfE8Sv1KQvAht26iKwukzqYJCLzrdorjAHJ40w6AX0wsoEZNVlgzR2AG8iTcppXlceCeznMF8ifUBXIf0B+wPzK7gT2LevIu0N4uPj2eoKsppV4V4ScoylAwf4lH6ofOWJ/FURCDaTwfu8xVB0ZqPyDvt4kf0VnM/72yS/gYlA21J7lSSDvhqJ6tSpE07kM7XSm2KWATlojHJVdikh1GYgkNfJZAAK84mmGxqCZFe7muA2e5evApauAOKdC/B7V594w68A+vF/FX4C6MdfQn5+PqdPl/zfTk5OJjExkapVq1KrVi3uuece9u/fz7p169B1nQsXZMxp1apVsVgsf/q6br+c0mbayph73etFRUWcO3eO9u3bExoayqVLl8oN+LiSDyBAUJCzjAl40aJFLF6wwOWIXo9U8mjvIhNukuMudaYDhbThEosxaIvb70+qTI8AoajsI5B26PxGNiE4uRODBxD0Rr7CNgNDEXyDFasXObqGXC4TCpgpxMQFzEgapwG1WUUm0IEI4hmAwmDgJqRJLwWbDZKSrDgc1V3nswEnkIbXFHRu5CwWnsNeps+hhOAalLxwZ+BWaiYBT5BPFK/THrUcQ6NgCjCZHyn29Js7T1/p67jh/kugAzExMT4v31q1alFQXIwGHAcE7ShmIyoHUbmTLGyuNqf7lB/zThGSC0AS0cwjjHkomLDTkSxeIJ9+wDxAI5DfqMImItlEJNsp5n4OsJN6TCWTCRSwDWmSr5gAXkkt73/XXYQg6aZb9XN/o3wTbZesr2UNPzGO1zCh4+RloA6FDGU08QxjHXOJ431uYQKignP4puFxJ7M5ADwEPgbsM0A3hLiyh6bdbic9OdlVfaUzF1kL6FSlNxqGpx1O8CwbFAHDKWYb6YxA8DEa7iok/16kpaVdfacrQAjhL/fmx98SfgLox19CQkKCp1YuwNNPPw3AkCFDeO2111izRha2atvWVx3Ytm0b3bp1+9PXdRNAp7Ns1darKYAOh4PU1FQMw6BTp04EBASUu19lTMCyooiTgoKSr9KoUaNISpIFrGRy4LoI0jlEWeVPwYKdVyjmeVdwh04YD5PHatcesoppAGcI5npsTKKIOxGEEMxOInmKqqwkkEtlqhqkAslcBqAqeNLkyrJmASg05TKtgJacoiXQkiLqu/bSgHocOSI9+CLYQD8WE8fXBGFgRpKOvdzLLL7iPRpQjZRyScKbyCTRA4A4r+12NKYQTChniGQqXZlMDDtLEY4idKSelowkON7F+sozpHkHk3grxFOnTqWgoIBYpJdfAS1IZxMWThLF7QgKyqTcKW36dNeNkUmdcWUAdCI9O+8GDiN9+T7ARi9s3MFFxiKp0i5gM6k8C2xHBp98jCDac6bSuOaaa8rd3rlzZzKzpOl4bDmfe5vTvZcFa9GZxES6YrADE/LZTOYRdD5G5SMO8hSHSp2vorJ8JdQuEdmrTYEjrm3uZNCpV1TAunXrhhMooCXZrvChMHqgEg+UBLOUzWW5nUssII+3gbXonONaSur+etf3Lf3dcC97VwDZDfxeTvvKyxbwR+FXAP34O8JPAP34S+jWrdsV/Vn+U74u7uSspQmg+5+2t9nFm7QVFRVx6NAhVFUlKCjIQ/5K7+e9rfT6lQjgmDFjSE5Kogmyuq4BJFEXnXRq40ssiriebBbipDEBLKKYxwhgMnk0RL5i85GvsxSKuIsi+iOTXEwBllNIKoWuLeVBAULQsBBLAS2x0ZJ8WlFMS3JpAmiuZB0pFHMEqeUcBo4wkN9YQTEKrRA8RA4PsoQVLCEJmV9wGfAbMuzAxlPchcr7nutK1W8wBlmYWI8JmSPuW6/2GTRDJ5g8RmHlOVLYjsaLqLzj2cddgsxNNK70GvV+ct46FMjassuXS63qItK3sJAtqKQTzG3YXLn/3OTAO7WIm0BkIQmgm+Z4EwpJInQu8zxHWEM7plGLUSiAjVgu04tL9OIit7ratQb4FDki7kFGUJfArWaVRxwuXLjA4QMHuAlpWK5s0mwdcLCf6Zwlljs5wg5aATEMYh0Lac0n3MLYCglw6WU78J2rTSoHXcprO9wEUOEMgkgKCtI80fKlYRgGB/fvJ5BG2NgLaIRyBxo/UUwJGS89lTzrCcjI8jnAXfxW/mX+Ev5q1aKKTMB+UujH/xp+AujHPxIVmYDdKI8AWq1WDh06RI0aNahWrRq//+77f78y/oPlEcLAQOkDWK9ePXJyZErac5SYDwuoh8YBMnGTo2AKeZNCxmEmgSiuJ5ulmDlGMT2QPmLZlGhdDQhjCxayyOI+wriLpnxPFUpUDFnyqy4FtOR3WnKelghaUUAzCggEQOUiZo5gYSOhzCSXw8RyjBPkUeQ6x43IUl5uo/5NHGY8L+DgRY5wEz8ziL2MpZBXqE8CnVjGIX7Gwd2M532fyN136EsGA6jJKB5jfhl18DDt2YjBMHai0pM9TCGRGcRwA814j9MMoS7D2OmiFl2AfZSYlH2eg6vHTMhYarfnnxCCy5cv8/Xy5YQgi+QV04gMtqCSSRV6IcjBji/BcJMd4XUtt19jMVwh2GUtsIMDvM0BNrmO/h2ZKnsuYEKhJ4KVyAodO5FmYF8CeCWjaePGjXEin9NPlFX5vOell2XljrUkcicmnuEg97OfT1FZxDGe4Linvoev2ifKOafus56HNL62A5a4jpPJoC9eNBMWVlapBxnEohON7lIQI7mPMDaUId9u9wETpf34cjjEGKysog730JyvXaqfQhENiSDJ8x1xE3vNa9m9fhFJx8tDlSpVKvikcvDXAvbj7wo/AfTjH4mKTMAVmW0BDhw4QMOGDalbty6XL1+uVARx6XOVd+6AACfr1+8gJyeHBq7tvkpfMSZOIwAbt1LEfAS1MDEBwftkMA1BE0pes95GqluBPuTxDHA/8D55fEI8+4B3gdeRPoNRlAQdWNE4gol4glnsWj6C5ipuVYyklvngU0HBXX4LSgjODty1XQUKO1DYgWAMKn1J4yFSmeY6SuFJRqPxGQr5rtxsD6AyizN8whvUQWOSJ0oTcNUy/o1F5LlIxovAL6SzhHQ6ANEkcQ54Gbza5hsl7AsnsgSYmwAahkGjRo1wIP0ei6jHZbaikk803bGQWYZkeE9u8vCz61m2RibPVilrQnRPl3mW74jnVh6hNYs8ybC3Ar/ixMQPONiINBlnIg3jJWEt3iO69JhctuwrnM5jRJFJNBmEkEkImQSTQTCZBJFJIJkEkUEgmZg9QSwl4/FH1nCQx6nLU6Qwg2tYwg2MwEBU6DvoPTmRI86d8MVC2UAQqcBKAnjpkoXGjcsngBt+2AUkAaGYGEI+q7DiS7yvjtXABs4wnzPcCLRy9WkY0p/150qfqTz4g0D8+L8KPwH04x8Jtwm4vChg8CVp58/LvHZNmzYlOjras19lgkXKUwC91+12O4cO/QqYsSD97Lz9lExAXW4AwsniEwoZTgjbqU8vNOycYyFZDMFd88DCl7Tmc0JIYwcn6UoQMTxPPLVIYwm30ZvaXMcRniaeSYRwH7fxBLU4xgJOUkhjYDkNeJECsj1BAe4cau4gCuFav+CaX4P0nbvsanMs0rhWvvmvGJ3VGKwmnwjieYRNvIvBbFTepg7fkcpSwtnEw4whgTR2M53G1KErIxE40YHviSOUfXT0ucZ6rFzHAb5CpgR+iXB2Y2V9yTMo/cyoWDGbMmUKdrudUMBODFa2INAx0Z3zXKw0yXD32SHXdGUkAMvZyhts5UvcRd5K2m1Caq27gH8hqWZnYKPPtUCO76KiIhRFweFwMOKxEShMJoPqZFAdaIagOlL3LK+6jgNJhzNQyAQKEa4eS2YGsJyTPOb6e1Jyr97Lpf0JpdpcXh8dQDABcKdkOYsALlwo/zXz1FNPIzgKRBLDWKJZ4uO3503AvX367NTGSgdyiOMCcVwmDqntgplHqcsWLpGLEzuPcZFayDFuoUT1806SbQLuK7eFEn4C6Mf/VfgJoB//SJjNUg+6kgIohODUqVOe9C41atTw2a8y5eGu5AOYk5ND+3btgPfQqIcFqeGU9Ve6AxkZGgY8SwFFHGMxkgS4DWxvAa9jx06C52pp7ORWZHKKoUAUP/AtUtWYDqzEyhxWMh7oDTQjhMcpYCop9CeM5zDxGSbXK99dKksFTxkzXG0Mci0fRr5sk8CrLsmVkAO8j8K/AAOdTSQzCFmjNYMP+QpYCgziJIs5SU1U7gOKMWhDNl96akaUEIwUirkBqXCOxsoqZI2Lo2Wu7m2qjKR07VfYv38/IUA9ovidzZgIoAU3EsZZD9HwNhGWXs8ANiCp1UP4kghvM6KbSLiXc5jIc5zgHp5mEFN4CHf0MAh6Ignbba57vBHoiZsAapSogNnZ2ezYsQOA6dOno2PjRZ4jiLLE3I6JfKqRSTMu0YZsmpJLI/KpQxEx2GlOiSHboClvcA1vIFyVVNzqXkl+v7LR6m71L8V1Ft84/kQgEo366KSiYEdwkZQUnaysLI4dO+bjliETwo8HtnKOjzzjwBdRSDUvDujgmtd0fXYeiAfeR5LuZjh4lyTqIb9rN/IRJ8s969XgTcIVRcFut6Mois/k/uxq5M6f88+Pvyv8BNCPfyTc/8rLSwPj3n78+HEKCwtp06YNCQkJV/Tlc2+rrA/gzp07ueP229GFIJh8BKE0Bx9SIajOb3zAeR4knIMEcJJMpgEQxAWXLrQOeI7rOEEvfBP5rmIrF7iViYAZBzoDmM52cvmBaXShLkmY6M1SQlkG6Bg0Yw4nWYXBO+SwmEKGEsUTGBxBpUT5cyt9MUh/RZtrPQJ4kvKT/l5p/TCriWcGBncB07mV1pzhIdJ4EBujCeZ3wllBBncRxHYaMoHDBNGUBA+ZcZOOFEBgx8wYHOxHpkmJx0pn3MZp9xM5Son5VmABeqGwDoOSQJACqnKMH113dxOJpJZ59hXBPUqygdmVPgrXXczmS57jSz5B4ZLnE4NBrpa7U6ckIf0Bny1zlho1atC7d2+WLVtG/O7dWMAVIlMDgyZAE9f8GpcbQWNKfEd1ZCz4KRS2In30TgKnMJFKEk6Sve6z9KSWWnav53odg8/xB1zaYjsUTx+fITOzJqqqomma54/ZihUrAEEUS7jEa9xCV6pyjFziyCaOLOLIJI586gEQRCYxxFOb+dQlgVjiCec8zwLXA4+jMJ0JJJFPMW15kz7EcbjCABbv9ScoqWBcHgoKCti6desV9qAMIfQmhrquc+nSJdL/H3v3HeZUnb4N/JNkmGGGDioCShGxgSAoouKqCPaGrmtBsaxtde1t7Wsvq+uqa8eOKPaGa0FALBQFRGyAVOkC0gaYmrx/nCSTmck0wN/qvrmv68xJTn2+Jydz7txPmzev3DZdu3ZVv379ao+bQQa/JjIEMIPfJUKhULIdXMXlMGXKFFlZWXbdddfkuupcuVUtS7ff7Nmz/XngQKXx5evko2GF3rknCyhDfRRZrZsgmu4hHGudRjhFImB+Unwqj1E4xV81F1C2fByKMc7xPnrjFyH5tiYecUWWJZoZKM9TfvGw+b6S51/y3KTA2qTyl6WMKkwTkKhVgqjC5NhVnQxQnkK/KeoBHCrkJZ+ZImQKrpZtH4VOttixaChfV994G1GLTC5HLoolHKYBCS72lM2tsNSrvvKlLKcJeaHcmROaVpHj8Zz5/qXEFUJKHaKJ8T60VitH2FdLM5JKXWq7ulRVLzu+7AoB8bsOuytfZ6825HiV21zqzwrdKOa8OCFtIOooQSY3Af1+DmfhUtybcl2bWrVqey++GHbOWQuFDdFEJ6t0UpTi7s0zT0M/amicBgbL9aNcP8oxC0VJJW+8gOh3V5ZIk64mZbryN6Xxz6ZQevcvhCwWBBV0F/Jmsp7iypXbatGihU6dOiW3veOOB7GvnxXiF6OMUhbluUrwbXhDoEl/Z70lZso2M/nzqK0gUCHbOPWMk4f2xDvLXOtcfFhlOZzEPKZ8zGUCqf8FmjVrpl+/fsHyOIFNTBWXpXs/depUDRs21KpVq+T60tJSeXnli6pnkMH/NTIEMIPfLVLbwSWI37p1AX3Izc3VuXNn4XA46SbeEAJYcdnnn3/ur+ecozQWc62g68Bb8n2sgYcEROYO7/nawaCtb/T1nD29ZZjzve0ihnvijQAAIABJREFUuxjhG6crNc/fBc6/1IdvsbAZuvncNl4Sc6NuOhsVX/+zBQ52s8/VM8xKfUWtt4vAIVYatyGKPKOEdVPsMstdb6n28h0nS+AgS7gaE/FRA1Wt/KUuS+caHGeeUhM0coyOXkohFlFRHyv1sRJ/tdbh8p2lyAHqeRlrFSvr3hET/FPqQtJ5l+sNQR+RR5QYYo0/WO9iEYUaCkhNDNkGW6exVe7DzmLO8J6h6IA+XvVDVbdSWiSI5a1p1lVFKMqT4hVK3CrmLtwvoNn9BSQlQWIbCn4YnCVw6/dRooXgztrMF1/wxRdwJqZbFu/dHPajkOlCZiq23koBbapKyStWVsPwJ2UxdanqXiIZJlv6pJgsQfHsxHGonB1csSNIyHyLFtUzeXKuDz6ImDgx5PPPCwShA2HZ8rXynfl20cHnzneaNma6z0s+d1GaK187HOULh6o5oWUYFX64VUY4HE4mnW0I6tWrJy8vT7NmzZLLotFoJi4wg/86MgQwg98twuGwaDSaJIC//PKLb78NapBtu+22STdxalzgqFERrVvHbLll7WJzKhLAiy++WFE8TvC25NK1aGgAgmIlvQWPlsv9ZJqn9fS0dwSqxYUme1BCY7gJN4kIdJn9sK+gDExTrBcy1G1GVSAcM0QdZo1RGnnJGkejNKlopCZ5xBTZ3B2KvCgUV1jqC2hHocBBGBUoXiNV3z6rqkzZaQIymO0N61ylvRz1FKaJrSsU8ZosrynRSANrygX5PyCgBdmCnNjyeNQWdvOzgdY7HT2V+pOtzDZDKvl6CN/J8YocE5Wo51597WhKkvAkMkyrIgeLcH7807q1mu2qel+CItmel2uu13AJHhb1IK4XqGSDBSSvVcoYQ+gnUL7+g+l69Gjs60kv2doaHVPOU6J8nF5VZD11TCHBXZVK3NPV2NtQxHPtBep3gJi2Zs3KNXBgRzk5Md26xfz00zMC2jVBkanmiuJEM7zgYrsLihDdK6hLWSSgr8VC8dchxaKKhOOvY44V9Q9ht4u4HcX+o8h7VdiZ+q1Pn5tcHomEsw1Fpg5gBr9VZAhgBr9bpCqAixYtMm3aNNtvv72pU6eW2y6VAJ57bn0LF4Y1a1Zfp05ZDj882x57lOrevbRWCmBeXp5ua9d6SNnD9VX57tXQCLxkd0/K8oajlQh5wU1ecY1tTHK+7rY0zZmyrLebo+1rqn3N0FuBxrKt1cEY27hHB6O18YWworQP9m9N8I5jrfMOHlXirGSWbyS+XRCHmEj6mJPMfNxcWbZyCO0EsYAJApBKKopUTSwS2y+XIIevK3KbYfoJeTe5TXqsSbt0T2W1/iivLnV0vqV6iGkhUNEeVGIg8W4nMYkCyh8r1FOh7pjvL5VazDXGNkLqC8klPiVel8oVlmuOXANT1pdN9ZOvY1XMJbs+J1Aq6vW4lXMFDvtRgri8HwUN8goEEW0kdMevJgV7NFGmjtZXlmGeTqWrOJ8tKNe9vaDwTCILtuJUL2W/UMoxE8T/WsqlVKQrwRMyOV7Op4WY3cQcCQYPnqV//zbmzPlRt53Pd4ZACy27t150n0NN9IjbjNHCuGpJbaIr9VGO8oI77OYhB7m2Vu3rEq+Xxq9LTfi1CGAGGfy3kSGAGfwukYgBjEajZs+ebeHChbp27ap58+amTp1aZcLHl1+uNWFCxOjRpUaODLvrrmxr14bk5MR07ryNnXZa6YgjInr1KtW8eeXzhsNhDZRvez9dvlJZesnxmJ52M0k72znFc6bo6lq32d8onznWMPtaay8xDbxvjd4+N8Ad9vOxXU2UrbhW438V7/jA5c5wl+dMs1DI31OUv7Jivb/E98mVqNgXPAgTqtmZEpX2NgzZgvp4E0y1g6l6O9qTKWVbqgvET0wJJ+nOyghgRfdiWIEsxyo2Udh3ovaw0ONijk3SrRjOwCHmKDUn7Tm/cKBBXikX31ge68Ss19B6WfEpkjIPphXC8ddhBcLWC1kvHJ9+tt486+Vab731WCHkYDE3qqeH4pR85cBl/7Eg7/psMUMFvZ2fSpKyhYKOLxWvYyzlffkOGZXxQ3zaUFRXDKWsguVXcbt2EXOLIIZvZ82aRdWrx8knnyyEpwWFl1Nd1TF/VaS3yw1R3z5CcVW74lSiLF70LY1le8kcF3oiZZuKbePSKduLqhlPahbwhAkTqtmyZmQIYAa/VWQIYAa/W+Tk5GjYsKElS5bYddddNWgQBIBXl8zRqBF9+pTaffe1+vSZoHfvfX3zTdi4cREjR5Z4773NPf98EOq/ww6lttlmJ3375urXL6Rt20BtrOg2aigf5GvoC7trY4FdTbSZpXYx2d2udIu/a2yVP/hUIzdaZ7QVJslSqiKW2syh/uNuV9jP6LRjT3xxDzDYXVqZ6S7ZFol6NBkDmGhfllBy2gt0p8SDPDHf+E6nZQ/Lo71hkLM85pzk2BIP3noV9plqe8872c1u0DiFulQkfok1UxAzSwOnWustPGuNU2U5Q9iTye27CvoOV4VjjHCWnnLjBC11ylEoR4LQVj/eoU7wB5/aKk0zvgcFPXpzlMUoxjyC94QqFash6AhyA74SMkjMvzFWKDTVebGYu6uxpaJdFQnvtgLX+nyViXd1sZ6pUwn6VHPeEsHnGzUD+WJOEpRtORnPW7KkrGxTE/wt7blWm+tkQ3yim2v1cnNam+ZihCAxp7XBSgwu59JOjVFNN47Eduk16LLrmECi5NSGIkMAM/itIkMAM/hdItHJ46233jJo0KAk+SN96ZaqCjpnZdG9e1T37lGHH77AihUrNW7c1dixEePHR4wY0cx//hPkyrZoUSQ/f5CfjDDB53YxWZbSJAEcb3czbWumbVziPtuZ5j2HGuAF+xqtm69FRLUVZLpW9eVrYbmpdvClnlUSwPJOqX/YSmvzPWSVxSLeVKystEUiqzWV+CVcxFSvGtUWiWMc43V3utpn9q7S9gQWaOM21znBUOEKNf7SuYDzBeNu6m0l7lTocg29I9/9wj6lljXfmluhebX0rnrMtI3zPOxDB7nXJS6J90CuHtuiF/6Eyr2Kg74apegt4iIl9sJLYrFeAod97ZDquk1dFsJmtT5KZVQVK5dQURPnC4kJSvUcJWSUiFeVpBDAevXqaY4rqzzTGB3d4hY3uMdweyX7jZThLQEBvJy4g3nDsCOmOkJABT+ucrvUSgIbgkwdwAx+q8gQwAx+l7j11lutXr1ar169Kv1Cr205l/St4GLat49p377EiSeWGD9+vKZNt/HRR2t9801jr77a0ix36am+BvL1Ml77eDW1P3odPG+gk+JZnn/xeCU7EgSsKoTFdPeViap+8FT84m7rEottaaEXtdTPEp8HY8IOgkpzCddvaj3AxLKNQeoxdjPBVuZ5w9E1EsA9jVVPkY/tJ5SGACY+nYQLOztlXY7rFOplnZ5YpNgQK+0lrHiTENp0KFLPPS53i+u1tMQwhznMf6rdp8yWkwRlwodVUXpkjUDj3FvI04L+wF8qcZ+QczbK7sqZunVHdQSwVPDZlI11PvYS85KscLFGTYqT3UCi0Wi1rmS4zq0+dKBzPWKyXZK2T9bNeL00j3+nNq4/R+KevVxQs/HjcvdcKnJycjbqPBkFMIPfKjb2O5RBBv8V3H777TbffHPhcLhWPX3TEb7atIKDX36ZoXfvlR56qIlWrY63mybG2NPf3aShfM87WUhUSws0tcKACnXqKqImAgg9TDJJjyrXJwhgYqRRMQ2cor6xlnhHzE7Jws6phE+a95vSBRzC3j5VUovflnnW62W8UfpUIigJ20LKlMzUqxFSihOFRbFKTFfcssH21wbneMy1btPBbCd6wXItfG4vS2xRiTjEKr0+SchrKEjj9E/gM+wdjwL9DheKOtvUuGq4MdhY+lHVPRLcR5srdYWoYwWf0nQBLXxUUfQTubmlFi0KfqTFYrEaHzpZSr1ggDccXc7uN/V3nod9bR9UVMHrjuBzqfnKZLKAM/hfRUYBzOB3ifr168vKykqWgUlFXTp6pP5zrrhNQUGBdevWady4sa5duwqHw0G7OEX2NM6exjnAcMMcLiasidV29GONj5TUhIWqtu1hkvtdbLVGGqeJVqr4SIoiokiJ/mI+wfs62ctC8+NdMsqIX+r7xL4bg1TlZK08wx3oBENrtW8fozzsPN0q6C+JYP90ZKnsmi3RxvHmGiUgT1fgAzGjNmQY1WKZFp5xup7Gq6/Qs06zSOvk+obW6Gimjmba1gxzzcQMUTMFOdad8BdU9wPgM1wgZAsxP+MJYX19YJBZJtgm2bejbtgUCmBV90gQStBeiWsFucqpZ50lansLF9b39tvZBg0qVVJSr1aqQ/s03Vqud4vR9vWgF7GLsKV1HUYl28tsrToUItMLOIP/VWQUwAw2Gp988okjjjhC69athUIhb775Zrn1sVjMDTfcoFWrVnJzc/Xr18+PP/64UecMhUKbjACm22bdunUmTpwoKyvLVlttlXwIhMPhJClZpbFjvRpXoaJm2dbuNZaVLSNvVStBAQGEr3RPu75i/F7iYVZsNQ4RVmqW90U1rUT8EuRqVYVjbAwSx3jCmVZq6vJ4w7KasJ+PLbeZpTqjfOxfSdzmZinbp9Y5hFyfCfsb9hP2rajB8qVJ364jKl6T7+L2PeN0n9jXQm3ka2CKnb2hv7+7yZ7GWq2xV/zJyx7BSGvMxacoFnMp7hNzAQ7BdshOIWeB2z6sd3JJlnPkWeZELyqqlEZT+7H8Wi5gCPtSPU3V01zEbkIeQUjIcGFfadKkWHFxyAUXZJk+/UPLXG+ZFnW2ISLqBQNERQT9pTduVGUEMLuarWxUEegEMgQwg98iMgQwg43G2rVrdevWzUMPPZR2/T/+8Q8PPPCARx991Pjx4zVo0MBBBx2koKAg7fa1RVUEkMqu3Ir/gKtzE69Zs8bEiRO1bNmyUq/OBAGM4c+estTmSmTJs85ajfT0ZY12J7501RHAHUyVa12VbuAEiUw83Kcqi5XbwSKNHazYltZ6W0z9cgpgUBewzLW6KRTAoGZgECM3wAtpFZx02NNY2QrNqZBjmtB2SgT13lLtTP3kZoF7hb0mqj3yvGzQJo8D/E5n9RTppOyHSwPr7Oxb/b3lcv/0iPMMd6BZOvqnXHSS6zBBEseU+AgOUOofgkLP07BOqdmCsi/X4xdRpwnykBsIWe1IJ5ikh2tTSo/XBZviWlR1j5QlfxCyQthEMZ+CLJeoHznEu+9OdMQRq0Ui5OR8b6mrtPWTv3rQTNvUyY5WFjvFSehnqGs2dDhIjOkFQXvFblVul6kDmMH/KjIEMIONxiGHHOLWW2919NFHV1oXi8Xcd999rrvuOkcddZSuXbt67rnnLFy4sJJSWFekdgJJxYYqgARlKr766itt27ZNdhNJ3SYSiSjFAy70uj86zdMIaRGnX7UhgInHSXXEK0upbr6ukgAmtKBSwcM3Qf7aStQ6m2Z7hyu1qxleEBNOEsCVyXPUbEdtEcMQJ5lva39zV633y1VgD+PMtl+5YyX6ItcUfl8kGG+uPwtbjJW+cYwnnFkX82vEdzrb3jT1atU7grBizBASRSMhZwpyVjurJw9bCzq/nCPkRSG/CMqmNIwXT/4a+QotMtK/dDPZPa5whys2yP5fMwawIsEMJbOWA+oeDsfccccSxxwTtW7dHrZ2jqvc6WXH6eRHx3rFeLvX2pb2RuAWz7nJx/at40jKEIxpsKAQ93+EtE27XcYFnMH/KjIEMINfFbNnz7Z48eJkM3Vo0qSJXr16GTu2comHuiC1E0gqapsFXHFZfn6+/Px8HTt21K5du7TnDIfD1ujlcve4xL1m6ggaWS1LsS0tqdHu2iiABG7gqjKBEyRyiLKHc0vlY/2aGKe+4yx3hCIPCgtUv7kCQrB1fL9NQQCjQu7yN0d6S2ff12nf/Xxstn0RSvaZDTJ90xOXkKCMDmWdK8JWy/NHtLS5qS52n2m226CxpMO3uuhcIVO5Nih2Er4XMzklcScmyJQdjSeFXSPmOOyKCwUljvvgZBGDRIV9Y2fEXOMuW1robYfXyY5f0wWcQExgeTj56eQmv4uRCE8/XaJhwxHmedKuJvpJWw87z9e62cN4+xjtbUeI1mBtYMvNuvrEiV60xBZ1Gkv5sIm1OAwFYt5XPuAgQEYBzOB/FRkCmMGvisWLF4OWLVuWW96yZcvkug1FJBIRi8U2SAFMILFsyZIl5s+fLzc3V5s2barc7+efSy3wsta+1NLfjLS3iCJL5CgV9jiewrOCKKUX8TJew5t4R5nrdYSg/+5oQfj/WEGH1ImYjC1MMtUOJsnzo8DdmWgillDxBsfnXSUK8ZZP8oh41/bOUeJcs1yLgDQ1tOFJIOuVd4uHsFp/0+zganfU8WhBIsg6LbCz5+O2H5yyPp0LM0FIOqYsi/hWyGlKReRab4AX6hQ3F8PzThKTXSmL9zudN4AANlDsaAFNry0+E3ySzbCtUmdbaA/Fsu3tU3/xsOU2c5R37OAHE6rJFE+1HzUSq+pQnQKY+jq4pxIKYC4pCVZZWbRseYkm3nWM131iH3/xmKl28LqjlchylLft5HuDnKmgCv23OG7R3w0QFXay55XW8lH2vR3t7gtf6Jli+8+CO25zQZXB8ufd2BjATB3ADH6ryGQBZ/C7xaZKAlmwYIEZM2Zo27atX375pcr9olFWrLhfVJ4FjneNjqKaYYrlOiHiHFsIHig1o3+NW0xE2K66kaYgLkFf2AQZCsdfV0z62MpTpmltgVux2G6e9G3Kdo8JSGrFvrKpPWUTvWdX+KM5/q2z47XwqSxBp4tCV9vMx+41vtz+4SqOmzpFjRNWIGo/IVPK9TEuoyzNLXWwEoeZq1d82VOKPSNolJYY8yu21dYX7rFCUwPd6jx/q5U9P9nWGZ5Qqr8iJ1iiVATLbWG5zXT0nYIKY6seRwl6Fr+QtC8dypOrMArjn0ihkAliWjrNUx53tiyl7nS1UzznHUfqaYK9jDHYybYxJ+3xYyhypT/aw6uOFdkAzbemPRK1DbMRjRPAmDzFxRVbGxbb1vG29Jr+3jTM4foa6WhvOtqbxtjT3a5wjsdc7xYX+LdzPaJ5SveUhEq8hcVeMMABhrvdNa6P90+uyr7HnOMS/9LBbPUVVBjTjzhc8LPtAAxLrsm4gDP4X0WGAGbwq2LLLbdEoLC1atUquXzJkiV22WWXqnarFRK9gDeGAM6bN8+CBQt069ZNcXGx5cuXV7nfvfdmi0YPtJlDLTXf/S50sZiBvjJYV/C59rr72XqBDlIQnxdKECXOE4T/PyHQGgoFsWyJeZFA5Sj0vXsU+oMeOhurSPCQLRbE/P0nfowzlRV4rljomQTxuFVQjuQxKy0RMyxJGBP/BIrjNsSU7y0btNnaQoGHlDhWxOt+iHfdCGLA9hfT00oHebuqDysNyjJ6C8WMRR89PGBS8rzdRB1mqUOxh1kiQiYKmvE1wjVmuVnYf4Q8qZ53xZT4wj/RUNSNXnall30g0Fprwgwch9d953Vb6h+3JMgAPsm3lfZI7S0bSnldEt+Dz4TMqTYRIyQk5hBcgn6CO2YOXhFznab+aZnLHSdBPtdo6GhH6eBTQ43RW0cztfemPv6ikaXliO1K/UTdbrk73SFaIylPt778z6IypMYAltGkMhdwsfIEaN68eZoo9oBjneFNR3jHSw61r9Ei6GGslx1jpk7uc6lbXO921zjDk3HyNqfcD56+RrrBzW50o719pk+ajh7LtHCmJ7ylv3M97B6Xy7Pe8grbhY0XVSRwv5cRwOHDh1cx+tohHQHMqIIZ/BaQIYAZ/Kro0KGDLbfc0ogRI5KEb/Xq1caPH+/cc8/dqGNXpwBWRFUu4IULF+revbtGjRpZtmxZ2v2goICHHqqnfv0Zigu29r0dvelIhOKt4ALqNV87e/lCbjV2JwpgHEG10UuFQl6ywM46eaDCupkCApirPOGrOC8kWRWvr/ONsqVpXpKtr7Bx6uEM/LsKGxLJHRe5X65SDzrOn7xSzpkYcbUskxT4cIOdjAf72Acu0lh/pQ7xkUOV2Apr1PehYmdr5z0LLVLqH2KOFrODLZxgqTMVeFOhxWKe8UdPGugmgzT0rsvledVNtpXjlyTBTiXaCWIdkOt3POU/OEIzY/W2j9m6+EGBPmYmla6KvWVT+9VG8bPNrXegHBcoqnLUeThF1EWCfi1f4AQh24q5HtfhWqvc7gPp4vhmo5csf1DiOXMc42lHChsky1VCVotpJ2qokOHGusE4ld22qSRuQ2lJQv2jLAkkJjc4dsr3rqioyCRsowjH4G1HGiZwwX6ecsQfca6QG/BX/45PEa/ibkx0kESLw1tk2Uc/L2hjF9l+TqrX6+1vnsFisnVylK+97RABqa2oTQYooEKIQ6dOnTbwqgTIKIAZ/FaRIYAZbDTy8/PNmDEj+X727NkmT56sefPm2rZt6+KLL3brrbfq1KmTDh06uP7667Vu3Vr//jU7QavDhrqAY7GYadOmgS5dumjUqFFyu6r2q1+fCy8sctddUas8qnPSwcpYe+pkuiVamaN9jXbXpg7gWHs4w5Pm28pfPFZ57PF5QvErlb7QcyJLuB6yRWUZoL4PrTZMkd6YVqV7b742/uJR7zrcAEPc7yKbVdBNvrSbqH6aOG6jEg12MNwHTvGRNzBVGy+b613ZPtVYscXKkldamGuZrZGvqUFWGiRbV4XOUOxsr7nKUqOd4QmNDfGiAV72nvF61crGwY6R63UrHOkLP9nbZ7JM9VEdXKfHON4bYrK9kiSAiXPHtMb5OEdQPPkNAQ0fE9/idQG1uUO2212pph4nn4rp4Fmnuth9VvmLkNNd5h7vOsw3VmlsgBW1tL+IpIKdULFnqLrvbqraHCBQAKPyNMoOaGGCALVs2VLJkiUORLECBY4y1jArvWdXB2poXAWCvVSpG5W4yzKnWeYyxSbgYxF3y/OeqKjmBvjZZEs8r4mDRUWsdasCl8syUq5TLLbIImXKdrpxpCOAXbp0qdV1qw6ZTiAZ/BaRSQLJYKMxYcIE3bt31717ULT40ksv1b17dzfccAO48sorXXDBBc4++2w9e/aUn5/v/fffr1Rjr66oaxkYgl6k3333nVWrgjLIqTbUlChyySXFunY93WaausuVCKmnyBTddPa99uaYK332cCqqK7+yVp6L/Utvn2so3yS72skP1R4jVfFLvC9SRif6CMhH4KYs0NWRQhaZ7X0xrSrZEcMTztDZdybp4S1HGuLkSuQP7nC1kOnqe63GcVeHjsZiP8fZVsSOdnaZsJHCissR5Qjq+UlAkILEosD1OkWxi0S0dqITZSlxqsHedZjWFvjS7s6vUucsj5BSHR3lAg/4WUtv6m970+o0nklOwnvCKdcsalc8r9gc/BXPYFsRf1L2aRHyrECfWlDr84Vwmmct0dJ1bhUTcrtrfa2bLEOF03STqQrZAlq6JTpgR6rNpy5VsTNNmQJYkeTk5OToLIiKfAXvWG+uI+zlK1O97w49yyVFfSkoCTTFegs9Yr3tHOhY5FrhXQ1840anm2OFD52kWF8nuFd7Y5S4xD/8TaEDrbHIamX1L9dhswrjKCOA5ZNAMjGAGfyvIqMAZrDR2G+//aqNaQmFQm6++WY333zzJj1vogxMuvOlI4ClpaWmTJmiuLhYjx49jBkzpspOIFUti0QiYvIttbkcBfoZ7n0HO8Bw78vaKAXwI32dZZDFtnS3K1zsvioD9lPrACaIX+K4CddvVnxqlLI8hhwrZTtE1Bgl3lNgH6wGs7V3tsd95AB/9qR/ukzTZM+Q8vjBDt5wjJxkFOKGI3g8zk82EwulTEvj4+ggUAHrJYtMt8PilP0JKdTNUH8z1EzbeNrpnnI6eNhfrdLYgy6sckypuN9FshT7l8sc6t1aj2WGjubaA8eLCcfr+l0q6g+YJewKUU8J6MjRom6XGgUaVRgf11+UamScIg8qlKNQtqJy84rLWlvoFjfIs9Y17gRFrrbC6Z53uRMN/VWSQMojIIDheBZw6vcnFotVUmEbWOddhznIBw7ygRH66uGrtEeOiNraa3jNU/b2psud4SnXus0FHnCQ9/3bhdqYb5w97JqsKFkZ6f9jVVYAN0UWcIYAZvBbRIYAZvC7RVVlYKjsyo3FYmbNmiUnJ0f37t2T/9RrQwArnrMU7zlYTEgbC5Sqp5cvTLWjEfrWaHcqeYOVmrjMPz3lDPv62HAH2NbMao9RUQGMxo9bRFKr6izoEJLQLxLzCELm287BvvOZD7xpvUM86UxXuVMLy33gQAeqPvj9H67U2gKrDN7oWoIVNZYyd2mAEmWdZssIYFsx48sVt05FR7Pc6no3utEr/migIYYY6GXHO97LzvSEfXyS1i2cSFD5p8ut0difPa2xNY5Wc/HyFwyQbY0iW1tjuqBYzafCjhH1lvJ0Kk/MFgLVKTs+zxHQ9tZKXeoTOT6VrVDNinlfw13jdje4xUXuc6Yn7OIxpXoZaIi7XOU21zrCO3Vy2VcXrlC5Sl4xSoTihaBLSkoUFhZau3ataDSaZnsayfeeQxzoQwcYbqT9dTMl7fkSSSC7+czpPjPV9v7pMte7SX3FNrdUkWxtalBQMwQwg//fkSGAGfxuUdsYwMLCQuvWrdOgQQPdunVLFnatKjO4umNFIhElWvvOziAsKkeBnX2jnbnmaldj79UEAYziLUc61yPyNfSYs53pCeFahOKnI4ARgY6XUP7a4QdlSlqCZCVsK/K9iCMtMdz2ppunrfM85E5XaSS/2vP/ZGvPO9mdrnKToo1uN1bxeoWUZSUnev8mzhGxSjDSMnd7WPDYLlL5wZ6l1Ile1t5cvY0RFfGxfT1voE6mO8OTTvVs2iLeITzqL1Zr7ARDvesw/YyochyztfMvFyuJx/BFvKzE8ZiYpH2JzyvAEFmGlCuYW2UHAAAgAElEQVS0nI0iR+Bt9ezmKj+5SaLUSlZc98tRJLvc/Bq3+Up3A7xgL2Pc7Qr1lGhgb1k6GKala9zuKG/bw1i3uyZt1mw6VEfwK17v4P165IpGo1avXm3NmjVmzJihoKCgyrijJlb7wEH6GqGfj4zSR5c0tRdTs4BhB9MMcrbVGnpL/2Ttx5MM8aEDq1Q8qyaATcot+eWXX3z77bdCoVByQrn3VS1LeB4WL15s5cqV5bZt2zZ955EMMvi/QiYGMIPfLWrTCWT9+vUmTZokEonYaqutylX1T9cfuCY1MRKJKHIgovr6yDKb6e4r2Yq1N8daDS2vodF9YMHmLjBUf2/pYZLv7eRsg4TFlAr7mzt9bq+qxx6fR5X14k2U6thcQDITpUlSFcDE+0Rgf9hn+jrahR7wsX095PwayR/c61KNrHG2x5MEbWOQ+o+orDxMgC1SlkftrNhOwuairQWCa5AjnRJVHnsa7yF/tb2p1mngKafZwzg3utFW5uvvDcMcJlbhSBFRgw3U1wj9vWlcsg5hmV1j7OlPXtbRTCs119Vr6KCBk4VMrHKsVSOICYzaO7kkSOYp0dBaLfyilcXam2s7P2pvjpH6CouJiHrZceXa1mWZbU/jjLS/Dx2gRJb9jXKgD0yoottMKuqi8AZnDQhgJBLRrFkzO++8s4MOOkh2dna1n1NTqwx3gDYW6GuEH+xQaZuEGlnxOv6kvcMMUyjHKk2N1MetrquD5QQ/OcorgDk5ObKzs2VlZYlEIuXiiUtLSxUXFyssLFRQUGDdunXy8/OtXr3aqlWrrFixQjQatWLFCj///LPFixdbtGjRRhfBzyCDTYGMApjB7xY11QHMz883efJkW2yxhTVrKgfBpyN8tYkBLHGQnib4yAG2M80h3gPt4q7JudqlTZggIAsLDcD9xmKIAU70YoWyKlFPOFNTK/VOSQ5IRUUFcJ4yctcFn6rs+k3ME+UvEg/i1t53uffTnicdlmlhkLNc7p4kWdxYF3BFBfAzwbXKS1kWQ6kHzNMR09HOOsE48khm21ZHRs/1qBMM1cco17jDJ/bxgAu9YIAnnOkIw7DAQs+Y6SkdzQLZir3qWAf5wCHe84l97GCq1/zRv1ziC71sZ5r9jPa9nZzkZJPjV6U25Diiopt1uaCF3N5C8ULS1eFlx1knT5F6PrWPlhWKkYdS5gf4SD8fecPRrnOrniY4xmtudZ0dTU17/OpawSXU2ZAyJbrUOjF5QhV6aaeLAayI5lb4SD99jLK/kUbb13Z+rGRLKpGMCvlWF8d43e2u1cMk6zR0oxvtaYwDfVTpPOnv2cou4C222MJ22214W8EPP/xQ586dNWzYMLksXexyBhn8XyOjAGbwu0V1LuCE8temTRudOnUSrvAgSmxX9ySQbFEHOMgHftHMj7bT05egfbwTQ1WJIPNs5QjvGG8IhnvLTgZUIH8JtDen2oSSBAFM1J2LCVyHDZVPBqk4LyH5KNwjPq+reveAC8EF8azaTa0AEiR+RARjShw7yPYdgKioXQRpIYmYxtqjmZU+dKCmVuprhFWaOM8jJtnVRD2EvWmZv9rWTH195EUnKJAjz3rDHK6tn/T2ubZ+cqKhGlljmMN8o4vvdDbAC8IV6EVNv7TT04HPxFIUwOpwh6sR8pDz7WF8pfXpXOzHeMM3dvaMU020qy6+dZqnzUmTyV6bzzdRIzG4/wIFMHm+lM47tXnobGa5EfpqZoX9jTTTNsl16RTAOdrL10hXU2zvRxPspkE88/kw75qV5rv034wBTHUFZ5DBfwsZApjB7xZVKYDFxcUWLFigQ4cOOnToUO0/27omgaxZsx1aOMgHJtgN7O4L0MJyDeRXKgUTFfKoc3T2na9018eRGKCZpVWOrSYCmPji3i0gSyHiUYmVO4Gkxv4llJqslO3qot6t0dCDzneWQUmVM6H8bAwSV3lWfN4obmNl4rJIOwcLyMUOtkqWHy47Tm3IyhaW+kg/WUr085FFgo41PXwly/k6a+05A5XIMsCLWlvoFM86x6Nm2NYaDeVr6EP9fOQAh/mPUfb3s5ZOStP7t4wY1QWficmN90muGk851Txb299Hzjao0vrqYlIjok71nGm2d7+LvO9g25nuQvdbklKmvCYFMDEvu9fWI6/SdyoWq+hgrxpbWGqEvhpYq49RZse/DwkFO/XhNSXeiWcbM73nYE/7s7Z+AlFhzdMo8lUrgJu2FzCZmn8Z/DaRIYAZ/G6RLgZw6dKlVq9ebbPNNrP11lsnl9elPVx123z7bRuscrXxztVTlhUuMsORgr4GYXM9or0BGIhjdLClMc71qK0MdajOlngH/BNX4VrcgJsEDdvuwFJzfKW9+wRdOh4W9Ox9Ak/jWcFDfXrcrlbKCkCnUwCjeDu+/mBlLb5glYB4zcV8LBJ0M14uyK5dI6ibVohHnW2NRi7zz3LXaVMpgCPith4Uf59K6BLzIlNxF+pZ4QU1OxXTo42FRuhrvVwHGG5ZCtEKWW+g531sP88aqIXlBhvoJSdqaqVr3KaZFS7yQHK/IU6yval6pJQeqbnYTHXk+X1sY1oVJZjzNXCGJ5zhGWd63DuOSLtdTUlJkKPI+R4yU0c3+bvBBtrGLNe61UpNakXwU9sKsk5MrjX5QYhAXRXABFpZbKT9ZSuyv5F+snVaBfA7O8lSZEdTHeo9zztZd5Nd6S7Zip3iecUVdNjaKoAbUwcwUaUgQwAz+C0iEwOYwe8WWVlZiouLkwRt0aJFpk+frnHjxuW6e1A7Akj6Hp3lM4r3wwiTlCiwO740SiylXMkcs7Q3L/4+qoNie6DAVD1N87CYqUKmGuIHIT8KKQzOkzgfouaKaueyOAVKzYJN2o9mgpzFQulbwVFGAIsEX/gGKftH8U58qhnZuBTPa2e+cPzYCUWmkZp7yiZadFV8n9BnErFwqTFrFTEfAZ3tb62jhd0j5LLk+veRX8W5K09znKOve3yip/ddra+o1VbIdoETvOtis3XXzjcucrZGVvrIqe50jSyFltjcbj7zuP286hhnutM0ktpulurVMypmBadiqZCPfecEAe0vwyTdnehFC7TxtNOc6tkqSV5tCGACDaxztTv9xaPudoX7XOxh5zneXYKfIuvS7peauBOcK3ABlyj//SkuKqozXW9joVH62NdofYyylX2xoBwBbGqlLCX+6TJ9jbSd6cnz9PGxI73tVM8abGAyK7gw7dkqE8Dhw4e76KKL6mh1eWQIYAa/RWQIYAa/W6S6gOfNm2fWrFm6du1q0aJFtaoNWJss4NRlq1axfn1XPGo12ujlDE+6LWX788z1ud6+jr9fa5zRDjHNDqbawQ92NEE/622hBGGlOphtB1Pt6IfkfLZlTlbffC21UpYxWKqsVVcL3Ix/qdwRRMr7REJFL0xURgYi8f3a4wCJXriJKm6VpyIxkyzWxM/aKGvXlRhrYllU+b64JcrKsyTWxVLmMWUP48MF1C4dAUwoPzE0MNlaPbRwnuUess58Yf8Sxfj4lNi2qnkZqZ6O4602zDluxjLznOdBrQQdl68w1wj3Jy15Fa0VOQ3nmmsHB5mLHP/2Qbl+IyWqdkvXxl0dMtRMj2hmc/UsFRJS4BKr3SHbFC31cIcf3S09yc4SdL4owSEqk++qp5UirnWSB3zpWoPcjIsEGvUgFTvplip7mJSVgclTv0IruFWrVlks+MFROzsS03xP2N9Ao31hJPaz3CL14+u3Mk2BPLv7RHvTk91JQjjYB4Y4yQmGamKVh50npCpiXpkAHnTQQWm3rA0S/zsyBDCD3yIyBDCD3y0ikYjS0lJLly61Zs0a3bt317hx47QEsLYu4OpI4ssvLxeLNcIH5trKElsm4/8SaG+OIU5Kvm9gnUO979CULNsrcI/mHrODsB2TxPB1x5itg4STrLGVVmtcjgBGBNFvucq3fqtO+Zsbf72dgACmrg+jJx6vfHnToNi13nenqzxreLIeXov4edLnj9YOzwtc5i3j79M9Lr+J27sj8egumnjYCm2sda8cC4W95HrqVPxjpnb6eNZi9RS7EAUaedZT7tfKVIUCWhD06QjmhRYqdLsCd/jEX73jXsSEjNPWh/I84AcfaixaZRO26shfghxGvYaHRPxJjtct86wCB2rgHxq6TqFi66Un1ak9bwsxKuV97enIElwo7F5RNwpUwMvxdwxRtQN7nZjNNMjLq/SdGqfqvsLVY66gseFojNDDfiSzncejRE+98X1yj0RmfNirws7yqKc8ZaVc11RxjsplYCp6E+qCDAHM4LeMDAHM4HeLSCRis802s3r1arvuuqsGDQLnZm3dvbWNAYxGo2bPnm348KYaNVpkzZq5xjsGKhHAduZarYmVmlTZbizQRH7RxRh7VSjzsl59r/qjczyuo5m2S0b5VUbChZsgfokYwATBmxN/31rwmKyqLExdEjhudoOJdnWCoSbYTXtzN2kSCOVdluliAOspT54irpWtjQLPilgiVsvixjEMcqYL/Vuh+jbzs9WaKPGgDq50bC2PcrkH7eLPVmtigTbmOkSgt/1ivSfFPESye0mA6lzDqe7+en7RwYeynOtnN2qqxHMOcECasiZVoaGApM+tacNqMNwcBzoN/8AteA5/E1DtN9PE9aXPAm7SqJFd1qxxvXSkuux9cXxelPI+mGYban+rjNbISPvZT8QyJdb6xGR59rajQUoEqmRiHkxPW6qxxe7TyCpBHGncPqm9gBM6aaA5p9YOrSuqIoDVtc7MIIP/K2SSQDL4XaK4uNioUaO8/vrrWrZsmSR/1J4Akj4LuOJ2q1atMm/efN9+29rWWwfqwgQ9bWVeOXWOmkvBIJm3mo40fWF353rUbiYYbb9qlZqKBLBiuZdP4ssPSVmeOk8Qxro8iiKiXjBAY6v90WvWq/+rlIFJHXeCRuco62pSEY2diY+VetMSXao913r1DXKmjmY4xyAhUf92vgW2coYnRQ0UTfZrqR3Wy3OM1y3XwmAnaWcMmip2OWZjslIDkJ0sl1IVUp2rMTlK1fO9Lrr62hRd60T+EthY/ansXv0efxToxgvxBsaL6lvuHohZR5o6gJFw2JbYH1vqbifbOR6n4CycL4gy/RuuF1DNu3CvQHt8FJ3NQB/1tTDXR57Q3Ds4zefy9DZScO9/LtAFJ+ArTMEi9/u7G61wm0iaItMBASRVBaxXr273QioyCmAGv2VkCGAGv0t8//33li9fbpdddpGbm1tu3aZUAFetWmXt2rUaN97N/PlZ2rULHJ1f2r2S+kcZAaxYCiYViSITFWu/DdfPId6zh3Hec0itOnJUbAUXU1YQOUdZRxBp5mVuxrqhuRXecLQf7Ohcj+DXI4AhZYRo+wrrUs+7VAmOxUzPed9PtlYRi7V0vZu19ZOzPWaetnbyrfm2cr6HZCt2noexpdWOrpP9qzTR1EoNrXWyF1ygN1rJ8TeBFttN4DJdpdjLVENSy/SmHZX4whz7yFLsEO/Z3LI62UXdkkCqQuV7ZAIOFFC5KD5S6iNRu5drBZfaIo3yWcBX+oc9jfWxfetkS/C9me5N+1uklQMMt0JTe/vMLB2TJX2qwt/d5Es9pQYtlF2fBAEsKwWzMWVgMkpfBr9lZAhgBr9LdOvWzSmnnKJevXq1JnsVUZMqOGvWLGvWrNG8eXNjxzaWnR3Ttu0shH1lt2QB6FRs4Wf1ra9WAQz0hIi1GiQJzBRdHOEdfYzyjiM0qCLbspz9yhO/sID8vRlffkp8u6oI4Nr4fEPct91MMchZnnWaAuf+Kr2AY6SNn0tHZsLIlS/LoSKKHOI9KzQFk3Vzqme09ZP7XKyXcbIV62OUL/TSworkcbr4Tshoy/y1Tvav1FSTSi7/n+W4W8g22AGPCJycfxLoUW+gc6XxBJ/POYKIzYjz7O5IbxvqxDrZlIqNJYBV960YhT1xFFoqNV6JNwSO51yhCiVUUjuBvOpYPUxyoA89Z2CdbdnRD0bo6ydtHehDXXwDPte72v1DgnqP0ZQlMVtgF+L1BDMKYAb/PyATA5jB7xbZ2dlV9gJOh9pkASe2mzVrlgULFmjVqpVoNGrEiCx77lkqNzeK7eVrnFYBDAniAKsjgMGjZTeHGecbXXTxnUvd6wAfetWf5CQ1vJpRqnwMYEIRTBR6hp/1UuxkUZejMKkYjoyv39D4vZO84Es93e9+Ob6mirZ1tUE6BTCRMZwr0JPSJTAsV9YFJYISS5zsYEOM1cs4Ta3wpT20NdcdrtbAWud70NHe8LyT017riIes87JvdLGzb2u0vUCOQvU1tTK5rPI1nYYLBBUXb4lbexT6KzZZkAbzIgqUeAJH4xFZLrOl9f5gqOO84kfb6mRGjTal4tdRACvibSHDcKKYmwVpHkVKS9uVr4OXogA2tcp7DnGeh53qOT/q5GY31GhrwpYwdvatj/Szv5FO94x2Zvtcb8d6TUxAzBdqbaHWFmiTfL1QazGtBRGyrcTKufx/khq/+GvEAGaQwW8BGQUwg02O0tJS119/vQ4dOsjNzdWxY0e33HLLJneH1NQLuK7LEv+kZ8+ebcGCBbp37y47O1thIZ99FtG3b2lcDdhdSNSuJqa1q5251bqAg0dN4/jf1ZZrbpT9HeXtOpG/1BjAQkH/X+ivrAYfLLGnqNNlxYutVIzZ25gEjrtdoZ4xCr1ao+utOlR8PCb0z6iyfsDp7p7VAhLcWAvFjlLqXq960QpNzbaNL+2hiZV2Mdlo+zjXo072vKFOqPJah70hyyIPO69Wtq/SBMoRwMrogS9xp7CHBUV5QrhNyHRBeZV5WCDmAJyI84SsFxK0M2tojZccXyubKmJj6UdtvrkhUSFDBGrna8i2/Jcx7r9/e0uWBI+aioWg6ynxuLPd5Uq3ut4ALyio0ImjIgIFsIGZOvnYvr63k1M8a7JdLNYqGd+ZZ53mVujiOwca7nTPuNelPrGPdfIE8YzP4UIBGe+JI9DWplIAk9cmQwAz+A0iowBmsMlx1113eeSRRzz77LM6d+5swoQJTj/9dE2aNHHhhRdusvNsagKYwKJFi/To0UODBg0sW7bM5MkNrVsX0rdviWHDstDTtqZqYnVau9qbE48xSo/g0VJGAN91mKiIQ/2nxjGXs1+ZC3i9IFYuQpyOlP26W6ODkDlJV/FQwUO0vzJ38YainhLNHOdnEx3rVaP0kV2hRlxtkLA18Wm8Ep+3Vrlgb1DDbUvsg33F7JOS+DHPSnmylLjabXqZYIw9vWiA2fF+ss87ybe62NPY5NTenJS4wxLNPG6wy9zpqio/5wRWxl3N6QhgTF5cEbtYUMhmD1kmxKnnt2gr7CSl7hCkP6wXfIJP4Silnhf1gTzrHeUtQ53gunKVJ2uHjaUfNRWzpiyhKKJY1EdijtGw4Z1Gj75K794R558fFY01E04GH5TZdqW7bWOWgQb7USc3ucF6eZVUu4Vam641mtg15RiNrNbSYvNtrVCOQz1tWzPL7dnKIvVT7qb01yThAi5TAH8NF3CGEGbwW0CGAGawyTFmzBhHHXWUww47DLRv396LL77oiy8qu0w3Bok6gBtD9hLLYrGYuXODQhk777xzuZIy48c30bJlVJcuUe+/n4XddUvj/k2gvTleraaISJAFHBDARtYY5nC7mqC1RTWMuDJWCXIxCer8zVQ51m+VbYTMTrqKEx1BEjrLxpZwyfKzLH80wScuda8HXVDnY6RzAZfvBdzOCvsotY9v7atIJxAxVdQnmrrTWtmK3CvXMiP1tYuvRYV86ECzbeNW1zjMu8bFad8HDkra2tLiJBmMGqup5/ziWoMNdL6HqrU9QQArxwAeJN+jguqGVwv5l1g5KvUKLldqO4FCeA3uVk9rxU7EQFHD3G6ZRYbaxWRDnOxbnXXxXa2v7aZwAdddu1+HiIYNn/Tww3sbPXo3jzzS0Np13xjvaY+YXo7UJYhegVwT7ebw+I+hHAXaWJDcsqspVlhoiQU+sFD7OLFLJEwNdrJTDDbaPvp7Sx+jhOtkfVkWcEIp31gXcFVkL0MCM/hvI0MAM9jk2GuvvTz++OOmT59uu+228/XXX/vss8/ce++9m/Q86XoBJ1AXUhiLxcyePduiRQEBy8vLK7fN+PFN9e1bKhQiFstBN9t5Rr7ynRUSJKaduX7RwmqNNE6TxhBoC43Vly8q7H0Huyilz0RtEcID/4+9+45yqtrfBv7JFHpv0lUUsWChWBBULNgAFRsqdlERu16vHQuCXbEBiopd8aqoiA0s6MWCooigImChCiJlgAGmJO8fJ5lJMpkCjPeH78qz1lk5Odln733OnMx+8m2PYivgzlITwBzbCvmgqBDw3oIcztjyU3qA/8bMZYqHXOx8j9nTV87wzEaeH+B9wbXsihnOscIB1tsfW1sIpqvjXX+6Dp9qaYmFMhW4TZ5rhIzV31n2sEqBTOd4wrNOM8IAAzwK9jC9aH+Zhr6wT5Et8FaD5Ktltnz15RjkVg38ZV+f2zpa8zAZyRbApRp7wf3oJ2SiiIPxS5LrfTuBqzRLcYbwl8gSsgB3426ZdtXZqcbqZ5EWMhS6wAhPOnujYgH//hjAxGLkEevAH3+sUrNmvquvXmPffas6qe8Gc53iYg01s1hzi7Sw0P4+KSJ5GQrd6iZ/aeg1fRxoUsI47wrKU3dXXFIJVqnjC/sgYobdHOIDrczTz/NO86yd/Vjq3Ivl+NZFj1QvrsW4mRbANNFLY0tFmgCmUem45ppr5OTk2HHHHYusdEOGDNGvX7/yT94IZGVlbbYLOBwO++WXXyxevNgee+zhq6++Smj355/Z5syp6dprg4Vh4sQ/UcVQUwxNMacMhPws5AtbqSvb6hKauIH7r448Oba1r5Xqe8ZbxiqplZsddyxZxisms1Yjbuzk1whybINfzRAQgd0EBDDWbp6gxlppMmFlyYdlCVzPYexulKPt6TyPqmqGXX1T4f5idrFYseJd8J2L5ctTxSvWm6Sd/5pjRZHOLhTaSqGXrNZNdlRjpZogMaOvMd52pBedrK+XU/y1aOQvvYzXy3hQIFMN7TXSRXvHmOAw/bwImlqc4DbuZKrq1ifEAL6kr4GG2yCC04U9WzRW8FTtJ98VgiSJlYKfAx8IqjWeibXyfSKgwhPwvSNd7V+uNckBBhhhsq52MNtevnSzmx0RpzJTGv6+LOBEFFsbY0Sqmt9+q+Gee+qbMKGKjNACB0f+bVw5lrle3tLRN0YaUIIAxieBxMZ8zbEu8aAcdezkR2tVt1hzXU32qPPd4VodTXWaZ53sRVsVKYgEKL4/xQQwRtiXLFlSwasviTQBTGNLRpoAplHpePnllz3//PNeeOEFu+yyi2nTprnssss0b97cGWecUWnjbC4BhGXLllmzZo0OHToUWf7i202eXFMoFHHQQcES2LDhYdigm+lqKNbPTVQdmKpQlyI93Jgmbuw1cDLVEZFjuV5CFlvpGyuVlPQq1IyoazgWYxVbTvLRFk0lErpEAthUvpoy/aqxgHIkt5sriFDb2KLQydgHQabr7k72GjoJ8nQrjmzFhDJbJ1sptFZwz2KOuBiJ3GA/i40RQWMHyfWpPIxQy/3esNY+dnCUh7xrhETymfxavBUq9J31vrOdkb42Uz1z7e4xf+hiqi7ecrN8NWXI18y3qskREna3Bn5Rzfbe1sTlxlsWtSxl4UQRl6OziB8EZV4W4y1ZzlFgnoCa94hut+N+hRZ5xgRM0M1EN7rQ6Sb6t2t9q4s/ZfurlGsJfowEz93/wgIYQ/AMBWk8VasOd8EFXbVsWeiZZ/KdffqeWouUcPnHI1d15xnld1u7QkmvQTwB/F1rF3nYW3o72usecrFnneYOV9vaPAu0tFBz7zrCs07zb3f5l3v0MAHPCqJg18U998Uu4NixNm3abMTVJ92LdB3ANLZgpAlgGpWOq666yjXXXOOkk05CEFP3+++/u/322yuVAG5MDCCJ/4wjkYh169bJy8vTuXPnBCWR+HaffVZLu3ZrNGwYvP/jj60xzSh5KXUEKoIv0EUdbeTI1ktX4z2egnr9YSsdfe0SD7omTrYqhpqCYiFfRt+nIoCFzsRUhT5zJu5P0W5fxRnEBBbKdXFbTLJrfdx+bFsnoHw5uBf5NvjTcUaYqrGXHONwBQrlKSbL+dH9grj9PwSV8U6myHkcUpjgNl0gIDJbYYl/4XZZ/ivkJNUtsRb5GvrLOyLaquFQi0y2QDG5jd9ITYzCgvqDo1FouBWGWegCvBVtkSnLrsK6WKSLiH2Q4Ta/CSIyvxBY82YI64QBaCmw6h0u2/vyRQS0Oyziz+iMvsN3st0jTzV0E9LDDw51jdj35jusdZdO6GtCEWFJjZhrc5bA1hgjhllx+6VZaeMJ5fIyRylGcF9rEtXDzss72LnnznLddfU0bVrfOadHfCGIdkw17lpbecqbltjFeY5RxTijkuayJPo3OMclXjRYLSvc6Bj7ecNs1DTZanVd7HJDPekW5zjZcLd63VXqe9+JxjkVLwj+0q+KeBYfi7cAxlDZMYCp1IbSSOP/AmkCmEalIzc3V0ZSAdhYxm5lorQ+y7MAxur8bdiwQatWrUrIyMVQWMhnn9XUu/ci1Afz5zfFB5sVNxfYGesIyfeTndzu2hJtCmQ6yUsiQs7wdKl9lSYFB8ttI+xGjJTlz1ILQicvRVWiW10VwyCsEeSwBliglxMdYqKqhhjmmnL7eA+HS4zpIpGgBbm4deUarUAf3K6JGy2O/jVyEfKSGlr7r+728F0FryAR1QQRejOR4xnN3eFK57rFzdEWhZgW3QIllD81Kool/NBBvjI0KicXwTI8J+QtET8iElWaPRAhIVWIK/wdPNHrMRET7e9qO2riVwf73aF+sZ0CxwvppZH/aux9DUxQw3cKomkmMctzgeJ4z+2j75Mt07GtIG4/krSfnImdGpk4B7eIfV8aNTpfn3L92ZAAACAASURBVD5nqFp1j6I790N0I7kcUXuF3hLEQe5nlG9LsUh3wmOesgcessENBieo5nyFfENVw0h3usOd3hIEO6zAo9FtW5yK00ScKfiJ8Vj0ThSXgalSJfmprDjSLuA0tmSkCWAalY7evXsbMmSI1q1b22WXXXz77bfuu+8+Z599dqWOE0sCSSaB5SV8xGL+6tatmzLAO3butGkZVq7Msueey1HfunWsWlUTRzjVf9VARKjEJsXxdmZ50SkoLgOzQS1VbHBICm3X6w3xX9186KASesNF16R0AhjGaCPwp0sNMkIxmYqXgmPzs4BTaQF3N8ndrnKF+3X2tRO8UmYfyS7B2JxCxFXr2x2vyNFItqPkG1fCgpfpMqfKs4fZG30dqVDHaqd51mPOs7tpHjVAtvyiLUtB9DXfMo19b1e/2laWXGHTZVquUCMcLuJUkG+lwPHeFmuEksrHxOcJZ6IXrrJUUCj6Rf81yn4mu9BjfrGdj93kB3dpbKlDTNTDBD1M0DKaNlNNQP6+34z7MBplf3t7C1R7dxK4Vh/HJBkZwV8yRoJqZGc7Kz/fg0lnv+NwfY2xnbnG6V00dwLSmIclahtssCddhO+Mtrc2vo6zRof8rq1GfnarqRro6igXuFdPjT3qeEckWKFH+FVQlHuwIDXqVDQQk7GLYXPrAKYJYBpbKtIEMI1Kx0MPPeTGG280cOBAS5cu1bx5c+eff75BgwZV6jilZQGXJvsWDofNnTvXH3/8oUOHDn799dcyLYUffJClZs1Cu+xSnMmbl5eNpVr5WUMSaJ7oe1irplXqWqmuVer6xbaudI87XK1GtHTxao0d6CO1kuqijXWMu1ztHlfaP8E5WxKxDGCSCeBJCh0uQy/1rE1pIcyI62NzECOgybjMMFPs5Syj7ewHuxTZfVL3QWpJuLXIcJaIR0T8aHeH+sGvCdUGY3Qhw0wNNvE6SsOFHjHSBb6yp9pWy5dtg6rWqilPFYs1s0BLuWqqar1mFtsg13INhTVVrMuyRhDlWEdgxSrE5BLjZUpMuki+J/v6XCvzFMoyXi8bVPG5Libo4X2HeslJIjLs5Ac9TFDofWGTSHrONgalPyN7CjKWDxBYLPvhW7QAeXmZ8vLyTJ8+PYjZjZOCi+ERA13iQT2N94JTSnwfMvGeo13kYSvUV89VVnvQmUl2+NHOcJ1H3Wiwo3zudX0MslonA/Qy3s5Oc3pcUs6IhLO/VBxMcYp4Apibm2vFihVCoVCJDSmPx7b8/OApLSwsTDgnjTS2BKQJYBqVjtq1axs2bJhhw4b9rePEYgCTUVoM4Jo1a6xcuVLHjh3VqFGjXFfxBx9k6tJlnczMYPmrXp1mzXIsWjTNIBfaVgOztPOzHRJe59jehqidr6r12pptK0t9qpuDfeg1BwmEsLbSqyiuLMDP2jrD047zSsoA+IS5KqkFDBPUV2iYpv5jufGlZgfH3HqVYQGkZL25EB7XXxef62OsKfZSr0StvMQ+Yoj9VQpVwyPCzlbPY1a5RPUUDsmQwNJVuUEGAdqbaX+TfKarSbqD5ep71PkedpFFWjjMu1E5vwlCuAPXorYgyiwm1ReT7gsLCZzM35QYL54ApiLWGSJO8LKnneFBl6gqT3eTdDfJEDf4SwMfOsj7DvWGoxW41E/yHOBzh3pfDxN0MlXmRtytkt+yNhiCkwS2xcMFjvwYApd2VlZtmZmZWrdurXr1ILM29hwWynClez3gMpe53z3+VWJO87V0sYe84Ri9jPOwi3Q1L6VS9ileMNd2bnGT1ub53TYWaKGnt/XznMsMc6j3NVVeVu968S7gWbNm+fPPP4s8CKk2yk74mDBhQsL7Zs2a6dSpUymt00jjf4M0AUzjH4vs7OwKJYFEIhHLly+3fv16e+21V1G2b1kEcNUqpkzJNGhQbkKbbbddbtGijm41yjj9i4639rt2ZunuY+d71A5+1s4srcwvWtQ+08V+PjXCVWgiIlPPaPkRWKuG47yqmcWedHaFMjeTCWAYM9yJqvq5xINKEr/Y+xfi+tgclEYAoaZcY/XR2ddO86w3HJ2y/EcqF3DYduZ5Be1whqaekZM0Rsx5GrOxxWLWKhsDDXeSMcbp6R1HetoZCmU6zbMuM6xM62YMMRKVhTwRtBLIv5WN5Hu6Rk3TdLCb74WjqT7xaGi5E7ziBK+IoKrtNXao+nq409VuMER9yx3sgyJ38bZ+K3MOxfe0AW7EQPyJswRpO8lPUZBMEQrVFAqF1K9fX926QVRpRvQaTvaitx3pEQMNTLLHFcrwsIvc4Da1rfaK4xzrtYSwh2RUlec2NzrG606LWvqucK/nnWqYy7zvUBd7yH+cWE4Mb6ILuHv37ho0qJhdOZkYLl++3A8//GDfffctOhYOh9OWwDS2CKQJYBr/WGRkZKQsA0OiwsfcuXOtXr1a3bp1SxR5Tkbs2CefZCksDNlvv0QC2KbNKpMn766Ha5zuXTv42fbmqFGUPVg69vW5q9xtsFtAHX8ULbwRDDDSL9r40t4pC0iXmKtiixJBeHtYN5wrywB1orGD8e7ViCrWqS2sVrQYx6+V4gKm9IV5O794wSl6Gu82NxhkcKl9xLDQ0fI9jaVq2tta3xeRkPi2MULYinLtOhuDSNJ+fctVtd5R3tLEEle70wAjNUmoSpj6/NSoi1piBDBVHGUqLNJML2+Zra2XnViu7F4IIXM0NsfrhsuXZYq9itzFAw1XKMv2ZuthgkO970AflZC/W6eaQDP3WsFf4GYMo9TnPshOjkQCS1rsexWJRKzVwn7GmWs74/V0eILlkG90cJ7HfKOjCz3iNjckzKc8ZZPOpppmD80s9ooTzNHWaGd5yMVOMsZr+jjS2DJ6SLQAbkwSSLKbNzMzU0ZGRkIfMRKYRhr/10gTwDT+sSgrBjD2a3vOnDmWLl2qVatW1qxZU6KP0sjjBx9k2m67sNatC82bV/xZ27Y5qK62vxyfVKC2IrjFTcbraYb2WsRlqY40wHNO85x+RTJf+bKsUctqta1Rq2iLvc9XyzdqW6mWPLW8qh5OUM1fNjjBY86Wr5a71JKvtlvUEpZdFIBfxzQ5OlSa27QsAnOEd93iJje5RSdT9UzSPS4mkZm43eeuEvKq+s5WmLT4J49Vmvt4UxHrL0+2l5zkfpebpoPGlsgR8b32mli2maO0ir4GBLCsOcfm853dikIG/qub3U2v0EjxhClbga4+09VnbnaLVer4yIHed6gJehhhoEwF9jLFod53sIlma+tWt6AZRgqSJlIT30TkonpCJmw40tHzxmqgwGRd7WpGUes1ahrkVg+4VHszfK6LvVNILpb2QyMeVeU52hs+t4982Tr72g0G6+VNAw03xUek0G4OkGgB3Nws4FRIxwOmsSUgTQDT+MeirELQ4XC4iPx16NDB8uXLS7TLyMgo5dyIDz7IcthhQT5mfJu2bYMA9Z90JG7xqiiqynO5+5xjtPn20MdrFmrua3tq4C/XG+JSD1ittrwitd7SUOgbq2VaI0gwqI3amvjEAks1M9dia3S2xkdW62WNt4rarnaEv4xReS7g8vq53hBf66yf5411jO4mFZ0bvDY13hhBZcIrcL+GJGk2BG03CFzf1QXLdfxSurkEMKKBZQbYxoUWa+4Ib7vbVXb0o2387mV9y9UHTuwv+EdbkHC0mACWN98Q3naEvsbYwc/G6b3RutGlUY26chzjDcd4A/xqm6hTuId7XVFU+qaOhRgqkKyrCPmDdQoLi8nTuHEZ1oc/0sxMXzoqIRbvTb1d5GHLNHKHa1xmmOykOxZDfBhDWehqsmecbokmHnCZwQbZ0U/WquEa9yk9rzmRAGZlbfoymS4Dk8aWjDQBTOMfi9IKQcP69ett2LChSOFjxYoVFdYM/uWXTL//nuHggwtKxAnWrRvCLLN0YiP1bmMIR5fjNZpYqLmZ2mtkmb5eUldOka2vttVl7m9lvQ6CnEvayfCdkKHOcKM7cZygUt3hghK3DQQLZ3MNLJZjq+gCu7lawLEs5PKITIaIZ5xuD9862Iced46zPQWmOQAvWSUsUHmdrIqSSSXxKBRUm4sRwM0lfj9pZ5jLbHC6ZULO9YzLDLOTn4raHON1ww10oUc2Sl2jQDIJbBW9gj9KoTnFmOwC//KQXt7yglPUTJkCUTYqQphgW7/Zxxdec6w16tjNd/bxhQ+0k+Na3ITfiKqTBDJ2pZWJXmf58vXC4YgRI6q56aYsGd7Uz2maRl3HCzV3iQe95jhHeNtwA21TJAiYGhtDAMMyfaujwQY5xuvO9JR1anjRWXiZlDJ6iS7g5JqmG4M0AUxjS0aaAKbxj0V2draCgoISCR9LliyRn59v7733rlDCR/Kxjz+uKjs7Yr/9Cq1fn9gmqAn2jSk6elLFNHOTj38nkBWpb5bvtVdNrld00tKClO1T9RtTcPhEjICNVNs86wwptdzLUwKiVN+95jnCZE/hCeHNrJkXnwRSHurKMV4vu/nOBUY6wtuecabrDMUkeU6WZake+FAi6YtZGL8uZ4yNIYIRfOgg97vceL1s5Q9ZhtrWox5N4eYdaLiDfehj3R3o43L7L52qtRKohhQWJa+URIawe7zq8lKzZCuKilCQBVq40WBPO8P25njVsfoYK4T7cKWagnIvPXAozo3OfKqADL6PzxVXbswVCtUxfPiu3n23ln/9q8BD9/ZVNVKoUIYRLnCdoWpaa4wTneA/FU58qggl29FPGlpmsq56mKiTb3yts8FuMMT1eECQYJSMRAvg5iJNANPYUpEmgGn8YxFTAolP+JgzZ46cnBzVq1cvkfBR0XqBn3xSXZcuhWrVYsOGxDazZ88WMtciRzmnjKW7bATWhRVmoJ313nOABRvVQyi6ZWErZ1mou0Mc7C3rE7J9I4qtTpnR2XZzj++tNMO5uNosk+zocc28qqp1ZWrlpiKjsTLVN0avrKz2wfsfnep8T3tSG7OsV88BhppkEAoVKF5+Uy30GxRb01JJuq0RJISURcrzVPGik93vctPtbjffGe1MJ3tRPXlFVs1kHOgjO/nBcAMrRADjrauJT19Lsfi/ICs4ERlqCHtBRC/HudD9hpc7VmkoL2lilTrudLX7Xa621R5ysfM8luCCDa5jLd6ObgS1/mLaxf0FAm9rMUlABsnM7GvChKaGDVtjwIBsD90btsTuunjM1zobYKShriu1PNCmXE8MIezrM5N1LToWZAoPsqOPnVZq5vZ61KvwfMpC2gKYxpaMNAFM4x+L+CSQSCRi9uzZ/vzzT23atLFw4cKEtqURwORsvPz8DJ9/XtU11xRnV8bOW7JkSWBx9A1qmmYH2/jJOoGlJ1exZu6GuPcbFOvrbsCbqvkIHK+N8X5xrKN119TH8iTq5cbr5sbexyS+vlJdO7v72X1Cxtg62muy5e+O6OtNApGupmbKdLkLXGOYPiL6m+VZszwk0/MyPC7DtIr+GeQL/pE8FHcsOVmjpA7vt1hrvXp43iTXQ1HMXzyxi+3HMn6rxd0Xce1i0mUjJBf5jUdDgTbvRWgq5C3ZrjDXhy4VRB6ux2wBvUlFInMM94ph9tBcDYsSdHNj+3Pjrju1e7r0EjBhzYSNww5CeivwjgeUJLEVtTgXCEjx50mfrdLIe04ywiDr1NTfvQa6Sz2rrZRMmIvvc/G1LBTYlZ+KfrK7YuvgHchSWJjn1lu/cNppO1q7Nlt+5E5PuNwufjRZV118kfIelIVCJSUDS0NXkw12owKZsuLo+N4+LOOsyrMApglgGlsy0gQwjX8s4qXgYuSvY8eOcnNzK2ztS243c2Y969YF8X/xbZYtW+bHH3/Url07seK93+tkdz9VWDM3hm81BduZ6CdH6WGiaUabbrei8i8FMi3S3DytzdfKfK2K9mOvEY3MRJY1Ivoapo+whR63QIEF3rJA2EKrLBC2QKEFIv6QEV0Is23AS7b3kne18aSzjXaWxS7U0VTnGuVkL5YoCZKMPfAdVgk0LspCBE84x0Ue1s5M61Sz0oHOcoy7vO4ogYhYKjduzNK4N/4b118MscSQHQRUJJ48r7Kj31xmidMR0dDTGntAllkJOriFgnI6sfI6hdF+wgnbs7jDj85Txc1FpDZWgzDe6lpVSetegFZi0ZuJ2FWB8QJC1U2m6d7CuLjr3ZRYxx8FqTWBEvXRAsWOwwTxfGNxi4ct8nA5/ZQ+dkSxPvLdaI7fbbXVA3bbbReweHFIWH+13KCKe12uoARxzhRopZRFaoM8fC4t5fP4bbbpItYbrJUmfitqG18yqCRBH6ziFLNspAlgGlsy0gQwjX8sYkkgsYSPjh07ql69unXr1lUo3o+SSSBTpzbSqFGB9u2LNUwLCwvNnDnTzjvvLCcnB6tsZa5vdHSq5zdqzmvUNNbxCOviXuMcZX+TTNbVHqZp6g/ztLZYs2hJlAB1rdTaPK3Mt7cv9fSW250qQ0N7udQUyx2opQ+1VF9L87TwpU4iWolErRlB9cFCd1os30JvWIAFNrjPdn4xxA1ucZO3Helx/V3oEVe4z4le1t/jupqc0vVW0SSQXNVd6BFPOct5HvWAS61X1R6+c5exuFrEXQnnpBqvrISPTIEq7T3RNh842H2u8LkjNbXYrW5zvkc18lep86yObQSkKTVyXOBZrzvPPLelzFYdghsENCJGABOtoqksgIcLEhNmR69ikbCg2t7FSS1jFuXc6Ov6uNf4bQP6ydRAD9vq53vHyFNLS5Pt7GJt/EeWv4qszjELdLzFuSA6o19LvR+p0B1Z6tf/ELsIhUK23z4ofp1nrTlKkuZEC3Hpbt5QdF6PRt8nPwvx97lAL4QMjlK+ipHnspNQNgZpApjGlow0AUzjH4tQKGS77bYzb948ffr0Ub169aLjFU34KEkAG+rWbZ1Y4l9ubq68vDw77rijJk2aWLcuyF7c1lRTpZZyylE7wVIX25+nla/sZa2aCHnOO54TyMXVs8Kv2tjWL84yuojsxbb4wtBLNNHDBBE1HWQ/LU03FZ0F0VcnCwrUxBIQ7lbfVVoaoKVHtbRnlCjma4FDhOPiy7IUOso4RxlnoeaedobH9fe0M7Xzk/4ed7pnUhZALisacrbtHe8Vs7X1tNOLNFnXqa6JJRZpJt+dPrETzheJ0qaQQEotQ+D6zZWaGMSTkwJVjHaK+13ue7vZw7eedrq+xqhaij1uYzHQcCNdYKw+TvSfjTo3rKGAZsbHfTYQkL+PZDhFuBzd3irRrTTrcwRT7OU5p6Kv5ZrYyg8Gud0pXihX+SMZtwliPCuO3vha1arLEr5jVUK5BkVEHf6bhtoCS/PCctpNt6sOBrjbVa6IK1hdKHCH7xd9H/+DYlOjektDWfJwaaTxf400AUzjH4lIJGLYsGFmzJihevXqReQv/vNU58QjmQAuWRIyd24tF164FNWtWbPGnDlzZGZmat68ebRVVbRR3Uqf6+0211ugZYJ7NiduWc5QqLlFWplvlTpF5I9C59nLYPM1jpKp3saZqpOX9dWwlNIaCzV3iIlWqauu7ur4sUTMX45gQastVh1wBVbY1fcI7EyTBGVi7lH6P4EWFrnO7a5xh49197j+rjfEdYY62hv6e9whJsqILpmlLXWv6eMso21liS/tnVD8t76VPnCIHsb60v7m6Ic21juWqJUuZhVqjjlSF34OIVsjhS4wykC5muplnAdcqruPN6pkS0Wwqxn284nhBm40ASxMKgIdYDn2x3RZwgk0dWPm/rO2ntfP8/qZa3vNLBLyrF09Z5ppm3wfNq5UUJbgKbu/yPoVbwXb9KIqxSivjwguM0xbs12U5NiOuYFLO68yEYlENquMTBpp/J1IE8A0/rGoW7eucDgcR84CbIwFMB4TJwbOzDp1Cr34YqGvvlppzZrO5s1j0KAaFi4MWbq0LeZG0y2415W29atW5jvApATLXWvzNLNYtgKvOtbxXnW4d0x0iALrNPWNJnHjj3KuXcw00HBjnFTien/X2kE+lC/bJAfoak5CSYzY610CK8btAtdh8ucxi0eslHF5Fo8MEQf5yEE+8peLPedUo5zrcO9p7XeFnsRokSSXZr4s17jDfa50vP94wjkpJe5qW2O4njp5QcTR2MOnvhTW28IUjtj4+QbaLjuJuFyB0xDW1lPGeEA7P5dzZZuHCz3iJGPMsEuRektFkKFl9BqSXcAVT7yJxx+28pKTPK+fr+2pjlWO86pHna+7j1UVVtvGEclkbBwx2k+QRTuuxHcsEolsNgGsSB3Asfr4yEHedkRKubzyai9WFtIWwDS2ZKQJYBr/SIRCIZdeeqknn3wy5Web4gJevTqgRv37NwNZWXU0aBBWt+5qHToUOuywiMaNc1155QkGWe1WXxrhAicZU+Zcv7Ob0z2jr5fM00pnX5tiagmrSjN/GG6gk73kWK/p6+Wiz+bYzsE+kKXAJ/a3jd+LMl/jCV58DFW2xMUykvQ+tixujMuroeUu9aBLPGiKvTyuvyddhZuc6D0DPa63cZZppK8xvrCP+13mUg+USUCqycOJdvCon/VXaI18n1vlRFW8L08iCQn2e1jlChwuyyJZbhHymIMsT1ndrbLRx1hb+cMIF3jEReW2j93nkFaCaLviVITS4hpLK3myWi1j9fG8fiY6RKZCPY13tTv1NF6uGvJlF9UN3FwL6Ma5RXsL3NvfCoWCMIl4Iri5cymPAK5X1ZXudaTxjkhZ6Lm0xJy/xwKYjgFMY0tF2jadxj8WpSmBbEzNv4T4pCrBcpuREYSmZ2WFLF2aZfbs+l5+uYqRI6t44YVaONUMB2tkqXcdZn0Zkm1/auRob2hnlqGu9YUuzveoLBendKudZIwTjTHQcIuj2cI/aWd/n6hmfRH5iyGeAI4VLGBnChbZeIsfxYvbO9FjB8b1sbEIYW9TjHKePTXDeVaq73ivamGhnfxgju18rLvLyiF/iuYatp9zcacNmmOpsPFCBsa1rGqhs+X7XlBrrglO1dY2stwhZHmlLOIV6WO9avoY6ylnWJ5UNy7V+cXJMq0EEWyRorYlyW2A0u7bJR50hmfkqm6EC/yhqbFRK3M1653nMQf6KFpmevNJ18a5gHsT1SwuYQG0+YtOeX3c5woLtHSfK0pts7nqNxuD0ghgmhim8X+NNAFM42/BwoULnXrqqRo2bKh69ep23XVXX39dnobDxiG+DEw8KlrzL7ndySev16jROgcdtNTDD6+3yy5B+zp1NujdO99pp+VFMxl39K6rLNPE085SQ64hrisxvzzZjveKdap73TEm6iEkone0qEdpxGu4gbLl6+9x07V3gEkaWG6SA7SwqKhdLGA9ZvmbEX3dI+5ziglFbNGbIHCBdYu+39yg92xr8ITxuphuV329JCxDVXk2lKtnnDjXYEm8RoZ/o61qZtjgEYzyl1swz49GCSrtdZelkwzPC6Vw820OwqqbZQcTHWy0Mw12g/M86ghva+97da1UV46RLlDPCkd707KowksyYla8YtJReg1ASuoap6IJO/tBtjw56trblxpYUfTZU870muMMcX2lWQArTqp3xPZihWtWrlwZjP8/igFcqLmhrnNpOSEApT0tlU3J0hbANLZkpAlgGpWOFStW6Nq1q+zsbO+8844ffvjBvffeq379+pU6TmZmYFMpLEz8PV+atS8VYgSwsLDQDz98p3fv30ya1MRhhxX66KNcEyYs063bYpMmZXn44SqWLcvAne7SxLWGqCXHY87Vw4QSfV/qAZ/r4lXHaW2+sfrYzydFCR6lWSEaWu5x/b2tp319roWFPtZd04TqZcWkYqVggW4q+ELHK4FQTPBiebvV4tpVhoZuvIVxVzM87BLf6GQbvznYh/obZUU5ygol/xHdLUN/6+0anfk5VroOr9tHOxyDSUUxlPHnb8r1hIV8aS+D3GKDr8030Y5m6WGis432sIt8o6OqNjjQR643xAtO9on9POJis7Szlylm2CVl//FELrAAFmcAJ5ORisz/Kvf4yp5gT18Z6loFMs3VxiUedJYnHWtsUfvKsLpVDL0FudpBoeVff00sHlNZFsDSlFqucYcact1ocJl9JBcRj++7MpEmgGlsyUjHAKZR6bjzzju1atXK6NGji45tu+22lT5OoMtLQUFiSPfGxgCGw2Hff/+9UCjk2GP/MmYMo0Zlu+GGPO3bFxgw4HtPPNHQ2LFZnnyyCsa6zmJHmGSNOg7ykTZJVdJGOt9IFxilv24mW6WO9/RQ2xoXGC7sLXk+FFRrK4mG/lLFButUN9qZKevWhTDZAXK0F/KIiwWlOpKTPmJ35/boObfgGiUJ4qYi2dIIbc3xoYM8rr+r3G28nh5xYQIpSdVHLD+4msOsc4JgqW+E+ULqiOjmlyJtk9SFkSu6iK9Sx/sONV5PbzvSn5qob7mQd9X1nndcp5X5Wliomg1l9tXBt472hi4+97x+lGHlDQhgsQJGeaVHSqMPu5tuir3c4iY3GuxNveWpqomlHnBphfqoKCruMu0tsDEHz3WrVkHGc2XGAJKaRH5uH885zSj9yy1eHk+6/053cJoAprElI20BTKPS8eabb+rcubMTTjhBkyZNdOjQwahRoyp9nLIsgBtTBmbmzJny8/Pttttu6taNOO64lR5/PNu6dcVtatbk1FMLfPhhrpDdRbzqFUeC3b2mgz56ynIMDrC/gR7S1kMmecJZ6KG/iCy1feUFhyow3sP+sr03Hek8l2vhVkEB4VvUdrDxmvtaHQud4EEjhDwuEN16Fi8IltgcXXGHTFVLJIPE3sfuTqzorqR2BYJ0hGUCa+JqgQ0nL3pueYSqNCKZIeI8o/xgZ3uZ4jivOd5//GGrUvqo5gv9MUOud9HINvqp5gg0kOUXVLXUFMUO7AAVWWIj+NGO7nGlA32okWVO9B9TdXK2J32qm6WaqKKfup7R3STb+aVc8gdbm+e/uulhgmO8bpJrcNYwjAAAIABJREFUIGU1v5DvxKuApPoVXtFf5lXlGep6k3U1W1vf6uBor6uZNPL/xgXcUKA3Mq7oSHKG/t9lAQwLudQDOvjGWUanOi0B/8ss4DQBTGNLRdoCmEal45dffjFixAhXXHGF6667zldffeWSSy5RpUoVZ5xxRqWNk5UVPL4VIYClkcI1a9bIzs7WsWNHWVlZQqGQfv2We+65+l56KdtJJ5X85x0x3XoXq+pqueZbo7FpXjPNH3gDxwv51O+uMC96Tp4zUehPvbFBSDshvfyip7ke8Y5HMU2GtzBLWG2/u1HEdlYabKDbpCqfm+FVYUNwqAzjSmT9wnOCBbNXdHYxUhdrt5JouknpyIj2EXMdZ8UdixV22VNQJTFemiuQ+FokwzHaOsGbHvKGH7V1pdZGy0ZIprnOFGhe1MCb9nKBb32qsYCYcpBC72CxQBTuA5yLZ1CsBUxQTOWR6NhhVc1xgO/19J2eltpOFevs6gP9XWJvb2tunszoffki2s96geBfvMRY+ftrveB4t7nZELejvUz9FVqfQMCyHCtf2Za/0lyUpSEkYpV69jTF/a70nT086Wxbm1dqHOHGoDiDuSwyeKTgTowvOpKqBt7fkQTyrNN8ZS+f6lYU91gW0gQwjTTSBDCNvwHhcFjnzp0NHToUdOjQwYwZM4wcOfJ/QgApv+hzJBKxdOlSBQUF9txzzyJ3cigU0qpVnl69CjzySLa+fUsSx0yBO/VKuY72qVzV9TXI3f7tZ+epY5VfnKBhdJlZr6qadtbeDNOj1qSqZulvlkfc6w29PWqAhVqY43K5aspQqL6XrVNNHSv94To3yvNvt8gVWJb2xfZm+dEPVjhWZtTykkwAv4y+7iMggOGkz7NwrGLpr/y4/ULFeriFpWwxZ1tYYDUMJ23Fkl//ke0DG9znR0+a5RRZzsNqeW4WaFtk4DBz1FXoEzk+EfYFvhK2H95XVXV5xop4Wo4dRVxPVDskE59q7hM90ROHoKZA3ms8xsvzkanWmYqRUmMepei8lIcIbsJMPKVQW0G84uISxKk0mpJ8/B6MUUw247VyA5Jb03ueU99U7XXTxP4mGa2t73V3qbCnzBH8fKg4mU3cnx53daWjN6YoVm0uJoAxEhQRWJdXphgnFpNaHmLkOYbVarnGHU7yom4mV6CHkgQ7+boqIzaWdB3ANLZspAlgGpWOZs2a2XnnnROO7bTTTl599dVKHSfmAk6OAYwtOvG/vpMJ4K+//mr16tVq1qypatXiTNVY+4suynfYYTV89FEV1asn9SVYpAtkWqGeybqZ6FA1o2WJj/JGgpLHs04VllnCNRWjravU85ttrFBfYdS5FZbpL41ArlpgsJvd51+29rvq1qkSTQJo51WfuVBEFgqKFsdYmkFtgZUumfjF3tegnEqGZeMIvCtY+rcut/VynOk9Lzjfo5aa4TY3ONLOdpLraHt4w/6y7C/sIrPcJFjyv8YnuFHI9SL2w93Wuho7Wu1BHCysp4gOMhTa12eOdKuDjbeNmdYq1sddG32NaehuEJDX9bgges/+HT22QbFObp5ichzbL4jbj5Hl37xsgTlC3hDxVbTA9dSiuxCzOKZC/PGIgIwuVlIvN0aW8t0vrJn1jvSCAnwoYleFhplgNPpY6Dz3JOnhRlLsbzpdycZhuDvhaG5uIEg4a9YsmZmZQoL7+u9Seom3NGfG7Weoq0BvNYwRke8HbBf9fLnrLVfXdFfrLGZ1LiaW2RIt0pkCRZkYyrrmzXadp7AApklhGlsK0gQwjUpH165dzZo1K+HYzz//bOuty6cHG4PSkkBiSCaAMcybN8/ChQttvfXWli1blnBOjCjus0+hjh0LjRxZ3eWXlySAhQLd3JXqC8vU14vGOFmGQkPdkNDnY84TEnauxDjI2EJ/umeLtHHhR+0c5ENLNdHdx9qa7TP7mqm9tWqZYzt5qqpnkAJD7eI1n7nRXN1FTCwigDdF53q9IOkjRviSLUybuxxtSjLJYd43Q3s3uM2/3ONZJ6G/xqZiqj3c7yMhO9rZTPtHrX+nobn1RU7aS2T5SoFj/KoPVggZ7xB3ecl7CaVRNgZXCFziN5TXsAzcipt8o4Y9rfU6PsVZGCOi7MSDZHL4MM4rpe3rjtbHuUbpr38CrcnB2d401tFGCZnheQMcr/wfYYUCUrxQA2tlqG6ZW/FSmWcdIFDoHZdwNPYjLTMzMyjFhN3RWrGlOX4rjNsPK7Yy52pjoWdVMx+T5AtUYPJtZ4XLVTPUQvOLSGzM8lwasa3osxrC+++/LxQKVWgj0eq5YcMG4XDYlClTEtpss802JeIj00jjf400AUyj0nH55Zfbd999DR061IknnmjKlCkee+wxjz32WKWOU14ZmPhf2jFit3DhQr/99psOHTrIzc0tNVkkFOKii/KcfXZ1ffrUKdEuNuI7DtfSImOcbCt/2McXWsWV+CiUYZoO2pqtltziMaRehOZr6UjvqGWtkz3gUQP8x4kaWGGtGs72uJejRHOlW3zlcjnexVJTnSxiYpHVIjnpIzbnGF2O5R9XFgHc2H5qWWuYy/U1xlkex1RfuwO3EdX+qGmmsJkyjdAc87Wxo/3NcrCIvgrsgCcEEY5hGYbZwVQNNvOaKgsZ/hCQo1ECCrWrAjcq625lqFhm6mJN9fe4o73uHE+kbHOUcUJ20dAIJ3jFKZ73kIvLJMeZAqd5Nz8ZaLhb3FyB+9lbYKv8LuFozZo1Qdu2bYtCNi4URG9uDMKmae4PZzjCfSbpJIjXPMY9vvWHH92txkb0Nzw6j9IQ++tkhEK6du0qEolUeENRzdFFixYpKCjQokWLos/D4XCC1yGNNP6vkM4CTqPSseeeexo7dqwXX3xR+/btDR482LBhw/Tr169SxwmFQjIyMipEAAn+Kc+ZM8duu+2mdu3a5aqDHH10gRYtCr355nYl2sRGbGGx6tZq5TdLNDXQ8IS2Y/VRINspXigxVvIiv1hTB/sAfOggV7tLoUyPOh/UlOvQaL3BsEz13Gkr91mhDZpYGhVAe1KwiJ8Su+6k8WLvH0h6v6nYVAIYQxdf+EBHDDHd1fjWCl1QLNlVKJb5+YtmnorGDmbKsFTIuaraQ8h8BT4xx3GbfC1/B0I24HRcjWvxGlG3fsXOL4kIzvakbPlGObdMV2XIXzo40fNO8bYj7ep77zi83DH38YXP7Fs0XtnoLdn6hwQLfIwUbcqikyHiCO94O5p5n4kJDvGGY9ztKjWs26j+KpoEEgqF1KxZU61atdSuXVudOnXUrVtXvXr11K9fX4MGDTRs2FCjRo00btxYkyZNNGnSRNOmTTVt2rTo3BYtWmjZsqVWrVpp1apVETFOI43/S6QJYBp/C3r16uX777+3fv16P/74o3PP3djf/BVDTA0k2dqXjJgiQfv27dWrV6+oXVnJItnZnHfeBp980tLixXFtFJOpT3WzTg0r1be92Q4xMaG/h12EiEuK6FYx4onXnxo5xES5avjQQVpZYCtLneo5D7lYnmzL1XeNO53mGf9yt5WuluFPTfyEsBW2FsHH0fl1SRon+XV10vtNRawkx+b0U10ebnGMjsjxlf8q9KBvUhClwKXXARnCskSwiyWydZfhDe95xRDXVXpR301BbA7BE3kXjsbBmKwiEZPF5ybiERd61xFGO0tjy1K0SETwg+BFM7S3m+mO9I7zjbS6DCLa1WRf2EeBzHLu5S7YVioCGO8OjYVqbOqic4R3zLCrsJZCslxmmP184gT/2ei+KkoAU2UxbwzSWcBpbMlIE8A0/tHIzMxMKfFGsQVwxYoVfv45kIVq0KBBQrvysoVPPz1PVlbYE0/EJYqIKXDUdarntLDAanUMMEJG3FIZwRf2sbXf1beqxNxjJHKFeg71vr809KGDbOu3ojZXuM9izb3oZDe4TZ4q7vJvd/m3eoZZYITvnCpkktpR13ODpP6Tid/U6DXsFDfPzcHmWgDj+2hgJrpq6wphpwhpoVpS/wEB3FMQRVa7qI+Q9TKdorOb3GCI0z1jgyqbNJ+/gzwGRPktWboILIBfYb+N7ucHO7nK3S7ykMO9V277+ISRFhZ525EedZ7n9bO773xSyhy6mmyN2r63azku6d6CiLyPS3wST6A2xwIIPUyQoVDE4ZYY4Ec7ecClm5SosTEWwM1BaQQwPh4wjTT+r5AmgGn8o5GZmVmqBTASicjJyTF9+nRt2rQpOhaP8jLy6tXjkEN+N3p0VbmxEL5QSAHO96hV6trLFIQc5j2f6WJ9VP92ooNtUM3xXinRbywRIEdth3vXfK1MdIgdzE5ot7MfHeFtt7neSAMMdmORJFxGnJ5BRC0LrBQSJA1QuuXv/ej4feLmsjmoDAtg4j+isEIPyNRaS7NS/pMqtKcg5qwRMopIQAid3epFJ/mPE6LJNI03Y2abhlT3NEaiQmZiL0GpmIkKnVNmX/E0YYMq+nnetn51p6srPJ9Q0v55RpluNy0t0N3HrnRP0XMbQ2dfy5Znsq4VKP/yPikKZs+dO7dof3MtgPWttK/PRBztN7c61ygdTNukviqq/pG2AKbx/zPSBDCNfyxCoVCRBTAVAVyzZo1p06Zp06aNpk2DUsepEkOS+0xu06vXL1asCHnppWitQEx3hpf1NdIAU+wNPnSwQ0wsWpjvdzki/pVUGoOAIOSpoafxZmlngh7am5nyOi93nzl2sK1fi2IMB7vRclfZyqX28jg6i6iTkPGYTPySReeSy8JsKirTAhjDLwjLtU2pZ3TGj9EzG5b49CRjfKy7ubazty9L1ej9XyCVcgV/4VA8qdDjuD9lq2QMcquZdvG8fhWOeyuNfrTxq48c6G5XecSFOvrG13HVD6tbr5Op5RDAxoIKkyXdv7BkSfBjJd4FvDl06Ajv4FARIbdtRp52sv5yacjdUL4KTFlIl3xJY0tGmgCm8Y9GqhjAGGbOnFkUdF1aZnAyUhHApk1zHXlknkceyRYOE9bWRA87y5NqWmuhlupY4RY3aWu2q6KE7xMHaOoPTS0tMU5ENf/1pmn28K7Dy7Rk/CrQUW7sT1kK3esKN7lVU9eq40FVDBAQin1wYqmu3ycFaf+nl/L5pqIyNIVT9RErDBzv+oX56qKd4rp6jRMISmx/H1+aYi915NjXZ+UmPvydKBBCE3QUESv/kS+oOnghLsLbqFfi3NhT+rED3O0qt7lhoy1fpZGuTGFXus9UnVS3zj6+cLOb5EcLRHQ12WRdy7CY9Yy+jk/56d577120v7kWQDjQB6iiiTcqFPtYGoqtsX8v0hbANLZkpAlgGv9opLIAboj+am/UqJFtttkGpZO9VPGDqcjkgAG5Zs/ONGZMjrzwSFX94SKXuMdAu5oiW54cdYxyrPXW+Ugna9XS0xsKJFrHNqgi7FXLdTFeT/sUaXWUxF8auNYduvnUl/YxyM3+5V7XGaKpO8zGZBHkaGEmnvelY1G8yMVe1whin2IxgpVlAYzZrSrDAviKgKTuIFicUy2dvxRZqT6LvjZJaBc/j9bm+69uuvtYL2950MWVHt8XFrJEE1N19LqjPexCE9yB56z1MeYKKustwVRhfRPOr2K4oIhyZ3whbIeE+lwhQZzo6Z6xv09c6d5NmGWG2bb3uqP9FM0Wj8cufvCFfdzgNre5QRef+8FOuppsvtbWaFlKv70FWjN/pvy0evXqwTVUQhIIiohv/ma69WMxgP8LapYmgGlsqUjXAUzjH43kGMC8vDzTpgWLROvWrUsUgt4UCyDsuWe+3XffYPjwKiIKrbFIJ00FOhhjBDFdf9nbL9Ezr0LEE+4sqtAWWLSyhL2Eg0T0cpRPixQPkjV0M7HUUDkyLXeyTNMNNkhzD/jMDWLRVbWRo75uHjXGHkZ4Cccr9CaKZby2Eoh0pVIEubOU8VMdS/5sSbSfqYLM4vLOT3UsNqeYrFwLgRs49dK5Z7TlF9H3TYpiKlORi9rWGKuPq93pUg/60U4edInsMlIBiu9NyJ8aW6Cl+VolvMb2F2ohLy5+LluemhZggYj50XnOJ3oswxxhyVrAHwqeoXEKfYm+gri6ABd6RI46nnF6mVq3YSG/2tZMuxRtYbsYZ0dvCMjY7a5xjTtLnJutwM1u0ds4p3tGR9+42h1giX3xctIZVQVu7KGlzic+hi5WrmlzCGC1qF5Ljo6b0UvFYwBjBHZTEQ6H0wQwjS0WaQKYxj8aWVlZRRbA/Px806ZNU6tWLevWpY6P2tgYwNixtWvXOOyw+e66q5MsrynwiOae8KccBY7X0mvmO1ZPW8m0xP9j77zDoyjXPnxvSyeFQEBCByFAqAESQA9+goq9IogFsRxLRBFFBeuRJgcLHEAQFUE/EI8o6hFFwSNFUAgRCQk9gRRKEghJSNls/f6YnclszbZI8jn3db3X7E55553ZTea3z/uU77gKFee4jBNSZQMjanL5mHKuB25Fw08kIDyMLLKlAbE82RAqeJhwJnOCVMzEAhbKeINdtn20CMXRphFDFOeBexmAlkw+5yC3At9Jk3N3Av/CeepXi1D1ItCyYPf7uL8rxCoY9ulTBE7ZtkcwhCoysVJJS3pTRj4g3GMdQpa9P6ivmSvUz7WgZRoDOMR7LGU93RnBOFToqKM9tXRAT3tqaI+eDpygPbF0oIpEzDJxp8FADEXEUERLCunGbwyhkHiKaEURrSkkllK+xsoXDuN3vCZnGZeLMI3/KcJ08DPAQn7mLj5lAh9wFy0ppBYh7KWIThyUCb0c+nCQXtTaUiJHU0EfcoA9JLOKN217XcJppzPLSeF3MknhJWYxk1cIo5YixgD/dhCtVyBEM7v2/wNBAIoCSLS2By6HSjDQkULa2yVd9wVXAtBV/d+ICF/SS7tGEYAKTRVFACo0a0QLoMlk4tChQ4SGhtK7d2+2b9/uNjJYvs5dJRBHDh06xF13deTTTy2cPplKP8s8sniOUPRcyc8sYxqXchuPM4huHOMb4pjAalbbjreg4gE+ZC9jWcedjOU7RgHfu7kuM2pSeRcLf/A6J7iN9dzGejZyDVN5nJm8wlCEiTcLLQA1UZQDZh5gApn8mzV8CdyEaEkSH3qOQSKiQHUVgmBEEJo1slZra2Jd3YXATwgisg31NXbF2rnyWrryGrpGWTMg2MBux97OJH90ivY6A0NQs9ZWju+g3TWZgPMI4SGuyoFZ+RAtuRTzBV/yO9iFmRgQrXQWCrnAb6goQkshVopQUYiVUiqxUgE22elZLIuiwlFcaHGXiqQSYVr1DWABMIxPGAP8zEO05yE+Qsi714v6ZNKVqDiAmj/QsJoIcgghBw0nOW4791HgEexr5Mpr5ToutdShZRqX8w0ZfMI5tgGOovVG4ASQ7ebq7dHrhTCk/yK4I/hibZYvBdtwe1ZyLRN432trs/y7JAb0N+S3KlYb8hdPaWAUFC42igBUaLaoVCq0Wi1Wq5VDhw6hUqlITk62szrI94WG08A4ikKj0YjVaqVly5Z07dqRRx818OKL4wlhOqDCSAgLeZJu5BFHGZmksI47AJU0zWZFmML7mPv4X+7hNtYDnnORfcy9FNGel3mdsazjWr5nLeN5ljdZymNMZy5qam1VceMA+IbngV4cYgfwIFpWYeYrhnADGfzXbVoYcYyu0NlatIexfocgAG8FvyfmrAhTg2JWP3Fs8qTbAgnU0REtGdJxUF+ATAtMBIeqy45soYQkfiUNK2raU0QHCmlNKWqsRAKXgF1lXW/GbwCqEcTFG8ASIMK2znFfT5+9FgsmnkMQVosR7sr/oGEIkRwggmzC+YxwctCRg4ZCLNTX0pVblEVrqsE2LousWV0snUsUbsdKZzdRszcCX3u8L2INYIDa2lrUwDJb858i4AKvcB2vNPBJy1HLmqv77+pvQEkDo/D/GUUAKjRrdDodbdq0wWQykZKSIv1id+fL58sUsNlsJitL8KAT/Qnvu8/Iiy/CXv4BWIihgiksZCNjGMTv/M4gdjKcaCroSzZWhGTOy3iMFUxiAp8K58G9H9IpLmEKCxnFZp7nn1zOdj5jHDpMTGEBi3mCVUxEzTLMgN4WORpKDfAki/gHYKaOLKCYTL4DxmKxTdWJD3iD7JyBRPCK/0QCCa5w94hUIYxTi2DvKmcIAGqbAPR3HAmUcrOHqUtfUSF4xIUiBNk4J6apx/t7/TEwge5Esol76EiBXaJxb9EhiHNHDz5fGI/g6VpPP6AjnqZ/HQkJCcGCEOhzLfViuQbBSlxNvfW41va6Fmxef/XL1ziDGgMaRjEJHSaMmKi3MJtcLMVmti0LgHI8WWIFdDqd19fnCkUAKjRlFAGo0GyxWCwYDAY+/fRTPvnkE6nYPHif488RcR+r1UpOjpCXTz4NFBMDOvUqTJaHeZx3uZ0vuYpNzOIlBvE7q7mLEhK4ma+wAi8ymwU8zRIeZxIr7cfv5rqe5F/oMPIToxjIXtZzK2G2JLtdOMFtfMk7PE1r3sOCVRKAT/AAT5DLffTkY0agYwRGLsNCKDBAEoDiHfhf6qcmg5HCJdjRtfIKFiZEATgYLaWIE7BibkOVbRzNIeuab2OsJRIjnaUJZ/8IVII4fz9uRAj52erxOLkFUPQB1CFYRv31rnud06gIZwA5PEQ/hkjpgLznUeA9Gr4vwagEoqDQVFEEoEKz5a233qKwsJBbbrnFTvyBewHozT5Wq5UjR45QU1NDSkoKv/32m91+YaHLqKp9jL5kcyU/8w9e5RVeZzpzOEUHAKYxn1m8xFxm8BZTeZylTuN3ZXn4mpv4gjtoQQU9OcK33ECk5LEk8AxvMYzfMPEkdezkOMMBOMFAoBcfowOqGc0WvmcnqbRkF2b+YBoQQgYhgI4LhICtPUwIVnQYCLFrRod1ju8NhFCNDngKixTvHDji3d7jtGUILcigBuHhLdYz7gsccDg2GOdvjOO1OCcidhWAIFCH2W+pZN9/IDgLwJsRPh2D0xY58inUYKSBETiDmSgyGMJ+PwWgq789V5+BMgWs8P8ZRQAqNFsefvhhVq1aRWhoqFfBHK4sgK6Oq66uxmAwkJKSgk6nc/oHrtHkk8h63uFp/s5yZjCHX7iMZTwGQCh6fmU4rzCTWbzIVN5xOocK4aFaQ7hU0aGSFjzKMkLR05ECNjKGGCkxSj1p7GIyC1nEAgC+sq1/02GSTwwwybCFY+yzLQ/YJss0GDDb1h3FQDgGdBgJwUAYeqKpJES2zrGJ67/HwH/ZFbBocvWYrESwGBkRRcgQIlkmCcDmaF9xNWb312HA5Gc9YzmBShD78Y0AegORCB6gLwJ73Z/b9vcTjDQwACrOANCeIg5KFa19QykFp6CgCECFZkxsbCwRERFOiaDB+xQvju+rqqqorq5m8ODBdjnA7PZTqbiUt/mZnXzHddzABj7hXgayF7CipY5pvMmLzOJFNznSVEAZV9CNNXzGOP7GdqawgGLa0IkTbOYq4ilze+3/Ygq/8gnHMDCcu/iOyYykF9sxcCUGNmNgCgYWYOJBhKCICcBK6iu2PoQwDQawifoADF8pRYjsDKYYk1vIxEewmY5AApFk2OUzdKSpikJ3gtVxnf17AyaHGr3+njsQ7O/1fOAQQqjLTOB3BA/Dl4EjdntmZGRw9913AwSlFJxwvJDGpgOFAQvAhr4rBoNnC2dDKAJQoSmjVAJRaNY4JoIW8SbFi+M+ZWVllJaWEh0dTYsWLdzup1KrieVXUvmNt5kKQGvO8pmtwkM1MaSziJm87HHsoWSRxCFGs5kpvM1HTCKWclsJuWKPxwLEkoma/egwAufZShEWSriScqAGlW2iS54iRY7FzWtfEX9FBlpSTo4Y4jHatlQBRlsASJRtq5r6qiZNGVdpYOR4rkvb1CyAtwHDEBKdrwOSgQcQ8hceAD4AmxsECHk6HQOwgjEFDMLf3AF6+9WDKwugq8+nqMi/PINylDQwCk0VRQAqNDpvvPEGKpWKKVOmBL1veSJoOb4EgVitVi5cuMD+/ftJSEhwivxzJQAtCNG9P3Mlf9AfgBHs5G4+Bqys4S4WMRkDrqMIhaCFMn7kah5gBUt5DC1GfiXN6+S2YgWNCmKBcsJs60Uh5lgT+AfbMQMctsv38YdglIJzRExVIopLIRp4CFCInmIpcMVVAEpT9AH0dsrRmYsjAI/RjX30k94L16MF5iI4F/xs22IGPgIuBaYiBIccBd4BWge9FrDAedQYaMEFTtCZGnyv1uHq83A1rmAEgShiT6GpoghAhUYlIyOD9957j379+jW8sx+IeQADEYB6vZ59+/bRqVMnYmJinM7hSgCagdv4ko7k8w5PS9ueYQGgYji/8jTv0IuD/JuxToJAhVi5wsRSHuM4XSmkAz056vW1qxHSZOwkFjjPYtt6dwmfS23bkh3WO772FVHiBsMH8ITttZi4V245EwRgBjkI43WXorepTgG7w5W8q5cM/+Uy/jeg/t3VVPbEOzzNfXwsvRe+Uw8D3YHnXRxhQKgz0xVhWngSkMcff9xOdbUg44PlA6gGwjmDDiNW1Bx2Udu4IVxNAbv63lxyySV+jFDWpyIAFZowig+gQqNRVVXF3Xffzfvvv8+sWbMa5RxqtdrtFLAj7pJD79u3j9atW9OpUydOnjzZYF8VFRVkAU9jpjML+V/eIIrpxHIaNfsJ4QImtvMUL7CRNxjHv3mOXdzKc/Rmm1Tu7DxCbjWhWsFpqWqBN9UQtNRX4tAwHYhwmoqVCz+oL7PmSuwFIprEB3owpoB/Qhhnf4SwAvHOW1FhJAV4AxXC9Ts+vE0E7xdtsESkmATavoSagCefwPr133CjraZzIPgqQSqJJoYK6b2RKOA1YBWw38OR1cBs4F3gebKzn+bBB2H6dDW9egWrFBxEchqz7SfAQXoxkD98Ot5bAdiyZWBOBooAVGjKKAJQodFIT0/n+uuvZ/To0Y0mAH2dAhZzkUG9T1J4eDg9evQGGCOPAAAgAElEQVRApVJ55TtosVg4jRBYYeVDLLzGe6Sj4SXAjJFd/MgIfmI+Vm5CzUjymc8CtgLfAC8ABzmJkGA3UK7kFJtwnvIVl98jiKoxwAYX+4GQRiUE5/JgWllzVTJMA5LNcjbCZKAn0epJ2IIglMzUW8VU0vJSLMQAGcQhyAx5zWDxetQICX4P+XjuxnpEi9fjCnci05VQDBRf+6ggxk4A5vIs0AINr3g5nX0eeIEbbsjHYHiOV17pRFTUZcAjtnRBntIvN0wEZzhHPG04zTYulxKse4t4jxsS+o1VCk5BoSmgCECFRmHt2rX8/vvvZGQ4V2wIJhqNxqcpYBGr1crhw4cBSEpKkrZ5M3WckJBArzNn+C8AlTzNh3zMoxQwh0hqWM6/KaI9r0tHbMVCKp8zlunMJZ/9wAra8CpbOI0eoRqCfCmvhiBWQaiTLesQpOQphBqvcgHouBQfdmI2OcepYRGjrV+LQ7M6vLa3UAljUiF4hbmzwLmytMiXYosHzrrsYYhtmcmlwB/Yixq56P2ahgqUOSOWCNMg3IN8II76erKuRKMrkSy247Z+zbgWX6I11hs2AMUuzu+twLUg3NM9PvRRRgwdKMQAlNKW4zwLLMTspX+qSGjoOR58cD+TJpUxb144mZnvMpFp/JNXGM9aNH7Yja0IAvA0gzGj5RPuYzGT0frgaSkG3jQkAGtra/n111+lH4e+tpqaGoqKiigvL5fWAXTv3t3n61ZQCDaKAFQIOoWFhTz11FNs2rSJsLCwhg8IAK1W63UUsHzdsWPHqK4WJujkub68EYBqmw+gyJP8i3/xJB9zH4+xjL+7qE+qxso4/s0tfMUyHmUKL3OGu/mEt5jGfKKllMbecxr4lnrRJT7UxEfqLtsyDsEe46kW8O8I9W/9YQHwNLARuNLPPkD4Z3QzSOmk5ZVArAxBsDWWuzw2W3ZMEkKpMYOsGWXLhsqEZdn6aoVzXV0xH6E7kSwKWTHVTijOqZKteBZ/cnGoAdbamivx7Q1qhGx93/l0VAyQzVpAmPrVI6R98Y2WLVui0+m4+uo+5OcvIjNzLNXM4h5W8ygv0IuXaM83bkWsq3UA5ZymjM7oiSeaIv6F2WtBrKX++9IQ4eHhdOnSRfqR6WtTqVSo1WqsVqs0UyGfhVBQuJgoAlAh6GRmZlJSUsKgQYOkdWazmW3btrF48WLq6uoCnloR8WUKGATLX0FBAWfOnGHgwIHs3r3bq/rActRqtd0Elrw82yO857FeaygGnuJfvMCPqHiTOcxgIU8ylxn8neXofJgaE/3KHH3wxOU+2/JqBF9DR8tfsGoBN0YUsNiXkP5FEIAqMuzOIf9U1NQHOwwG3g7g3FFAa/AhHMeZF4E5CP9gXQlAT8i3mxHE3ziH7Qbsa+nWIFiMxaaXtYcQfCrHY29F9iSQfyKGBCpoTRJ7eJAQpmGQTQl7i9zqFRcXB+RQy62EMJRq5pDB1+zhV7TMQM0Wr+6LGTjNeay0BPZTSRLTbOnC/RHITmOW9REaGkrbtm397qukpIT27duTkJAgrbNYLEH7/6egEAiKAFQIOqNGjWL/fntH8UmTJpGUlMTzzz8f1H9+Go3G7S9qV0Lu/PnznDx5koEDBxIR4X2JLU8WQBBSwgznVzZwPTfyrdPxRrTsZDjfcy3fcy16+gMWBrGXGCqYzCIW8hRzmc5tfOmVz5ZY+9ZRAOod9nNn+dtAcGoBi1HAjWHXEManBQYSxedcwP4BL15rY4jQxiLQ+6RCsCyG4l0exMeAQQiep95wlniuoIoo/odYBtKZQrrwrpT4xR9MJhORkZGAUD04jd3AaDYzihnMIYOfGc0m5jCDIS4KAMoJBe7hP4TRgxH8wt18yn6605uD0j5GBCHsSiDrgWfxHMoiIlrvXOGtb5/jfkp9YIWmgiIAFYJOixYtSE5OtlsXGRlJfHy80/pA8cUCaDabKSoqom/fvkRHR0vbvbEANiQAh/EbafzK20yVBOBJ2kmCbzOjqSSG1pQwho0c5g3i+JFMW7WPLPryAm9wB1+Qxq/MZxqXscPjtYt5AB0F4FqwSSYhobKj8BOvpFbWVyCixFUuvkAR+xJqPvQBwtHZEkDLrYPVtmUvkB7/TfHxqnJ47SotkLtxB145w/s+rMDjvEsBHVFjpYJY0llETgM1f91RVlaGyWQiMzOTo0cFm6rcT3Q0PzGKVL7iFl5iFkPJ4Fa+ZBYv2Qk6R1pynPk8QQmtASESWL6/ztai3RzfyodrqKmp8ejn5wnxf5OYAgdgzZo1aDQaJk2a5MMoFBSCjyIAFZo1ogWwIdFWVVWFXq8nMTGR+Ph4u32DIQABnmQhE1jLJFaQSQr76YcaM6ns4lne5Fq+ZxC/o8bqFKTQj/18x/V8zu1MYz6X8wufczt38KX7a8c+H54o4kpsyx64FoCnbMtQ6n3VAhGAYsRuMCxbIuLd/g0QJnXNaB3qzapk+zoGljRlNDjHwDb2uL0VgJ8xjs+5k7XcyXymkUc3ljCZViQi2BJLGurC/rwqFW3btiUmJobo6GiXY1EBt/IVN/ENq7mbV/kHfdnPPfwv/+BVOpPv1K8oIltTSjxnfS4J58kHU/5ZVFVVsX37drf7yoPHXAlDg8FATk4OGo2GF198kbNnz2IwGFCpVCxfvhytVotGo+G6667jueee8+kaFBQCRRGACn8KW7ZsaZR+vQkCERM9h4aG2vyQ6vdxlRzaXwFYarMrrGU8d/JvZjCHwWQQQyWtHWJbVQgPIT2h/MJl/MA1/MjVZNmqikRSxXymeRSA4kNQfKAW2JaisHP0+RPfZ9iOuQakDHPByAMYbBEjBoGoGIKVHFTU2G2r83BcU0SLIPwcx+fJ8icPhAkEb/o4xSU8zruM51O0mMlkCJsZRTmx3MVSIAdIR6j76x01NTX07NkTtVotJVl3FymuwcJ9fMJ41vI+DzOTl/mUu3iE93iR2XblEeXf/V4c9LkknLfxwpGRkYwaNcoueMPbAJCKigry8vLo06cPAM8++ywXLlzgzTff5O6776ZHjx6YzWZMJhNdu3b1afwKCsFAEYAKzRqtVktdXZ3bwA2TycS+ffuIj4+nqqrKpb+gq+ogrvoS0Wg0LurqqniJOVzOVnYynGnMZy3j+TvLmcgqFvGkcC7gAL2p4xpquJo4RqInnEs4xdX8yPPMYzSbuZztpElxvK5xfJC+a1t3N7ACz1G/VuwraQSjFnAwhVc+wvj6AvvohlrmFyZa/DQIARuOoQnBGEegfbg63l14j7tawAMGDmTv3r1utvpGQwLQCjzEB4RSxwKe4nJ+YQzfM8qW7GgQ29jFYoRworHA49SnGHfPlClTpCh78W+voWTdIRhJ513uZyWLmMw8nmcFD/AUC5nGfKDcro/eHGA3Qxscixxvv++hoaHS+H31XS4rK6Nly5bSjMMNN9xAbm4uubm5TJ061ScfZAWFxkApBafQrNFoNG4tgGazmaysLMLCwqREz454YwEEe5FoNpudLAjH6M4FonmI99FgIYVMKSr4Md7lU8YziRW0p4hkctAzGysqZvESWfTlJImsZBIT+JQWXOAY3enbgJu64683MWWJ45SsuPwdQQjEOax3fO0rjTEFXIxwPZcCOq5CR7q0TfRGcywH11Qtf75a8URx++yzz4KPx7qjoT4+5EG+5zo+5EG+4A6O0Z15spJvOs4ixBGPBUYiWAPvaPCcvXrVT816KwBFIqnhBeaRR1emsICFPEVX8jDzAibqxVMvDnKIJMyynveQgtGDfcPb7+ozzzzj5Z7OlJeXExsba7du9+7d9O/fn/Bw3+sXKygEG0UAKjRr3CWCBiguLsZsNpOcnIxarfYqxQu4jh4W14ml4hwF4M9cAcBjLMOCmlD0PMj7/Mz/kEwOE/iUTFK4i0/5gatpSUsiGcMzvE1fsu0e0AfphQUNyQ1kKxP/eDdSHwgB7iuCFCOIi1SH9Y6vfSWYU8CugiOEppe2ZSFYzdw9QpuiEPQ05eiqFnCX7t3t8lMGiicBeJzOPM07PMT7XM52XuM17uNj+sl+gNQH3qxDQx+EWN7PwUXOS5G/jRzJiRMnyM7OJicnh8LCQsD3h04c5czmJfLoyr18gpl/sIRcFpOOAR29OYCecPLpRB0hvMBcUtnFCh5w26e3U8BXXulfZkur1Up5eblTbfGMjAyGDh2qVAdRaBIoU8AKzRp3FsDq6moMBgNpaWnS1I03/n2e9ikrK+Po0aPodDqpSsc5WvM201jIFMBCO06TRxcuEMNaJnAVm5jMIq5iE+1sMa0gWHjcxVXupy8AfcjxfO225QLb8g4Eu4yj8HOXFsZVdQ5/cAxCCYSvEQRCLFCGfcSviFixwzFy1mRb3xSmgEX8LXj22WefERoaCjSuBdCCikl8RDzneItnmM80KolmJi877FePmVIES+A46pMAOTNz5kxatGhhlxTZ01gaog0l/IunWMrbXMqrPMVC3uIZJvMvADZwPe/zMIdIYjYv8hAfuO3Lm++qVqvl559/bjACWPxxCfV+xRaLBZPJxJEjR1CpVDz33HNoNBrOnDlDfHw848aNQ6vVotVqufbaaxk/PhhFIRUUfEMRgArNGp1O5yQACwsLqa2tpX379oSE1NtXAhGABoOBvLw8evbsSW5uLka6EcbbwHXUFxKzkEs5VrSE8BpGXudHrPyEkBhYXolAFDcDqa/BK7Zc+hJOHvdS5bGygZgkRkiB6z7dy07b/p2AXNl6+UPwJ4TyZQ1VU3D1utrWR5WtyY/x1dpzzrbsArYEOQIqkEJAtDiLCEkoqlTQhPKsiYEqnmoCOxIaGkpSUhLHjx8P2jjcia5/8SRbuYKfuYJqInmLZ3iKhXRwKPkm3lH76/jM7fnCwsLo27ev3d9fq1atpD4CQUU+t/MAq5nPK7zOM7wDmHmKBXSkgK+4hTFs9JiQ3RsBOHLkSNLS0uzSRXnbzp07h9VqJTExEYvFwnXXXUddXR2rV6/mqquuIjY2VgoAadnSm2yOCgrBRxGACs0axzQwJSUl5OXlERcXh1Zr//X2xr/P1T5Wq5WTJ0/Srl072rRpQ6dOncg7dhcWbkJLKXGs4xwTacFGqhiOmoN0ZhYWrFIJMQv2tXbFh2iebSkvKVZHMpDNxgau3YLwYJ8HTMV56ld8L4qQjggC0NXDb3ID5/KGe1ysU1EvBB3r6qqxF5IWnCNl5RbAKtsyGcHSKbcASpY2q5VM4Cm8E7Gu1pkQRO0XbrZ787rSNhzxuhxRu1kPsHXbNqDeZy5QC6A7H8RD9GQ6c5nCO1zBVh5hGWHomc5cp30dv1MN8eabb9qJP0DKhReoABSTn/fmIOsYy1fcxK18hRXIpwvX8x2RVNGHHPqQQzLZJJNNH3JoxykpAr8h0tPTpeTVvlJaWkpCQgLt2rUDBH/OnTt38v777zNz5sygTu8rKPiLIgAVmjXyKeDy8nIOHjxInz59KC0t9bk+sPhejsViobKykpCQELp06YLJZKJVq1ZUHpvHZr6kLzkc4VJ68hiRpFJBWz4jndsbeMQkIli7XBXXSqQv97OS2Q1c+zMIJc/c+f6JSTNEoeRo+ZMLkBVAO5Cmth2XBoSp5DrqhaxYOqwI2AL0Q6gn7FhjV2wW6mvuOjaDbXkZ8ItsXK5SpoifkDzB8SEgOjqaC5WV5APvuTheLiodXzuep46GQhy8w4xr8eVO/KnVarp164Zer6eyUpCRjwMzEMSkzmGptb3WOqxzrJ27xdZPvfjW8CkfE0k+EczgSZJ4n4e4nmdZQYVTH4d8vO7rr7/eaV1NjWDDLUUIRHInxr2tgiOyntvQYsKEll9JpZw4m+RLZj99Wct4am1BI7Gcpw855JINvIRoc3aViPuaa67x9nKdKC8vJykpyW6d6P+niD+FpoIiABWaNVqtFqvVSl1dHVlZWXTv3p1WrVpx9uxZrwI+HNfJBaHVauXIkSNYrVYSEhKk9YJPoYG+Nh+9TFIAOEUil3KY2zzk7hNxZwEqI45TJDYYAQzOf7yOAm8XwkM1FWEa2HFqWO4bOBAY0OAZXfMLcDnwMoGJplCgp60/ueXPgmD9E3El6kLVaj744AMeeeghRldW+pCpTkAUodUIU+XhwI/Ylw8TX9fZ3huwF8iiODYg3O8DQCTIshc6j9+R6dOn88svggQuKhKmYWuotyJbsbcWi0tXIlbEhFDXONdu3QuYSUHLMOajx8RcrBTwPe/yvRd9eqJTp07U1tZSWFho5y+3YcMGAP7WwPGiQ4XGTbMCbwDLAQtJ5HMPYfyOiUHcwSg6MhctP6BFKJU3EhVGulBNH6pIpohkahiG8ydTTyBBGnV1ddTW1joFgOzevZu0tDS/+1VQCDaKAFRo1mi1WkJDQzl9+jQdOnQgMTER8M7aJ65zzA0o7lNUVMTZs2elVA5iEXetVmtn38skhVD01BHGEtK9tmC4EoAVRNOHbFp5kWPN0Y7gyrJnRhBW4DytulM2jkACOIIZBOKIKEK0CGW95IEhUD+9PXbCBNq3b49ao/FLtGgQRF84wj2JQKif6y/TEQSgK9zdp1bx8cyYMQMQvoOHDx8G4GPglgDGEgo8Ciy0vf+D/gzhVV5kLrPI4BdGcDm3sJoJTHARmmQChgJ7Ee5TQ9Onixcv5vz5805+ccnJyezYsYObbGMSLcUG7C3FRts55NZiR8uxAUG+lfMaaoqwsB3oyWkmUm6bwq4Xx1as5KEiD/gP4HkKHiAtLY3MzEyPASDuWk1NDSEhIRQUFFBWVsb69evRaDTs37+fdu3asWTJEikAZOjQofTt27eBO6qg0DgoAlChWWM2m6murkatVtOlSxdpvTf+fuJ+ju+tVitnz54lLy+PgQMHUlhYiMViQa1WS6Wb5A/BXxhOHaH05BBX8ZNX43b3AIqlghySKSfOxVZ7HNPSiv3tsy3DECxVjpY/8b0BeOCBB1ixYkWTSATtqhSckXpLl6PgVSFY4GJatGDcuHH07NkzwBFcPNTA7DlzpPfBThMi9lZHCPfyCclk8wqvYwWmMZ9BZDKetS6P9XZaFgTr+NChQ4mKinLatmOHELa0ACHIx1+0wGzgSvoxgHF8wIOcJ45X0VBDTzaT2mAS9R4IVlERx+/ukiVLiIqK8inwQ6wWUltbi06nQ6/XU1FRwaFDhzAYDFRWVpKfn09BQQEmkwmz2UyLFi0UAahw0VAEoEKzxWAwsHbtWiwWC61bt7Z7aHqT9NnVOtEimJOTQ1JSElFRUajVaukft0qlory8XGZtU7GHIYCKZTzi9djFqSxHB/1YygmhjjO0bbAPxz9eMRBCtDz9DWEa01EAipG2LVu2JC0tLWAB6GhhDAZiX98hWHxiXOwj3rf5b71Fly5dCAsLc+nLdTHwNAZXVrSeSUncc4+rMJrgpoF5lX9wmJ5kkkIIRr7gNn5jGJsZ5TFq1tt7On78eJfiD+qDQIJxPWqEa+nOUe7jY9YynhoiaUcRH3NfgwKwoesJ5MfErl276NixI5dccgl9+vRh9OjRrF+/njfeeIP//Oc/Sg5AhSaDIgAVmi3FxcWEhYURFxeHTmefj8zV1K43AtBkMmGxWOjcuTOtW7eW6nR26dJF2jc2NlZ6gO8mBTM62lHEFWzzeuyiNcuxmoUKaEOxVwLQ0SLmWFLMccpXvBsHgFCtluXLl/PHH3/Y7eMPjTkFbEEIbnBlHaxECPxo164dZrOZvLw8zC5K/V1M5PfV3fSpFVjy7rtO64MVBSz2sZNhzGcas3mRvmRjRMt05tqVfHOHq3yMrnj55ZfdbvO1EoinsRQymK+5hU+4Bx0mEigB4Ga+Zi138Q5PE+o206bn72pycrLfYzObzVy4cMFlBZDU1FRF/Ck0KRQBqNBs6dChA5MmTeKbb77xK+JXRFxnsVg4cuQIAF26dMFoNKJSqQgJCZGSSRuNRmprazETwvvcxz94mWjKWWir9est4kPQjPNUblvOeCUAHY/bYOs3ESikXmy4yvu3YeNGhg0bJj2Um9oUsOjb5y7NsBUI1+n48MMPiYmJsasH3RQSQbs63vHzkPa1VbPZtWuXnS/ZiRMnAhxFPSYimMgqUtllq6cL7/Mwx+jOOi9Cd7z5fsTExNCyZUvp78YxYXIwBeB3zKQXB7iLTwHhRxPAFWxhKen8hxu5gy/c9uHpeqZPn+732CoqKggJCSEsLKx+vFYre/bsYdKkSX73q6DQGCgCUKFZo9Vq3dYC9mWd1Wrl0KFD0nZxukqj0Ujiz2q18ttvByguvhc963iEttzGl7zMTPqT5dO4PVnN/BWABbZlCoIAdBR+YlrhHj16MGzYMKEP27U1tSngQwhC4SpgE65z/k2eOpXExET69+8vHSdeT1PCXR4+kdVr1tC1a1cnf7ILFy5AA8d6c24LA/iB6Zwkke+4Dg0WLhDlsuSbp34aYubMmezcudPtdvHHVeAC8DIOMobPuQON7ZsrCsAIahnCbj7mPp8EoPz7lZKSwqlTp/wKACkpKSEqKora2lpqamqkVD5ZWVn07t2bqqoqyY9Yq9UqFkGFi4oiABUahblz5/Lll19y6NAhwsPDGT58OPPmzQu6o75jImg5vqSByc/P5/z58yQnJ5OZmSlF/IpTyyUlMHv2BdauHUx19WBUrOIg8+nJEf/GbVu6mhJsyxn2MrDBPsQ/XsdcgvKkvWrZsgTo0rkze/fulfYVc5IFwwIY7MlX+fS4/JPLBnQaDZdddhk9evSwP0ilahI+gI54Kgl3ww03uFx/7lx9jjpfOUMbVnM3q5iIiX6cpIifuYIuHGcnw3ibp12WfHNHQ1PZGrWam266iZYtW7oNkBDT2wQqaGEWHdhrl26pFWcBKKYNE1nFFBZQQmsS3ETTu/uu6rRaSkpKfA7+EJvJZEKlUrFz5042b97MokWLpL5HjBhhd65///vfjB071u97sWTJEubPn8+ZM2fo378/ixYtYujQoX73p/DXQxGACo3C1q1bSU9PZ8iQIZhMJmbMmMHVV1/NgQMH/M6u7wp3tYB9sQBWVFRw8uRJBg0aJFmQcnNzbbU7w/jkkwTWr2+JWt2K228/x+nT09jy308IRMrKp4Ad+SfPEeLBf0lEFEfPIvwh/w+CtUyeDkZFvfhQAZs2b7bvQ7Ruej1yZ8TJrmAIr3zbUrTIWBzeg3Dvli1fTufOnQkPDw/CWRsfd8Ep//znP4N2Dj2hfMNNrGIiP3ANGszcxDcc4G2GE8qbTGMzoyknjpac40eucir55g65D6ArMdsnOZlWrVp5tGiJlXkCsQD+xChgJDdxo13Qig4T8ZylhAT+znKe5h3WMIEpUvIbexw/C/Hz6dipEykpKX6NzWq1smXLFlJSUoiOjmbUqFHMnj2bpUuXsnHjRr7++mtMJpPUHP0EfeGzzz5j6tSpLFu2jNTUVBYsWMA111zD4cOHSUhI8Ltfhb8WigBUaBQ2brQvZLZy5UoSEhLIzMzkb39rKBWs9/gyBQzOVkGLxUJRURF9+vQhMjISo9FIp06dOHo0jJUrE/jhhziiokzcccdR7r67nNatNTz8cBYWhMTH8hq+Gh/ei4mNfwZinbZXeNWfKB5PIjy8EsVrki3VCNOpVmDY8OHk5+dTWFgo3aO8vDy7Y/whmBbAzbb+ugJHsBceYpDLpT170r59e9q3b4/ZbHaahmsKPoAitbalq1rAcbGxpKenuz3WmyAQK7CLVFYxkbWMp5w4hrCbx1iKCQ1buQIzY9mMmVR28xQLGcNGhpAhTZ96g2NAkSMrV65scDozGD6APckBnmMA3zpta0MxxbQhnjJu4Fs+5j63AtDxysXrmjp1qt9jq66uxmq1SlHQKpUKjUbD3r17GTZsGC1atPC7b0fefvttHn74YcmvcNmyZWzYsIEVK1bwwgsvBO08Cv+/UQSgwp9CRYUwURnswudardblFLA3FsC6ujqqq6tp3bo18fHxmEwmyss1TJ+ezMaNWtq3tzBzZg1JSTvo1asjHTv2A0Cv16MF/onzg9Hq0BoikAS/Iu2oF4FQX35MfMjVIEw/rV692i5fGUBOjlDN5HEgnvqyYlqH157EqGgR+hLBgueLEJa/FjEB9lVkBSptY3r11Vepra1l69atTvtUVVVJia2bQsEtV8JP5JFHH+XMmTNu/cnEvxlXFNKeT7iXVUzkCD1pwxlSyERPGJmkkMFQEiliDBs5yqs8zk8s5Lzf1+FJKkZHR9O+ffsG+whGLeA4zgDzXT64EiihmDYATGQVt/A1+0mmL9lO+7q7nvvvv9/vsZWXlxMTE2NX6s1qtZKRkcGECRP87tcRg8FAZmamXbCKWq1m9OjR/Prrr0E7j8L/fxQBqNDoWCwWpkyZwogRIwJKseAKX6eAReFjNpvJyspCq9XSsmVLyXenVSstWi0sX17H7bcb2LdvD1FRcXTo0EHqZ9iwYRw+fBgD7qNUob5iQRWCCKtGsAhVI1RmOIhQszYEIWGzWGtXLDMmLuUlxsT6u0YgD8G6txS4CXvfPxX1SaBVKhXffvstISHOskosVn8cIYhEXlrMW0wIQu4HhLyD8uN9EcRqhHthwL3F6bkXX6Rjx4707dvXpQ9WrV7PN7bxqKgvH6bGXnCK7+XrRMFbjXDPL6O+7q7YvBWzYj1j8bNwtI3Fx8UxZswYCgoK3PqT5eYKxduygCjASAS/cBvfMZE9XIkWI20pJI4SimlLObGksZXpvMhofqAPB9AhVBIJp+FgFE+IFmtX07/jx4/nxIkTqFQq1Gq1ZAmUv1apVJSVlQnr/RwD1JcvdNVHG4opQZj+vJbvaUUpq5jIm0xzez0iwbD4igJQzrlz58jNzSU1NTUIZxA4e/YsZrOZNm3a2K1v06YNhw75WrVZ4a+MIgAVGp309HSys7MlJ/BgotPp3FoAHZFH/B48eBC1Wk1kZCtWy+gAACAASURBVKQkCoWgDw2ffWbAarWSnX0AlUpFr1697PoT/ebMeBaA8vJijrSyLW8G2rjY7g0fAA/LxuA49SvaPebMmeNS/AHSA+tr4Go/xwGCsFhqG48nxPq5VbZljaxdC4xHECwi4qd6AeG+p6amkpSUJPmTORIZGYmuupo+1Jcac1dSzGLbp072XhSqRuAPnAWstyJK9L90FTBhBZYsXcqQIUM89qHX6wEVM/gbcD8wFqG6sGAZNBJKIQZgNfADdWxjK7VsBV6V9aMF5tmaKIZFsSqvsevKWiu2k7a+xGsXPxedVsvEiRMJCwtzErDiDzOx7d69G2zjiHJxLndiWv5aTGJ+CNjutF8xBSRzGNBi5AbW8DH3MIUXCMNs11+1i/s9ePBgtm/f7lf0r0ql4ty5c0RHR5Odnc2GDRvYt28fer2e1q1bM2fOHKn8m1arJT09nUsuucTTx++SuXPn8tlnnwFw3XXXMXLkyEYJrlP4a6AIQIVG5YknnuDbb79l27ZtXk0T+Yo/QSDHjx+nsrKSwYMHk5OTg8lkkvoSjxGjglNTU+2mdKDemb2hmqie8BQE4i2Of7yOFkAj8Pjjj/Pkk+5zFIrXEgz/PW+sKCG25qqyh/hwdkQUZosXL6ZLly4eAz8iIiJIq67mGy/G4o4WtvF5Fx7hmmnAmwgpcmpcbL/xxhs9Hp+Xp2L16hSgGGiNCjNWNIRQSQ820YWNtOdHIiikDkHEOlqIxbYJaA10w3WdXXmzUG85ljfxs5VP+QNc2qMHycnJbgW5nLCwMLTA27b3/rpNqIC5tmbPOiCTJOn9x8BTdOAqYKPT3o58+OGHxMfH+xX9azQaKSkpITY2FrVaTXx8PAkJCeTn59O2bVvUajUGg4Ha2lqpDJw/bN26lSeeeIJHHnmEV155hc2bN0vBdcXFxbRt23D6KAUFEUUAKjQKVquVyZMns379erZs2WJXpzeYiALQEXcCsKamhpKSElJSUqRf43l5eVIwhOP+O3bscPqlX1ws5BwLRLyJVrtA+nAUS+KDucL2WqvVMmPGDMrLy91aLYxGIbTizxKAvvYlLq+76Sa6du1Kp06dPB7XHPKqffzJJy7Xl5TAW2/p+PJLDadOiSm9rXQgh/tZxxh+YCi70fr4rQlFsMzODmDMYu1cx7s7a9Ysr8QfQGpqKpmZmVQiiGx3yK3E1QiCVLQSHwSeQPBZHQCS+K0F6vgFA79IYljP73xJNtFMZAgbMSD8XRiAbThPZ3fv3t2r63BFcXExUVFRUh9du3YFhBQ/Dz/8MJMnT/a7bzlicN37779PXl6eFFyXkZHBTz/9xBNPPBGU8yj8NVAEoEKjkJ6ezpo1a/j6669p0aIFZ86cAYQpx2Cm7vAlCriuro7Kykr69u1LREQEJpOJnj170rt3b2n/6upq9u7dS/fu3SVrACAFTlitVinNQjDEWyDCS+zDUSztQ/jDXrR4MTk5OXZBH45BIKKfWTCqeDRGEba9tn7vv/9+YmJipHrM7prFYmmSeQBFdDodN954G4cOqTh0SM3hw+JSzalTUFqqJiTEyogRZkaOPMqcOSNYThljAjxvoLJYfk/FlClt2rRpcBpbjrdBIJ6sxKJwHAnc6cU5e7GKl5nJh8QQK8uYGQ+UyfYLRPyB4P/nmNbFbDaTmZnJvHnzAurbFVOnTmXixImSb/KSJUuorq5Wqo0o+IQiABUahaVLlwJwxRVX2K3/6KOPAoq0c8TdFDDYp3zR6/UUFxcTGRlpF/QREhIiTfEajUYOHDhAhw4d6Nixo9tzimkeLrYF0PGPV15qbOG773Lvvfc22IfoSN4ULICu6v2eAZ5//nkiIiJQq9VSqg1HIev4vqkgTGsOw8x1QG9CQgYTHx+G2Sx856KjjXTuXEOnTrVcdlktPXvWMnToBdRqFdnZ2djLFP8JVAC6uqs333yzT7nsgpEGRiwR6G0fd7OaF3iDzxnLw3zgdr9p05wDRXyhvLzc6X/G4cOHMRqNdpVqgsW4ceMoLi7m+eefR6VSUVBQwMaNG50CQxQUPKEIQIVGwZUgaww8BYGI60wmE1lZWURERBAWFibljtPpdPWVMCwW9u/fT0RERIPWgGD4AAYjd57jFLCYRDkmJoaJEyd6N44/2QewIRyDDDp26MCIESNISUkhIiKiweN1Ol1QhWhwGImV+9HpjnH77TF063aObt3q6NbNQFycCXD0KRMCk8TPJhjWu2Bfkw4YM2YMP/30k9dBEqdPnwYCE4BienRvC/614zRXsYlVTLQTgI7fkVGjRlFWVuYyirmhZrFYuHDhglME8O7du0lJSZGqCQWbNWvWoNfrefDBB/ngA/fiVkHBHYoAVGjWiBZAR8uPPOL3wIEDaLVa4uPjqaiowGq1SvU4RY4ePYper2fo0KEN+pEFUwAG0wL4OxAdEcGJEye878N2LU1tCjgf4fpefOklOnfu7JX4A1uqnyCcP9D7Ia9gAvPQ8gaLF7/HPfcMRZBPDVfDOXv2rKyPwAj2FHBKWhqpqakuo38dm/i3KSZCDoYA9KWPiaxiEh/ZlYaTX49WoyEvL8/rgA937NixAxACr86ePSv9H2ndurXkb6zRaDh+/LhTYJmvjB07lj179pCUlCTNSCgo+IoiABWaNVqtVorilSMKwNzcXKqrqxk8eDCnTp2itraW0tJSNBoNGo0GlUrF+fPnOXXqFD179qSiosKrX/xw8QWgKyvIV27y/blDfEg1BdEkpxa444476Ny5M507dw5izxcDKyqVinvuuceno4I5nR3sKeD09HSfS5mJlrBAxiJGVPsin25lPdfwAy1libDl19Ord2+nOr3ukPsEi+I2Pz+fqqoqkpKSsFqtbNiwAb1ez+TJkxk/fjxXXnklZrNZKgEXiPizWq088sgjrF+/ng8++ICVK1f63ZeCgiIAFZo1niqBGAwGTp06RUpKChqNhqioKEJCQqRi7yD4/VVXVxMWFkZ+fr5XFoBTp04BwfEBDEYJtnW2Zbdu3YiNjeXo0aN2CXg9TWWJyXkDlRruat36inhPNSoV9957Lz179rSz1HpDUwwCWbB4sd/HNgULoJyQ0FDS0tJ8Pi4YPoD+WADDqCNM8h60jUX2+s47vQknEZD/XYEwA1FZWUmrVq0ICxOqYvfo0YPKykoyMzP58ssv7ZLIB0p6ejorV67k1ltvZcyYMSxfvpzq6mpqa2ubTV1shaaDIgAVmjXugkBqamrQ6/UMGDCA8PBwTCYT0dHRDBo0SPoFrtfr2bVrFz179vQY9OGI4JxfX7HCn4eraKMLhhVxBdCxfXvWrVvnMgGvqyk58X6J04zBsDUFo4+vEO7nFVdeKU2XiVUmvGkmk6lJ+QCabP3dd9990j33NlVNMP1ogzkFfOvtt/sVbOBNbeOG8EcAukJ+PYHU/7VarVRUVDj5DWdmZkr1qoOJGFy3bt061q0Tfvr9+uuvjBgxIqjBdQp/DRQBqNCscSUAa2tryc/PJzQ0lNjYWCniVx70YTab2bdvH61atfL5F7qYzkLMvS9WVnBVVcFdZYXTtmPvRUh3IS835q6GruN6sTpDqFrNf7ds8auygJjTMBu4xM153DXHOr7BEF4VQM+ePXnyySfp1q0bISEhPiXkDVYewGBJrzqEOsw//fSTtM5bMSv+0GgKFkB5qqEHHnjAyVVC/LuSv3cMpjCZTC7L4vmC0bYMVAAGa3K9qqoKq9Xq5Ie3e/dur/yJfaGwsJCEhAQ2bdpEv35CXfIrrriCAQMGKOJPwS8UAajQrHEUgGLEb1xcHLW1tXYRv+JUohgY4qrMmzc8/vjjZGdnExYWJmX1NxqNmEwmaSk2s9ls5/8jvo+qrqasoICShASKrVYhelW03lksWByWVpvVzmq1Sq8tFgsai4XXZs/2S/yBUDpNDcy0NX/RAM8gVMBwJYIbEpNaBOuOFnjttdfo3LmzT1ZZEaPRSC5ClQhPgtXTOjFZ8C4fj3MUxABxLVqwYcMGj1ZY+Xt5O39e8FlrClHAopdtfNu2UrokXwMmzpw5E/A4fI0Cdoc4IdyxY0fy8vL8Lv929uxZIiIiqKiooK6ujiNHjqDT6fjtt9/o168fx44dQ6PRoNVqCQsLo3Xr1n6P+ccff6SkpMQprcy2bdtYvHgxdXV1PrtLKPy1UQSgQrNGngbGYrGQk5NDaGgoiYmJHDlyxGXE74kTJ9yWefOGsLAwVqxYEfDYq6ur2bVrF3379g3owRAIUVFRZGRmsn37dgDa2h7wBoNBWsqbKHLl+xiNRrZs2ULXrl2Ji4tzK4Qdl2azGaPJRJ3FgtlsJrqiguuuu464uDi/K8dccsklHCsv5zUxChz7Gr/eUgP47uXmzNTnnvM7DYgY+TwDaIvvQlZcB7ADWOBin4YsveI20WI9efJkLr/8cq9+NDkGTLz77rsBC8BgWwAXLVpETY0QWuJKhDfU9Hq9ZK0tKiri2WefxWw2YzAY2L59O4sWLZK+74MGDSIzM9Ov8Z4/f57XX3+dm2++mXHjxhEXF0dBQQGLFi1iwIABPP/884r4U/AZRQAqNGvEKGCr1cqxY8eora1l8ODBlJeXYzAYOH78OBqNRpqGqq2tpbi4mMTERE6fPu3Tr335NJe3OcI8RRJnZWXRvn37iyb+RCIjI0lKSmLYsGFel/VqDIxGIzt27PAr8ENkz549HrebTCYMBgN6vZ66ujppKQpasVrM7t27iYmJoV27dtIx8iYKX3Gb+F5cp9frMZvNAfmXDR06lLi4OI5YrZzQ6ZwswhaLBSwWLHJRIooYsFtuQqgJ7EvNXVfcdNNNXlvMHQMmioqKMAPRuBaf4mu5G4ToFqGxLY/b+v4HsBzvxazjepHRo0f7cvlO/PLLL/Tq1Yv4+HgA7rrrLnJzc0lJSaGsrEwS8YEmKZ83bx4dO3bkq6++slu/Zs0a4uPjSU5O9v8iFP6yKAJQoVkjTgEbDAaKi4tJSUlBrVYTERFBu3btpIeP2Wymrq6O0tJSYmJiMJvNVFZW+vyL35vgCl+c96urqzl58mRAYtIb4eopaKKgoIDExEROnToV1L69bSLHjh0jOjq6UQWxmI/NU15BvV6PTqdj6NChUu66i0FUVBSbNm3CbDYH/QFvsVgkMSuKYFEQm0wm6b0ois+fP4/FYqFdu3Z+n3PZsmU8//zztGjRwqV12GQyYbFZg2ttFmKxiesNBgOcO8fvERGE2ESxnYuEKyseOC1B8DUNBL1eT21trcsE0P3797eLylWpVAFZ6L755huuueYaxo4dy9atW0lMTOTxxx/3uz8FBVAEoEIzR6vV0qVLF6qrq0lLS5P88nQ6HT169LAr87Zr1y46d+4ccN1Pb/AkFEtKSjh27Bj9+/cnNDTUrZgU+/FnasqTSJX3d+7cOcLCwqQHfTCFsDj+hhBFoDhdv23bNsD7SgzBFqvFxcVERUVRUVFBZWXlny6ERcQ0RkOHDg3W11JCrVYTFhZGWFgY0dHRDe5//PhxysrKpFQn/pCSksLmzZv9Ph6E78j27dvp06ePZHW7WFRUVBAVFeVkNc/IyAh6AEheXh5Lly5l6tSpzJgxg4yMDJ588kmWLVvmddUfBQVHFAGo0KzJz8+nsLCQ/fv3c/XVV7uM+BWnW6OioujWrdufMi53D/WamhqOHTtGnz59aNmy5Z8yFncUFBRQXl5OWlpao039eisYs7KyiImJoUOHDl5ZWIMlhOVjtFgsGI1GKioqiIuLk/JFBnIOef8N4SgmxeCmP/74o1GEMHgnssXvSkJCQoNuE40hhOVcuHABs9lMXFxcIF/LoFBeXu6UDNtqtZKRkcGUKVOCei6LxcLgwYOZM2cOAAMHDiQ7O1sRgAoBoQhAhWbN9OnT0ev1pKamShG/rsq81dXVBf1Xua+IQqddu3YkJCRctHGAMPV87NgxBgwY0Kh+f9481E+ePInJZArI9y9YZGVlkZiYSO/evYPar6/i0Ww28/vvv9O1a1diYmIaTQi7yhnp2L/o41hVVSWlPQmkNYRcTDq+F/19f/vtt6AIYbF/f4RraWkprVq1oqSkhIKCAimRfG5uLiEhIezatUuKAE5ISPB7+txsNhMeHs7+/fsJDw+nXbt23H///SQlJfHFF1/41aeCAigCUKGZs3z5cvr374/RaJSmEOWC5uTJk5w+fZqhQ4de1AAHgCNHjqBSqbj00ksv6jisViENTrt27S66FdJoNHL06FF69ep10cXfhQsXKC0t9bosmC94I4TlFBUVERoaSseOHS/qjxaAAwcOEB0dTa9evQLuK1DxmJ2dTdu2bYmLi/MqlU4whbDjttraWs6fP095eTn/+c9/WL9+vRRM9Nxzz9n5Of79739n7ty5ft2zefPmodfr6d69Oxs2bGDPnj1MmjSJlJQUOnXqFPBnovDXRRGACs2axMREAOrq6sjNzUWtVku/5quqqjh//jxt2rRxmroKdKrK1+NLSko4ffo0aWlpAReCD5SCggLq6uoYNGjQRR0HQG5uLtHR0RfdIgpCEEqHDh0C8nMLBlarlYKCAjp16nTRxZ/ZbKa4uDho3xVfhbCc2tpa9Ho9nTp18ju1TrAoKysjOzubtLQ0VCoVaWlpzJ49m4ULF7Jjxw6+/fbboJ1r586dXHPNNXz//fesWbOGO++8k169evHLL7+watWqoJ1H4a+HIgAVmjViVY7Vq1cTHh4upXwxGAxs2bKFCRMmoNfrUavV0jaNRiO9Ft+rVCqndeJrT+vkglO+n/wcpaWlnDlzhgEDBrBjxw6PU1yNLUjr6uo4deoUiYmJFBUVNYooBs++ZSIXLlzg5MmT0kP0YnL+/HnOnz9Pnz59Luo4QCjPZzQa/U7uHUxKSkoIDQ31KlCksTl79iyxsbEXXfxBvf+f4/d29+7dftVJ9sTw4cNZvnw5ixcvZvHixbz22mtYLBbuv/9+7r777qCeS+GvhSIAFRqVJUuWMH/+fM6cOUP//v1ZtGhRUKMaIyIiuOyyy7j00ktRq9VCConaWr744gvatGlDRUWFXZoJV82xUoen7a7eG41Gj2MMDw+nY8eOvPHGG5JPkHwptobeu1rvKGgd95WvA/j555+56qqrCAkJaVD4eiOC5cLXcT9HoS0+LFUqIQ/irl27SE1NJSMjI2ALayCiGIQyW3FxcZSWlgZVEIvXK+9LXOeO/Px8OnbseNEtxQCnTp2yS6d0MSktLb3oOTNFysvLadWqld06q9XKnj17SE9PD+q5XnjhBSorK3nsscektFezZ89m+vTpQT2Pwl8PldUbr1wFBT/47LPPuO+++1i2bBmpqaksWLCAzz//nMOHDzfqlJ/VamXVqlVMmDCBkJCQoPTX0DaLxWInDsWEwD/88ANvvfUWn376KRqNpsEqGY7b5Pu42iY/n6t+5GI1KyuLEydOcOWVV7rsx5NQbkgEi7naPCH6Z2o0GkJCQjCbzURGRkq+m76K4IYEryeRLBeqpaWlHD9+nJEjRwJ4JYLdCV9fRLCrdurUKUwmE507d3YSoH+224Lon5mUlERISIhHUetv8xaTycSWLVsYPny4xxyOfwZWq5UtW7aQkpJiZxktKiqiV69elJWVOeUG9JZt27Yxf/58MjMzOX36NOvXr0ev1zNt2jTmz59P7969eeWVV/jmm2/QarX87W9/Y+nSpRfdr1iheaIIQIVGIzU1lSFDhrB48WJAEEkdOnRg8uTJvPDCCxd5dH8edXV1hIaGXuxh8N1339GqVSu/LLDeimC5MHQnZo1GI7fddhsPPvggI0eOdCoT56sIFsW3fJs7EexqLDt37qRLly5SgnBfRLDjOm9FsFqtdhK9YpBSXFycVNfVkwh217wRwY4uEa6E8YEDB4iKipKs6/40f0SwO2Gs0Wgka+SfbSWWN71ez5EjRxgwYABqtZqDBw9iNpvZu3cvK1askMSZ2Fq1auW1X+n333/Pjh07SElJ4bbbbmP9+vXS/8v09HTmzZvH3Llzuf7669mxYwf9+/dn//79HDhw4KL7rio0PxQBqNAoGAwGIiIiWLduHbfccou0fuLEiZSXl/P1119fxNEpXGwuXLhAVFTURZ9arKmp4fXXX+fVV1+1q9zgimCKYFft3LlzjBs3jqVLl9K6desGRbAr1wVfRLA7sSsel5WVxaWXXioJbHfn9FUEu3KDcLcUm16vl3zuvBHEnkRwQ8uGXCPy8vIwGAz069cPtVrNwoULKSkpke6bTqezuxfffvst119/vc/fTZVKxfr163nwwQeZNWsWjz76KO3ateOZZ57BaDTy0UcfkZGRQZs2bVi5ciXjx4/3+RwK/9fevcdkWT5+HP8oRCgphk4OSwTzmHkgBWZQyjSN8IBmnpHULStIETMtRb82EXCGeMTpPDW17A+xtKU5Asx5hmraTDRNCwfMOXXijCee+/vH9wcDD6T+Hp4buN+vzT+47keuDw7Hh+u+r+uxNp4BRJ24du2aKioq5O3tXWPc29tbv/32m0mpUF+Y+RZr1TVv3lypqamP9NraymrltcqVvSdd8b18+fJ9/2fMcOvWLc2aNUvr1q2r8bU4qgTXdv3eMvv3339r2rRpmjBhggIDA2stro9SgsvLy/+1jNc2x/Xr1/XMM8/ou+++qxpv0uR/G6xiYmK0ZcuWR/r3elTDhg1TcnKy3NzcVFxcrKZNmyo9PV1Tp06Vp6enQkNDdfToUQogHhsFEADqifpQ/iSpZcuW2rRp033jzijBD9K7d2917NixajOTmWbPnq3o6GiFh4fXGK/+7i+VHLHCvXr1aiUlJWn+/PmSpJUrV2r69OlauHChpP99zxQXF/+/54H1UABRJ9q0aSMXFxeVlJTUGC8pKZGPj49JqQA0RF26dDE7QpXPPvvsgePVN8k4UosWLZSRkaExY8YoLCxMx44dqxdHBKHhM/+cATRKbm5u6tOnj7Kzs6vG7Ha7srOz1a9fPxOTAUD9c+jQIQ0bNuyBx+7YbLaqQ587dOggPz8/TZ48WVevXuWXajwxCiDqTGJiojZu3Kht27bp7Nmzeu+991RWVqYpU6aYHQ0A6pWysjL16tVLa9euve/anTt3dPHiRXl6emrGjBnavXu3zp07p6ioKB0/fpxfqvFE2AWMOrVmzZqqg6B79+6tVatWKTQ01OxYAFDv3L59WxcuXFBQUJAkKT09XREREfLy8pK/v7/S0tKUmpqqbdu2qaysTBMmTFC7du1UWFjIMTB4bBRAAADqgdzcXEVERNw3Hhsbq61bt8owDC1atEgbNmzQ9evXZbPZlJ+fXy/e1xsNDwUQAIB6pPIMwOpnqFZ39+5dhYWFqWvXrtqxY4eT06Gx4BlAAAAaCJvNpjFjxsgwDGVmZpodBw0YBRAAABPVtgO4OpvNps6dO2vv3r168803a7wXMfC4KIAAAJioth3AlWw2m8LDw1VcXCwfHx95eHg4MSEaIwogAAAmioyM1Lx58xQYGFg1dunSJf3888+6cuWKbDaboqKilJ+fr+3bt8vV1VW3bt1ScXGxysvLTUyOhoxNIAAAmKy2HcALFy7U888//8C/l5OTowEDBtRxOjRGrAACAGCyAQMGqHI9JisrS4ZhyDAMbd26Vbt27dJrr70mu90uwzDUvn17rVixQoZhUP7wxHgvYAAA6qn8/HytXLlSBQUFtW4QAR4XK4AAANRTP/74o0pLS+Xv7y9XV1e5urrq8uXLmj17tgICAsyOhwaMAohGY+3atQoICJC7u7tCQ0N14sQJp2dISUlRcHCwWrRoobZt2yo6Olrnzp1zeg4ADcO/HQETExOjPXv26JVXXlGzZs3k5uamp556StOnT9eBAwdMSIzGggKIRmHXrl1KTEzUokWLVFBQoF69emnIkCEqLS11ao68vDzFxcXp2LFjOnjwoGw2mwYPHqyysjKn5rhXamqqmjRpooSEBNMyFBUVadKkSWrdurWaNWumHj166NSpU6blAeqDsrIydevWTR9++GHVWPUdwDdu3NCUKVMUHBysQ4cO6fTp02rVqpV8fX3VpUsXE5OjwTOARiAkJMSIi4ur+riiosLw8/MzUlJSTExlGKWlpYYkIy8vz7QMJ06cMAICAoyePXsaM2fONCXD9evXjfbt2xtvv/22cfz4cePixYvGgQMHjAsXLjg9yz///GMsWLDACAgIMNzd3Y0OHToYn376qWG32+t87ry8PGPo0KGGr6+vIcnIysqqcd1utxtJSUmGj4+P4e7ubgwcONAoLCys81wwV05OjiHpvj+xsbHG2LFjjUmTJtV4ffv27Y0VK1aYlBaNBSuAaPDKy8uVn5+vQYMGVY01bdpUgwYN0tGjR01MJt28eVOS5OXlZcr8t2/f1sSJE7Vx40Y9++yzpmSQpLS0NLVr105btmxRSEiIAgMDNXjw4IcebVHXWTIzM7VmzRqdPXtWaWlpWrZsmVavXl3nc//bgb/Lli3TqlWrtH79eh0/flweHh4aMmSI7t696/As99563LNnT9U1m82muXPnqkePHvLw8JCfn58mT56sq1evOjwHHr4DePPmzfr222/VuXNnDRkyRG3btlVoaKgyMjJMXc1H40ABRIN37do1VVRUyNvbu8a4t7e3iouLTUol2e12JSQkKCwsTC+++KIpGeLi4hQVFVWjHJvhm2++Ud++ffXWW2+pbdu2CgoK0saNG03JcuTIEY0YMUJRUVEKCAjQ6NGjNXjwYKc8MxoZGaklS5Zo5MiR910zDEMZGRlasGCBRowYoZ49e+rzzz/X1atXa5QzR6mtjN65c0cFBQVKSkpSQUGBdu/erXPnzmn48OEOzyHVXkbv9e6776pJkybKyMiokyyPmufs2bMaPny4PD095eHhoeDgYF25csWhOUpLS3X79m2lpqbq9ddf1/fff6+RI0dq1KhRysvLc+hcsB6Ogx8hHwAACBxJREFUgQHqSFxcnM6cOaPDhw+bMv+XX36pgoICnTx50pT5q7t48aIyMzOVmJioTz75RCdPntSMGTPk5uam2NhYp2Z5+eWXtWHDBhUWFqpz58765ZdfdPjwYaWnpzs1x70uXbqk4uLiGmXd09NToaGhOnr0qMaNG+fQ+SIjIxUZGfnAa56enjp48GCNsTVr1igkJERXrlyRv7+/Q7NUltGpU6dq1KhRD31dVlaWjh07Jj8/P4fO/7h5fv/9d4WHh2vatGlavHixWrZsqV9//VXu7u4OzWG32yVJI0aM0KxZsyRJvXv31pEjR7R+/Xr179/fofPBWiiAaPDatGkjFxcXlZSU1BgvKSmRj4+PKZni4+O1b98+HTp0SM8995zT5//zzz81c+ZMHTx40OE/lJ6E3W5X3759tXTpUklSUFCQzpw5o/Xr1zu9AM6bN0+3bt1S165d5eLiooqKCiUnJ2vixIlOzXGvytXq+raSXenmzZtq0qSJWrVq5fDPXVsZrVRUVKQPPvhABw4cUFRUlMMzPE6e+fPn64033tCyZcuqxuricYY2bdrI1dVVL7zwQo3xbt26mfaLJRoPbgGjwXNzc1OfPn2UnZ1dNWa325Wdna1+/fo5NYthGIqPj1dWVpZ++OGHGu/t6Uz5+fkqLS3VSy+9VHV2WF5enlatWiVXV1dVVFQ4NY+vr+8Df4g5+pbZo/jqq6+0Y8cO7dy5UwUFBdq2bZuWL1+ubdu2OT1LQ3H37l3NnTtX48ePV8uWLZ0+v91uV0xMjObMmaPu3bs7ff57szzouby6uE3v5uam4ODg+46SKiwsVPv27R0+H6yFFUA0ComJiYqNjVXfvn0VEhKijIwMlZWVacqUKU7NERcXp507d+rrr79WixYtqlZuPD091axZM6flGDhwoE6fPl1jbMqUKeratavmzp0rFxcXp2WRpLCwsHrzQ2zOnDmaN29e1S3VHj166PLly0pJSXH6amR1lavVJSUl8vX1rRovKSlR7969zYolm82mMWPGyDAMZWZmmpIhLS1Nrq6umjFjhinzV1f9ubwlS5YoLS1N+/fv16hRo5STk/PYt2Vv376tCxcuVH1ceQSMl5eX/P39NWfOHI0dO1avvvqqIiIitH//fu3du1e5ubkO/spgOWZuQQYcafXq1Ya/v7/h5uZmhISEGMeOHXN6Bj3gKAdJxpYtW5ye5V79+/c37RiYEydOGK6urkZycrJx/vx5Y8eOHUbz5s2N7du3Oz2Ll5eXsW7duhpjS5cuNTp16uTUHLrnGBi73W74+PgYy5cvrxq7efOm8fTTTxtffPGFU7NUKi8vN6Kjo42ePXsa165dq9MMD8ty6tQpw9vb2ygqKqoac+YxKPfmKSoqMiQZ48ePr/G6YcOGGePGjXvsz1/bETCVNm3aZHTs2NFwd3c3evXqZezZs+eJvx6gEiuAaDTi4+MVHx9vagbj/45yQE3BwcHKysrSxx9/rE8//VSBgYHKyMgw5bm7YcOGKTk5Wf7+/urevbt++uknpaena+rUqXU+97+t9iQkJGjJkiXq1KmTAgMDlZSUJD8/P0VHR9d5tntVrvydP39eOTk5at26tdMzSDXfCq1SRUWFZs+erYyMDP3xxx9OzePo5/KqHwHzMFOnTnXK9yeshQIIWITZt4yGDh2qoUOHmppBklavXq2kpCS9//77Ki0tlZ+fn6ZPn66FCxfW+dynTp1SRERE1ceJiYmSpNjYWG3dulUfffSRysrK9M477+jGjRsKDw/X/v3762QjT21l1NfXV6NHj1ZBQYH27dunioqKqscZvLy85Obm5vA8DxMTE3PfMUZDhgxRTEyM0x/xkHguD41HE4MlCwCwnNzc3BpltFJsbKz+85//PHQDU05OjgYMGODQLNXLaFBQkNLT0xUREVG1MnqvgIAAJSQk1NlhyP+WJysrS2PHjtXatWurnstLSEhQbm6uwsPD6yQT4GgUQACAqWoro1u3br1vvK4L4KPk2bx5s1JSUvTXX3+pS5cuWrx4sUaMGFEneYC6QAEEAACwGM4BBAAAsBgKIAAAgMVQAAEAACyGAggAAGAxFEAAAACLoQACAABYDAUQAADAYiiAAAAAFkMBBAAAsBgKIAAAgMVQAAEAACyGAggAAGAxFEAAAACLoQACAABYDAUQAADAYiiAAAAAFkMBBAAAsBgKIAAAgMVQAAEAACyGAggAAGAxFEAAAACLoQACAABYDAUQAADAYiiAAAAAFkMBBAAAsBgKIAAAgMVQAAEAACyGAggAAGAxFEAAAACLoQACAABYDAUQAADAYiiAAAAAFkMBBAAAsBgKIAAAgMVQAAEAACyGAggAAGAxFEAAAACLoQACAABYDAUQAADAYiiAAAAAFkMBBAAAsBgKIAAAgMVQAAEAACyGAggAAGAxFEAAAACLoQACAABYDAUQAADAYiiAAAAAFkMBBAAAsBgKIAAAgMVQAAEAACyGAggAAGAxFEAAAACLoQACAABYDAUQAADAYiiAAAAAFkMBBAAAsBgKIAAAgMVQAAEAACyGAggAAGAxFEAAAACLoQACAABYDAUQAADAYiiAAAAAFkMBBAAAsBgKIAAAgMVQAAEAACyGAggAAGAxFEAAAACLoQACAABYDAUQAADAYiiAAAAAFkMBBAAAsBgKIAAAgMVQAAEAACyGAggAAGAxFEAAAACLoQACAABYDAUQAADAYiiAAAAAFkMBBAAAsBgKIAAAgMVQAAEAACyGAggAAGAx/wWAkixcYSoJkQAAAABJRU5ErkJggg==;" vertex="1" parent="1">
          <mxGeometry x="42.43000000000001" y="2320" width="640" height="480" as="geometry"/>
        </mxCell>
      </root>
    </mxGraphModel>
  </diagram>
</mxfile>
